<svg id="Capa_1" data-name="Capa 1" xmlns="http://www.w3.org/2000/svg" viewBox="0 0 366.71 356.37"><defs><style>.cls-1{fill:#010201;}.cls-2{fill:#010101;}.cls-3{fill:#020301;}.cls-4{fill:#dc6544;}.cls-5{fill:#17150a;}.cls-6{fill:#edeae3;}.cls-7{fill:#e6e1d1;}.cls-8{fill:#d8d7d6;}.cls-9{fill:#f2d050;}.cls-10{fill:#f2f0e3;}.cls-11{fill:#16140c;}.cls-12{fill:#11110a;}.cls-13{fill:#141309;}.cls-14{fill:#2b2615;}.cls-15{fill:#050504;}.cls-16{fill:#f5db78;}.cls-17{fill:#13130d;}.cls-18{fill:#090906;}.cls-19{fill:#1a1a1a;}.cls-20{fill:#1c1a0f;}.cls-21{fill:#2b291d;}.cls-22{fill:#4c421d;}.cls-23{fill:#0b0b07;}</style></defs><path class="cls-1" d="M283.74,113.06a1.6,1.6,0,0,1-2.5.36c-.56-.43-.94-.43-1.18.31-.06.19-.26.49-.37.48-1.46-.14-2.58,1.21-4,1a4.54,4.54,0,0,1-3.17-2.31c-.54-.92-1.05-1.24-2-.76-1.36.69-1.41-1-2.3-1.24-.32.09-.24.39-.25.64-.15,14.14-.62,28.28-1.23,42.41-.31,7.13-.67,14.27-1,21.41-.09,1.83-.89,2.53-2.75,2.59-1.6.05-3.2.21-4.8.16-1.13,0-1.27.51-1.1,1.37.59,3.13,2.6,5.09,5.35,6.39.87.4,1.86.54,2.74.9,1.07.44,1.24,1.35.31,2-3.85,2.5-11.45,3.91-15.11,1.06-1.2-.94-1.95-1.2-3.3-.18s-3,.66-4.56.47c-1.07-.13-1.05-1-.78-1.9.83-2.66,1.63-5.34,2.48-8,.65-2,.67-1.95-1.36-1.89-2.25.06-4.5,0-7.1,0a2.74,2.74,0,0,1,.24,2.65,22.69,22.69,0,0,0-.79,5.57,7.23,7.23,0,0,0,2.62,6c.35.28.87.55.69,1.16a1.53,1.53,0,0,1-1.36,1,4.82,4.82,0,0,1-2.66-.47c-2.78-1-5.33-2.31-6.58-5.22-.27-.63-.49-.54-1.06-.26a3.68,3.68,0,0,1-3.8-.49c-.81-.55-.59-1.26-.28-2,.92-2.23,1.77-4.49,2.75-6.7.43-1,0-1.13-.76-1.15-1.07,0-2.15.06-3.21-.05-2.23-.21-2.91-1.63-1.73-3.58a77.43,77.43,0,0,0,4.18-7.56,27.34,27.34,0,0,0,2-5.84,110.11,110.11,0,0,1-13.37,6.59,8.35,8.35,0,0,1-3.2,1.58,45.28,45.28,0,0,1-6.77,2.56c-1.75.55-1.78.78-.7,2.29,2,2.84,3.68,5.88,3.94,9.4a15.66,15.66,0,0,1-1.72,9.17c-2.84,5-5.18,10.27-7.84,15.36-2.51,4.81-4.77,9.74-7.34,14.51-.86,1.61-1.52,3.33-2.51,4.86A1.5,1.5,0,0,0,187,230c4.7,3.31,9.17,6.92,13.64,10.54.82.66,1.65,1.29,2.42,2,1.27,1,2.53,2,3.85,3A52.56,52.56,0,0,0,211.2,249c.88.59,1.6,1.4,2.54,1.91a1.78,1.78,0,0,1,.77,2.58c-.33.73-.69,1.44-1,2.16-.58,1,.14,1.26.8,1.66,1,.61,2.3.8,2.82,2.06.66.44,1.3.92,2,1.31,1.85,1,2,1.28,1.09,3.26-.61,1.35-.84,3.08-2.79,3.38-.57.09-.29.58-.25.92a17.28,17.28,0,0,1-1.8,9.94c-.23.49-.46,1-1,1.18s-1.32,0-1.12-.81c.72-2.82-1-4.79-2.29-6.89a16,16,0,0,0-2.38-2.82c-.67-.68-1.12-1.9-2.52-1.25-.19.09-.63-.34-.94-.54l-9.61-6.41c-2.35-.7-3.94-2.63-6-3.77-3-2.22-6-4.34-9-6.46-.77-.8-2-1.06-2.49-2.22-1.57-1.32-1.58-1.33-2.43.38-4.91,9.82-9.87,19.61-15,29.3-.7,1.31-1.25,2.69-3.21,2.13-.78-.23-.75.5-.87,1a48.86,48.86,0,0,1-3.37,9.72c-.51,1.13-1.16,1.57-2.4.93a6.61,6.61,0,0,0-1.87-.39c-.71-.12-1.58-.34-1.78-.95-.6-1.81-1.81-1.18-3-1-3.63.63-7.16-.05-10.66-.92a4.58,4.58,0,0,1-1.14-.59.73.73,0,0,1-.37-.82.66.66,0,0,1,.73-.51c4.21.26,6.2-2.88,8.46-5.58a16,16,0,0,1,1.81-2.24c.61-.49.73-1-.32-1.29-1.62-.48-1.83-1-1.14-2.62q5.76-13.37,11.55-26.74c1.49-3.45,2.94-6.91,4.52-10.32.55-1.18.25-1.61-.83-2.18a52.66,52.66,0,0,1-12.81-9.14A14.59,14.59,0,0,1,140.87,209c4.84-9.77,9.7-19.53,14.93-29.09,1-1.77,1-1.78-.92-2.37A24.49,24.49,0,0,1,143,170a16.33,16.33,0,0,1-3.75-8.75,8.18,8.18,0,0,0-.52-2.17c-3-7.46-1.54-14.18,3.53-20.22,2.08-2.48,4.25-4.84,4.34-8.36a23.07,23.07,0,0,0-1.25-7.93c-1.52-4.58-1.66-9,.74-13.65-1.56,1.47-2.18,3.13-2.78,6.87-.48,3,0,6,.3,9,.38,3.58.75,7.18-1,10.57-1.41,2.75-3.53,5-5.47,7.32-4.15,5-5.46,10.58-3,16.8.11.28.43.65,0,.83s-.79-.24-1-.62a13.57,13.57,0,0,1-1.5-9.8c.91-4.33,3.35-7.86,6.18-11.07s3.46-6.89,3.14-10.9c-.16-2-.5-4-.73-5.92a23,23,0,0,1,1.2-10.47c-2.31,2.24-3.31,5.13-3.92,8.11a23,23,0,0,0-.26,9.29c1,4.88-1.6,8.34-4.85,11.44-1.08,1-2.28,1.94-3.43,2.91-1.41,1.29-2.18,1.36-3,.3a1.35,1.35,0,0,1,.22-.43c.63-.57,1.19-1.26,2.16-1.25a30,30,0,0,0,5-5.15,9.8,9.8,0,0,0,1.88-7.26c-.21-1.92-.84-3.78-.84-5.74,0-.72-.54-.83-1-1a10.38,10.38,0,0,1-4-2.6,9,9,0,0,1-.52-11.8c3.52-4.76,8.39-6.79,14.09-7.15,1-.07,1.24-.33,1.25-1.29,0-2.76.28-5.46,2.38-7.6,1.84-1.88,3.65-2.06,5.87-.41a6.19,6.19,0,0,1,2.24-3c2.74-1.58,5-1,6.88,1.79a14.84,14.84,0,0,1,2.46,5.9c.17,1,.47,1.63,1.66,1.09a4.25,4.25,0,0,1,1.43-.23c2.15-.15,2.31,0,2.26,2.12a.33.33,0,0,1,.09.46c-.51.63-1.18.34-1.8.28-1.54-.15-3-.51-4.61,0-1.23.43-1.9-.44-2.18-1.55a37.41,37.41,0,0,0-1-3.73,8.65,8.65,0,0,0-2.12-3.39c-1.05-1-2.08-.76-2.65.58a10.44,10.44,0,0,0-.53,2.19,2.37,2.37,0,0,1-1.86,2,2.12,2.12,0,0,1-2.33-1c-1.49-1.82-2-1.74-2.82.51a14.38,14.38,0,0,0-.75,4.92c0,2.57-1,3.62-3.62,3.53a15.36,15.36,0,0,0-6.61,1.1c-3.12,1.3-6.88,4.74-6.61,9.23a7.55,7.55,0,0,0,3.28,5.63c.86.7,1.07,0,1.28-.69a45.61,45.61,0,0,1,2.42-6.49,15.87,15.87,0,0,1,4.85-5.66,27.2,27.2,0,0,1,9.81-4.15c4-1,8.06-1.26,12.08-1.85a8.76,8.76,0,0,1,4.41.73c1.33.5,1.84,3.11,1,4.53-.14.23-.65.24-.41.7.82,1.59.59,3.36,1,5a5.8,5.8,0,0,1,.13,1.32c.27,4.46-1,8.78-1.12,13.2,0,.27-.07.53-.1.8-.23,2.58,0,2.84,2.64,2.75a2.2,2.2,0,0,1,1.24.18c1.31,1.22,1.34,3,1.9,4.53,2.05,5.55,5.14,10.51,8.14,15.54,1.13,1.9,2.47,2.87,4.67,2.48a6,6,0,0,0,2-.23,10.62,10.62,0,0,1,2.18-.15c3.83-.59,7.7-.73,11.55-.94,4.82-.26,9.64-.65,14.46-.95,1.83-.11,3.65,0,5.48-.2a2.47,2.47,0,0,0,2.35-1.83,17.45,17.45,0,0,0,1-2.54c.14-1-.2-1.74-1.26-1.53-3,.58-6.15-.39-9,1a5.08,5.08,0,0,1-2.24.22c-4.3,0-8.6-.14-12.89,0-4.13.18-8.26.06-12.38.27a10.07,10.07,0,0,1-2.26-.08,2.7,2.7,0,0,1-1.77-1.49,74.3,74.3,0,0,1-6.06-12.5,1.33,1.33,0,0,1,.09-1.5,45.74,45.74,0,0,1,7.3-.55c4.82.11,9.64.12,14.46.22,8.26.17,16.52,0,24.78.15a2.29,2.29,0,0,0,2.62-1.72,39.51,39.51,0,0,1,3.25-7.35,2.3,2.3,0,0,1,.41-.35,12.08,12.08,0,0,1,1.77-.45,1.86,1.86,0,0,1,1,.07c.88.64.49,1.42.19,2.16-1,2.37-2.16,4.64-2.92,7.1-.5,1.62-.41,1.79,1.3,2.06a11,11,0,0,1,1.89.34c.67.24,1.1.64,1,1.43s-.43,1.54-1.23,1.93a11,11,0,0,1-2.68.18c-.47,0-1.16,0-1.2.54-.12,1.64-.74,3.37.58,4.84a.92.92,0,0,1,.24.43,5.13,5.13,0,0,1-.21,1.65c-.56.83-1.27,1.62-.63,2.73.16.39-.16.94.39,1.19,1.49-1.3,2.61-3,4.52-3.8,1.08-.48.94-2,1.77-2.79a5.05,5.05,0,0,1,2.55-1.29,1.57,1.57,0,0,1,2,1.13,1.51,1.51,0,0,1-.85,2,11.08,11.08,0,0,0-3.2,1.92c1.45,0,3.15-.53,4,1.12.67,1.34-.45,2.29-1.24,3.33a15.32,15.32,0,0,0,5.4-3.67c2.26-2.52,2-5.44-.72-7.49A13.59,13.59,0,0,0,241,136c-.55-.19-1.16-.27-1.5-.84a1.47,1.47,0,0,1,.85-1.75,1.76,1.76,0,0,1,.63-.12c3.78.21,8.55,4.57,9.09,8.3.46,3.22-1,5.65-3.33,7.6a22.18,22.18,0,0,0-3.61,3.18,7.82,7.82,0,0,1-3.3,2c-.72.3-1.22.58-.25,1.24s1.55,1.29,1.2,2.41a2.68,2.68,0,0,1-2.58,1.87c-2.2.15-4.41,0-6.61,0-1,0-1.64.29-1.89,1.34A39.67,39.67,0,0,1,223.49,175a.89.89,0,0,0-.18.72,5.82,5.82,0,0,0,3.82-.45,1.49,1.49,0,0,1,1.54-.17c1.27.7,2.6.39,3.93.41,5.92.08,11.82-.56,17.74-.34,3.33.12,6.65-.4,10-.14a1.47,1.47,0,0,0,1.8-1.53c.14-1.56.26-3.1.31-4.66.22-7,.61-13.95.89-20.92.19-4.67.39-9.34.72-14,.41-5.89.65-11.79,1.18-17.67.22-2.36.44-4.71.53-7.07a3.27,3.27,0,0,0-.7-2.1Q256.26,94.66,247.75,82c-1.16-1.73-2.63-2-4.46-.9-.46.27-.89.62-1.48.48a.49.49,0,0,1-.36-.36c-.18-.4.23-1.22-.72-1.07-2,.31-2.42-1.1-2.75-2.56a75.4,75.4,0,0,1-1.9-14A40.87,40.87,0,0,1,237.32,51c.81-2.88,2-5.57,4.71-7.23.75-.47.25-.73,0-1.11s-.4-.93.09-1.29.94,0,1.24.37a3.92,3.92,0,0,0,3,1.56,6.27,6.27,0,0,1,3.47,1.92,1.92,1.92,0,0,0,2,.52c3.44-.86,6.07-2.64,7.3-6.11.14-.4.16-.87.82-1.15a5.13,5.13,0,0,1-1.78,5c-1.32,1.23-1.51,1.74-.17,3.39,2,2.45,3.18,5.56,4.71,8.39l3,5.5c.61,1,0,1.75-.41,2.57-1.17,1-1.51-.15-1.87-.84-1.46-2.81-2.85-5.65-4.26-8.48-.7-1.39-1.38-2.79-2.08-4.18a4.16,4.16,0,0,0-.91-1.32,2.06,2.06,0,0,0-2.68-.07c-.84.6,0,1.25.31,1.79q5.4,9.8,10.6,19.69c1.27,2.5,2.69,4.92,3.95,7.43,3.45,6.56,6.95,13.1,10.41,19.66.28.54.47,1.27,1.37,1.08s1.29-.93.69-2c-1.76-3.14-3.28-6.4-5-9.58-2.3-4.31-4.49-8.69-6.78-13a7.07,7.07,0,0,1-.56-3.3c0-.74-.17-1.54.49-2.13,1-.2,1.13.64,1.43,1.21,1.21,2.27,2.41,4.55,3.56,6.85,3.17,6.33,6.51,12.58,9.68,18.91.84,1.69,1.55,3.23-.45,4.64-.63.45-.34,1.2,0,1.78a3.91,3.91,0,0,1,.11,4,1.46,1.46,0,0,0,.67,2.06,1.78,1.78,0,0,1,.76,2.6C284.07,111,284.69,112.29,283.74,113.06Z"/><path class="cls-2" d="M303.41,239c1-.35,1.13.36,1.38,1q4.9,12.72,9.34,25.6c7,20.23,13,40.75,18.88,61.33,1.14,4,2.36,8.05,3.55,12.06.51,1.73.52,1.73-1.35,1.71h-1.69a11.36,11.36,0,0,0,4.89,4c.57.22,1.23.24,1.24,1s-.61,1-1.2,1.35c-4.85,2.56-11.86,1.33-15.31-2.47a4.13,4.13,0,0,0-.5-.39A4,4,0,0,1,317.8,347c-.74-.19-.88-.74-.81-1.37.17-1.44.31-2.89.58-4.31.17-.9-.13-1.14-1-1.14-1.18,0-2.37-.1-3.55-.15-2.46-.12-2.37-.14-3-2.74-1.72-7.43-3.39-14.87-5.31-22.24-2.65-10.14-5.54-20.21-8.28-30.32-1.07-3.95-2-7.93-3-11.88a3.17,3.17,0,0,0-.65-1.64c-.72.2-.71.88-.91,1.38-1.76,4.47-2.77,9.16-4.05,13.77-3.4,12.27-7,24.48-11.42,36.44-1.61,4.37-4.3,7.19-9.06,7.88-5.05.74-9.2-.86-12.19-4.9a226.94,226.94,0,0,1-16.26-26.13c-2.73-4.94-5.55-9.84-8.65-14.55-.77-1.16-.54-1.49.77-1.68,2.8-.41,5.58-1,8.79-1.52a14.66,14.66,0,0,0-7.32-3.26c-.32-.05-.65,0-1,0-.85-.11-2.17.31-2.34-.68-.11-.65,1.27-.95,2.06-1.2,3.63-1.14,7.27-2.31,11.17-1.72.91.13.94-.36.7-.93-.75-1.77-.08-2.84,1.57-3.55a6.77,6.77,0,0,0,1.12-.91c1.68-1.26,2.88-.87,3.44,1.13.66,2.38,1.32,4.77,1.91,7.17.33,1.34.86,2.12,2.42,1.59.88-.29,1.35.22,1.69,1,1.45,3.53,3,7,4.45,10.54a4.42,4.42,0,0,0,1,1.93,9.82,9.82,0,0,0,1-3.51c2.93-16,6.58-31.79,9.92-47.68a12.18,12.18,0,0,1,.53-1.5c.7-.87,1.6-.56,2.48-.44a6.29,6.29,0,0,0,2.52.15C285.93,239.54,294.68,239.58,303.41,239Z"/><path class="cls-2" d="M103.18,252.44a11,11,0,0,1,9,4.8c2.57,3.68,3.9,7.94,5.69,12,1.93,4.39,3.38,9,5.27,13.36a42.07,42.07,0,0,1,3.48,11.73,8.85,8.85,0,0,1-2.11,6.58c-.32.42-.64.83-1.07,1.41a26.2,26.2,0,0,1,11,4.61,15.81,15.81,0,0,1,5.54,6.58c1.71,3.94.69,7.54-2.25,11-2.78,3.29-6.51,5.36-10.45,7a63.08,63.08,0,0,1-25.43,4.34c-5.16-.12-10.29-.37-15.41-1a20.72,20.72,0,0,1-5.65-1.07c-4-1.74-7.08.1-10,2.35a15,15,0,0,0-3.87,4.06c-.33.54-.78,1.15-1.54.92a1.53,1.53,0,0,1-1-1.49,11.38,11.38,0,0,1,.39-4.61c.55-1.77.55-1.86-1.35-1.83a96.93,96.93,0,0,1-11.43-.48,70.58,70.58,0,0,1-20.37-5,42.49,42.49,0,0,1-10.82-6.24,12.45,12.45,0,0,1-4.54-6.31c-1.13-4.28.2-6.76,3.93-9.69,4-3.12,8.72-4.38,13.68-5a52.81,52.81,0,0,1,8.8-.55c.64,0,1.36.13.94-1a10,10,0,0,1,.24-6.81c3.4-9.77,6.25-19.76,10.85-29.08.59-1.2,1.32-2.33,2-3.47,1.78-2.88,4.62-3.61,7.73-3.74a2,2,0,0,1,.53,2.37A2.53,2.53,0,0,1,63,259.36c-2,.39-3.13,1.73-4.12,3.33a64.34,64.34,0,0,0-5.25,11.41,205.61,205.61,0,0,0-6.57,19.54c-1.15,4.3-.44,6.18,3.19,8.69,3.1,2.14,5.92,4.64,8.91,6.92a2,2,0,0,0,3-.05c1.9-1.47,3.22-3.46,5-5.06.68-.62.59-1.12-.12-1.69a111,111,0,0,1-8.78-8.3c-2.14-2.16-2.18-2.42-1-5.2q1.19-2.82,2.46-5.61c.38-.83.87-1.79,2-1.55a2.5,2.5,0,0,1,2.18,2.26c.37,3.15.37,6.32.62,9.47a3.67,3.67,0,0,0,1.37,2.75A45.83,45.83,0,0,1,72,302.09a6.69,6.69,0,0,0,2.75,1.59,7,7,0,0,1,2.79,2c.57,1.51-.4,1.84-1.55,2a21.77,21.77,0,0,1-4.5-.81,9.84,9.84,0,0,0,4.71,2.36,11.71,11.71,0,0,1,4.49,2c1.49,1.18,5.09.41,6.17-1.19a3.35,3.35,0,0,1,1.8-1.25c2.41-.8,5.08-.74,7.32-2.24-1.3-.15-2.57.33-3.87.16-1.63-.2-2.1-.94-1.52-2.46a9.88,9.88,0,0,1,4.22-1.94,5.1,5.1,0,0,1,1.2-.28c.91,0,1.3.32.69,1.21a5.64,5.64,0,0,1-2.23.88c3-.42,4.15.49,4.05,3.07.2.85.85.5,1.26.36a4.38,4.38,0,0,0,2-1.81c.35-.5,0-.91-.36-1.27a24.48,24.48,0,0,0-2.36-2.19c-1.51-1.24-1.53-2.58,0-3.91a26,26,0,0,1,3.85-2.64,3.54,3.54,0,0,0,1.81-2.66,61.54,61.54,0,0,1,2-8.8c.24-.75.41-1.66,1.41-1.77s1.51.72,1.92,1.46c1.31,2.35,2.36,4.83,3.47,7.28.65,1.43.28,2.4-1.11,3.29a84.44,84.44,0,0,1-7.88,4.42c-.48.24-.93.53-1.4.8-.68.38-.77.87-.22,1.41,1.75,1.75,3.32,3.66,5,5.53a1.12,1.12,0,0,0,1.43.38c4.43-2.3,9-4.39,12.28-8.38a7.14,7.14,0,0,0,1.35-6.53c-1.13-4.67-3.12-9-4.82-13.47q-2.91-7.61-6.22-15.05c-.93-2.1-1.69-4.31-3.36-6a6.21,6.21,0,0,0-3.46-1.9c-.89-.16-1.84-.29-2.28-1.29C102.65,253.73,102.48,253,103.18,252.44Z"/><path class="cls-3" d="M104.3,148.39c.71.07.72.63.86,1.16,1.14,4.47,2.32,8.93,3.43,13.41.3,1.24.44,2.46,2.13,2.48.22,0,.43.42.64.65a2.73,2.73,0,0,1,1.19,1.8c0,.23-.14.48-.35.49-1.92.07-1.55,1.24-1.22,2.43.15.52.31,1,.44,1.55.21.8.7,1,1.46.83,1.37-.28,2.67-.57,2.78-2.36,0-.77.61-1.08,1.36-1.06a1.75,1.75,0,0,1,.7.23c.89.8.61,1.88.66,2.87.12,2.32.1,2.31,2.35,2.76a23.93,23.93,0,0,1,2.49.64,6.39,6.39,0,0,1,4.5,4.83,13.08,13.08,0,0,1,.59,5.2c2.65-2.48,3.56-5.18,2.93-8.28-.27-1.35-1.48-2.2-2.58-3a5.48,5.48,0,0,1-1.27-1,2.09,2.09,0,0,1-.33-2.13,1.57,1.57,0,0,1,1.56-.93,13.58,13.58,0,0,1,3,.21c.55.09,1.45.32,1.48-.68s-.75-.94-1.42-.94a32.61,32.61,0,0,1-6.09-.33c-.57-.1-1.23,0-1.41-.81a.87.87,0,0,1,.59-.82c.21-.75.79-.73,1.4-.72,2.69.08,5.38.16,8.07.19,1,0,1.47.43,1.42,1.45a24.83,24.83,0,0,1-.55,4.46c-.19.88-.57,1.46-1.59,1.44-.85,0-.76.3-.43,1,2.74,5.66-.6,13.54-6.62,15.71-.55.2-1.21.55-1.63-.05a2.16,2.16,0,0,1-.13-2.16,10.39,10.39,0,0,0,.52-6.6,2.93,2.93,0,0,0-1.83-2.27,13.1,13.1,0,0,0-5.07-1.51,2,2,0,0,1-2.26-1.8c-.16-.82-.5-.74-1.1-.63-2.36.43-2.85,1-2.31,3.22,1.73,7,3.56,14,5.24,21.05,1.11,4.61,2.78,9,4.17,13.54.43,1.37.08,1.92-1.22,2.12-.9.14-1.8.35-2.7.45-.58.06-1.43.15-1.66-.34-.85-1.73-1.83-.65-2.59-.13-3.26,2.26-6.58,1.77-9.9.3a14.1,14.1,0,0,1-4.12-3.05c-.35-.34-.74-.68-.48-1.24a1.09,1.09,0,0,1,1.19-.66c1.55.18,2.94-.5,4.41-.76,2.27-.41,3.14-2,3.27-4.24.28-5-2.62-8.86-4.37-13.13-1.38-3.38-3-6.67-4.42-10-.44-1-.93-1.17-2-.83C92.29,184.15,87,186,81.66,187.47c-3.26.88-6.55,2-10,1.69-1.08-.11-1,.62-1,1.23-.18,6.78-1.24,13.49-1.69,20.24a7.08,7.08,0,0,1-3.7,6.12A26.38,26.38,0,0,1,56,220.4c-.82.13-1.85.25-1.93-1.05-.05-.88-.48-.71-1.08-.59a14.15,14.15,0,0,1-5.1.46c-1.19-.17-2.36-.49-2.6-1.75s.92-1.67,1.84-2.14a5.26,5.26,0,0,0,.52-.35c-.07-.12-.09-.23-.15-.26-.85-.43-2-.62-2-1.85s1.36-1.14,2.2-1.46,1.65-.15,1.75-1.44c.06-.7,1.1-.75,1.79-.8a21.91,21.91,0,0,1,7.55.9c-.4-1.33-.77-2.56-1.16-3.79a38.37,38.37,0,0,1-1.88-13c0-.72.23-1.44-.94-1.36-6.12.4-12.25.4-18.38.52-.1,0-.19.08-.41.18.82,1.22.56,2.63.78,3.94.25,1.49,0,3.15.51,4.34a11.63,11.63,0,0,0,2.55,3.38c.89.85,1,1.31-.32,1.91a6.3,6.3,0,0,0-3.17,4.28,33.17,33.17,0,0,1-1.34,5c-.24.52,0,.76.39,1.06a8.89,8.89,0,0,1,2.06,3.42c.37.82.24,1.49-.76,1.73-.42.1-.91.18-1,.65a1.49,1.49,0,0,1-1.88,1.09c-1-.15-2,.4-3-.2a.63.63,0,0,0-.59,0c-1,1.62-2.83,1.61-4.25,1.64a21.85,21.85,0,0,1-6.63-1c-1.84-.55-2.64-2.83-4.9-2.46-.74.12-1.23-.73-1.61-1.41A14.65,14.65,0,0,0,10,215.75a3.85,3.85,0,0,1-.94-1.84c-1.79-5.94-.93-11.69,1.32-17.33a1.62,1.62,0,0,1,.33-.55A5.19,5.19,0,0,0,12,189.61a1,1,0,0,1,.07-1.21,1.11,1.11,0,0,1,1.35-.17c1.2.63,3.21.86,3.54.31a4.23,4.23,0,0,0-.41-4.14,17.31,17.31,0,0,1-2.1-6.7,37.86,37.86,0,0,1,.24-13.13c2.36-12.39,8.83-22.67,16.58-32.29a48.69,48.69,0,0,1,10.94-10.16c.36-.24.83-.5.76-1-.19-1.37.79-2.1,1.59-2.79,3-2.58,6-5.13,9.79-6.78a74.22,74.22,0,0,1,8-3.18,2.43,2.43,0,0,1,1.08,2.51c0,1.84.91,2.75,2.52,3.48,6,2.71,12.15,2.5,18.32,1.18,2.7-.57,5.15-2.11,7.6-3.45a4,4,0,0,1,1.57-.79c7.92,5.43,10.54,12.68,7.7,21a1.46,1.46,0,0,1-1.29.49c-1.78-.05-3.49.45-5.24.57-1.21,0-1.29-.94-1.38-1.81a14.63,14.63,0,0,0-5-9.67,12.54,12.54,0,0,0-15.37-1.17c-.38.25-1,.52-.68,1.09s.86.26,1.32.15a2.18,2.18,0,0,0,.74-.3c4.42-3,10.84-.93,14.14,3.5a13.12,13.12,0,0,1,2,12.23,7.87,7.87,0,0,1-2.8,3.66c-2,1.69-2.44,3.06-1.49,5.59.84,2.21,2,4.3,2.93,6.46q1.29,3,2.72,5.85a6.2,6.2,0,0,1,.85,2.58c-.61,2.27-.22,3.17,1.88,4.3a2.17,2.17,0,0,1,1,.77c1.34,3.33,3,6.53,4.52,9.77a1.37,1.37,0,0,0,1.84.78c1.76-.51,3.37-1.39,5.12-1.93.62-.19.7-.74.59-1.32-.33-1.69-.79-3.34-1.19-5-.17-.73-.74-1-1.4-1.16s-1.33,0-1.7-.7c.19-.9,1-1,1.67-1.3,2.2-1.16,2.34-2.25.49-3.81a3.24,3.24,0,0,1-1.16-1.3c-.94-3.17-1.57-6.43-2.44-9.63a2.18,2.18,0,0,1,0-1.57C102.6,148.8,103.23,148.11,104.3,148.39Z"/><path class="cls-2" d="M275.72,204.87a13.39,13.39,0,0,0,2.18-5c-6.78-.65-11.23-6.84-10.13-14.13.45-3,1.33-5.92,4.1-7.46a5.33,5.33,0,0,0,2.78-3.88c1-3.8,4.22-5.36,7.63-6.38,3.24-1,6.39.13,9.44,1.09a77.08,77.08,0,0,1,7.42,2.91c2.7,1.17,4.93.53,7.06-1.32a17.82,17.82,0,0,1,9.88-4.09c4-.44,7.63.82,11.09,2.92a63.13,63.13,0,0,1,5.7,4.41,6.48,6.48,0,0,0,6,1.17c3.06-.77,6.2-1.44,9.38-.85a19.85,19.85,0,0,1,6.57,1.93,6.92,6.92,0,0,1,3.5,4.9,9.15,9.15,0,0,1-1.25,7.55c-2.76,3.78-6.23,6.61-10.9,7.72-1.16-1.4-.86-3.06-.69-4.62.4-3.48-.87-5.59-4.33-6.42a22.17,22.17,0,0,0-11.12.23,4,4,0,0,0-3.25,3.67A18,18,0,0,1,325,195a3.7,3.7,0,0,1-2.33.37,10.81,10.81,0,0,0-8.34,3.49c-2,2.12-4.56,2.93-7.15,3.77-.84.27-1.68-.2-2.54-.22a6.82,6.82,0,0,1-1.81-.68,5.35,5.35,0,0,0-2.86-.15,2.13,2.13,0,0,1-.44.07,9.13,9.13,0,0,1-3.86-1.86c-1.09-.81-1.67-.18-2.26.55-.77,1,.22,1.27.75,1.71s1.74.56,1.48,1.79a1,1,0,0,1-.55.45,2.8,2.8,0,0,1-2.92-1.27,2.49,2.49,0,0,0-2.54-.93,5.69,5.69,0,0,1-3.89-.64c-.33-.2-.67-.48-.58-.88s.55-.46.92-.5a3.55,3.55,0,0,1,.8,0c3.47.37,5.38-.79,6.73-4a21.23,21.23,0,0,1,1-3,3.84,3.84,0,0,1,1.73-.78,4.73,4.73,0,0,0,2.16-7.68c-1.87-2.23-3.63-2.48-7-1-1.35-.28-2.41,1-3.76.71-.83-.24-1.53-.76-2.34-1-2.35-.8-3.92-.54-5.47,1.58-1.15,1.56-2.23,1.95-3.88,1a.94.94,0,0,0-1.15,0,4.58,4.58,0,0,0,2.1,1c.68.27,1.36.57,1.34,1.4a10.49,10.49,0,0,0,1.14,4.15.74.74,0,0,1-.18.6c-1,.79-1,1.28.37,1.63a1.78,1.78,0,0,1,1.26,2.16,22.72,22.72,0,0,1-2.2,7.38,1.94,1.94,0,0,1-2.81,1A.43.43,0,0,1,275.72,204.87Z"/><path class="cls-4" d="M240.48,133.51a2.23,2.23,0,0,0-.82,1.78c.26,2.41-1.15,4.07-2.57,5.73-.68,1.53-1.24,2.94-3.11,3.74-1.46.62-2.48,2.29-3.69,3.5-.36-.51-.06-1.08-.18-1.61-.9-1.32-.88-2.46.66-3.29,0-.29-.07-.6.07-.89l0-.77c1.24-1.93,1.61-4.33,3.25-6l1.09-2a8.7,8.7,0,0,1,.68-3.57,75.79,75.79,0,0,0,2.69-9.59,1.13,1.13,0,0,0-.08-1.07c-1.39.73-2.63,2.07-4.46,1.61l-1.63.11c-.31.18-.7,0-1,.18a.4.4,0,0,1-.24.14c-2.77.79-5-.31-7.05-2-1.1-.93-2.08-2-3.2-2.94-2.54-2.09-5.24-1.6-7.82-.25a52.47,52.47,0,0,0-8.22,5.32,5.41,5.41,0,0,1-3.18,1c-2.07.08-4.08.7-6.21.13-4.58-1.2-7.35-4.44-9.74-8.16-1.05-1.63-2-3.32-3.74-4.36a4.93,4.93,0,0,0-3.68-.77c-2.94,1.07-4,3.09-3.45,6.85a104.92,104.92,0,0,0,3.28,13,2.78,2.78,0,0,1,.15,1.73,22.16,22.16,0,0,0,1.83,4.87,52.13,52.13,0,0,0,5.42,10.12c1.49,1.07,2.31,2.74,3.55,4a16.32,16.32,0,0,0,1.86,1.95c.43.31.84.71.46,1.34l-2.86.27a11.45,11.45,0,0,0-1.17-.05c-3.2.58-3.41.43-5.09-2.16a81.27,81.27,0,0,1-8.86-17.12c-.39-1.11-.74-2.23-1.12-3.35-1.2-1.38-1.13-3.2-1.6-4.82a38.42,38.42,0,0,1-1.33-11.1,2.27,2.27,0,0,0-.13-1.26l-.1-1.44c0-2.17-.42-4.32-.12-6.51a8.29,8.29,0,0,0-.23-3.49,2.22,2.22,0,0,1,.39-2.13c.05-.19.09-.39.13-.59.38-2.75.75-5.5,1.08-8.25.7-5.72,4.19-8.77,9.26-10.48a83.79,83.79,0,0,1,18.89-3.56A137.16,137.16,0,0,1,219.16,77a94.57,94.57,0,0,1,12.58,1.41,44.51,44.51,0,0,1,9.1,2.8,2.43,2.43,0,0,0,.61.06l.36.3a4.35,4.35,0,0,1,3,1.29,7.19,7.19,0,0,1,2.32,7.72,4,4,0,0,0-.19,1.58,101.75,101.75,0,0,1-1.14,23.9,85.36,85.36,0,0,1-4.07,15.71A3,3,0,0,1,240.48,133.51Z"/><path class="cls-4" d="M283.74,113.06c.56-1.07-.59-2.64,1-3.42a3.26,3.26,0,0,1,2-.3,23.63,23.63,0,0,0,13.8-2.89,19.74,19.74,0,0,0,1.92-1.18c2.92-2.11,3.63-4,2.83-7.47-.11-.48-.33-.8-.84-.81a18.46,18.46,0,0,0-2.57-.15,104.29,104.29,0,0,1-13.34.45c-2.36,0-3.4-1.15-3.58-3.45-.6-7.72-.7-15.46-.63-23.2a17.78,17.78,0,0,1,.06-1.93c.33-2.87,1.2-3.53,4.07-4,2.48-.41,5-.73,7.45-1.29a22.77,22.77,0,0,1,3.49-.62c1.63-.13,1.75-.41,1.19-1.9-1-2.63-2.72-4.89-3.9-7.42-3-6.45-5.87-13-7.65-19.84-1.1-4.25-2.23-8.55-2.14-13a25.42,25.42,0,0,1,.25-2.89c.13-.95.05-1.73-1.24-1.73-1.73,0-2.63.54-2.5,1.74a38.94,38.94,0,0,1-.07,6.11,61.81,61.81,0,0,1-4,19.17c-2.39,6.11-5.12,12.08-7.67,18.12a27.59,27.59,0,0,0-1.85,5.5c-.1.51-.1,1.08-.6,1.44-.15.89-.29,1.78-.44,2.67-.16,1.55.5,3,.31,4.58-.1.88-.06,1.83-1,2.37l-4-7.72A9,9,0,0,1,265,63.6c.25-1,.5-1.91.74-2.86,1.45-2.09,2.07-4.54,3-6.87,2.27-5.95,4.81-11.8,6.62-17.91a59.51,59.51,0,0,0,2-18c0-1.34,0-2.68,0-4-.05-2.46,1-4.09,3.38-4.75A21.65,21.65,0,0,1,287,8a11.56,11.56,0,0,1,6.53,2.39c.59.44.53,1.19.45,1.93-.41,4.2-1.29,8.41-.39,12.64.72,3.39,1.38,6.79,2.42,10.12,1.56,5,3.82,9.78,5.79,14.64a59.77,59.77,0,0,0,3.36,6.18,41.08,41.08,0,0,1,4.93,19.69c.14,9-.76,18-1.47,27a6.2,6.2,0,0,1-2.36,4.2,22.56,22.56,0,0,1-9.4,5.34C292.66,113.25,288.23,114.31,283.74,113.06Z"/><path class="cls-4" d="M93.47,111.33c-1.28,1.68-3.33,2-5,3-4.66,2.63-9.78,2.93-14.9,2.54a15,15,0,0,1-7-1.85c-.52-.33-1.25-.32-1.76-.66a3.46,3.46,0,0,1-1.83-3.49,4,4,0,0,0-.54-2.47c-1.27-7.31-.46-14.69-.61-22a37.27,37.27,0,0,1,3-14.06A36.3,36.3,0,0,0,66.9,61.66c.53-7.47.07-14.93.12-22.39,0-1,.11-1.93.09-2.9-.06-2.33,1.37-3.68,3.22-4.56A10.73,10.73,0,0,1,77.24,31a2,2,0,0,1,1.53,2.49,15.85,15.85,0,0,0,.72,5.06c1.27,5.65,1.91,11.42,3,17.1,1.38,7.34,3.44,14.52,7.37,21a29.1,29.1,0,0,1,4,14c.29,5.37.15,10.72.28,16.08A14,14,0,0,1,93.47,111.33Z"/><path class="cls-4" d="M103.18,252.44l0,2.31a3.5,3.5,0,0,1,.29,1.72c-.49,4.55-1.1,9.07-3.14,13.24a23.2,23.2,0,0,1-8.38,10,31.19,31.19,0,0,1-5.65,2.62,1.53,1.53,0,0,0-.42,1.49c.55,5.33,1.16,10.66,1.19,16a1.08,1.08,0,0,0,.23.59,3.54,3.54,0,0,0,2,.32,15.4,15.4,0,0,1,4.71.88c.49.16,1.07.27,1.12,1-1.5.62-3.13.94-4.46,1.95a7.14,7.14,0,0,1-2.94.36,3.25,3.25,0,0,0-.43.08c-.57.51-.16,1.29-.51,1.85a1.06,1.06,0,0,1-.56.46,2,2,0,0,1-2.24-.88c-.92-1.4-2.17-1.3-3.55-1.05-1,.19-2,.86-3.1.48A9.5,9.5,0,0,0,74.53,304c-.32-1.54.63-2.18,1.88-2.47a30.14,30.14,0,0,1,4.9-.79c1.2-.09,1.43-.59,1.42-1.76,0-4.16-.57-8.31-.44-12.48,0-.54,0-1.07,0-1.6.08-2.45.07-2.43-2.14-3.11-5.3-1.62-8.77-5.41-11.52-9.95a33.08,33.08,0,0,1-4.15-12.26,1.62,1.62,0,0,1,.14-1.24c.18-.86-.27-1.65-.27-2.49.13-3.32.7-6.6.71-9.93,0-1.95,1.48-3,2.83-4.08a23.28,23.28,0,0,1,5.47-2.66,3.26,3.26,0,0,1,1.64-.78,16.29,16.29,0,0,1,2.68-.53c1.32-.23,2.22.18,2.39,1.64a3.1,3.1,0,0,0,.67,1.43c.75.75,1.5.81,2.16-.07s1.17-1.77,2.5-1.6c.37.05.55-.44.74-.76a1.57,1.57,0,0,1,1.53-1c4.19-.09,8.23.5,11.86,2.82a3.17,3.17,0,0,1,.91.84,13.38,13.38,0,0,1,1.22,2.42,1.72,1.72,0,0,1,.14.87A38.52,38.52,0,0,1,103.18,252.44Z"/><path class="cls-2" d="M294.91,204.22l.87-.73a4.28,4.28,0,0,1,3.78-2.06l.37-.07c.86-.21,1.75,0,2.61-.12l2.25,1a2.39,2.39,0,0,1,1.61,1c3.26,3.73,6.56,7.45,8.93,11.85,1,1.76.09,3.73-2.08,4.83a15.91,15.91,0,0,0-1.49.59c-2.52.94-4.44,3.06-7.14,3.68-1,.24-.61.9-.28,1.48.34,1.08.94,2.14.22,3.29a11.93,11.93,0,0,0,.4,4.09c.48,2.32-.53,4.07-1.55,5.9a2.38,2.38,0,0,1-2.16.82c-2.1-.13-4.17.27-6.33-.05a26.48,26.48,0,0,0-4.89.22c-4,.23-8.07.43-12.11.65a2.27,2.27,0,0,1-1.23-.27c-.46-.1-1,.21-1.4-.14,0,0,0,0,0-.06l0,.15a12,12,0,0,0-3.05,0,31.17,31.17,0,0,0-3.95-.36c-1.54.05-1.71-.85-1.56-1.92.34-2.31.8-4.61,1.2-6.92a3.76,3.76,0,0,0,.13-1.73c-.43-1.48.53-2.72.68-4.11,0-.1.06-.2.08-.3.66-3,.61-3.09-2.43-3.43-1.15-.13-2.22-.72-3.42-.65a1.71,1.71,0,0,1-1.33-.69c-.36-.42-.9-.26-1.34-.44s-.8-.49-.63-1c1.36-3.84,2.13-7.94,5.09-11,2.16-2.28,4.56-4,7.94-3.7,1.1.08,2,.72,3.06.83l.32.24a8.35,8.35,0,0,1,2,.45c1.85.82,3.15.22,4.41-1.15a7.76,7.76,0,0,1,5.07-2.19,2.73,2.73,0,0,1,1.53.38c1.16.54,2.32,1.1,3.52,1.56A3.06,3.06,0,0,0,294.91,204.22Z"/><path class="cls-4" d="M203,242.79a11.19,11.19,0,0,1-2.45-2c.27-.86,1-.69,1.59-.64a24,24,0,0,1,2.41.21c1.33.22,1.71-.37,1.69-1.59-.1-6.88.31-13.75.38-20.63.11-9.61.2-19.23.64-28.84.28-6.16.73-12.33,1.26-18.48a2,2,0,0,1,.67-1.58l3.43-1.35c.39,10,.71,19.95.36,29.95-.29,8.37-.23,16.75-.55,25.12-.19,4.94-.16,9.88-.3,14.82,0,1.34.22,1.82,1.75,1.8,3.81-.05,7.65.35,10.93,2.49a9.14,9.14,0,0,1,3.91,5.32c.25.95,1,1.61,1,2.65.2,3.24-1.56,5.25-4.07,6.76a19.75,19.75,0,0,1-8.55,2.57,28.73,28.73,0,0,0-3.5-1.95c-1.25-.49-1.38-1-.46-1.86,1.62-.91,3.49-1,5.23-1.48a13.62,13.62,0,0,0,4.25-1.83c1.13-.79,2.13-1.69,1.92-3.26a4.21,4.21,0,0,0-3.12-3.13c-2.21-.41-4.43-.8-6.66-1s-2.65.32-2.79,2.44c-.05.75.19,1.7-.95,1.93a21.25,21.25,0,0,1-4.32-3.53C206.51,243.36,204.56,243.3,203,242.79Z"/><path class="cls-4" d="M324.86,195c.27-2.44,1.69-4.61,1.56-7.15,0-.81.73-1.28,1.34-1.7a10.52,10.52,0,0,1,4.69-1.52,28.13,28.13,0,0,1,9.11.28c2.6.48,5.36,3.58,4.68,5.55s-.13,4-.07,6c-.21,4.46-.91,8.82-3.17,12.77-1.15,2-2.59,3.8-5,4.41a1,1,0,0,0-.83,1.28c.11.85.19,1.7.28,2.55-.22.86-1,.76-1.64,1-.89.4-1.44.82-.9,1.95.36.74.22,1.69.83,2.38.23.26.11.58,0,.91-.49,1.56-.48,1.56,1.19,1.93.32.07.64.1.83.41,0,.49.06,1,0,1.45-.07.94.26,1.44,1.27,1.36,2.3-.19,3.67,1.24,4.87,2.88a2.13,2.13,0,0,1-.86,3.15c-5.63,2-11.3,3-17,.1-.65-.23-.83-.81-1.05-1.36-.62-2.55.37-4.33,2.91-5.25a7.94,7.94,0,0,1,1.85-.51c2.63-.32,2.63-.32,2.65-3.08a5.25,5.25,0,0,1,.08-1.05,5.27,5.27,0,0,0,.23-2c-.22-2.05.43-4,.61-6,0-.45-.39-.61-.75-.74-4.08-1.44-6.15-4.64-7.39-8.52-1.06-3.33-.91-6.77-.83-10.21A1.64,1.64,0,0,1,324.86,195Z"/><path class="cls-1" d="M258.13,25.1c-.16.75.11,2.06-1.36,1.1a.47.47,0,0,0-.4,0c-2.26,1-2.25,1-3.17-1.19-.08-.19-.18-.38-.35-.74a3.44,3.44,0,0,0-.3,1.93c0,.92-.08,1.42-1.29,1.46-2,.07-2,.21-2-1.91-.07,0-.16,0-.19.07-.41.79-.33,2.05-1.21,2.34s-2.22,0-3.29.2c-.53.11-.16-.69-1.08-.46-2.89.73-2.13,2.87-2.43,4.65-.05.31,0,.65,0,1a.81.81,0,0,1-.58.71c-.41.08-.48-.32-.58-.62a5.31,5.31,0,0,0-.22-.6A2,2,0,0,0,237,31.83c-1.26.53-.75,1.6-.32,2.47a6.72,6.72,0,0,0,2,2.52c1.61,1.15,1.25,2.84,1.33,4.38,0,.86-.63.52-1,.33a9.42,9.42,0,0,1-3.77-3.19c-3.21-4.62-3-13.73,1-17.6,1.68-1.61,2-2.9,1.76-5.22a6.42,6.42,0,0,1,8-7.18c3.32.76,5.44,3.1,5.34,6.51,0,1.22.17,1.61,1.51,1.63a9.35,9.35,0,0,1,8.8,8.19c.07.6,0,1.07-.64,1.26C259.45,26.36,258.79,26.18,258.13,25.1Z"/><path class="cls-4" d="M94.1,133.1a26.72,26.72,0,0,1,7.07-.78c1.16.21,2.32.46,3.48.63,1.87.29,4.68,3.43,4.86,5.32.41,4.5-1.1,8-5.22,10.12l-2.18,1.19a2.75,2.75,0,0,0-1.17,2.63c.13,3.24.75,6.44.68,9.86.7-1.79,1.35-2,3.09-1.32.27.23.54.46.83.69,2.56,2,2.36,3.47-.65,4.81-.53.23-1.08.44-1.62.65a1.58,1.58,0,0,1-1.22.68,21,21,0,0,1-5.25,0,1.86,1.86,0,0,1-1.35-.78c-1.25-.79-2.87-1-3.35-2.87a2.26,2.26,0,0,1,.37-2.32,4.08,4.08,0,0,1,3.42-2.11c1.24-.15,1.46-.67,1.32-1.79a43.19,43.19,0,0,1-.42-5.45,3.8,3.8,0,0,0-2.11-3.67,7,7,0,0,1-3.29-4.21,16.6,16.6,0,0,1-.76-8.24A3.24,3.24,0,0,1,94.1,133.1Z"/><path class="cls-5" d="M101.8,244.45l-.46-.92c0-.64.47-.92.83-1.3,2.06-2.15,2.29-4.1.83-6.72-1-1.75-1.5-3.5-.58-5.5.62-1.36-.16-2.45-1.29-3.13-1.39-.85-2.09-1.76-1.67-3.53.31-1.36-.65-2-2-1.76-1.68.32-2.38-.14-2.66-1.82a3.84,3.84,0,0,0-2.14-2.86,2.13,2.13,0,0,0-2.72.53c-1.83,1.63-1.12,3.86-1.67,5.78-.11.35.16.74.42,1A10.07,10.07,0,0,0,92,226.7c.64.28,1.06.18,1-.64a2.78,2.78,0,0,1,.06-.64c.21-.81.51-1.66,1.52-1.59s1.39.87,1.33,1.85a4.31,4.31,0,0,0,.51,2.17c.38.77.88,1.17,1.8.83a1.55,1.55,0,0,1,1.92.36c.48.64.08,1.24-.25,1.79-.85,1.39-.6,2.91-.54,4.4,0,.8.76,1,1.33,1.25a3,3,0,0,1,1.31,4.33c-.4.57-.85,1.2-1.71.66l-1-.87c.68-1.21.8-2.17-.93-2.56-.48-.1-.62-.7-.75-1.17a7.54,7.54,0,0,1-.41-2.05c.07-2.48-1.39-4-3.08-5.49a2.62,2.62,0,0,0-1.42-.68,8.72,8.72,0,0,1-5.11-2.56,2,2,0,0,0-2.43-.56,5.18,5.18,0,0,1-3.47.34,2.63,2.63,0,0,0-1.88.25c-2.42,1.22-4.58.56-6.6-1-.53-.4-1-1-.57-1.65s1.14-.51,1.76-.26a9.13,9.13,0,0,0,2.08.83c.9.12,1.28-.21.82-1.09a11.16,11.16,0,0,1-.9-1.71,2.39,2.39,0,0,1,1.31-3,2.2,2.2,0,0,1,2.83,1.18,7.27,7.27,0,0,1,.69,2.64,1.74,1.74,0,0,0,2.7,1.18c.59-.36.58-.83.32-1.38a12.55,12.55,0,0,1-.84-1.92,2.32,2.32,0,0,1,2-3.15c.37-.06,1,.21,1-.44,0-.45-.37-.75-.73-1-1.11-.78-2.1-.49-2.77.78-1.27,2.41-1.27,2.41-3.91,1.45a2.28,2.28,0,0,0-3.1,1.45,4.35,4.35,0,0,0-.15,1.76c.09,1.53-.4,2-1.85,1.8-2.3-.3-3.26.91-2.49,3.12a7.79,7.79,0,0,0,.89,1.72c.87,1.34,1.25,1.44,2.58.59a5.4,5.4,0,0,1,3.53-.86,1,1,0,0,1,1,.7c.12.52-.28.78-.64,1a10.66,10.66,0,0,1-1.57.82,3.52,3.52,0,0,0-2.18,3.61,17,17,0,0,0,.18,3.7,1.89,1.89,0,0,1-.27,1.69l-1.67.4a19.11,19.11,0,0,1-.46-6.39,2.33,2.33,0,0,0-.8-2.25c-1.39-1.32-2.89-2.57-3.47-4.55-.88-3,.39-5.26,3.43-5.79.59-.1.76-.32.89-.87.8-3.53,2.43-4.66,6-4.12a1.5,1.5,0,0,0,1.79-.78,4,4,0,0,1,5.14-1.3,6.82,6.82,0,0,1,2.45,1.5c.34.45.77.44,1.3.36a5.18,5.18,0,0,1,5.88,2.88c.43.77.78,1.19,1.82,1.09,2.33-.23,5.43,2.38,4.74,5.06-.18.67.09,1,.63,1.42,2.47,1.92,2.85,3.27,1.9,6.15-.12.37-.33.75,0,1,1,1.08,1,2.57,1.53,3.84A6,6,0,0,1,101.8,244.45Z"/><path class="cls-4" d="M117.84,170.32l-1.2-.33a4,4,0,0,1-4.07-2,3.18,3.18,0,0,1-1.21-1.95c.19-1.81.7-2.41,3.17-2.54,1.71-.09,2-.89,2.07-2.27s.15-2.9.25-4.34a1,1,0,0,0-.58-1,13.75,13.75,0,0,1-5.8-14.23,3.24,3.24,0,0,1,2.06-2.3,17.5,17.5,0,0,1,11.08-.63,11.08,11.08,0,0,1,4.73,3.15l-2,1.46a44.22,44.22,0,0,0-6.47-.83,15.09,15.09,0,0,0-3.22.06c2.56,1,5.23.53,7.86.51.64,0,1.28-.25,1.84.24-.6,1,.33.81.68.73a13,13,0,0,0,1.91-.79,6.63,6.63,0,0,1-.46,4.06,14.15,14.15,0,0,1-7.59,8.5,1.85,1.85,0,0,0-1.17,1.55,34.82,34.82,0,0,0-.22,5.3c0,.71.38.94,1,1a9.2,9.2,0,0,1,2,.65,3.38,3.38,0,0,1,2.37,3.27l-.54,1a1.67,1.67,0,0,1-.67.9,12,12,0,0,1-4.51,1.21A1.88,1.88,0,0,1,117.84,170.32Z"/><path class="cls-2" d="M269.11,225.14c-.36,1.41-.73,2.82-1.09,4.23-3,6.63-6.08,13.27-9.17,19.89q-2,4.38-4.27,8.67a2,2,0,0,0-.13,1.93,15.69,15.69,0,0,1,1.09,3.87c.07.7.08,1.48-.69,1.83s-1.12-.44-1.52-.87a5.66,5.66,0,0,1-1.16-1.73c-.61-1.69-1.35-1.14-2.24-.27a38.64,38.64,0,0,1-4.33,3.86,1.79,1.79,0,0,1-2.36,0c-.8-.62-.39-1.39-.07-2.05.41-.86,1-1.67,1.53-2.66-1.3.31-2.47.64-3.65.87-.57.11-1.26.2-1.58-.46s.32-1.07.74-1.43c.69-.59,1.44-1.09,2.41-1.81-1.08-.09-1.91-.09-2.71-.23a1.26,1.26,0,0,1-1.21-1.11c0-.66.63-.79,1.15-.93a24.6,24.6,0,0,1,6.21-.85,2.14,2.14,0,0,0,2.31-1.64c3.95-10.44,7.36-21.1,11.91-31.31.41-.93.88-1.84,1.32-2.76l1.14.35c.73.55.19,1.17,0,1.7-1.68,5.33-3.59,10.59-5.5,15.84-2.06,5.66-4.19,11.29-6.17,17-.87,2.49-1.28,2.76-3.74,2-.72-.22-1.38.09-2.08,0-.19,0,0,.36,0,.15s0-.13.11-.12a4.38,4.38,0,0,0,.8-.06,1.1,1.1,0,1,1,.61,2.11c-.31.11-.59.26-.89.38,1.15-.41,1.81-.38,2.17.2.6,1-.16,1.58-.7,2.3a37.06,37.06,0,0,1,3.08-2.59c.93-.8,1.59-.63,2.18.47.42.81.79,1.65,1.22,2.51-2.14-3-1.16-5.69.25-8.58,3.92-8.07,7.91-16.11,11.81-24.19.63-1.31,1.43-2.53,2.12-3.81C268.21,225.47,268.33,224.73,269.11,225.14Z"/><path class="cls-4" d="M177.92,248.2a9.49,9.49,0,0,1,2.65,2c.21,3.37,1.43,4.68,5.05,5.41a13.65,13.65,0,0,1,4,1,58,58,0,0,1,5.83,4c-5.17-.11-10.26-.66-14.73-3.56-1.94-1.26-3.54-2.92-3.83-5.45A4.81,4.81,0,0,1,177.92,248.2Z"/><path class="cls-1" d="M325.45,233.61c.22.45.44.9.67,1.34a47.91,47.91,0,0,1-12.54,6,3.71,3.71,0,0,1-4.08-1,10.47,10.47,0,0,1-2.62-4c-.79-2.32-1.55-4.66-2.32-7a10.85,10.85,0,0,0-.76-3.56c-.08-.36-.27-.85.13-1,.57-.22.87.33,1.07.74,1,2.14,1.79,4.37,2.67,6.56a23.82,23.82,0,0,0,2.22,4.81c1.65,2.37,2.91,2.72,5.6,1.69a64.68,64.68,0,0,0,7.89-4C324,233.87,324.61,233.31,325.45,233.61Z"/><path class="cls-1" d="M337.78,226a11.27,11.27,0,0,1-1.75-.15c-1.21-.27-1.61-1.18-.84-2.09.49-.59.39-.83-.11-1.24-.94-.77-.05-2.15-1.06-3.08-.35-.31.82-1.1,1.5-1.34a8.81,8.81,0,0,0,1.94-.7c1.5-.59,2.27,0,2.51,1.51.19,1.21.52,2.39.62,3.6C340.81,225.16,340.64,225.32,337.78,226Z"/><path class="cls-1" d="M255.46,36.08c-1-2.24-1.92-4.13-2.79-6a6.72,6.72,0,0,1-.44-1.38.65.65,0,0,1,.36-.81.63.63,0,0,1,.77.42c1.27,2.79,2.55,5.57,3.74,8.4.35.84-.63,1.62-1.59,1.18a1,1,0,0,0-1.45.26,1.67,1.67,0,0,1-2.45-.13c-.33-.28-.73-.73-.42-1.1.44-.53.7.1,1,.36s.88.64.87-.1C253,35.26,254.15,35.74,255.46,36.08Z"/><path class="cls-4" d="M258.6,30.51c0-.33.07-.59.06-.85,0-.92.1-1.93,1.22-1.84,1.28.1.77,1.29.78,2.06a3.44,3.44,0,0,1-.43,1.35c-.43.94-1.12,1.76-2.2,1.42S256.5,31.1,256.31,30a.69.69,0,0,1,.5-.74c.37-.13.6.1.8.36S257.94,30.49,258.6,30.51Z"/><path class="cls-4" d="M248.06,32.31a10.21,10.21,0,0,1,0-1.14c.06-.52.5-.67.91-.75a.65.65,0,0,1,.8.6,3.29,3.29,0,0,1-.54,3,2.33,2.33,0,0,1-2.42.89c-1.12-.32-1.56-1.38-2-2.35a.43.43,0,0,1,.07-.58.54.54,0,0,1,.72.07c.28.25.52.54.79.8s.68,1,1.31.68S248,32.62,248.06,32.31Z"/><path class="cls-4" d="M250.85,42.39a1.74,1.74,0,0,1-.73-.24c-.58-.41-1.49-.91-1-1.7s1.1,0,1.61.3a1.69,1.69,0,0,0,1.67.06c.37-.15.86-.45,1.08.12s-.29.75-.62,1A2.72,2.72,0,0,1,250.85,42.39Z"/><path class="cls-6" d="M203,185.79c.52,2.44-1.17,4.43-2.2,6.55-4.87,10.08-9.89,20.09-14.86,30.12-4.3,8.68-8.67,17.32-12.91,26q-3.34,6.88-6.7,13.78c-2.3,4.71-4.57,9.44-6.75,14.21a1.62,1.62,0,0,1-2,1.09q-6.81-.74-13.65-1.25c-1.25-.1-1.39-.35-.86-1.47,3.78-8.07,7.49-16.18,11.26-24.26,2.54-5.45,5.06-10.91,7.6-16.36,4.35-9.34,8.33-18.85,12.5-28.27,3-6.83,6.09-13.64,9.15-20.45.28-.63.79-1.44-.05-1.81a1.76,1.76,0,0,0-2.25.73c-3.4,5.22-7.49,9.93-11.09,15-2.18,3-4.34,6.12-6.58,9.12a2.25,2.25,0,0,0,.14,3.06,22.6,22.6,0,0,0,2.24,2.54,2.23,2.23,0,0,1,.53,2.95c-2.31,5-4.53,10.1-6.71,15.18-.52,1.21-1,1.36-2.08.62-3.31-2.2-6.76-4.18-9.85-6.7a21.63,21.63,0,0,1-4.69-5.49c-1.37-2.22-1.37-4.62-.91-7.16.73-4.08,3.13-7.38,4.93-10.94,3.84-7.63,7.66-15.26,11.38-23,.35-.72.71-1.2,1.56-1,3.4.77,6.74-.19,10.09-.49,4.15-.37,8.27-1.05,12.39-1.69a133,133,0,0,0,13.81-2.94,1.57,1.57,0,0,1,1.91.63A19.13,19.13,0,0,1,203,185.79Z"/><path class="cls-6" d="M240.48,133.51a82.63,82.63,0,0,0,4.92-18A105.81,105.81,0,0,0,246.65,94c-.06-1.75-.44-3.49.62-5.11a1.6,1.6,0,0,0,0-1.57c-1.18-2.16-2-4.62-4.77-5.45a3.45,3.45,0,0,1-.65-.36c1.26-.66,2.31-1.78,4-1.46a2.42,2.42,0,0,1,1.82,1c5.16,7.52,10.13,15.18,15.62,22.45,2.53,3.35,3,6.53,2.63,10.52-1,11.18-1.63,22.41-2.13,33.64-.39,8.69-.78,17.39-1.07,26.09-.05,1.42-.72,1.81-1.85,1.74-3.65-.25-7.29.06-10.94.11-6.38.09-12.77.25-19.15.41-1.74,0-3.42-.55-5.23.21-.86.36-2.6.62-3,0-.52-.89.84-1.79,1.39-2.67a40,40,0,0,0,5.42-13,1.22,1.22,0,0,1,1.52-1.16c1.93.12,3.86.13,5.79.15a11.55,11.55,0,0,0,1.76-.19,2.06,2.06,0,0,0,2-1.61c.21-1-.66-1.49-1.35-2-.42-.3-1-.34-1.27-.93.3-.44.81-.5,1.23-.66,3.7-1.34,6.35-4.15,8.88-6.88,3.67-4,1.7-8.94-2.7-11.79A13.58,13.58,0,0,0,240.48,133.51Z"/><path class="cls-6" d="M269.27,68.07c.21-3.29,1.66-6.18,2.91-9.14,2.52-6,5.28-11.85,7.5-18a62.15,62.15,0,0,0,3.24-17.17,31.84,31.84,0,0,0,0-6.25c-.15-1.23.27-1.76,1.65-1.89,3.43-.33,3.38-.44,3,3-.47,3.69.36,7.26,1.07,10.85,1.35,6.83,4,13.19,6.64,19.59,1.78,4.33,4.38,8.21,6.24,12.48.49,1.13.15,1.38-.74,1.47-3.26.34-6.4,1.3-9.65,1.67-1.36.15-2.72.41-4.08.65a2.23,2.23,0,0,0-2,2.22c-.39,4.89-.26,9.79-.18,14.68.06,3.81.33,7.62.53,11.43.13,2.38.94,3,3.3,3.16,3.78.19,7.56-.17,11.33-.22a20.82,20.82,0,0,0,5-.24c.53-.14.68.09.7.54a33,33,0,0,1,.22,5.14c-.18,1.66-1.76,2.48-3,3.38-5.48,4-11.69,5-18.28,4.18.31-1.07-.36-1.66-1.17-2a1.54,1.54,0,0,1-.72-2.37c1.27-1.49.52-2.72-.12-4-.5-1-.49-1.62.55-2.23s1.23-1.57.63-2.74c-3.76-7.29-7.46-14.61-11.21-21.9A48,48,0,0,0,269.27,68.07Z"/><path class="cls-6" d="M209.15,169.25c-.4,5.62-.77,11.25-1.19,16.87-.64,8.62-.5,17.27-.79,25.9-.18,5.47-.11,10.94-.2,16.41-.06,3.86-.2,7.73-.28,11.59,0,.92-.3,1.15-1.28,1-1.62-.21-3.24-.71-4.9-.25-4.26-3.26-8.5-6.54-12.76-9.79-2.4-1.83-2.46-1.84-1.11-4.53,4.55-9,9.16-18.07,13.7-27.13,1.35-2.68,2.89-5.29,4.06-8a15,15,0,0,0-.57-13,20.54,20.54,0,0,0-3.12-4.84c-.79-.86-.37-1.07.44-1.36C203.83,171.18,206.48,170.21,209.15,169.25Z"/><path class="cls-6" d="M178.4,109a5.77,5.77,0,0,1,5.61,2.26c1.88,2.18,3.12,4.82,5.1,7,3.43,3.77,7.5,4.85,12.4,4,2.65-.45,4.44-2.17,6.52-3.52,3.05-2,6-4.21,9.91-4.13,1.67,0,2.79,1.18,4,2.1a8.25,8.25,0,0,1,1.51,1.44c2,2.56,4.79,3.08,7.74,3.29a63.44,63.44,0,0,0-3.66,8.73,1.33,1.33,0,0,1-1.53,1.05q-16.75-.23-33.51-.37c-4.72,0-9.44,0-14.16.09a81.6,81.6,0,0,1-3.79-14.66,6.69,6.69,0,0,1,1.15-1.73A11.85,11.85,0,0,0,178.4,109Z"/><path class="cls-6" d="M161.14,128.28a55.05,55.05,0,0,0-.62,7.66,5.23,5.23,0,0,1-4,4.61c-2.15.68-4-.06-5.5-2a5.61,5.61,0,0,1-1.34-3.56c.23-5.43-1.28-10.51-3-15.57a14.55,14.55,0,0,1,0-8.09c.87-3.75,3.52-5.23,7.06-5.68,1.56-.19,3-.87,4.68-.17a6.7,6.7,0,0,1,4.59,6,28.76,28.76,0,0,1-1.64,13.12c-1.58,4-5.5,4.85-9,2.41a4,4,0,0,1-.4-.27c-.34-.28-.72-.63-1.09-.13s.12.68.36.94a7,7,0,0,0,8.27,1.35A2.55,2.55,0,0,1,161.14,128.28Z"/><path class="cls-6" d="M169.23,100.1q0,6.08,0,12.13a18.12,18.12,0,0,0-1.54-6.19c.62-.13.74.51,1.16.54a1.34,1.34,0,0,0,.16-.32c.23-3.7-.11-4.34-3.87-4.31a46.67,46.67,0,0,0-12.85,1.64,43.5,43.5,0,0,1-4.68,1.08c-1.72.3-2.9,1.52-4.33,2.32a15.16,15.16,0,0,0-7.1,9,27.07,27.07,0,0,0-1.28,4.14c-.26,1.71-1,1.22-1.85.62a7.65,7.65,0,0,1-2.56-10.47c2.25-4.12,6-5.85,10.49-6.43,1.32-.17,2.65.17,4-.27a1.65,1.65,0,0,0,1.37-1.94,13,13,0,0,1,1.54-7.3c.93-1.54,1.2-1.56,2.22-.15.25.34.48.71.72,1.07.34.53.67,1.3,1.42,1s1.76-.56,1.9-1.73a9.56,9.56,0,0,1,.55-2.49c.73-1.88,2.28-2.14,3.59-.61a13.44,13.44,0,0,1,2.85,6.4c.45,2.36.49,2.31,2.76,1.8C165.67,99.21,167.46,99.72,169.23,100.1Z"/><path class="cls-6" d="M194.66,257.26,182.58,248c.15-.8.84-1.07,1.42-1.41,4.54-2.64,9.53-3.62,14.71-3.9q5.89,4.69,11.81,9.38c.46.36.76.66.42,1.32-.47.94-.82,1.94-1.22,2.92-1.45.9-3.11.68-4.68.8-2.23.18-4.47.4-6.72.46A14,14,0,0,1,194.66,257.26Z"/><path class="cls-6" d="M191.45,153.26c-1.37-1.62-2.75-3.22-4.09-4.86-.64-.78-1.19-1.64-1.78-2.46,5.95-.09,11.91-.21,17.86-.23,4,0,7.95-.33,11.92-.08,2.92-1.89,6.26-.71,9.36-1.26,2.07-.37,2.78.88,1.83,2.84a11,11,0,0,0-1.44,3.39c-.07.64-.57.5-1,.53q-15,.93-30,1.88C193.23,153.06,192.34,153.17,191.45,153.26Z"/><path class="cls-6" d="M180.12,246.16c-2.57-1.82-2.51-1.79-1.08-4.53,1.64-3.12,3.13-6.32,4.7-9.48.23-.48.52-.92.84-1.47l11.76,10.06c-.25.44-.7.45-1.12.5C190,241.8,185,243,180.58,246A2.25,2.25,0,0,1,180.12,246.16Z"/><path class="cls-6" d="M211,249.22c.83-.71.52-1.7.58-2.57.12-1.93.33-2.22,2.3-2.24,2.37,0,4.66.65,7,.91a4.57,4.57,0,0,1,2.46,1c2.39,1.91,2.29,4.29-.18,6.11s-5.22,2.17-8,2.83c-.67.15-1.37.19-2.06.28.13-1.22,1.42-2.1,1.16-3.37s-2-1.23-2.63-2.3A4.17,4.17,0,0,0,211,249.22Z"/><path class="cls-6" d="M250.16,178.17c1.17,0,2.49-.34,3.49.08,1.25.52.41,2.11.87,3.18,1.18,2.78,2.81,5,5.8,6,.37.12.79.29.82.69s-.53.47-.83.56a11.1,11.1,0,0,1-7.54-.24,3.54,3.54,0,0,1-2-2.94c-.2-.94-.28-1.92-1.66-2s-1.48,1-1.79,1.87c-.5,1.46-.84,3.07-2.95,3-.78,0-1.1-.23-.9-1,.68-2.81,1.35-5.63,2-8.44.14-.62.62-.69,1.11-.7,1.18,0,2.36,0,3.54,0Z"/><path class="cls-6" d="M137.09,287.56A22.14,22.14,0,0,0,143,281.1a4.41,4.41,0,0,0,.49-.83c.88-3.07,1.19-2.35,3.67-1.95,2,.32,4,.73,6,1.06.84.14,1.23.34.82,1.32-1.1,2.68-2.12,5.4-3.15,8.1-.23.6-.61.93-1.22.72s-.32-.8-.2-1.22c.18-.67.44-1.32.66-2,.38-1.11-.22-1.75-1.1-2.18s-1.21.32-1.58.9c-1.58,2.48-4.14,2.64-6.68,2.75A34.75,34.75,0,0,1,137.09,287.56Z"/><path class="cls-6" d="M268.15,77.69c.77-1.74.39-3.6.57-5.39.06-.52-.17-1.06.11-1.56a7.59,7.59,0,0,0,1,3.17c3.87,7.42,7.71,14.85,11.58,22.27.4.77,1,1.43-.37,2-1,.39-1.64,1-2.38-.43-3.17-6.19-6.45-12.32-9.69-18.48Z"/><path class="cls-6" d="M237.09,141c.94-1.87,2.16-3.62,2.57-5.73a12.06,12.06,0,0,1,5.93,2.64c2,1.73,2.49,3.23,1.52,5.68-1.42,3.55-4.7,4.79-7.72,6.33l-.28-.29c.53-.64,1.09-1.24,1.57-1.91,1-1.48.56-2.53-1.21-2.87-1.09-.21-2.07.4-3.36.39a11.67,11.67,0,0,1,4-2.82c.87-.33,1.5-.79,1-1.76s-1.09-1.31-2.09-.62C238.48,140.47,237.63,140.45,237.09,141Z"/><path class="cls-6" d="M265,63.6c-.3,2.12-.59,4.25-.89,6.37q-5.61-10.29-11.24-20.58c-.47-.84-.3-1.22.56-1.53,2.1-.75,3-.44,4,1.64,2.13,4.27,4.23,8.55,6.36,12.82C264.09,62.85,264.19,63.59,265,63.6Z"/><path class="cls-6" d="M234.06,121a9.63,9.63,0,0,0,4.28-2.14c.24-.2.55-.52.82-.24a1.2,1.2,0,0,1,.14.91,70.1,70.1,0,0,1-3,10.53c-.46,1.15-.74,2.38-1.1,3.57-.41-1.25-1.52-.95-2.4-1-2.85-.32-2.83-.29-1.91-3a66.27,66.27,0,0,1,2.83-6.8A2.4,2.4,0,0,0,234.06,121Z"/><path class="cls-6" d="M214.85,274.58c-1.42-3.23-3.81-5.61-6.31-7.89-.6-.55-.95-1-.42-1.77a32.17,32.17,0,0,0,2.54-5c.39-.77.74-1.07,1.57-.48,1.75,1.24,3.55,2.4,5.34,3.57.37.24.57.51.42.92s-.63.51-1.06.34a12.93,12.93,0,0,1-1.47-.66,1.64,1.64,0,0,0-2.36.5c-.77.93-.24,1.44.32,2.05C215.71,268.63,215.63,271.53,214.85,274.58Z"/><path class="cls-6" d="M225.42,186.76a65.38,65.38,0,0,1,2.79-7.67,1,1,0,0,1,1-.64h5.88c-1.86,4.29-3.06,8.51-1,13a5.73,5.73,0,0,1-4.25-5.76c0-.7.39-1.6-.59-1.95a1.86,1.86,0,0,0-2.3,1C226.61,185.32,226.15,185.84,225.42,186.76Z"/><path class="cls-6" d="M167.38,114.22c0,3.61-.79,7.14-1.22,10.71a31.2,31.2,0,0,0-.33,4.81c0,1.32-.57,1.34-1.55,1.35-1.27,0-1-.71-.89-1.49.59-4.46,1.73-8.84,1.88-13.37.14-4.1,0-8-3.62-10.8-.2-.17-.47-.39-.27-.66a1,1,0,0,1,.68-.34,2.77,2.77,0,0,1,1.65.57,7.94,7.94,0,0,1,3.66,6.31C167.42,112.28,167.38,113.25,167.38,114.22Z"/><path class="cls-4" d="M180.12,246.16c2.14-2.27,5-3.17,7.86-4a40.8,40.8,0,0,1,8.36-1.4,9.9,9.9,0,0,1,2.37,1.91c-1.72.85-3.64.68-5.46,1A27.28,27.28,0,0,0,182.58,248,8.92,8.92,0,0,1,180.12,246.16Z"/><path class="cls-4" d="M194.66,257.26c1.09-.68,2.31-.17,3.42-.21,3.89-.12,7.75-.67,11.64-.78l-1.8,4.12a3.54,3.54,0,0,1-2.38.8,15.65,15.65,0,0,1-6.21-.26A40.32,40.32,0,0,1,194.66,257.26Z"/><path class="cls-6" d="M176.57,195c-1.27,2.69-2.57,5.37-3.82,8.08-1.38,3-2.74,6-4.05,9.1-.35.81-.57.82-1.19.24-2.23-2.1-2.18-2-.39-4.5,2.89-4,5.68-8,8.52-12.07.23-.33.5-.63.76-.95Z"/><path class="cls-6" d="M169.29,113.67c.32,2.49.62,5,1,7.47.43,3.3,1.41,6.48,2.12,9.71-.27,0-.53.05-.79.05-3.95,0-3.47.95-3.46-3.51,0-2.9.66-5.73.92-8.6C169.18,117.09,169.21,115.37,169.29,113.67Z"/><path class="cls-6" d="M238.19,157.33c-2.6.94-5,.25-7.4.31-.56,0-.73-.33-.69-.84.11-1.56.2-3.11.32-4.66a1.21,1.21,0,0,1,.31-.71,17.44,17.44,0,0,1,7.33-4.79,4.48,4.48,0,0,1,1.09,0,25.76,25.76,0,0,1-5.41,4.92,6.47,6.47,0,0,0-2.73,3.12c-.28.7-.21,1.08.58,1.32a8.75,8.75,0,0,0,2.55.13C235.52,156.14,236.92,156.11,238.19,157.33Z"/><path class="cls-6" d="M219.09,141.68l5-5.66a1.8,1.8,0,0,1,1.95-.37c.71.19.34.9.36,1.38.05,1.23,0,2.46.05,3.68,0,.66-.17,1-.89,1C223.52,141.67,221.5,141.68,219.09,141.68Z"/><path class="cls-6" d="M189.63,256.63c-2.91-.31-5.83-.62-8.25-2.51a2.76,2.76,0,0,1-.81-4A108,108,0,0,1,189.63,256.63Z"/><path class="cls-6" d="M199.33,260.93a52.72,52.72,0,0,0,8.6-.55c-.78,1.55-.84,3.46-2.49,4.59-.5.34-.71.44-1.17,0C202.64,263.63,201,262.29,199.33,260.93Z"/><path class="cls-6" d="M147.38,135.92c-2.86,5.22-6,10.32-7.59,16.16C139.33,145.34,142.65,140.33,147.38,135.92Z"/><path class="cls-6" d="M234.14,135.67c-1,2-1.38,4.44-3.25,6-.92,0-1.35-.35-1.3-1.34,0-1.17,0-2.36,0-3.53s.29-1.48,1.38-1.35S233.08,135.61,234.14,135.67Z"/><path class="cls-7" d="M278.94,112.55c-1.57-.54-1.7-2-2.8-2.68a25,25,0,0,1,4-1.79.67.67,0,0,1,1,.26,7.1,7.1,0,0,1,1.53,3.9c-1.24-.25-1.72-1.22-2.45-1.87-.35-.31-.5-1.12-1.22-.66a1.16,1.16,0,0,0-.41,1.67A7.73,7.73,0,0,1,278.94,112.55Z"/><path class="cls-8" d="M228.39,147.11a10,10,0,0,1-.62,3.92c-.12.39-.22,1.11-.9.72-.45-.27-1.09-.65-.71-1.39A9.91,9.91,0,0,1,228.39,147.11Z"/><path class="cls-6" d="M203,242.79c.31,0,.63,0,.94,0,2.77.15,2.77.16,2.8,2.92A23.38,23.38,0,0,1,203,242.79Z"/><path class="cls-7" d="M276.28,113.54c-1.36-.81-2.72-1.2-2.78-2.37,0-.66,1.27-.94,2.49-1.13C274.94,111.23,275.83,112.13,276.28,113.54Z"/><path class="cls-6" d="M240.06,151.56a22.84,22.84,0,0,1-5.32,2.19C235.62,152.5,237.66,151.64,240.06,151.56Z"/><path class="cls-6" d="M282.22,103.78c-.52-.78-1-1.58-1.57-2.34a.47.47,0,0,1,.16-.78c.39-.22.7-.17.86.32A5,5,0,0,1,282.22,103.78Z"/><path class="cls-9" d="M187.42,153.48a1.39,1.39,0,0,1,1.18.05A1.36,1.36,0,0,1,187.42,153.48Z"/><path class="cls-6" d="M337.1,345.66a11.79,11.79,0,0,1-8.63.39,10.42,10.42,0,0,1-5.63-3.81c-.67-.9-1.54-.72-1.86.35a5.2,5.2,0,0,0-.28,1.74c.08,1.35-.9,1.29-1.71,1.31-1.14,0-.68-.87-.65-1.42.25-4,.27-4,4.33-3.92l7.57.24a1.89,1.89,0,0,1,1.73.65A16.19,16.19,0,0,0,337.1,345.66Z"/><path class="cls-6" d="M236,277.38a12.89,12.89,0,0,1,7.33.81c1.32.6,2.16,0,3-.67s.24-1.47.06-2.2a17.62,17.62,0,0,0-.65-2c-.22-.58-.23-1.09.44-1.32.82-.28.68.52.78.87.64,2.1,1.17,4.23,1.83,6.32.24.78.06,1.09-.7,1.21-1.53.25-3.06.53-4.6.78a1.2,1.2,0,0,1-1.07-.16A18.28,18.28,0,0,0,236,277.38Z"/><path class="cls-1" d="M275.25,240.27a1.53,1.53,0,0,1,1.44,0A1.65,1.65,0,0,1,275.25,240.27Z"/><path class="cls-6" d="M95.18,302.57a15.69,15.69,0,0,0-6.43-1.42c-.58,0-1.15-.1-1.73-.15-.26-6.43-.13-12.87-.54-19.29a20.83,20.83,0,0,0,10.74-7.58c4-5.62,5.57-12,5.85-18.77a2.69,2.69,0,0,1,.14-.61c.91.3,1.82.58,2.76.81,2.82.68,4.06,3,5.14,5.36,2.54,5.48,4.82,11.07,7,16.71,1.26,3.27,2.74,6.46,3.92,9.77a32.39,32.39,0,0,1,1.56,6.37c.42,2.94-1.12,5.29-3.25,7a50.8,50.8,0,0,1-11,6.83,1.11,1.11,0,0,1-1.51-.37c-1.81-2.05-3.61-4.12-5.48-6.11-.72-.77-.71-1.06.28-1.57,3.24-1.68,6.39-3.52,9.61-5.23a2.07,2.07,0,0,0,1-3c-1.13-2.49-2.38-4.92-3.6-7.37-.29-.58-.64-1.24-1.37-1.21s-.84.87-1,1.45a66.58,66.58,0,0,0-2.12,9.58,2.54,2.54,0,0,1-1.36,2c-1.43.84-2.8,1.8-4.15,2.76-1.58,1.13-1.64,2.05-.27,3.37a21.15,21.15,0,0,1,1.74,1.67c.55.66,1.71,1,1.57,2S99.94,308,98.91,308a5.77,5.77,0,0,0-1.24.31c-.14-.53.28-.69.49-1,.89-1.62.78-2.26-.54-3.36-.36-.29-.84-.48-1-1,.16-.42.37-.87-.42-.68Z"/><path class="cls-6" d="M82.72,286.39c.23,4.54.17,9.09.62,13.62.07.74-.28,1-1,1.11-1.85.22-3.68.55-5.54.78A2.3,2.3,0,0,0,74.53,304c-1.67-.34-2.65-1.5-3.75-2.71a54.09,54.09,0,0,0-5.64-5,2.84,2.84,0,0,1-1.16-2.3c-.12-3.22-.42-6.43-.56-9.65a2.29,2.29,0,0,0-1.76-2.21c-1-.29-1.36.8-1.71,1.57-.89,2-1.66,4.09-2.67,6a2.83,2.83,0,0,0,.68,3.72,119.73,119.73,0,0,0,9.53,8.91c.92.75,1.1,1.22.12,2.07-2.07,1.79-3.73,4-5.9,5.71a1.46,1.46,0,0,1-2.13,0c-3.76-3.21-7.78-6.08-11.64-9.15-2.13-1.7-2.14-4.16-1.5-6.5a199.08,199.08,0,0,1,9.1-26.1,40.82,40.82,0,0,1,3.31-6.4,5.88,5.88,0,0,1,4.3-3.05,5.8,5.8,0,0,0,1.47-.61,40.8,40.8,0,0,0,3.7,12.1A22.94,22.94,0,0,0,78.5,280.79a12.41,12.41,0,0,0,2,.62c2.47.72,2.47.72,2.24,3.36-.54.09-1.37-.48-1.45.61S82.15,286.17,82.72,286.39Z"/><path class="cls-6" d="M40.1,316.38c2.45,0,4.91,0,7.36,0,10.7.11,21.4.43,32.1.08.91,0,1.9-.24,2,1.19,0,.53.57.38.91.39a35.36,35.36,0,0,0,3.71.05c1.46-.12,1.91.6,2.07,1.89.22,1.88.4,1.94,2.22,1.56l21.92-4.62a5.15,5.15,0,0,1,2.16-.13c-.15,1.42-1.29,1.56-2.28,1.78-4.09.88-8.19,1.7-12.28,2.56-6.21,1.31-12.42,2.62-18.62,4-1,.22-1.59.2-1.62-1.07s-.34-2.23-.42-3.35c-.09-1.33-.66-1.81-2-1.85-11.08-.35-22.15-.7-33.19-1.62A8.79,8.79,0,0,1,40.1,316.38Z"/><path class="cls-6" d="M67.05,335.58c.62-3,2.7-4.93,5-6.54a3.43,3.43,0,0,0,1.15-1.25c.7-1.26.12-1.63-1-1.75-.57-.06-1.57.32-1.61-.42s1-.61,1.59-.71c4.65-.74,4.81-.61,5.34,4.15,0,.36.2.76-.37.87A20,20,0,0,0,67.05,335.58Z"/><path class="cls-4" d="M89,309.06c-.85.49-2.27.48-1.77,2.12.08.26-.14.33-.38.35-1.84.08-3.62.88-5.51.55-.21,0-.53,0-.61-.11-1.29-1.92-3.49-1.86-5.37-2.5a8.88,8.88,0,0,1-4.51-2.75,27.88,27.88,0,0,1,5.15.64c3,.55,5.94,1.35,9,1.11.73,0,1.46,0,2.19,0S88.54,308.4,89,309.06Z"/><path class="cls-6" d="M85,308.9a18.23,18.23,0,0,1-9-1.54c.81-.2,1.75-.29,1.4-1.54a15.51,15.51,0,0,1,5.16-1.13c.57,0,.95,0,1.22.71a2.86,2.86,0,0,0,2.31,1.77A7.85,7.85,0,0,1,85,308.9Z"/><path class="cls-6" d="M89,309.06l-1.72-.21c-.77-1.48-.39-3,0-4.42l3.43.09c-.62,1.3.18,1.71,1.22,1.71,1.44,0,2.89-.16,4.33-.28.29,0,.64-.35.81.11s-.21.58-.46.77a11.65,11.65,0,0,1-4.48,1.71C91.12,308.79,90,308.89,89,309.06Z"/><path class="cls-10" d="M96.65,303a4,4,0,0,1,2,1.36c1,1.09.82,2-.45,3,.22-2.68-.56-3.14-4.83-2.78.39-.63,1-.71,1.53-.92S96.06,303.25,96.65,303Z"/><path class="cls-6" d="M108.29,292.74c0-.4,0-.67,0-.93.18-1.41.38-2.83.58-4.35C110.89,290.76,110.79,291.76,108.29,292.74Z"/><path class="cls-2" d="M61.34,289c.09.13.24.24.26.38.19,1.31.37,2.62.56,4C59.28,292.37,59.58,291.53,61.34,289Z"/><path class="cls-6" d="M71.19,309.73c-1.34-.64-2.32-2.07-3.35-.26a.37.37,0,0,1-.57.07c-.27-.19-.21-.45,0-.68.76-.9,1.52-1.8,2.39-2.85.21.74-.2,1.39.17,1.91S70.58,308.93,71.19,309.73Z"/><path class="cls-6" d="M75.05,305.62c-1.59.06-3.11-1.09-4.71,0,.67-2,.88-2.1,2.7-1.24A3.94,3.94,0,0,1,75.05,305.62Z"/><path class="cls-6" d="M93.76,310.08c.47-.05.82-.67,1.44-.4A1.64,1.64,0,0,1,93.76,310.08Z"/><path class="cls-6" d="M55.65,219.16a2,2,0,0,1,1.55-1.6A17.84,17.84,0,0,0,59,217c.49-.23,1.42-.23,1.28-1s-1-1-1.71-.87-1.37.3-1.52-.93c-.08-.69-1.07-.93-1.91-.76a12,12,0,0,1-5.55-.14c1-.55,1.17-.57,3.2-.46.54,0,1.07.09,1.61.1s1.4.37,1.74-.39-.59-.93-.93-1.67c2.23.29,4.51-.05,5.44,2.68.3.87,1.22.86,2,.74.95-.17.23-.79.1-1.08a47.94,47.94,0,0,1-3.9-14.58,28.17,28.17,0,0,1-.08-5.95c.21-2.15,0-2.38-2.21-2.57-9.66-.83-19.34-.94-29-.86a7.56,7.56,0,0,1-5.28-1.87,13.65,13.65,0,0,1-4.83-8.44c-1.59-10.27.94-19.7,5.42-28.78a79.73,79.73,0,0,1,14.29-20.55,81.71,81.71,0,0,1,6.71-6c.69-.56,1-.46,1.53.21a198.56,198.56,0,0,0,14.27,16.4,3.5,3.5,0,0,1,1,3q-.69,5.68-1.32,11.37a2.73,2.73,0,0,1-.81,1.7,22.14,22.14,0,0,1-8.75,5.57,8.72,8.72,0,0,1-4.59,0c-.91-.21-1.95-.81-2.57.4s.63,1.61,1.26,2.08c-.25,1.19-2.33,1.16-1.56,2.75.36.75.85-.08,1.39-.12a9,9,0,0,1-3.51,2.67c-.47.2-1.21.57-.07.89.7.2.3.47.18.8-.47,1.25-1.89,2.26-.83,3.9.31.48-.32.66-.78.68-1,0-1.94,0-2.9.12-.62.07-1.64-.28-1.67.74,0,.87.94.72,1.52.78,3.1.35,6.2.71,9.3.94,3.7.29,7.41.49,11.11.66,1,.05,1.47.25,1.71,1.37.58,2.74,2.54,4.55,4.77,6a11.64,11.64,0,0,0,4.83,2.07c.81.12.81.72.8,1.34-.09,4.62-.21,9.25-.71,13.85-.33,3-.26,6-.93,9-.11.46,0,1-.45,1.33C63,216.59,59.79,218.7,55.65,219.16Z"/><path class="cls-6" d="M60.84,173.76c.74-10.29,1.6-20.58,1.82-30.91.12-5.5,5-8.77,11-7.7a11.58,11.58,0,0,1,7,4.41,6.29,6.29,0,0,1,1.46,4.33c-.24,7.94-3,15.11-6.71,22-.86,1.56-1.86,3-2.78,4.54-.19.31-.44.68-.08,1a.75.75,0,0,0,1,0c2.25-1.92,5.12-2.12,7.79-2.83a57.86,57.86,0,0,1,9.72-1.44,1.54,1.54,0,0,1,1.84,1.1c1.35,3.27,2.77,6.52,4.23,9.75.39.88.36,1.37-.65,1.66-6.17,1.79-12,4.63-18.25,6.15a29.44,29.44,0,0,1-6.55.68c-1,0-1.3-.39-1.33-1.32a8.25,8.25,0,0,0-4.56-7.11,9.09,9.09,0,0,0-3.54-1c-1.59-.19-1.88-.86-1.6-2.21A8.32,8.32,0,0,0,60.84,173.76Z"/><path class="cls-6" d="M94.1,133.1c-2.76,1.1-3.44,1.91-3.27,4.84s.35,6.08,2.29,8.68a7.12,7.12,0,0,0,2.62,2,2.17,2.17,0,0,1,1.34,2c.18,2.72.47,5.44.74,8.15.07.66-.09,1.06-.82,1-1.77-.08-3.14.86-4.53,1.76-2.26-5-4.49-10-6.82-15-.64-1.37-.22-2.74-.35-4.11,0-.43.36-.62.67-.84,4.41-3.08,5.86-7.52,4.11-12.59-2-5.67-7.14-9-12.67-8.2a6.66,6.66,0,0,0-2.67,1.06,5.77,5.77,0,0,1-1.63.64c-.62.16-1.36.34-1.64-.49s.34-1.06.92-1.46c9-6.24,20,.44,21.2,10.18C93.69,131.58,93.49,132.43,94.1,133.1Z"/><path class="cls-6" d="M19.35,188.14c2.17,1.81,4,3.44,6.42,4.22a2.64,2.64,0,0,0,1.25.21c1.09-.23,1.52-.06,1.46,1.23-.05,1.1,1.44,1.57,2.44.86a5.29,5.29,0,0,1,1.78-1.07,2.1,2.1,0,0,1,2.63,2.72c-.12.47-.42.54-.81.6a3.65,3.65,0,0,0-2.29,1.4c-.26.32-.66.69-.3,1.12s.87.31,1.32,0a5.42,5.42,0,0,1,1.12-.63c.52-.13,1.25-.44,1.35.52.06.63.4,1.46-.82,1.46a1.66,1.66,0,0,0-1.75,1.55c-.12.83.53,1.13,1.14,1.35s1,.2.88-.61c-.23-1.17.47-1,1.12-.78,1,.32,1.44,1.26,2.05,2,.31.35-.14.54-.39.7a7.65,7.65,0,0,0-3.32,4.22c-.32,1-.74.91-1.53.52A13.16,13.16,0,0,1,30,207.45c-.33-.31-.72-.6-1.12-.21s-.05.7.15,1a7.11,7.11,0,0,0,4,3.28c.61.16.88.33.7.94-.25.86-.19,1.92-1.09,2.38-.4.2-.62-.5-.83-.84A2.15,2.15,0,0,0,29,213a1.07,1.07,0,0,1-1.48-.5,23.28,23.28,0,0,0-2.1-2.85,16,16,0,0,1-3.1-3.87c-.37-.71-.78-1.22-.47-2,.15-.38.2-.76-.25-1a.89.89,0,0,0-1,.25,14.7,14.7,0,0,1-1.42,1.32c-.55.44-1.2.43-1.46-.28a3.43,3.43,0,0,1,.62-3.05,1.64,1.64,0,0,1,2.12-.69c1.37.52,2.26.27,2.67-1.25a4.54,4.54,0,0,1,1.57-2c.41-.39,1.18-.63.82-1.35s-1.13-.4-1.75-.45-1,1.14-1.64.35c-.46-.62.06-1.32.39-1.94.67-1.26-.36-1.51-1.14-2A3.47,3.47,0,0,1,19.35,188.14Z"/><path class="cls-6" d="M113.71,201.39c-1.95.17-3.15-.72-4-2.79-2.26-5.39-4.82-10.66-7.27-16-.79-1.73-.62-2.06,1.16-2.6a37.42,37.42,0,0,0,4.4-1.51c.94-.4,1.22-.14,1.44.73,1.15,4.58,2.34,9.14,3.51,13.71.63,2.49,1.24,5,1.88,7.47C115,201.29,114.81,201.67,113.71,201.39Z"/><path class="cls-6" d="M84.8,149.49a88.42,88.42,0,0,1,4.11,9c.77,1.71,1.37,3.5,2.17,5.19.44.92.31,1.17-.69,1.29A53.23,53.23,0,0,0,77,168.27,45,45,0,0,0,84.8,149.49Z"/><path class="cls-6" d="M95.45,166.76a17.64,17.64,0,0,0,7.82.14c.09.06.18.17.27.17,2.81-.17,3.58,1.57,3.84,3.94.15,1.37,1.28,2.87.72,4s-2.43,1.09-3.7,1.61c-3.93,1.6-4,1.56-5.79-2.26q-1.45-3.06-2.87-6.13C95.54,167.79,95.05,167.35,95.45,166.76Z"/><path class="cls-6" d="M58.67,160.79c-.3,3.23-.56,6.09-.83,8.94-.15,1.66-.41,3.31-.43,5,0,1.32-.56,1.66-1.76,1.52-1-.12-1.93-.11-2.89-.17-2.65-.16-2.64-.16-2.75-2.82a11.79,11.79,0,0,0,.06-2.72c0-.14,0-.41.07-.45,2.27-1.06,1.15-3,1.17-4.63,0-.37,0-.64.36-.76A26.88,26.88,0,0,0,58.67,160.79Z"/><path class="cls-6" d="M103.88,213.35a22.43,22.43,0,0,0,4-1.27c3-1.5,3.86-2.55,3.64-6-.15-2.54-.16-2.36,2.4-2.48,2-.1,2.94.76,3.53,2.55.79,2.39,1.82,4.71,2.7,7.07.16.43.62,1.13-.24,1.3-.63.12-1.54.54-1.85-.61-.12-.46-.32-.91-.46-1.37-.25-.79-.5-1.47-1.57-1.52a1.88,1.88,0,0,0-2,1.21C111.94,216.08,107.18,216.78,103.88,213.35Z"/><path class="cls-6" d="M117.84,170.32c.37-.19.71.09,1.06.1.58.63.41,1.42.45,2.15a2.19,2.19,0,0,0,1.82,2.3c1.14.29,2.24.73,3.35,1.13,3.22,1.16,4.12,3.8,4.42,6.83,0,.32-.12.64.06.94,2.68-3.05,2.4-5.39-.67-8a11.19,11.19,0,0,1-1.75-1.4,2.58,2.58,0,0,1-.36-3,2,2,0,0,1,2.38-.91,5.18,5.18,0,0,0,3-.38,6.33,6.33,0,0,0-3,0,6.24,6.24,0,0,1-4.9-.92c.14-.21.22-.49.54-.5,2.69.59,5.44.38,8.16.57,1.1.08,1.47.36,1.3,1.53-.12.86-.39,1.11-1.2,1-1.11-.15-2.23-.27-3.36-.34-.71,0-1.62-.31-1.88.72a1.87,1.87,0,0,0,1.15,2.35,5.3,5.3,0,0,1,3.45,4.64c.2,3.32-1.24,5.89-3.9,8-.39-1-.07-2-.16-3-.27-2.69-.65-5.38-3.35-6.84a12.45,12.45,0,0,0-5.07-1.45c-.87-.06-1.32-.13-1.28-1.23A36.87,36.87,0,0,0,117.84,170.32Z"/><path class="cls-6" d="M104.71,160.75c-.43,0-.86,0-1.28,0-1,0-1.61.36-1.23,1.45.18.49.24.87-.34,1s-.58-.34-.61-.75c-.28-3.67-.53-7.34-.84-11-.11-1.3.41-1.89,1.7-1.85l2.22,9.47C104.46,159.61,104.58,160.18,104.71,160.75Z"/><path class="cls-6" d="M112.57,168a10,10,0,0,0,4.07,2c-.61.16-.58.64-.62,1.13-.12,1.49-3.11,3.24-4.45,2.63-.41-.18-.41-.57-.5-.94-.27-1.15-.53-2.3-.87-3.43-.31-1-.16-1.45,1-1.18A1.45,1.45,0,0,0,112.57,168Z"/><path class="cls-6" d="M67.79,184.37c.12,1.15-.14,1.52-.86,1.19-2.42-1.11-4.63-2.46-5.85-5-.17-.34-.38-.71-.16-1.06s.68-.21,1-.12c2.49.64,4.85,1.47,5.68,4.31C67.73,184.07,67.8,184.44,67.79,184.37Z"/><path class="cls-6" d="M56.15,215.57a19.32,19.32,0,0,1-8.07,1.73A13.52,13.52,0,0,1,56.15,215.57Z"/><path class="cls-6" d="M333.17,222a2.21,2.21,0,0,1-.25,1.63c-.16.4-.54.49-.89.62q-6.28,2.29-12.51,4.76c-2.29.91-2.69.69-3.74-1.51a55.93,55.93,0,0,0-2.69-5.5,5.75,5.75,0,0,0-1.34-1.6c-.05-.06-.09-.13-.14-.2a8.3,8.3,0,0,0,3.11-1.88,2.11,2.11,0,0,0,.37-2.79c-1.2-1.5-1.67-3.4-3-4.8-2.57-2.69-4.42-6-7.31-8.42,4.1.08,7.34-1.7,10.18-4.52s6.28-3,9.9-2.77c-.16,4-.29,8,1.05,11.92s3.55,6.63,7.57,7.73c.39.11.82.15.41.7-1.13.11-1.57.79-1.74,1.86-.28,1.79.44,3.45.51,5.25-.06.13.26,0,0-.09q-.06,0,0-.15C332.84,222.05,332.77,221.58,333.17,222Z"/><path class="cls-6" d="M294.91,204.22c-1.46,1.63-2.87.21-4-.33-3.68-1.72-5.64-1.62-8.57,1.22-1.3,1.26-2.54,1.9-4.25.83a13.3,13.3,0,0,0-2-.83c1.55.56,2.16-.38,2.68-1.6a23,23,0,0,0,1.84-6.81c.1-.94-.12-1.58-1.2-1.68-.58-.05-1.46.29-1.51-.69,0-.77.5-1.25,1.28-1.43.13,0,.23-.21.34-.32a.63.63,0,0,1,.75.06,5.69,5.69,0,0,0,6.64-.12,1.7,1.7,0,0,1,.75-.27,3.78,3.78,0,0,0,4-.6c1.1.42,2.4.38,3.23,1.41a14.44,14.44,0,0,1-1.85,5.13,5.41,5.41,0,0,1-6,2.47c-.54-.11-1.09-.45-1.78,0a5.82,5.82,0,0,0,4.89,1,1.5,1.5,0,0,1,1.74.62A4.44,4.44,0,0,0,294.91,204.22Z"/><path class="cls-4" d="M294.87,193.06a10.64,10.64,0,0,1-3.24-1.16c-1.33-.29-1.52-1.47-1.91-2.28.31,2.18.21,2.33-2.08,2.78-3.21,2.31-5.29,2.36-8.17.18a4,4,0,0,1-1.38-3.44c.05-1.25-.49-1.69-1.57-1.94a3.58,3.58,0,0,1-1.9-.8c-.26-.26-.58-.54-.35-1a.67.67,0,0,1,1-.27c2.09,1.31,3.34.72,5-1.17,2.16-2.46,3.68-2.22,7.52.06,1,.59,1,.59,1.75,1.89.65-.92.73-2.26,2-2.58,2.82-2,5.91-1.44,7.75,1.35a5.38,5.38,0,0,1-1.5,7.48A7.43,7.43,0,0,1,294.87,193.06Z"/><path class="cls-6" d="M299.56,201.43a15.93,15.93,0,0,0-3.78,2.06c-.92-.71-2.1-1-2.9-1.93-.46-.55-.49-.82.07-1.24a5.73,5.73,0,0,0,1-1c.49-.59.85-.73,1.52-.11A13.86,13.86,0,0,0,299.56,201.43Z"/><path class="cls-6" d="M291.51,183.37a4.69,4.69,0,0,0-1.35,2.45c-.08.4-.13,1-.62,1s-.55-.55-.62-.93c-.14-.79-.78-1.24-1.17-1.85.6-.1,1.22.19,1.68-.7S290.79,183.61,291.51,183.37Z"/><path class="cls-6" d="M173,101.46a67.92,67.92,0,0,1,0-9.78c0-.3-.06-.7.27-.87s.68.2.93.45C176.15,93.14,178.59,94,181,95c6,2.6,12.41,2.81,18.76,3.51,9.77,1.06,19.48.4,29.18-.74,2.33-.28,4.63-.84,6.94-1.27a2.07,2.07,0,0,1,.34,1.54c-.46,4.74-.15,9.56-1.4,14.23a11.42,11.42,0,0,1-1.11,3.34c-3,1.75-5,1.77-6.41-.25a13.66,13.66,0,0,0-2.88-2.66,7.68,7.68,0,0,0-3.17-1.45c-3.08-.7-6.07-1.18-9.37.13a66.58,66.58,0,0,0-7.58,3.86c-1.22.67-2.14,1.7-3.39,2.36-2.22,1.18-4.09.74-6-.62-2.33-1.7-4-4-5.85-6.18a13.61,13.61,0,0,0-5.37-4.17c-1.74-.65-3.57-.4-5.36-.53-.68-.53-.72-1.39-1.05-2.09A11.09,11.09,0,0,0,174,99.88C173.2,100.22,173.78,101.22,173,101.46Z"/><path class="cls-6" d="M237.83,90.54c-11.1,3.26-22.47,3.94-34,3.68a117.57,117.57,0,0,1-19.62-2.34,18.21,18.21,0,0,1-6.76-2.4c-1.37-.9-1.45-1.85,0-2.76a25.68,25.68,0,0,1,6.1-2.47c6-1.82,12.1-2.16,18.26-2.62,6.88-.5,13.72,0,20.57.45,2.81.19,5.58.88,8.36,1.33a46.71,46.71,0,0,1,7.88,1.92c.4.8-.13,1.44-.37,2.11A5.28,5.28,0,0,0,237.83,90.54Z"/><path class="cls-6" d="M237.59,95.76A12.87,12.87,0,0,0,240,95c1-.65,1.32-.22,1.32.82a121.57,121.57,0,0,1-.47,13.63c-.07.7-.15,1.39-.2,2.08,0,.45-.2,1-.62,1-1.22-.09-2,1.06-3.16,1-.34-1.15.12-2.23.29-3.32a50,50,0,0,0,.38-9.15C237.47,99.28,238,97.53,237.59,95.76Z"/><path class="cls-11" d="M237.59,95.76c.51,0,.74.29.69.84-.51,5.12.07,10.31-1,15.39-.11.52-.29,1-.44,1.53l-3.14,2.08c-.26-.91.24-1.69.45-2.5,1.19-4.55,1.16-9.24,1.49-13.88.06-.91.15-1.82.23-2.73Z"/><path class="cls-12" d="M173,101.46c.25-.75-.41-1.95.31-2.21.89-.32,1.51.81,2.13,1.42a9.13,9.13,0,0,1,2.89,5.42,13.52,13.52,0,0,0-2.53,1.25c-1.37-1-1.54-2.75-2.45-4-.11-.17-.07-.41-.23-.57Z"/><path class="cls-13" d="M178.4,109c.25,3.25-1.75,5.3-3.86,7.29-.09-.47-.19-.93-.27-1.4A5.29,5.29,0,0,1,178.4,109Z"/><path class="cls-14" d="M237.83,90.54c-.73-.05-.84-.41-.6-1.05.52-1.38,1-2.77,1.47-4.16.79-.1,1,.75,1.56,1a3.28,3.28,0,0,1-.92,3.45Z"/><path class="cls-6" d="M173.15,102.73c1.35,1.27,1.91,3,2.68,4.61-.88.14-1.33,1-2.23,1.46A25.67,25.67,0,0,1,173.15,102.73Z"/><path class="cls-6" d="M239.34,89.77c.31-1.15.62-2.3.92-3.45,1-.21,1.49.4,1.8,1.21s-.57.89-.92,1.29A2.76,2.76,0,0,1,239.34,89.77Z"/><path class="cls-6" d="M305.77,87.31a24.49,24.49,0,0,0-.18,2.72c.05,1.49-1,1.94-2.06,1.86-3.79-.28-7.54.19-11.3.34-1,0-1.2-.27-1.23-1.13-.26-7.08-.52-14.16-1.31-21.21-.13-1.21.29-1.65,1.48-2,3.37-.84,6.69-1.84,10-2.86,1.24-.38,1.75-.15,2.18,1.18,1.78,5.49,1.72,11.2,2.15,16.86C305.62,84.45,305.68,85.79,305.77,87.31Z"/><path class="cls-6" d="M284.86,13.28c-.73-.18-1.94.4-2.08-.62-.18-1.26,1.19-.91,1.92-1.12a17.94,17.94,0,0,1,2.54-.42c.37,0,.79-.09,1,.29s-.12.83-.37,1.13C287.07,13.5,285.9,13.13,284.86,13.28Z"/><path class="cls-6" d="M78.91,106.53c.35-5.35.69-10.7,1.07-16,.18-2.47.27-4.94.23-7.41a1.28,1.28,0,0,0-.43-1.16c-1.55-1-3.17-2.21-5.1-2s-3.53-.24-5.3-.17c-1.09,0-1.51-.51-1.21-1.67a51.81,51.81,0,0,1,2.43-7.28A19.33,19.33,0,0,0,72,64a93.1,93.1,0,0,0-1-20.22c-.34-1.9-.55-3.82-.87-5.72-.16-1,.14-1.37,1.19-1.24a6.66,6.66,0,0,0,2.88-.18c1.43-.49,1.63.23,1.69,1.41.3,6,.59,12,1.28,18a57.28,57.28,0,0,0,7.26,22.18,34.64,34.64,0,0,1,4.49,15.38c.27,3.86,0,7.72.49,11.56.17,1.31-.22,2.65.06,4a1.89,1.89,0,0,1-1.4-.15,26.77,26.77,0,0,0-7.44-1.78A2.61,2.61,0,0,1,78.91,106.53Z"/><path class="cls-6" d="M67,87.79A27.77,27.77,0,0,1,67.21,83c.15-.92.38-1.36,1.44-1.1,1.61.39,3.25.63,4.88.92a1.51,1.51,0,0,1,1.4,1.9c-.45,5.84-.84,11.68-1.25,17.51-.16,2.24-.19,2.27-2.36,1.89a4,4,0,0,0-.48-.07c-2.92-.08-3.12-.21-3.28-3C67.31,96.59,67.15,92.19,67,87.79Z"/><path class="cls-15" d="M78.91,106.53a28.38,28.38,0,0,1,10.58,2.63c-.16,1.21-1.3,1.5-2.08,1.71a34.7,34.7,0,0,1-11.16,1.59L71,112.21c-1.58-.08-2.43-1.26-3.59-1.95-.42-.25-.25-1-.18-1.54s.65-.34,1-.4a10.09,10.09,0,0,1,4.31.29c1.8.5,3.39-.1,5-.56A1.9,1.9,0,0,0,78.91,106.53Z"/><path class="cls-16" d="M74.68,33.32c.22,0,.94-.27,1,.25.15.71-.67.72-1.12.84a14.39,14.39,0,0,1-2.52.41c-.38,0-1,.25-1.12-.27s.56-.7,1-.84A6.32,6.32,0,0,1,74.68,33.32Z"/><path class="cls-6" d="M75,238.77c-.11-1.72-.19-3.44-.33-5.15a4.15,4.15,0,0,1,3.21-4.68c.57-.18,1.57-.26,1.34-1s-1.13-.23-1.73-.21a3.69,3.69,0,0,0-2.76,1.13c-.74.83-1.37.65-2-.11a6.91,6.91,0,0,1-2-4.27c0-2,1.2-2.81,3.06-2.21,1.42.46,1.73.24,1.63-1.28-.08-1.22-.09-2.39.93-3.27a2.39,2.39,0,0,1,3.21-.33c1.64,1.11,2.2.87,2.82-1,.33-1,.8-1.88,2.09-1.86a2.89,2.89,0,0,1,2.71,1.94c.24.56.31,1.12-.78.94-2.4-.4-3.3.83-2.38,3.1.14.35.33.68.46,1,.22.59,1.17,1.12.37,1.81a3.16,3.16,0,0,1-3,.59c-.85-.23-1-.79-1-1.58a5.56,5.56,0,0,0-.64-2.79,1.81,1.81,0,0,0-2.32-.95c-1,.3-1.21,1.15-1.13,2.08A4,4,0,0,0,77.83,223c.27.33.63.62.36,1.12a1.17,1.17,0,0,1-1.41.52,7.62,7.62,0,0,1-2.51-1c-.46-.32-1.07-.47-1.41.1s.22.88.58,1.18a5.43,5.43,0,0,0,6.51.59,1.67,1.67,0,0,1,1.38,0,5.73,5.73,0,0,0,4.51-.62c.67-.44,1-.11,1.36.28,1.75,1.74,3.68,3.14,6.28,3.21a1.11,1.11,0,0,1,.91.58c.19.26.31.67.56.77,2.9,1.12,2.34,3.87,2.92,6.08.27,1,0,2.48,1.93,2.24.66-.08,1,1.37.42,2a4.94,4.94,0,0,1-.89.67c-3.68-2.13-7.73-2.65-11.89-2.76-.8,0-.79.52-1,1-.52,0-.4-.55-.71-.72-.61,1.33-2.21-.44-2.86.93-.22.48-.64,1.2-1.34.82s-.43-1.16-.22-1.75a28.82,28.82,0,0,0,1.52-6.4,5.37,5.37,0,0,0-.56-3.86c.12,3.87-1.43,7.41-2.09,11.11-.06.3-.09.65-.51.72.08-1.41-.7-1.64-1.87-1.41C76.9,238.46,76,238.6,75,238.77Z"/><path class="cls-6" d="M87,278a12.82,12.82,0,0,1-11-3.53c-3.81-3.44-6-7.9-7.48-12.71-.12-.39-.41-.88.1-1.15a1.11,1.11,0,0,1,1.34.23A5,5,0,0,1,71.25,263c.88,2.8,1.43,3.25,3.94,3.37a5.16,5.16,0,0,0,4.63-3.1c.22-.49.47-1,.71-1.44.86-.21,1.68.26,2.54.16.8,1.25,1.29,2.71,2.5,3.68a47,47,0,0,1,0,9.71c-.06,1.13,0,2,1.24,2.41C86.86,277.82,86.91,277.89,87,278Z"/><path class="cls-6" d="M100.3,241.47c1.4-.09,1.74-.95,1.74-2.19s-.51-2.37-1.76-2.51-1.34-.8-1.37-1.69c0-1.69-.43-3.45.94-4.89a.71.71,0,0,0,.09-1,1.33,1.33,0,0,0-1.2-.3c-.62.08-1.06,1.11-1.84.36a4.42,4.42,0,0,1-1.41-3,7.26,7.26,0,0,1,0-.8c0-.62.06-1.21-.8-1.29s-1,.49-1.17,1.05a2.29,2.29,0,0,0-.07.64c-.09,2-.14,2-1.95,1.15a12.47,12.47,0,0,1-2.26-1.53c-1.23-1-2.26-2-1.27-3.74a2.52,2.52,0,0,0,.13-.63c.22-.92-.52-2.19-.09-2.59.58-.56,1.34-.85,1.77-1.73a1.68,1.68,0,0,1,2.12-.66,4.7,4.7,0,0,1,3.26,4.07,1.33,1.33,0,0,0,2,1.05,1.61,1.61,0,0,1,2.17.13,2.1,2.1,0,0,1,.52,2.52c-.63,1.26,0,1.7.93,2.24,2.51,1.43,2.75,2.38,1.57,5.06-.47,1.07.06,2.26.45,3.16,2.19,5.08,2.18,5.5-1.49,9.18Z"/><path class="cls-6" d="M86.71,266.39c3.75.61,4.52.19,6.06-3.28.28-.64.59-1.27.91-1.88a2.11,2.11,0,0,1,2.9-1A2,2,0,0,1,98,262.82c-1.15,5.21-3.22,9.91-7.36,13.48-1.06.92-2.49,1-3.64,1.65l-.09-.08a1.88,1.88,0,0,1-.42-1.33c0-3.08,0-6.16,0-9.24A1.55,1.55,0,0,1,86.71,266.39Z"/><path class="cls-6" d="M95,246.4c-3.4,1.61-7,2-10.72,2.18A29.11,29.11,0,0,1,79,248.5c-1.45-1-2.66-2.14-2.46-4.13a20.3,20.3,0,0,1,5.79-.91c.33.48.39,1.09.81,1.55a2.84,2.84,0,0,0,4.13.23c.62-.52.94-1.3,1.63-1.75a22,22,0,0,1,6.33,1.08C95.37,245.2,95,245.78,95,246.4Z"/><path class="cls-2" d="M93.57,258.52c-1.53.44-2.32,1.79-3.39,2.79-.7.72-1.13,0-1.55-.35A14.85,14.85,0,0,1,86.57,258c.52,1,.76,1.75-.27,2.28-.45-1.72-2.19-2-3.31-2.91a3.37,3.37,0,0,1,2.18-3.15c1.35-.34,2.06,0,3,1.6.5.88,1,1.76,1.54,2.62a.35.35,0,0,0,.31.17c1.75-2.1,3.08-4.58,5.35-6.26l.13-.08c2.72-1.47,2.84-1.39,2.78,1.74-1,1.14-2.13,2.23-3.07,3.46A3.51,3.51,0,0,1,93.57,258.52Z"/><path class="cls-6" d="M95.32,252.39l-5.45,7.1c-.72-1.15-1.42-2.2-2.05-3.3-1.35-2.35-2.76-2.39-4.21-.07a12.72,12.72,0,0,0-.62,1.29l-1.69-.15c-.81-.91-1.8-1.74-1.67-3.15A62.81,62.81,0,0,0,95.32,252.39Z"/><path class="cls-17" d="M79.7,239.68c0-2.61,1.42-4.92,1.68-7.49a12.62,12.62,0,0,0,.17-4.46c-.09-.36-.17-.79.37-.88a.77.77,0,0,1,.9.52,7.1,7.1,0,0,1,.51,2.34A20.85,20.85,0,0,1,82,237.57a3.63,3.63,0,0,0-.38,2.32c1.24-.39,1.27-4.06,3.48-1.29l.23-.39c.26-.42-.86-1.07.14-1.27.64-.13.81.56.92,1.1.05.26.06.53.09.79-.23.29-.51.85-.69.82-1.61-.3-2,1-2.86,1.89C81.8,242.7,80.33,241.83,79.7,239.68Z"/><path class="cls-6" d="M78.71,257.66c-1.83,1.27-1.95,3.6-3.24,5.31-.9-.71-1-1.8-1.38-2.67-.92-2.15-2.72-2.49-4.66-2.75-.58-.07-1.18.19-1.73-.15.35-.76,1.11-.78,1.77-.94,1.77-.44,3.57-.77,5.31-1.34,2.1-.68,2.71-.39,3.66,1.62A2.45,2.45,0,0,1,78.71,257.66Z"/><path class="cls-2" d="M78.71,257.66c-.08-.07-.22-.12-.24-.2-.9-2.75-2.74-2.34-4.87-1.61-1.91.66-3.93,1-5.9,1.55a2.61,2.61,0,0,1-.43-1.88,11.5,11.5,0,0,1,7.73-2.2c1.47.68,3.08.58,4.63.79.48,1.09,1.46,1.92,1.67,3.15l-1.16.11a7.5,7.5,0,0,1-.93.09Z"/><path class="cls-2" d="M86.48,281.71c.45.1.56.4.57.83.19,5.9.29,11.8.21,17.71A2.73,2.73,0,0,1,87,301c-.79-1.15-.37-2.47-.44-3.69-.27-4.65-.65-9.29-1.23-13.91C85.22,282.4,85.23,281.68,86.48,281.71Z"/><path class="cls-2" d="M86.71,266.39c.28,3.83.25,7.65.17,11.48-1.39.29-1.89-.2-1.8-1.68.17-2.89.14-5.79.21-8.68a3.58,3.58,0,0,1,.28-1.88C85.82,266.08,86.31,266.17,86.71,266.39Z"/><path class="cls-6" d="M75,253.32c-2.78,0-5.15,1.49-7.73,2.2-.54-1.45-.3-3-.39-4.45-.06-.95.4-.91,1.1-.55,1,.54,2,1.26,3,1.77A21.68,21.68,0,0,0,75,253.32Z"/><path class="cls-6" d="M93.57,258.52c1.62-1.42,2.69-3.42,4.66-4.47a10.7,10.7,0,0,1,.21,4.29c0,.48-.23,1-.93.62C96.26,258.27,94.9,258.56,93.57,258.52Z"/><path class="cls-6" d="M77.34,248.45a20.11,20.11,0,0,1-5.8-1.09c-.41-.12-.94-.14-1-.69s.52-.59.87-.81a9.5,9.5,0,0,1,3.16-1.13c1.08,1.14,1.74,2.61,3,3.64a.17.17,0,0,1-.07.08A.75.75,0,0,1,77.34,248.45Z"/><path class="cls-6" d="M86.3,260.32c.48-.69,0-1.55.38-2.31,1.46.82,1.5,3.12,3.5,3.3-.25,1-.52,2.39-1.61,2.52s-1.33-1.3-1.7-2.21C86.69,261.18,86.27,260.85,86.3,260.32Z"/><path class="cls-5" d="M88.9,243.49c-1.24,3.59-4.48,3.64-6.36,1.64-.5-.54-.75-1-.21-1.67l1.1,0c1.4,1.09,2.81,1.3,4.22,0Z"/><path class="cls-5" d="M77.34,248.45c-1.51-.8-2.15-2.24-2.73-3.72l1.93-.35c.33,1.66,1.64,2.74,2.46,4.12Z"/><path class="cls-2" d="M87.3,304.43c0,1.47,0,2.94,0,4.42a4.6,4.6,0,0,1-2.3,0c-.17-.92-.13-1.71,1.11-1.73a1.1,1.1,0,0,0,.68-.84c.09-.55,0-1.11.06-1.66Z"/><path class="cls-2" d="M82.72,286.39a1.12,1.12,0,0,1-1.86-.08,1.53,1.53,0,0,1,.29-1.89c.56-.53,1.16-.25,1.58.35C82.73,285.31,82.72,285.85,82.72,286.39Z"/><path class="cls-6" d="M87.65,243.43c-2,2.1-2.27,2.1-4.22,0A22,22,0,0,1,87.65,243.43Z"/><path class="cls-2" d="M83.07,262c-.9.76-1.71.1-2.54-.16.18-.62.11-1.57,1-1.56S82.78,261.14,83.07,262Z"/><path class="cls-2" d="M95,246.4c-.24-.65-.39-1.29.23-1.83.55.1,1.38.1,1.37.72C96.59,246.14,95.73,246.3,95,246.4Z"/><path class="cls-6" d="M86.81,304.67a2.07,2.07,0,0,1-.06,1.67A3.37,3.37,0,0,1,86.81,304.67Z"/><path class="cls-2" d="M79.21,257.46c.28-.34.61-.23.93-.09C79.85,257.65,79.53,257.56,79.21,257.46Z"/><path class="cls-6" d="M302.53,218.74c-.35-1.21-.62-2.29-1-3.35a1.62,1.62,0,0,0-1.55-1.21c-.83,0-.82.84-.82,1.35-.05,5.05-.71,10.09-.44,15.15.18,3.29.23,3.25-2.93,3.71-3.53.51-7.09.16-10.61.57-3.84.44-7.76-.12-11.56.93-1.08.3-1.11-.48-1-1.24.24-2.73.52-5.45.72-8.18.25-3.27.5-6.54.49-9.82,0-.88-.32-1.49-1.19-1.64s-1.06.65-1.16,1.25c-.23,1.32-.78,1.69-2.18,1.42a23.38,23.38,0,0,0-4.51-.07c-1,0-1.46-.14-.77-1.26,1.89-3.06,3.64-6.23,7.25-7.69a3.55,3.55,0,0,1,3.2.2c1.95.95,3.75,2.23,6,2.66a5.53,5.53,0,0,0,5.11-1.62c2.32-2.12,2.23-2,5.2-1,2.07.68,4.13,2.26,6.58.9a11.76,11.76,0,0,0,2.18-1.62c2.08-1.86,3.26-1.56,5.28.27,1.68,1.52,2.06,3.67,3.38,5.33.74.92.25,1.94-1,2.4A27.68,27.68,0,0,0,302.53,218.74Z"/><path class="cls-6" d="M325.45,233.61c-1.69.91-3.43,1.75-5.06,2.74a34.26,34.26,0,0,1-4.92,2.29c-2.77,1.13-4.38.58-6-2a33,33,0,0,1-2.28-5.12c-1-2.37-1.92-4.74-2.88-7.13-.63.26-.22.76-.5,1-.48-1.18-.2-1.81,1.19-1.71a1.38,1.38,0,0,0,1.21-.28c1.45-1.69,3.61-2.16,5.41-3.24l.07.05a107.91,107.91,0,0,1,4.12,11c.15.46.29.93.47,1.37s.2,1,.73.94.63-.68.59-1.14c-.1-1.14.61-1.64,1.48-2.05,3.21-1.51,6.5-2.84,9.75-4.27,1.31-.57,2.5-1.5,4-1.41a4.49,4.49,0,0,1,0,.64c0,2.68,0,2.65-2.62,2.91a6.9,6.9,0,0,0-3.81,1.45C325.15,230.77,325.13,232.13,325.45,233.61Z"/><path class="cls-6" d="M340.92,202.33a14,14,0,0,1-3.58,8c-.91,1-3.3.59-4.28-.73a24.53,24.53,0,0,1-3.73-7.22,1.3,1.3,0,0,1,.52-1.66,1.54,1.54,0,0,1,1.8-.14,6.43,6.43,0,0,1,1,.77c2.48,2.17,4.05,2.23,6.74.22.36-.27.69-.54,1.15-.3S340.9,201.94,340.92,202.33Z"/><path class="cls-18" d="M328.13,196c0-1.18-.05-2.35-.07-3.53,0-.72.21-.92,1-.58a20.27,20.27,0,0,0,9.55,1.55c2.23-.13,2.24-.1,2.59,2.16a7.94,7.94,0,0,0,0,1.29c0,.78-.16,1-1.07,1.11-2.89.31-5.76.59-8.6-.28C330.28,197.39,329,197.21,328.13,196Z"/><path class="cls-1" d="M332.86,224.67c-4.6,2-9.2,4.07-13.82,6.07-.84.37-1.4.68-1,1.76a1.34,1.34,0,0,1-.92,1.8c-1,.27-1-.69-1.18-1.33q-1.93-5.46-3.89-10.9a2.92,2.92,0,0,1-.38-1.85c.83-.27,1.14.28,1.44.89,1.15,2.36,2.35,4.69,3.44,7.07.41.91.73,1.18,1.77.77,4.27-1.7,8.59-3.29,12.9-4.91.54-.2,1.13-.29,1.69-.44Z"/><path class="cls-6" d="M332.6,230a16.48,16.48,0,0,0,.32,1.73c.24.77.81,1.21,1.59.91,1-.39,2.2-.35,3.18-1,.71-.49,2.37.39,2.56,1.23a.54.54,0,0,1-.47.69c-3.36.56-6.72,1.36-10.13.35a1.26,1.26,0,0,1-.91-.82A7.86,7.86,0,0,1,332.6,230Z"/><path class="cls-6" d="M328.13,196c3.9,2,8.06,2.21,12.29,1.69,1.33-.16.38-1.43.74-2.09.3.55.1,1.14.14,1.72s-.18,1-.83.9a4.49,4.49,0,0,0-3.82,1.67c-.58.61-1.11.74-1.79.16A5.14,5.14,0,0,0,329.2,199c-.63.27-.76,0-.81-.54A8.28,8.28,0,0,1,328.13,196Z"/><path class="cls-19" d="M341.57,189a1.85,1.85,0,0,1-1.51.76,25.64,25.64,0,0,1-9.24-.4c-.29-.07-.68-.07-.73-.48s.29-.41.54-.46a19.26,19.26,0,0,1,10.72.34C341.43,188.79,341.49,188.91,341.57,189Z"/><path class="cls-1" d="M333.17,222l-.45,1.07a11.23,11.23,0,0,1-.76-7.19c.25-1.11,1.13-.93,1.93-.51C333.79,217.56,332.88,219.7,333.17,222Z"/><path class="cls-1" d="M332.6,230a41,41,0,0,1-3.86,3.08,1.19,1.19,0,0,1-.16-1.92A5.06,5.06,0,0,1,332,229.5C332.43,229.48,332.64,229.61,332.6,230Z"/><path class="cls-6" d="M101.66,146.69c-3.1,1.4-5.13.6-6.6-2.46a18,18,0,0,1-1.28-3.74c-.16-.69.08-1.22.79-.68,1.68,1.29,3.71.78,5.53,1.29C101.34,142.77,101.18,144.82,101.66,146.69Z"/><path class="cls-20" d="M101.66,146.69c-1.15-1.69-1.14-3.7-1.55-5.59h2.75c1.23,1.08,1.31,2.5,1.18,4A5.66,5.66,0,0,1,101.66,146.69Z"/><path class="cls-21" d="M101.78,137.77c-1-.07-2.29.73-2.93-.8-.2-.48-.42-.06-.56.06a1.76,1.76,0,0,1-1.49.42c-.76-.16-2,.16-2.14-.63-.11-.95,1.21-.65,1.87-1a22,22,0,0,1,4-.06C101.78,135.82,102.15,136.48,101.78,137.77Z"/><path class="cls-6" d="M104,145.07c-.39-1.33-.79-2.66-1.18-4a4.74,4.74,0,0,1,1.09-.24c.66,0,1.51-.63,1.94,0s.09,1.54-.25,2.29A4,4,0,0,1,104,145.07Z"/><path class="cls-6" d="M101.78,137.77c.11-1.48-.63-2-2-2-1.07.05-2.14,0-3.21,0a14.11,14.11,0,0,1,7.35.4c.55.15,1.07.36,1.79.6A5.7,5.7,0,0,1,101.78,137.77Z"/><path class="cls-6" d="M123.74,169.16c2.38,1,4.83.41,7.25.32.66,0,1.31.11,1.31.84s-.74.36-1.16.46a3.91,3.91,0,0,1-2.36.21c-1-.37-2-.25-2.32.73a2.34,2.34,0,0,0,.7,2.75c.91.81,2.14,1.14,2.86,2.28,1.85,2.94,1.53,5.63-1.25,8.05-.77-1.25-.21-2.66-.54-4a6.34,6.34,0,0,0-4.39-4.67c-.8-.3-1.6-.59-2.42-.83-2.39-.7-2.5-.83-2.51-3.3,0-.54,0-1.07,0-1.61A17.19,17.19,0,0,0,123.74,169.16Z"/><path class="cls-6" d="M112.72,145.16a25.46,25.46,0,0,0,11.52,1.71c1-.09,1.1.29.76,1.12a12.14,12.14,0,0,1-4,5.27,2.86,2.86,0,0,1-3.18-.09C114.7,151.51,113.62,148.62,112.72,145.16Z"/><path class="cls-6" d="M126.36,143.35c-1.81.11-3.62.25-5.43.33a13.58,13.58,0,0,1-5.8-1c.25-.69.75-.65,1.2-.69,3.18-.27,6.29.38,9.43.69.39,0,.52.31.59.65Z"/><path class="cls-6" d="M122,166.89a8.2,8.2,0,0,1-8-.07c-.23-.13-.49-.28-.46-.59s.4-.47.72-.48a2.74,2.74,0,0,1,2.38,1.05c.72.9,1.43,1.16,2.32,0S121,166.6,122,166.89Z"/><path class="cls-1" d="M154,118.19c.45-1.76.79-1.9,2.29-1,.17.11.44.26.55.19.39-.24.3-.67.18-1-.67-1.75-1.37-3.48-2.05-5.23a10,10,0,0,1-.42-1.2c-.15-.63.19-1,.76-1.22a.92.92,0,0,1,1.32.51,39.61,39.61,0,0,1,2.4,6.64c.55,2.46-.95,3.85-3.48,3.38a2,2,0,0,0-1.36.29,1.21,1.21,0,0,1-1.76-.56c-.33-.54-.48-1.17.13-1.57s.72.33,1,.64C153.61,118.16,153.8,118.15,154,118.19Z"/><path class="cls-4" d="M155.8,123.13a5.31,5.31,0,0,1-2.85-1,.54.54,0,0,1-.31-.66c.1-.31.4-.33.67-.32a5,5,0,0,1,.94.15c1.05.33,2.07.59,3.05-.19.25-.2.61-.34.86,0s0,.62-.16.88A2.82,2.82,0,0,1,155.8,123.13Z"/><path class="cls-1" d="M148.67,112.76c-.44,0-.5-.3-.43-.68.15-.82,2.2-2.48,3-2.41.33,0,.65.08.62.53A19.35,19.35,0,0,1,148.67,112.76Z"/><path class="cls-1" d="M161.36,111.08c.66,0,.85.47.91,1a1.22,1.22,0,0,1-1.19,1.43c-.65.06-.76-.62-.83-1.16C160.14,111.59,160.59,111.22,161.36,111.08Z"/><path class="cls-1" d="M158.16,109.3a3.33,3.33,0,0,1,3.24-.12c.38.15.8.44.57,1a.74.74,0,0,1-1,.34C160,110.15,159.1,109.71,158.16,109.3Z"/><path class="cls-1" d="M153.39,112.94c0,.78-.31,1.2-1,1.27s-.9-.44-.94-1a1.07,1.07,0,0,1,1-1.22C153.21,111.87,153.29,112.47,153.39,112.94Z"/><path class="cls-2" d="M82.4,297.22c0,.63-.27,1-1,1a.89.89,0,0,1-.93-1c0-.59.15-1.07.86-1.09S82.37,296.57,82.4,297.22Z"/><path class="cls-2" d="M82.53,291.78c0,.57,0,1.09-.82,1.06-.61,0-1.1-.17-1-.9s0-1.41.92-1.43S82.48,291.17,82.53,291.78Z"/><path class="cls-2" d="M84,319.53c2.76,0,2.88.09,2.95,1.88,0,.62-.09,1-.8,1.11s-1.36.29-2,.44c-2.5.55-2.48.53-2.58-2C81.45,318.55,83.27,320,84,319.53Z"/><path class="cls-22" d="M57,155.08c-.31.87-.69,1.76-1.83,1.88-.44,0-.66-.32-.65-.74a6.8,6.8,0,0,1,2-2.14C56.92,154.24,56.94,154.63,57,155.08Z"/><path class="cls-2" d="M288,197.52a2.55,2.55,0,0,1-1.65-.56c-.49-.35-1.34-.78-.92-1.47s1.07,0,1.52.27a1.72,1.72,0,0,0,2.2-.28c.38-.29.86-.65,1.28-.18s0,1-.41,1.34A3.68,3.68,0,0,1,288,197.52Z"/><path class="cls-2" d="M287.64,192.4c0-.05,0-.13.07-.14,2.12-.55,1.89-2.19,1.73-3.88.76,1.22,1.16,2.57,2.19,3.52A2.84,2.84,0,0,1,287.64,192.4Z"/><path class="cls-6" d="M281.41,185.21c2.23-1.75,4.09-1.94,5.41-.56a5.15,5.15,0,0,1,.4,5.58,4.67,4.67,0,0,1-5.1,2.5,1.7,1.7,0,0,1-1.22-.94C281.09,189.6,281,187.39,281.41,185.21Z"/><path class="cls-23" d="M296.08,183.77c1.74.64,2.19,2.06,2.12,3.7a3.86,3.86,0,0,1-2.7,3.75c-.22,0-.47-.1-.51-.3a18.86,18.86,0,0,1-.31-6.13C294.77,184,295.43,183.86,296.08,183.77Z"/><path class="cls-6" d="M296.08,183.77c-.31.24-1-.07-1,.55,0,2.31-.29,4.64.44,6.9a2.89,2.89,0,0,1-3.47-2.38,4,4,0,0,1,2-4.73A2.61,2.61,0,0,1,296.08,183.77Z"/><path class="cls-2" d="M281.41,185.21a10.4,10.4,0,0,1-.51,6.58C279.11,189.92,279.27,187.76,281.41,185.21Z"/><path class="cls-4" d="M88,234.19c.59-.12.63-.61.82-1s.5-1.11,1.14-.88.24.83.19,1.27a2.16,2.16,0,0,1-1.67,2.11,2.38,2.38,0,0,1-2.53-1.34,5.21,5.21,0,0,1-.59-2.63c0-.66.49-.75.94-.89.65-.2.89.24,1,.74A8.22,8.22,0,0,0,88,234.19Z"/><path class="cls-4" d="M78.11,234.17a8.74,8.74,0,0,0,.82-2.55c.09-.32.29-.63.66-.58s.35.47.35.77c0,1.45,0,2.87-1.43,3.85-1.19.82-1.91.19-2.55-.67s-.7-2.8,0-3.27.86,0,1,.52S77.24,233.75,78.11,234.17Z"/><path class="cls-5" d="M87.44,227.64A9.19,9.19,0,0,1,92.21,231c.16.21.32.5,0,.68a.68.68,0,0,1-.59-.05,12.76,12.76,0,0,0-5-2.52c-.41-.12-.84-.47-.64-1S86.81,227.68,87.44,227.64Z"/><path class="cls-2" d="M84.37,268.14c0,.46-.16.89-.67.83-.73-.1-1.29-.49-1.22-1.36,0-.49.17-1.1.75-1A1.33,1.33,0,0,1,84.37,268.14Z"/><path class="cls-2" d="M83,272a1.47,1.47,0,0,1,1.17,1.57c0,.51,0,1-.77.91a1.1,1.1,0,0,1-1-1.38C82.43,272.63,82.34,272.09,83,272Z"/><path class="cls-2" d="M284.42,187.94c0-.75.14-1.35,1-1.34.71,0,.9.51.94,1.07,0,.71-.18,1.32-1,1.39S284.47,188.52,284.42,187.94Z"/><path class="cls-2" d="M293.53,188.38a1.21,1.21,0,0,1-1.12-1.15c0-.6.18-1.13.8-1.17s.92.45,1,1.05S294.2,188.19,293.53,188.38Z"/></svg>