<svg id="Capa_1" data-name="Capa 1" xmlns="http://www.w3.org/2000/svg" viewBox="0 0 154.89 200.48"><defs><style>.cls-1{fill:#101012;}.cls-2{fill:#030405;}.cls-3{fill:#05050a;}.cls-4{fill:#111218;}.cls-5{fill:#181926;}.cls-6{fill:#161622;}.cls-7{fill:#fff;}.cls-8{fill:#edeae3;}</style></defs><g id="Grupo_79" data-name="Grupo 79"><path id="Trazado_1017" data-name="Trazado 1017" class="cls-1" d="M47.39,165.29c3.67,3.79,8.28,6.51,11.93,10.25,2.87,3,6,3.4,9.67,3a32.55,32.55,0,0,1,5.13.07c2.23.15,3,1,2.62,3.21-.2,1.25.24,1.49,1.27,1.64a33.36,33.36,0,0,1,5.74,1.23c1.21.41,2,1.15,1.83,2.5s-1.34,1.18-2.22,1.35a11.6,11.6,0,0,0-2.61.51c1.09.42,2.18.82,3.25,1.27a22.55,22.55,0,0,1,2,1,1.69,1.69,0,0,1,.92,2.08c-.25.85-1.1.69-1.78.68A35,35,0,0,1,78.82,193L77,192.68c1,.89,1.74,1.51,2.44,2.19a2.13,2.13,0,0,1,.77,2.53c-.46.88-1.45.58-2.24.42-4.23-.84-7.94-2.88-11.57-5.07-2.81-1.7-5.57-3.48-8.36-5.22-.32-.2-.79-.56-1-.46-3.07,1.62-5.84-.14-8.55-1C38,182.92,29,177,20.77,169.87c-1.19-2.79-2.95-5.27-4.22-8A166.5,166.5,0,0,1,3.27,116.61,95.37,95.37,0,0,1,1.93,95.47c.16-2.26.6-4.5.86-6.76.11-.94.82-1.24,1.5-1.52,2.8-1.15,5.62-2.26,8.44-3.38a2.76,2.76,0,0,1,1.35,2.46C12.78,87.9,10.77,88.35,9,89c-2.28.85-3.14,2.17-3.36,4.61-.91,9.7.52,19.19,2.24,28.67a161.14,161.14,0,0,0,10.9,35.91,99,99,0,0,0,4.85,9,7.9,7.9,0,0,0,1.4,1.54c6.26,5,12.76,9.53,20.25,12.53,3,1.22,6.12,2.38,9.18,3.58a1.78,1.78,0,0,0,2.44-.66h0a33.17,33.17,0,0,0,2.48-3.81,1.37,1.37,0,0,0-.22-1.92,1.32,1.32,0,0,0-.42-.23c-6.35-3.63-11.88-8.35-17.28-13.23a59,59,0,0,1-7.26-7,4.31,4.31,0,0,1-.94-2.82c-.32-3.91-.22-7.84-.39-11.77-.47-10.55-1.08-21.11-.88-31.7a26.51,26.51,0,0,1,.51-4.52c.1-.57.32-1.15,1-1.16s.86.5,1.06,1a11.5,11.5,0,0,1,.69,3.72c.31,4.54.73,9.08,1,13.63.33,6.45.5,12.9,1,19.33.27,3.41-.16,6.84.4,10.25A4.78,4.78,0,0,0,39,156.81c2,1.89,3.77,3.93,5.92,5.63A8.41,8.41,0,0,1,47.39,165.29Z"/><path id="Trazado_1018" data-name="Trazado 1018" class="cls-2" d="M14.09,86c-.54-.67-1.49-1.08-1.36-2.17.24-1.52,1-1.26,1.94-.6,1.19-.09,1.82,1.1,2.9,1.27,3.39,1.42,6.65.7,9.94-.46,1.42-.5,1.87-1.11,1-2.45A6.38,6.38,0,0,1,27.87,80a2.1,2.1,0,0,1,0-2c-.24-.77-.21-1.5.68-1.77s.82.5,1,1c.64.67,1.28,1.25,1.84-.07,0-.6-.27-1.39.52-1.67s.94.62,1.31,1.06a3.21,3.21,0,0,1,.48.82c1.77,4.46,5.44,6.38,9.84,7.2,2.81.52,5.55,1.52,8.54,1.1,1.81-.26,3.65-.2,5.2-1.4.54-.42,1.23-.16,1.83-.32.63.07.77,1,1.51.86.24,1-.45,1.41-1.1,1.74a17.25,17.25,0,0,1-6.14,1.84,28.45,28.45,0,0,1-10.14-.94,3.69,3.69,0,0,0-.93-.15c-.46,0-.94,0-1.15.48s.11,1,.54,1.27a24.26,24.26,0,0,0,4.86,2.56c6.13,2.17,11.71.9,16.81-2.94a9,9,0,0,0,1.93-2.33c.3-.45.58-1.33,1.4-.5L68,87.77c.52,1.31-.44,2-1.19,2.73C60.17,96.69,48.26,97.8,40.56,93a8.44,8.44,0,0,0-3.22-1.55c-1.36-.19-2.31.12-2.73,1.64a17.2,17.2,0,0,1-4,6.79c-3.18,3.62-7.42,4.9-11.94,5.53a9.2,9.2,0,0,1-3.58.2c-.81-.2-1.68-.48-1.88-1.4s.64-1.47,1.4-1.77c3.35-1.29,5-4.05,6.45-7.1.6-1.3.49-2-1-2.54A9.12,9.12,0,0,1,14.09,86Z"/><path id="Trazado_1019" data-name="Trazado 1019" class="cls-3" d="M59.42,22.81l1.48.36c.9.22,2.17.21,2.12,1.43s-1.21,1.63-2.31,1.83a33.27,33.27,0,0,0-8.58,2.84,3.16,3.16,0,0,1-1.44.35c-.93,0-1.32-.52-.68-1.34A14.94,14.94,0,0,1,59.42,22.81Z"/><path id="Trazado_1020" data-name="Trazado 1020" class="cls-4" d="M27.9,78c.17.58,0,1.24.42,1.76a1.42,1.42,0,0,1-.65.9c-2.94,1.47-6,2.79-9,4a2.54,2.54,0,0,1-1.31.11,6.94,6.94,0,0,1-2.71-1.61,54.87,54.87,0,0,1,8.79-3.74A15.06,15.06,0,0,1,27.9,78Z"/><path id="Trazado_1021" data-name="Trazado 1021" class="cls-5" d="M58.45,32.09a1.22,1.22,0,0,1-.89,1.48,1.29,1.29,0,0,1-.39,0c-1.09,0-1-.91-1-1.65s-.09-1.48,1-1.5S58.39,31.23,58.45,32.09Z"/><path id="Trazado_1022" data-name="Trazado 1022" class="cls-6" d="M77.18,29.45c-.06,1.08-.27,2-1.4,2.08-.94.09-.92-.66-.91-1.31a1.65,1.65,0,0,1,1.44-1.84h.09C77.31,28.28,77,29.1,77.18,29.45Z"/><path id="Trazado_1023" data-name="Trazado 1023" class="cls-7" d="M31.44,77.14c.31.74.31,1.46-.63,1.59-1.1.16-1.06-.8-1.21-1.51C30.2,77,30.8,76.64,31.44,77.14Z"/><path id="Trazado_1025" data-name="Trazado 1025" d="M143.78,120.92c-1.25.94-2.9,1.19-4.08,2.26a13.9,13.9,0,0,1-5.38,1.55,6.2,6.2,0,0,1-2.8-.29c-3.38-1.22-4.14-4.2-1.74-6.88a11.08,11.08,0,0,1,2.91-2.41,2,2,0,0,0,1.11-2.55c-.65-2.51-1-5.1-1.52-7.64-.13-.58-.13-1.43-1-1.44a4.84,4.84,0,0,0-3.12,1.2c-.72.61-.13,1.37.31,1.83,2.61,2.77,2.05,5.32,0,8.25-5.36,7.77-9.91,16.06-15.24,23.86a23.32,23.32,0,0,1-3.46,4,6.94,6.94,0,0,1-8.42,1,34,34,0,0,1-8.72-7.55c-.53-.62-1-1.3-1.8-2.11,0,1.58,0,2.92,0,4.27.44,7,.74,14,.73,21.05,0,1.17,0,2.31-1.17,3-.91,1-1.66.74-2.3-.32-.81-.68-.59-1.63-.59-2.48,0-6.78-.22-13.56-.5-20.32-.41-10.08-.07-20.15-.27-30.22a7.68,7.68,0,0,1,.14-2.08c.16-.62.36-1.32,1.13-1.34s1.1.72,1.24,1.42a14.43,14.43,0,0,1,.35,2.07c.15,4.93,1,9.83.83,14.78a9.74,9.74,0,0,0,2.33,6.81,47.06,47.06,0,0,0,9.16,8.78c3.22,2.24,5.42,2,7.71-1.36,3.14-4.52,6.18-9.13,8.9-13.93,2-3.47,4.16-6.8,6.4-10.11a4.21,4.21,0,0,0,.16-5.2c-1.72-2.8-3.39-5.65-4.87-8.6-.21-.44-.4-1.06-1-1.07s-.7.66-.94,1.09c-4.26,7.48-8.29,15.1-12.63,22.55a5.17,5.17,0,0,1-2.1,2.38,1.48,1.48,0,0,1-1.63-.06,1.35,1.35,0,0,1-.43-1.54,2.4,2.4,0,0,1,.3-.9c1.47-2.11.9-4.1-.08-6.24-3.9-8.53-7.4-17.23-11.16-25.82-.77-1.76-2.18-2.75-3.58-3.82-.72-.55-1.29-.18-1.8.4-2.6,3-6,4.07-9.84,4.16a9.57,9.57,0,0,1-7.65-3.16A6.61,6.61,0,0,1,66.4,86c-.3-1.07-1-1.33-2-1a10.23,10.23,0,0,1-3.74.21c-.72-.17-1.33-.45-1.49-1.28a8.42,8.42,0,0,1-3.87-6.22c-.15-1.23-.48-1.39-1.67-1-3.5,1.13-7,1.45-9.83-1.6A8.06,8.06,0,0,1,41.49,68c.18-1,.14-1.66-1-2a5.33,5.33,0,0,1-3.59-3.86,27,27,0,0,1,1-18.8,15.24,15.24,0,0,0,6.44,3.8c3.83,1.08,7.36,0,10.85-1.45,1.7-.68,3.37-1.41,5-2.2A16.12,16.12,0,0,1,68.45,42c-.92-1.08-1.69-1.88-2.33-2.77-.24-.35-.6-1,0-1.35s.79.09,1.11.4c.93.9,1.83,2.31,3.33,1.36s1-2.52.68-3.85a37.94,37.94,0,0,0-3.34-8.84c-.49-1-1.27-1.91.8-2.41C71,24,71.1,23.27,70.44,21a50.28,50.28,0,0,0-2.26-6.63C65.37,7.89,60.05,5.17,53.46,3.85,45.3,2.2,39.23,7.6,35.66,13.58a25.77,25.77,0,0,0-3.58,11.87,12.9,12.9,0,0,1-.34,2.05c-.28,1.26-.5,2.41-2.39,1.72-1.37-.51-2.41.46-3.09,1.63a5.72,5.72,0,0,0,2,7.79,1.76,1.76,0,0,0,2.48-.33,1.14,1.14,0,0,0,.15-.23,1.9,1.9,0,0,1,2.47-.75c1,.38.38,1.33.37,2A141.46,141.46,0,0,0,35,56.2c.65,5.71,1.23,11.43,1.84,17.15,0,.19,0,.38,0,.57,0,1.1.06,2.58-1.14,2.68-1.49.14-1.21-1.5-1.33-2.47-1-8.1-2-16.19-2.83-24.3-.29-2.7-.31-5.44-.4-8.16,0-.85-.12-1.23-1.16-1-3.33.66-5.58-2.14-6.38-4.48a6.84,6.84,0,0,1,2.5-7.6A2.93,2.93,0,0,1,28.31,28c1.83.36,2-.56,2-2.1C30,16.63,33.64,9.19,41.22,3.8a14.86,14.86,0,0,1,8.59-2.43A26.53,26.53,0,0,1,65.65,6.11C69,8.42,70.77,12,72.12,15.7c.71,1.95,1.25,4,1.79,6,.18.71.35,1.16,1.22,1a15.91,15.91,0,0,1,5.83.42c.58.13,1.51,0,1.4.86-.09.66-.19,1.61-1,1.87a5.73,5.73,0,0,1-3.14.39,31.06,31.06,0,0,0-8.26-.8,54.13,54.13,0,0,1,3.12,7.85,24.23,24.23,0,0,1,.64,3.16c.31,3-1.45,4.52-4,5.38-.09.39.15.38.3.39,3,.23,5,1.82,6.76,4.23A53,53,0,0,1,86.11,71c.48,3.7,1,7.39.46,11.12a1.25,1.25,0,0,0,1,1.43c4.49,1.75,6.63,5.34,8.29,9.66,2.8,7.26,6,14.35,9.07,21.52.2.45.25,1,1,1.34,1.79-3.28,3.59-6.56,5.37-9.85q3-5.49,5.9-11c.35-.67.76-1.16,1.59-1.07,1.38.16,1.79-.56,2-1.84a32.76,32.76,0,0,1,2.86-9c.33-.72.68-1.7,1.7-1.47a2,2,0,0,1,1.37,1.9c.2,1.29.29,2.59.46,4.18,1.29-1.36,2.19-2.44,1.72-4.28-.54-2.15-.8-4.36-1.15-6.55-.11-.67-.23-1.23-1-1.33-6.2-.76-9.79-5-12.53-10a53.19,53.19,0,0,1-6.57-26.38,1.93,1.93,0,0,1,1.1-1.82A31.38,31.38,0,0,1,118,34.34c6.62-1.38,13.29-2.55,20.09-2.44,1.57,0,3.13.23,4.69.35,1.65.27,3.26.63,4.39,2a3.71,3.71,0,0,1,.83,2.25c.08,8.57-.9,17-4,25a17.36,17.36,0,0,1-1,2c-1.82,3.61-3.67,7.21-7.13,9.61a9.55,9.55,0,0,1-2.73,1.7c-1.68.56-2.05,1.62-1.59,3.2a11.12,11.12,0,0,0,.62,2.48c1.5-.82,2.41-2.22,3.6-3.3a11.53,11.53,0,0,1,2.57-1.93,2,2,0,0,1,2.47,0,2.25,2.25,0,0,1,.69,2.58,30.68,30.68,0,0,1-3.44,6.93c-.19.31-.41.6-.71,1.12,1.76-1,3.11-2.28,4.74-3.08a12.2,12.2,0,0,1,3.58-1.72c1.42-.32,2.21.36,2.14,1.81a5.18,5.18,0,0,1-1,2.61,48.16,48.16,0,0,1-4.12,4.56c1.23-.16,2.22.1,2.69,1.23a3,3,0,0,1-.57,3.36,22.61,22.61,0,0,1-3.26,2.59c-1.41,1-2.9,1.81-4.36,2.7a2.27,2.27,0,0,0-1.17,2.55c.42,2.57,1,5.1,1.45,7.66.24,1.46.9,2.11,2.43,1.86a6,6,0,0,1,2.27.13,10.34,10.34,0,0,0,1.11.21c2.27.26,3.49,1.12,3.83,2.7a4.81,4.81,0,0,1-2.34,5.3C144.46,120.6,144.06,120.63,143.78,120.92Zm-6.72-56.7c.25-3.15-.15-6.28-.09-9.42.05-2.7.7-5.34.53-8-2.11,1-2.62,3.08-3.25,5-1.46,4.5-7.72,6.18-10.73,2.67-1.11-1.29-2.24-2.58-3.46-3.77-1.6-1.57-3.5-1.65-5.54-.38-1.73,1.07-3.22,3.67-2.75,5A39.28,39.28,0,0,0,119,68.73,15,15,0,0,0,124.71,73c4.5,1.77,8.52.13,11.68-4.59C136.57,67,136.94,65.67,137.06,64.22Zm1.72-23.29a1.56,1.56,0,0,0-.1-1.56c-9.86,2.26-19.77,3.88-29.9,1.87-.08,2.42,1.12,8.21,2.07,9.82.22-.25.44-.47.63-.71a8,8,0,0,1,11.18-1.23A7.62,7.62,0,0,1,124,50.43a15.52,15.52,0,0,0,2.78,2.83,2.26,2.26,0,0,0,3.2,0,2.37,2.37,0,0,0,.29-.34,5,5,0,0,0,1-2,10.16,10.16,0,0,1,8.52-7.57,1.92,1.92,0,0,1-1-2.44Zm-11.35-5.8a91.48,91.48,0,0,0-9.32,1.71A37.73,37.73,0,0,0,111.64,39c-.43.19-.88.44-.85.9,0,.62.66.44,1.06.47,1,.1,2,.15,3,.15a102.41,102.41,0,0,0,18.22-2.23,62.79,62.79,0,0,0,9.63-2.69c.39-.15,1-.2.82-.83-.12-.43-.62-.32-1-.36a30.35,30.35,0,0,0-5.22-.09c-3.63.09-6.76.46-9.91.83Z"/><path id="Trazado_1026" data-name="Trazado 1026" class="cls-8" d="M136.39,68.45c-.65-.85,0-1.71,0-2.55.18-3.53,0-7.06,0-10.59.06-2.88-.12-5.8,1-8.56,2.74-1.55,4.06-1.25,5.58,1,.73,1.07.32,2.1.14,3.08a50.32,50.32,0,0,1-5,15.15C137.69,66.93,136.61,67.36,136.39,68.45Z"/><path id="Trazado_1028" data-name="Trazado 1028" class="cls-8" d="M139.75,43.37c-1.6.14-2.18-.43-1.5-2a10.91,10.91,0,0,0,.43-2L144,37.7c.41,2,0,4,0,6.22A6.67,6.67,0,0,0,139.75,43.37Z"/><path id="Trazado_1029" data-name="Trazado 1029" class="cls-8" d="M66.62,55.05c-2.36,0-3.91-.74-4.9-2.5-.25-.45-.51-1,0-1.38a1.05,1.05,0,0,1,1.38.09c.1.08.18.18.28.25,2.91,2.3,3.58,2.29,6.13-.32.64-.64,1.35-.9,2-.43.83.63.19,1.36-.25,2C70,54.4,68.09,54.71,66.62,55.05Z"/><path id="Trazado_1030" data-name="Trazado 1030" class="cls-8" d="M139,120.63a1.45,1.45,0,0,1-1.45-1.45,1.42,1.42,0,0,1,.26-.84,4.61,4.61,0,0,0,.4-3A10.86,10.86,0,0,1,142,115c1.7.15,2.06,1,1.11,2.38A10.46,10.46,0,0,1,139,120.63Z"/><path id="Trazado_1031" data-name="Trazado 1031" class="cls-8" d="M23.4,167.59c.18-1.21,1.15-.93,1.92-1l16.74-1.49a28.83,28.83,0,0,1,4.19,3.52,90.9,90.9,0,0,0,13.37,9.61c.89.55,1.05.91.47,1.71a8.72,8.72,0,0,0-.6,1.18c-2.52,4.95-3,5.1-8,3.14-7.14-2.78-14.24-5.63-20.39-10.32C28.48,171.92,25.52,170.25,23.4,167.59Z"/><path id="Trazado_1032" data-name="Trazado 1032" class="cls-8" d="M74.51,181.11a4.76,4.76,0,0,1-3,.71,4.06,4.06,0,0,0-1.3.15,1.45,1.45,0,0,0-.62,1.81c.55,1.15-1.68,2.82.86,3.61,3,.91,5.79,2.17,8.64,3.37a63.62,63.62,0,0,1-9.3-2.54c-.66-.22-1.3-.49-2-.66-.47-.12-1.13-.71-1.43.16a1.31,1.31,0,0,0,.68,1.71l0,0c2.47,1.27,4.91,2.6,7.33,4a23.21,23.21,0,0,1,3.48,2.33,5.58,5.58,0,0,1-3.09-.57c-5.71-2.17-10.71-5.68-16.1-8.47-.81-.41-.78-.88-.12-1.42a13,13,0,0,0,2.64-3.18c.27-.42.5-.88,1.13-.86C66.28,181.31,70.18,180.77,74.51,181.11Z"/><path id="Trazado_1033" data-name="Trazado 1033" class="cls-8" d="M21.07,101.66c2.32-2.77,3-6.15,4.35-9.26A9.28,9.28,0,0,1,27,89.85c.7-.73,1.23-2.33,2.52-1.67,2.15,1.12,2.59,2.35,1.83,4.26a15.71,15.71,0,0,1-8.48,9.17A2,2,0,0,1,21.07,101.66Z"/><path id="Trazado_1035" data-name="Trazado 1035" class="cls-7" d="M26.57,87c-3.18,3.83-5.54,4-8.48.87C21,88,23.63,88.14,26.57,87Z"/></g></svg>