<svg id="Capa_1" data-name="Capa 1" xmlns="http://www.w3.org/2000/svg" viewBox="0 0 300.35 140.13"><defs><style>.cls-1{fill:#212960;opacity:0.3;isolation:isolate;}</style></defs><path id="Trazado_1049" data-name="Trazado 1049" class="cls-1" d="M296.28,31.71c-16.67-34.25-66-38.83-103.16-22.93-33.64,14.39-69.4,22.51-115,7.78C25-.57-22,35.3,11,81.65S121.15,144,170.81,139.37C279.8,129.26,313,66,296.28,31.71Z"/><path d="M49.08,69.29h-18a8.86,8.86,0,0,0,1.24,4.34,8.07,8.07,0,0,0,3.14,2.94,9.49,9.49,0,0,0,4.46,1,9.62,9.62,0,0,0,3.78-.74,7.4,7.4,0,0,0,2.9-2.18L47.8,76a8.88,8.88,0,0,1-3.42,2.52,11.91,11.91,0,0,1-10-.48,9.93,9.93,0,0,1-3.82-3.76,10.8,10.8,0,0,1-1.38-5.48,11.41,11.41,0,0,1,1.3-5.46A9.52,9.52,0,0,1,34,59.57a10.35,10.35,0,0,1,10.22,0,9.43,9.43,0,0,1,3.56,3.74,11.19,11.19,0,0,1,1.3,5.44ZM35.2,61a7.47,7.47,0,0,0-2.82,2.76,9.07,9.07,0,0,0-1.22,4h16a8.34,8.34,0,0,0-1.2-4A7.67,7.67,0,0,0,43.12,61a7.82,7.82,0,0,0-4-1A8,8,0,0,0,35.2,61Z"/><path d="M68,79.25l-7.16-9.32-7.16,9.32H51.4l8.28-10.76L51.84,58.37h2.28l6.72,8.68,6.72-8.68H69.8L62,68.49l8.4,10.76Z"/><path d="M91.24,59.57a9.62,9.62,0,0,1,3.7,3.76,11,11,0,0,1,1.34,5.48,11.12,11.12,0,0,1-1.34,5.5,9.56,9.56,0,0,1-3.7,3.76A10.52,10.52,0,0,1,86,79.41a9.86,9.86,0,0,1-5-1.3,9.12,9.12,0,0,1-3.48-3.62V87h-2V58.37H77.4v4.92a9.16,9.16,0,0,1,3.5-3.74A9.7,9.7,0,0,1,86,58.21,10.33,10.33,0,0,1,91.24,59.57ZM90.16,76.49a8,8,0,0,0,3-3.12,10,10,0,0,0,0-9.12,7.89,7.89,0,0,0-3-3.12A8.38,8.38,0,0,0,85.84,60a8.28,8.28,0,0,0-4.3,1.12,8,8,0,0,0-3,3.12,10,10,0,0,0,0,9.12,8.18,8.18,0,0,0,3,3.12,8.38,8.38,0,0,0,4.3,1.12A8.48,8.48,0,0,0,90.16,76.49Z"/><path d="M120.12,69.29h-18a8.86,8.86,0,0,0,1.24,4.34,8.07,8.07,0,0,0,3.14,2.94,9.49,9.49,0,0,0,4.46,1,9.62,9.62,0,0,0,3.78-.74,7.4,7.4,0,0,0,2.9-2.18L118.84,76a8.88,8.88,0,0,1-3.42,2.52,11.91,11.91,0,0,1-10-.48,9.93,9.93,0,0,1-3.82-3.76,10.8,10.8,0,0,1-1.38-5.48,11.41,11.41,0,0,1,1.3-5.46,9.52,9.52,0,0,1,3.58-3.78,10.35,10.35,0,0,1,10.22,0,9.43,9.43,0,0,1,3.56,3.74,11.19,11.19,0,0,1,1.3,5.44ZM106.24,61a7.47,7.47,0,0,0-2.82,2.76,9.07,9.07,0,0,0-1.22,4h16a8.34,8.34,0,0,0-1.2-4A7.67,7.67,0,0,0,114.16,61a7.82,7.82,0,0,0-4-1A8,8,0,0,0,106.24,61Z"/><path d="M131.28,59.43a9.43,9.43,0,0,1,5-1.22v2l-.48,0a6.92,6.92,0,0,0-5.44,2.18,8.71,8.71,0,0,0-2,6.06V79.25h-2V58.37h1.92v4.56A7.21,7.21,0,0,1,131.28,59.43Z"/><path d="M141.6,52.83a1.53,1.53,0,0,1-.48-1.14,1.57,1.57,0,0,1,.48-1.16,1.67,1.67,0,0,1,2.32,0,1.5,1.5,0,0,1,.48,1.14,1.59,1.59,0,0,1-.48,1.16,1.57,1.57,0,0,1-1.16.48A1.65,1.65,0,0,1,141.6,52.83Zm.16,5.54h2V79.25h-2Z"/><path d="M169.84,69.29h-18a8.76,8.76,0,0,0,1.24,4.34,8,8,0,0,0,3.14,2.94,9.49,9.49,0,0,0,4.46,1,9.62,9.62,0,0,0,3.78-.74,7.4,7.4,0,0,0,2.9-2.18L168.56,76a9,9,0,0,1-3.42,2.52,11.91,11.91,0,0,1-10-.48,9.86,9.86,0,0,1-3.82-3.76,10.8,10.8,0,0,1-1.38-5.48,11.3,11.3,0,0,1,1.3-5.46,9.52,9.52,0,0,1,3.58-3.78,10.35,10.35,0,0,1,10.22,0,9.5,9.5,0,0,1,3.56,3.74,11.19,11.19,0,0,1,1.3,5.44ZM156,61a7.47,7.47,0,0,0-2.82,2.76,8.94,8.94,0,0,0-1.22,4h16a8.34,8.34,0,0,0-1.2-4A7.74,7.74,0,0,0,163.88,61a7.82,7.82,0,0,0-4-1A7.91,7.91,0,0,0,156,61Z"/><path d="M192.48,60.49c1.52,1.52,2.28,3.7,2.28,6.56v12.2h-2v-12A7.38,7.38,0,0,0,191,61.85,6.6,6.6,0,0,0,186,60a7.66,7.66,0,0,0-5.8,2.2,8.18,8.18,0,0,0-2.12,5.92V79.25h-2V58.37H178v4.52a7.87,7.87,0,0,1,3.22-3.44,9.88,9.88,0,0,1,5.06-1.24A8.38,8.38,0,0,1,192.48,60.49Z"/><path d="M205.88,78.05a9.82,9.82,0,0,1-3.76-3.78,11.72,11.72,0,0,1,0-11,9.57,9.57,0,0,1,3.76-3.76,10.89,10.89,0,0,1,5.44-1.34,10.42,10.42,0,0,1,4.58,1,8.19,8.19,0,0,1,3.34,2.86l-1.48,1.08A7.11,7.11,0,0,0,215,60.79a8.52,8.52,0,0,0-3.66-.78,8.64,8.64,0,0,0-4.38,1.1,7.75,7.75,0,0,0-3,3.1,10.17,10.17,0,0,0,0,9.2,7.88,7.88,0,0,0,3,3.1,8.74,8.74,0,0,0,4.38,1.1,8.52,8.52,0,0,0,3.66-.78,7.11,7.11,0,0,0,2.78-2.34l1.48,1.08a8.34,8.34,0,0,1-3.34,2.86,10.56,10.56,0,0,1-4.58,1A10.9,10.9,0,0,1,205.88,78.05Z"/><path d="M225.08,52.83a1.53,1.53,0,0,1-.48-1.14,1.57,1.57,0,0,1,.48-1.16,1.59,1.59,0,0,1,1.16-.48,1.61,1.61,0,0,1,1.16.46,1.5,1.5,0,0,1,.48,1.14,1.64,1.64,0,0,1-1.64,1.64A1.65,1.65,0,0,1,225.08,52.83Zm.16,5.54h2V79.25h-2Z"/><path d="M248.68,60.19A7.65,7.65,0,0,1,250.76,66V79.25h-1.92V75.53a7,7,0,0,1-2.92,2.86,9.67,9.67,0,0,1-4.6,1,8.5,8.5,0,0,1-5.5-1.64,5.67,5.67,0,0,1-.16-8.54q1.86-1.62,5.94-1.62h7.16V65.93a5.88,5.88,0,0,0-1.58-4.44A6.37,6.37,0,0,0,242.56,60a11.14,11.14,0,0,0-4,.72,10,10,0,0,0-3.22,1.92l-1-1.44A11,11,0,0,1,238.12,59a13.68,13.68,0,0,1,4.6-.78A8.31,8.31,0,0,1,248.68,60.19ZM246,76.57a7.3,7.3,0,0,0,2.74-3.48V69.17h-7.12a7.07,7.07,0,0,0-4.46,1.12,3.74,3.74,0,0,0-1.38,3.08,3.87,3.87,0,0,0,1.52,3.22,6.87,6.87,0,0,0,4.28,1.18A7.85,7.85,0,0,0,246,76.57Z"/><path d="M259.48,78.65a10,10,0,0,1-3.56-1.92l.92-1.6a10.51,10.51,0,0,0,3.3,1.8,12.47,12.47,0,0,0,4.22.72,8.3,8.3,0,0,0,4.66-1,3.33,3.33,0,0,0,1.5-2.88,2.68,2.68,0,0,0-.82-2.08,5,5,0,0,0-2-1.12,32.6,32.6,0,0,0-3.32-.76,29.62,29.62,0,0,1-4-1,6.36,6.36,0,0,1-2.6-1.68,4.52,4.52,0,0,1-1.08-3.2,5,5,0,0,1,2.06-4.1,9.29,9.29,0,0,1,5.86-1.62,14.14,14.14,0,0,1,4,.56,9.71,9.71,0,0,1,3.2,1.48l-.92,1.6a9.41,9.41,0,0,0-2.92-1.4,11.87,11.87,0,0,0-3.36-.48,7.43,7.43,0,0,0-4.4,1.08,3.34,3.34,0,0,0-1.48,2.84,2.83,2.83,0,0,0,.84,2.18,5.32,5.32,0,0,0,2.06,1.16c.81.25,1.95.52,3.42.82a27.76,27.76,0,0,1,3.94.94,5.91,5.91,0,0,1,2.54,1.62,4.35,4.35,0,0,1,1,3.08,4.89,4.89,0,0,1-2.16,4.16,10.26,10.26,0,0,1-6.08,1.56A15.27,15.27,0,0,1,259.48,78.65Z"/></svg>