<svg id="Capa_1" data-name="Capa 1" xmlns="http://www.w3.org/2000/svg" viewBox="0 0 298.51 142.35"><defs><style>.cls-1{fill:#dc6544;opacity:0.3;isolation:isolate;}</style></defs><path id="Trazado_1049" data-name="Trazado 1049" class="cls-1" d="M4.89,114.48C23,148,75.17,147.42,108.7,133S175.89,112.05,223,120.33s98.94-23,64.09-67.82S174.61-5,125.31,1.68C17.12,16.4-13.2,81,4.89,114.48Z"/><path d="M90.38,63.15a9.56,9.56,0,0,1,3.7,3.76,11.92,11.92,0,0,1,0,11,9.76,9.76,0,0,1-3.7,3.76A10.33,10.33,0,0,1,85.1,83,9.76,9.76,0,0,1,80,81.67a9.09,9.09,0,0,1-3.5-3.74v4.92H74.62V53.17h2V66.73a9.05,9.05,0,0,1,3.48-3.62,9.74,9.74,0,0,1,5-1.3A10.52,10.52,0,0,1,90.38,63.15ZM89.3,80.09a8,8,0,0,0,3-3.12,10,10,0,0,0,0-9.12,8,8,0,0,0-3-3.12A8.38,8.38,0,0,0,85,63.61a8.28,8.28,0,0,0-4.3,1.12,8,8,0,0,0-3,3.12,10,10,0,0,0,0,9.12,8,8,0,0,0,3,3.12A8.28,8.28,0,0,0,85,81.21,8.38,8.38,0,0,0,89.3,80.09Z"/><path d="M119.26,72.89h-18a8.73,8.73,0,0,0,1.24,4.34,7.87,7.87,0,0,0,3.14,2.94,9.49,9.49,0,0,0,4.46,1,9.62,9.62,0,0,0,3.78-.74,7.31,7.31,0,0,0,2.9-2.18L118,79.61a9,9,0,0,1-3.42,2.52,11.91,11.91,0,0,1-10-.48,9.86,9.86,0,0,1-3.82-3.76,10.8,10.8,0,0,1-1.38-5.48,11.3,11.3,0,0,1,1.3-5.46,9.66,9.66,0,0,1,3.58-3.78,10.35,10.35,0,0,1,10.22,0A9.5,9.5,0,0,1,118,66.89a11.19,11.19,0,0,1,1.3,5.44Zm-13.88-8.34a7.47,7.47,0,0,0-2.82,2.76,9,9,0,0,0-1.22,4h16a8.37,8.37,0,0,0-1.2-4,7.9,7.9,0,0,0-2.84-2.76,7.82,7.82,0,0,0-4-1A8,8,0,0,0,105.38,64.55Z"/><path d="M141.26,63.15a9.62,9.62,0,0,1,3.7,3.76,11.92,11.92,0,0,1,0,11,9.83,9.83,0,0,1-3.7,3.76A10.38,10.38,0,0,1,136,83a9.74,9.74,0,0,1-5.06-1.34,9,9,0,0,1-3.5-3.74v4.92H125.5V53.17h2V66.73A8.92,8.92,0,0,1,131,63.11a9.74,9.74,0,0,1,5-1.3A10.57,10.57,0,0,1,141.26,63.15Zm-1.08,16.94a8.09,8.09,0,0,0,3-3.12,10,10,0,0,0,0-9.12,8.09,8.09,0,0,0-3-3.12,8.38,8.38,0,0,0-4.32-1.12,8.26,8.26,0,0,0-4.3,1.12,8,8,0,0,0-3,3.12,10,10,0,0,0,0,9.12,8,8,0,0,0,3,3.12,8.26,8.26,0,0,0,4.3,1.12A8.38,8.38,0,0,0,140.18,80.09Z"/><path d="M152.34,56.43a1.53,1.53,0,0,1-.48-1.14,1.59,1.59,0,0,1,.48-1.16,1.57,1.57,0,0,1,1.16-.48,1.61,1.61,0,0,1,1.16.46,1.53,1.53,0,0,1,.48,1.14,1.66,1.66,0,0,1-2.8,1.18ZM152.5,62h2V82.85h-2Z"/><path d="M181.5,53.17V82.85h-2V77.93a9,9,0,0,1-3.48,3.76A9.84,9.84,0,0,1,171,83a10.33,10.33,0,0,1-5.28-1.36,9.69,9.69,0,0,1-3.7-3.76,11.92,11.92,0,0,1,0-11,9.49,9.49,0,0,1,3.7-3.76A10.52,10.52,0,0,1,171,61.81a9.65,9.65,0,0,1,5,1.32,9.47,9.47,0,0,1,3.5,3.68V53.17Zm-6.1,26.92a8.18,8.18,0,0,0,3-3.12,10,10,0,0,0,0-9.12,8.18,8.18,0,0,0-3-3.12,8.81,8.81,0,0,0-8.6,0,8,8,0,0,0-3,3.12,10,10,0,0,0,0,9.12,8,8,0,0,0,3,3.12,8.81,8.81,0,0,0,8.6,0Z"/><path d="M202.94,63.79A7.69,7.69,0,0,1,205,69.61V82.85H203.1V79.13A7,7,0,0,1,200.18,82a9.7,9.7,0,0,1-4.6,1,8.49,8.49,0,0,1-5.5-1.64,5.27,5.27,0,0,1-2-4.32,5.34,5.34,0,0,1,1.86-4.22q1.86-1.62,5.94-1.62H203V69.53a5.88,5.88,0,0,0-1.58-4.44,6.45,6.45,0,0,0-4.62-1.52,11.1,11.1,0,0,0-4,.72,10,10,0,0,0-3.22,1.92l-1-1.44a11.14,11.14,0,0,1,3.76-2.18,13.63,13.63,0,0,1,4.6-.78A8.33,8.33,0,0,1,202.94,63.79Zm-2.66,16.38A7.36,7.36,0,0,0,203,76.69V72.77H195.9a7.05,7.05,0,0,0-4.46,1.12A3.75,3.75,0,0,0,190.06,77a3.84,3.84,0,0,0,1.52,3.22,6.81,6.81,0,0,0,4.28,1.18A7.87,7.87,0,0,0,200.28,80.17Z"/><path d="M213.74,82.25a10,10,0,0,1-3.56-1.92l.92-1.6a10.51,10.51,0,0,0,3.3,1.8,12.43,12.43,0,0,0,4.22.72,8.33,8.33,0,0,0,4.66-1,3.31,3.31,0,0,0,1.5-2.88,2.73,2.73,0,0,0-.82-2.08,5,5,0,0,0-2-1.12c-.8-.24-1.91-.49-3.32-.76a26.55,26.55,0,0,1-4-1,6.29,6.29,0,0,1-2.6-1.68,4.51,4.51,0,0,1-1.08-3.2,5,5,0,0,1,2.06-4.1,9.27,9.27,0,0,1,5.86-1.62,14.51,14.51,0,0,1,4,.56,10,10,0,0,1,3.2,1.48l-.92,1.6a9.75,9.75,0,0,0-2.92-1.4,12,12,0,0,0-3.36-.48,7.41,7.41,0,0,0-4.4,1.08,3.35,3.35,0,0,0-1.48,2.84,2.83,2.83,0,0,0,.84,2.18,5.2,5.2,0,0,0,2.06,1.16c.81.25,1.95.53,3.42.82a29.59,29.59,0,0,1,3.94.94,6,6,0,0,1,2.54,1.62,4.37,4.37,0,0,1,1,3.08,4.89,4.89,0,0,1-2.16,4.16A10.26,10.26,0,0,1,218.54,83,15,15,0,0,1,213.74,82.25Z"/></svg>