<svg id="Capa_1" data-name="Capa 1" xmlns="http://www.w3.org/2000/svg" viewBox="0 0 299.62 138.84"><defs><style>.cls-1{fill:#a27780;opacity:0.3;isolation:isolate;}</style></defs><path id="Trazado_1049" data-name="Trazado 1049" class="cls-1" d="M4.07,108.41c16.67,34.25,69,35.93,103.16,22.94s68.21-18.08,115.05-7.79,100.08-18.74,67.11-65.08S179.2-3.85,129.54.76C20.55,10.86-12.6,74.17,4.07,108.41Z"/><path d="M112.79,63.45a9.49,9.49,0,0,1,3.7,3.76,11.92,11.92,0,0,1,0,11,9.76,9.76,0,0,1-3.7,3.76,10.33,10.33,0,0,1-5.28,1.36A9.79,9.79,0,0,1,102.45,82,9.15,9.15,0,0,1,99,78.23v4.92H97V53.47h2V67a9,9,0,0,1,3.48-3.62,9.74,9.74,0,0,1,5-1.3A10.42,10.42,0,0,1,112.79,63.45Zm-1.08,16.94a8,8,0,0,0,3-3.12,10,10,0,0,0,0-9.12,8,8,0,0,0-3-3.12,8.38,8.38,0,0,0-4.32-1.12,8.28,8.28,0,0,0-4.3,1.12,8,8,0,0,0-3,3.12,10,10,0,0,0,0,9.12,8,8,0,0,0,3,3.12,8.38,8.38,0,0,0,4.3,1.12A8.48,8.48,0,0,0,111.71,80.39Z"/><path d="M126.85,82a9.84,9.84,0,0,1-3.74-3.78,11.64,11.64,0,0,1,0-10.92,9.77,9.77,0,0,1,3.74-3.78,11.16,11.16,0,0,1,10.68,0,9.77,9.77,0,0,1,3.74,3.78,11.64,11.64,0,0,1,0,10.92A9.84,9.84,0,0,1,137.53,82a11.16,11.16,0,0,1-10.68,0Zm9.64-1.56a8,8,0,0,0,3-3.12,10,10,0,0,0,0-9.12,8,8,0,0,0-3-3.12,8.81,8.81,0,0,0-8.6,0,8,8,0,0,0-3,3.12,10,10,0,0,0,0,9.12,8,8,0,0,0,3,3.12,8.81,8.81,0,0,0,8.6,0Z"/><path d="M161.35,83.15l-7.16-9.32L147,83.15h-2.28L153,72.39l-7.84-10.12h2.28L154.19,71l6.72-8.68h2.24l-7.84,10.12,8.4,10.76Z"/><path d="M185.71,73.19h-18A8.73,8.73,0,0,0,169,77.53a8,8,0,0,0,3.14,2.94,9.49,9.49,0,0,0,4.46,1,9.62,9.62,0,0,0,3.78-.74,7.4,7.4,0,0,0,2.9-2.18l1.16,1.32A9,9,0,0,1,181,82.43a11.34,11.34,0,0,1-4.46.88A11.2,11.2,0,0,1,171,82a9.86,9.86,0,0,1-3.82-3.76,10.8,10.8,0,0,1-1.38-5.48,11.3,11.3,0,0,1,1.3-5.46,9.59,9.59,0,0,1,3.58-3.78,10.35,10.35,0,0,1,10.22,0,9.5,9.5,0,0,1,3.56,3.74,11.19,11.19,0,0,1,1.3,5.44Zm-13.88-8.34A7.47,7.47,0,0,0,169,67.61a8.94,8.94,0,0,0-1.22,4h16a8.34,8.34,0,0,0-1.2-4,7.74,7.74,0,0,0-2.84-2.76,7.82,7.82,0,0,0-4-1A7.91,7.91,0,0,0,171.83,64.85Z"/><path d="M192.43,82.55a10,10,0,0,1-3.56-1.92l.92-1.6a10.51,10.51,0,0,0,3.3,1.8,12.47,12.47,0,0,0,4.22.72,8.3,8.3,0,0,0,4.66-1,3.31,3.31,0,0,0,1.5-2.88,2.68,2.68,0,0,0-.82-2.08,5,5,0,0,0-2-1.12c-.8-.24-1.91-.49-3.32-.76a28.18,28.18,0,0,1-4-1,6.36,6.36,0,0,1-2.6-1.68,4.52,4.52,0,0,1-1.08-3.2,5,5,0,0,1,2.06-4.1,9.29,9.29,0,0,1,5.86-1.62,14.14,14.14,0,0,1,4,.56,9.71,9.71,0,0,1,3.2,1.48l-.92,1.6a9.41,9.41,0,0,0-2.92-1.4,11.87,11.87,0,0,0-3.36-.48,7.43,7.43,0,0,0-4.4,1.08,3.34,3.34,0,0,0-1.48,2.84,2.83,2.83,0,0,0,.84,2.18,5.27,5.27,0,0,0,2.06,1.16c.81.25,1.95.52,3.42.82a27.76,27.76,0,0,1,3.94.94,5.91,5.91,0,0,1,2.54,1.62,4.35,4.35,0,0,1,1,3.08,4.89,4.89,0,0,1-2.16,4.16,10.26,10.26,0,0,1-6.08,1.56A15.27,15.27,0,0,1,192.43,82.55Z"/></svg>