<svg id="Capa_1" data-name="Capa 1" xmlns="http://www.w3.org/2000/svg" viewBox="0 0 298.51 142.35"><defs><style>.cls-1{fill:#dc6544;opacity:0.3;isolation:isolate;}</style></defs><path id="Trazado_1049" data-name="Trazado 1049" class="cls-1" d="M4.89,114.48C23,148,75.17,147.42,108.7,133S175.89,112.05,223,120.33s98.94-23,64.09-67.82S174.61-5,125.31,1.68C17.12,16.4-13.2,81,4.89,114.48Z"/><path d="M119.44,55.9,110,76.78h-2L98.56,55.9h2.12L109,74.58l8.4-18.68Z"/><path d="M123.64,50.36a1.5,1.5,0,0,1-.48-1.14,1.59,1.59,0,0,1,.48-1.16,1.57,1.57,0,0,1,1.16-.48A1.65,1.65,0,0,1,126,48a1.53,1.53,0,0,1,.48,1.14,1.57,1.57,0,0,1-.48,1.16,1.67,1.67,0,0,1-2.32,0Zm.16,5.54h2V76.78h-2Z"/><path d="M150.64,58q2.28,2.28,2.28,6.56v12.2h-2v-12a7.46,7.46,0,0,0-1.78-5.36,6.64,6.64,0,0,0-5-1.84,7.69,7.69,0,0,0-5.8,2.2,8.15,8.15,0,0,0-2.12,5.92V76.78h-2V55.9h1.92v4.52A8,8,0,0,1,139.38,57a10,10,0,0,1,5.06-1.24A8.38,8.38,0,0,1,150.64,58Z"/><path d="M164,75.58a9.64,9.64,0,0,1-3.74-3.78,11.64,11.64,0,0,1,0-10.92A9.77,9.77,0,0,1,164,57.1a11.16,11.16,0,0,1,10.68,0,9.91,9.91,0,0,1,3.74,3.78,11.64,11.64,0,0,1,0,10.92,9.78,9.78,0,0,1-3.74,3.78,11.16,11.16,0,0,1-10.68,0ZM173.66,74a8,8,0,0,0,3-3.12,10,10,0,0,0,0-9.12,8.18,8.18,0,0,0-3-3.12,8.81,8.81,0,0,0-8.6,0,8,8,0,0,0-3,3.12,10,10,0,0,0,0,9.12,7.91,7.91,0,0,0,3,3.12,8.81,8.81,0,0,0,8.6,0Z"/><path d="M186.48,76.18a9.7,9.7,0,0,1-3.56-1.92l.92-1.6a10.51,10.51,0,0,0,3.3,1.8,12.43,12.43,0,0,0,4.22.72,8.24,8.24,0,0,0,4.66-1,3.31,3.31,0,0,0,1.5-2.88,2.73,2.73,0,0,0-.82-2.08,5.16,5.16,0,0,0-2-1.12c-.8-.24-1.91-.49-3.32-.76a26.55,26.55,0,0,1-4-1,6.1,6.1,0,0,1-2.6-1.68,4.51,4.51,0,0,1-1.08-3.2,5,5,0,0,1,2.06-4.1,9.27,9.27,0,0,1,5.86-1.62,14.51,14.51,0,0,1,4,.56,10.23,10.23,0,0,1,3.2,1.48l-.92,1.6a9.75,9.75,0,0,0-2.92-1.4,12,12,0,0,0-3.36-.48,7.41,7.41,0,0,0-4.4,1.08,3.35,3.35,0,0,0-1.48,2.84,2.82,2.82,0,0,0,.84,2.18,5.2,5.2,0,0,0,2.06,1.16,32.45,32.45,0,0,0,3.42.82,31.25,31.25,0,0,1,3.94.94,6.16,6.16,0,0,1,2.54,1.62,4.38,4.38,0,0,1,1,3.08,4.88,4.88,0,0,1-2.16,4.16,10.26,10.26,0,0,1-6.08,1.56A15,15,0,0,1,186.48,76.18Z"/></svg>