<svg id="Capa_1" data-name="Capa 1" xmlns="http://www.w3.org/2000/svg" viewBox="0 0 559.26 827.52"><defs><style>.cls-1{fill:#d0c3c6;}.cls-2{fill:#020303;}.cls-3{fill:#010101;}.cls-4{fill:#f5f4f2;}.cls-5{fill:#0a0d0c;}.cls-6{fill:#111713;}.cls-7{fill:#151a15;}.cls-8{fill:#131915;}.cls-9{fill:#0d120e;}.cls-10{fill:#1b211a;}.cls-11{fill:#131815;}.cls-12{fill:#eeeae3;}.cls-13{fill:#0d130f;}.cls-14{fill:#1a211a;}.cls-15{fill:#121814;}.cls-16{fill:#192019;}.cls-17{fill:#131a14;}.cls-18{fill:#c7c6c6;}.cls-19{fill:#fffffe;}.cls-20{fill:#f8f7f6;}.cls-21{fill:#f9fbf8;}.cls-22{fill:#fafbf8;}.cls-23{fill:#eef1ed;}.cls-24{fill:#f2f4f0;}.cls-25{fill:#93b48c;}.cls-26{fill:#fff;}.cls-27{fill:#96b78d;}.cls-28{fill:#333;}.cls-29{fill:#272728;}.cls-30{fill:#0b0e0d;}.cls-31{fill:#020404;}.cls-32{fill:#070b09;}</style></defs><g id="Grupo_67" data-name="Grupo 67"><path id="Trazado_1047" data-name="Trazado 1047" class="cls-1" d="M517.63,32.21C489.5-5.82,438.69-1.48,399.57,2.6,338.07,9,276.11,10.72,215,21.79c-84.6,15.34-105,74.31-104.93,164.71,0,52.87,12.49,110.43,55.87,137.28a158.42,158.42,0,0,0,16.24,8.73c-.35,15.25-5,115.48-28.21,131.81,0,0,59.07-70.4,73.72-117.08,57.47,11.78,122.62,4.33,175.71,1.69,69.71-3.47,138.94-29.72,152.69-117.92C567,161.27,548.62,74.12,517.63,32.21Z"/><g id="Grupo_14" data-name="Grupo 14"><g id="Ilustración_4" data-name="Ilustración 4"><path id="Trazado_158" data-name="Trazado 158" class="cls-2" d="M300.14,685.76c-1-1.2-2.73-1.69-3.44-3.28-.4-.89-1.54-1.7-.67-2.72s1.8.16,2.69.45c2.3.46,3.58,2.53,5.58,3.51,2.7,1.32,3.1,1.24,3.17-1.64.1-4,.27-4-3.73-5.21-1.39-.43-3.17-.23-3.9-2a7.48,7.48,0,0,1-1.11-.52c-1-.66-3.1-.67-2.69-2.06.32-1.09,2.1.12,3.24.07,2.24-.49,4.11.83,6.16,1.27,2.6.57,2.64.62,3.13-2,.71-4,.4-4.37-3.54-5.59-1.47-.45-3.34-.17-4.18-2-.8-.6-2.43-.6-2.14-2s1.72-.19,2.56-.56c1.94-.71,3.84-.08,5.74.2,2.32.35,2.66.12,2.86-2.25.37-4.38.36-4.34-3.91-5.11-1.4-.26-2.92-.1-4.18-1a21.1,21.1,0,0,0-4.8-1.76c-.47-.14-1.1-.33-1-1s.83-.64,1.25-.51c3.59,1,2.94-1.2,2.64-3.3-.6-4.17-1.16-8.34-1.65-12.51-.19-1.58-.68-2-2-1-3.84,2.87-7.7,5.7-11.53,8.57-1.19.88-1.25,2.11-1,3.48,1.38,9,2.66,18,4.06,27,2.57,16.54,4.63,33.15,6.94,49.72a10.11,10.11,0,0,1-1.95,7.77c-11,16-21.42,32.51-32.63,48.43a53.89,53.89,0,0,0-3.43,5.13c-1.61,3-4.06,4-7.27,3.66-.68-.06-1.37,0-2.07,0,1.44,3.61-.29,5.86-4.1,5.13a84.62,84.62,0,0,1-15-4.29,13.67,13.67,0,0,0-5-1q-24.85-.27-49.72-.58c-4.8-.07-9.62-.54-14.41-.33-5.64.24-11.26.75-16.91.46-.87,0-2,.4-2.37-.91,1-3,3.44-5,5.23-7.39,4.45-6,9.92-11.26,14.17-17.47.53-.78,1.13-1.57,2.29-1.08.86,1.16.23,2.33-.08,3.44-1.41,5-2.38,10.22-3.9,15.24-.53,1.75-.19,2.47,1.86,2.44,10.4-.2,20.8-.09,31.2-.15,7.48,0,15,.11,22.43,0,.8,0,2,.43,2.32-.51s-.66-1.51-1.23-2.11a14.21,14.21,0,0,1-2.88-4.24c-.77-1.88-1.69-1.6-2.72-.21a20.84,20.84,0,0,1-1.48,1.78,4.5,4.5,0,0,1-4.7,1.33,19.57,19.57,0,0,1-5.55-2.7c-1.51-1-1.47-2.41-.68-3.86.57-1.05,1.53-1.85,2-2.9,0-.28-.13-.48-.29-.46-5.22.41-9.69-1.91-14.21-4-1.41-.64-2.14-.63-2.71.92-.78,2.09-2.72,2.43-4.62,2.75a6.11,6.11,0,0,1-1.28.13c-6.93-.33-6.45-.48-6.38-6.07,0-3.84-.57-7.75.78-11.51a3,3,0,0,1,1.5-1.47c1.94-.36,2.13,1,2.19,2.34.11,2.57,0,5.15.05,7.73a15.59,15.59,0,0,0,0,2c.1.83,0,2,1.16,2s.9-1.09,1-1.81c.16-1.28.4-2.54.56-3.82.18-1.51.62-2.93,2.26-3.44a3.94,3.94,0,0,1,4.26,1.07c2.85,3,6.51,4.69,10.14,6.46,2.61,1.27,5.34,1.15,8.07.77,2.47-.35,3.46-2.33,4.32-4.35a1.17,1.17,0,0,0-.54-1.56l-.24-.09c-2.16-.85-4.06-2.24-6.25-3-3.16-1.15-3.85-2.29-3.32-5.6.11-.67.36-1.32.45-2,.4-1.29.36-2.7,1-3.93,1.67-5,2.5-10.24,4.12-15.26,1.28-3.8,2.05-7.74,3.19-11.58,1.8-6.42,3.68-12.81,5.42-19.09-.38.86-1.37,1.5-1.7,2.59-1.21,2.12-2.21,4.41-4.32,5.88-.33.07.1.05-.24.09-1.6.2-3.41.74-4.4-1s.45-2.85,1.35-4.07,2-2.34,2.79-3.66a62.51,62.51,0,0,1,4.89-6.54c2.45-3.92,6.22-7.06,7.27-12.53-3.36,1.76-6.22,3.49-9.18,5a17,17,0,0,1-2.31,1.23c-.65.22-1.2.64-1.82.92-.82.36-1.67.6-2.31-.25s-.09-1.75.56-2.45a12.11,12.11,0,0,1,1.58-1.28,11.78,11.78,0,0,1,2-1.3,143.73,143.73,0,0,1,14.92-10.53c5.83-3.79,11.48-7.85,17.35-11.6,3.61-2.31,7.19-4.68,10.8-7,1.84-1.19,2-2.47,1.05-4.32-2.05-3.78-3.92-7.66-5.58-11.62-.8-2-1.92-2.33-3.82-1.42-6.74,3.23-13.6,6.18-20.45,9.17s-13.93,5.9-20.89,8.84a20.65,20.65,0,0,1-2.43.87c-5,1.44-8.33-.85-9.43-6-.69-3.25-2.54-6.16-3.71-9.3-4.1-11-8.38-22-11.77-33.3a6.9,6.9,0,0,0-3.47-4.5c-6-3.25-10.61-8.11-14.67-13.5-2-2.64-2.2-2.7-3.55.26-8.31,18.16-14.58,36.9-16.56,56.92-.45,4.52-1.63,9-2.23,13.48-.24,1.82.3,2.45,2.07,2,2.74-.74,5.57-1.08,8.34-1.67,1.94-.41,2.52-1.36,2-3.3-1.15-4.59-2-9.25-3.21-13.82a27.84,27.84,0,0,1-.78-4.05,1.85,1.85,0,0,1,1.32-2.21,1.91,1.91,0,0,1,2.38,1,25.48,25.48,0,0,1,1.77,4.29c1.47,4.4,3,8.8,4.36,13.22.8,2.52,1.4,2.82,4,2.16,3.84-1,7.73-1.66,11.64-2.28a4.33,4.33,0,0,1,1.79-.12c5.73,1.56,11.62-.28,17.38.92,4,.84,8.21,1,11.45,4a14.07,14.07,0,0,1,4.37,8.27,30.8,30.8,0,0,1,.26,10,4.75,4.75,0,0,1-4.21,3.28,5.48,5.48,0,0,0-3.07,1.68c-2.52,2.22-3.57,2.32-6.34.47a1.79,1.79,0,0,0-2.27,0c-2.73,1.58-4.47,1.14-6.33-1.53-3.07-4.43-4.5-9.57-6.15-14.61-.3-.92-.31-2,.84-2.38s1.73.36,2.23,1.22a29.89,29.89,0,0,1,1.51,3.81c.24.57.48,1.15.76,1.7,1.37,2.51,2.32,5.26,4.41,7.45a22.83,22.83,0,0,0-.88-8.3,17.2,17.2,0,0,1-.6-2.24c.13-2.32,1.13-3.6,3-3.75s2.54,1.26,2.95,2.67c.82,2.8,2.15,5.44,2.62,7.76-.39-1.58-.88-3.71-1.45-5.83a3.31,3.31,0,0,1,2.45-4c2-.66,2.84.58,3.47,2.13s1,3.06,1.55,4.59c-.9-2.71-1-5.65-2.61-8.16a4.86,4.86,0,0,0-3.7-2.34,77.19,77.19,0,0,0-14.89-.44c-2.52.1-3.11.69-2.8,3.15.48,3.75.33,7.57,1,11.28.64,3.32-1,5.27-3.5,6.77a104.54,104.54,0,0,1-13.52,7c-9.72,4.16-19.68,7.7-29.51,11.55a92.29,92.29,0,0,1-22.19,5.54c-5.7.71-10.89-1.17-15.57-4.31a4.64,4.64,0,0,0-5-.57c-4.13,1.8-8.53,1.85-12.93,1.35-2-.24-4.11-.27-6.16-.47-.7-.18-1.47-.27-1.53-1.23-.14-.4-.5-.37-.83-.44-5-1.19-5.5-2.08-5.28-7.07a107.12,107.12,0,0,1,3.79-24.38c.52-1.85-1.24-3.19-.32-5.26,1.08-2.44,1.63-5.18,2.74-8.25a7.52,7.52,0,0,1-4.42,1A1.71,1.71,0,0,1,53.14,649c0-.07,0-.14,0-.21.18-1.27,1.16-1,2-.6,1.06.58,1.77-.07,2.55-.6a15.68,15.68,0,0,0,6.08-7.77,30.73,30.73,0,0,1,2.9-6.87c.54-.83.31-1.48-.23-2.32a11.36,11.36,0,0,1,.4-13.69,3.7,3.7,0,0,0,.67-3.46c-.88-3.92-.21-7.56,3.15-10.22,1.22-1,1-1.28-.2-2.13-6.12-4.32-9.1-15-6.27-21.86.81-2,1.37-2.58,3.57-3.71-3.59,6.32-2.64,12.45.43,18.35a11.93,11.93,0,0,0,8.69,6.66c1.93.34,2.59-.26,1.6-2.18-2-3.87-3-8-1.53-12.2.87-2.63,1.78-5.51,5.37-5.75.8,0,1-.86,1.49-1.32a5,5,0,0,1,4.93-1.51c.57.15,1.29.49,1.25,1.14,0,.81-.88.67-1.43.65a2.46,2.46,0,0,0-2.73,1.87,3.3,3.3,0,0,0,1.36,3.63,1.49,1.49,0,0,0,1.87.36c1.47-.87,2.1-.15,3,1.15,1.88,2.86,1.87,6.2,2.79,9.29.58,2,1,4,1.5,6a1.85,1.85,0,0,1-1,2.42,2,2,0,0,1-.47.14c-1.37.32-1.85-.64-2-1.75q-1-6.23-1.93-12.47c-.21-1.37-.18-2.54-2.29-1.5s-5.54-1.67-6.08-4.53c-.14-.74-.14-1.5-.25-2.79-2.45,2.26-3,4.84-3.27,7.54-.2,2.48.75,4.71,1.8,6.9,1.38,2.9,3.18,5.69,2.93,9.2a15.82,15.82,0,0,0,2.35-9.23c0-.76-.64-2,.62-2.11,1-.07,1,1.24,1.15,2,.86,5.21-.1,9.92-4,13.77a6.58,6.58,0,0,1-2.28,1.64c-1.16.44-2-.2-2.84-.79s-.35-1.32-.09-2.1c1.73-5.06,1.71-5-3.48-5a4.51,4.51,0,0,0-3.76,1.81c-2.75,3.4-1.61,9.92,2,11.49,1.34.58,1.89.3,1.87-1.21a31.41,31.41,0,0,0-.54-5.64c-.09-.48-.28-1.17.28-1.37.8-.29.93.52,1.17,1,1.28,2.7,1.55,6.06.9,11.13,5.31-1.76,7.23-3.81,8.56-9.08.26-1-.06-2.44,2.1-1.43,1.59.74,3.13-1,4.46-2a43.56,43.56,0,0,0,3.28-3.09,3.44,3.44,0,0,1-1.06,3.52,10.41,10.41,0,0,1-5.87,3.52c-2,.41-1.77,2-1.82,3.21-.07,1.46,1.41.92,2.2.9a14.82,14.82,0,0,1,10.65,4.37,25.33,25.33,0,0,0,9.63,5.69c2.72.87,3.67.2,4.13-2.63s1.18-5.53,1.77-8.3c.18-.84.73-1.87.43-2.49-1.3-2.67.31-2.63,2.16-2.65,3.33,0,6-1.82,8.69-3.47,1.81-1.11,3.34-2.69,5.54-3.09a1.44,1.44,0,0,0,1.06-1c2.53-6.17,6.06-12,6.61-18.85a38.7,38.7,0,0,0,0-8.54c-4,3.5-8.11,2.47-9.53-2.12-.2-.65-.5-1.48.2-1.89s1.42.1,1.88.83c.76,1.22,1.47,3.09,3,2.82s1.18-2.3,1.45-3.55c.36-1.72,2.61-2.56,1.73-4.94-.6-1.61-1.17-2-2.7-1.73a31,31,0,0,1-3.85.3c-.51,0-1.09,0-1.26-.65-.22-.8.46-1,1-1.28a11.48,11.48,0,0,1,3.74-.88c1.08-.16,1.73-.47,1.37-1.84-.66-2.57-1.15-5.19-1.73-7.78a4.59,4.59,0,0,0-.48-1.36c-4.1.59-1.16-1.91-1-2.62a25,25,0,0,0-1-14.64c-.4-1.13-1.17-2.12-1.25-3.36,0-.72,0-1.42.88-1.65s1.48-.35,2,.6,1.24,2,2,3.3c2.06-10,7.89-16.94,15.45-22.63l.75.56L147.33,516c-5.26,6.23-8.1,13.31-7.52,21.56.11,1.61-.1,3.9,1.22,4.49,1.17.52,1.85-1.88,3-2.75s2.16-3.22,3.63-1.73c1.23,1.27-1.17,2.19-1.93,3.26a36.06,36.06,0,0,1-2.5,2.6c-.51.57-1.64.9-.94,2s1.18,2.12,2.7,2a11.4,11.4,0,0,0,4.94-2c.83-.52,1.86-1.14,2.45-.1s-.65,1.42-1.27,2c-1.55,1.33-3.49,1.77-5.69,2.15a13.43,13.43,0,0,0,3,3.62,22.13,22.13,0,0,1,5.51,8.3c.36,1.07.34,2.05-.88,2.62s-2.32.69-3-.48c-2.8-4.9-7.14-8.58-10.28-13.19-1-1.41-1.75-2.94-2.64-4.45a2.8,2.8,0,0,0-.82,3.33c1,3.29,2,6.55,3,9.85.44,1.57,1.06,2.65,3,2.44a1.29,1.29,0,0,1,1.63,1.25,1.22,1.22,0,0,1-1.09,1.36h-.16c-1,.07-1.41.36-1.09,1.45a56.25,56.25,0,0,1,2.14,12.68c0,.2.25.4.49.78,1.33-1.8,3.17-3,2.34-5.78-.6-2,.53-2.69,2.8-2.75,3.69-.09,6.27,2.51,9.46,3.62,4.08,1.41,8,3.25,12,4.92,3.84,1.6,7.3,4,11.38,5.07l-.05,0c.54,2.12,1.82,3.8,3.29,6,.68-1.93,1.3-3.46,1.74-5,.66-2.38,2-3.4,4.59-3.61a7.43,7.43,0,0,1,5.86,2.05c5.53,4.63,11.26,9,16.84,13.59,1.11.91,1.69,1.07,3,.07,7.65-6.07,15.42-12,24.54-15.77,10.22-4.18,20.11-3.73,29.5,2.68a24.72,24.72,0,0,1,9.8,12.4c.58,1.63,1.12,2.16,3,1,4.87-3,10.44-4.21,16-5.1,2.95-.47,8,4.15,8.12,7.15,0,.68.13,1.36.19,2l0,.36a4.65,4.65,0,0,1-.33,2.87,1.11,1.11,0,0,1-.66.32c-1.12-.14-1.47-1.11-1.95-1.89a27.58,27.58,0,0,0-4.05-4.65,4.32,4.32,0,0,0-3.75-1.28,38.48,38.48,0,0,0-12.42,3.13,2.2,2.2,0,0,0-1.51,2.58c.39,3.1.8,6.13,3.7,8.12a11.68,11.68,0,0,1,2.48,2.94c.39.53.82,1.29,1.63.89s.63-1.15.55-1.84a18.18,18.18,0,0,0-1.15-3.67c-.28-.9-.65-1.89.34-2.58s2-.11,2.77.57c1.24,1.06,2.27,2.34,3.55,3.36.47.38,1,.73,1.64.33s.53-1,.38-1.63a18.58,18.58,0,0,0-1.91-4.21c-.57-1-1-2.11.1-3a2.45,2.45,0,0,1,3.33.07c1.92,1.67,3.52,3.68,6.1,4.57.95.32.78,1.67.47,2.56a18.2,18.2,0,0,0-.8,5.58c-.68,3.19-.82,6.45-1.35,9.66a6.8,6.8,0,0,1-.91,2.91c-2.56,1.74-3,4.05-2.05,6.89a22.66,22.66,0,0,1,.8,8.07c-.28,1.85-.41,3.72-.6,5.58-.18,1.7.53,2.25,2.09,2.42l6.6.7c6.06.49,12.07,1.16,18.2,1,4.86-.08,9.78.36,14.67.24a170.92,170.92,0,0,0,27.35-3,128.94,128.94,0,0,0,38.46-13.56c2.2-1.19,4-3,6.35-3.9a78.08,78.08,0,0,0,10.92-9.13c.8-.83,1.48-1.89,2.77-2.12a38.76,38.76,0,0,0,7.27-9.88c1.13-2.2,2.71-1.62,4.38-1.29a2.66,2.66,0,0,1,2.4,2.88l0,.23c-.18,2.92-.2,5.85-.5,8.75-.19,1.79.34,2.63,2.14,3,2.77.64,3.21,1.74,1.68,4.21a39.59,39.59,0,0,1-3.46,4.48,5.22,5.22,0,0,0-1.4,2.95c-.18,1.79-.29,3.06,2.28,3.3,3.35.32,3.75,1.77,1.56,4.36-1.33,1.57-2.84,3-4.2,4.54-1,1.11-1.22,2.11.69,2.53.57.12,1.08.52,1.65.68,1.82.52,2.21,1.58,1.59,3.33a25.39,25.39,0,0,1-4.58,7.4c-2,2.46-2.13,5.22,0,7.57,1.4,1.54,1.18,2.64-.23,3.89a7.09,7.09,0,0,0-2.44,5.46c-.07,3.08-.83,6.13-.62,9.23a3.19,3.19,0,0,1-1,2.54,89,89,0,0,1-27.08,19.31,87,87,0,0,1-9.47,3.8,1.78,1.78,0,0,1-1.24,1.2,85.43,85.43,0,0,1-20.88,5.21c-2.8.31-5.47,1.62-8.36,1-.56,1.32-1.09,2.47-2.71,3-1.94.68-3,.47-3.25-1.66-.11-1.09-.53-1.51-1.61-1.45-3.59.19-7.18.32-10.79.17-1.41-.06-2.85,1-4.32,1.38-1.19.34-2.43.47-3-1-.33-.8-1-.86-1.7-.88a68.2,68.2,0,0,1-12.65-1.76c-2.15-.46-4.35-.53-6.17,1.14s-2.56.56-2.89-1.18c-.19-1-.07-2.07-1.56-2.18s-2.88-.91-3.86.86c-.49.88-.9,2-2.22,1.68a2.77,2.77,0,0,1-2-2.47c-.35-2.81-1.53-2.67-3.5-1.33s-3.1.84-3.14-1.45a2.41,2.41,0,0,0-2-2.7,9.27,9.27,0,0,1-3.73-2.15c.38-1.17,1.32-.45,2-.66,3.65-.19,4.07-.73,4-4.55a3.18,3.18,0,0,0-2.11-3.14c-1.56-.73-3.56-.81-4.45-2.67-.19-.15-.35-.37-.57-.44-.91-.29-2-.63-1.68-1.77s1.45,0,2.17-.28c1.92-.75,3.47.52,5.1,1.06s2.29.18,2.44-1.43l.09-.77c.5-4.54.48-4.51-3.55-6.69C301.68,687.67,300.21,687.43,300.14,685.76Z"/><path id="Trazado_159" data-name="Trazado 159" class="cls-2" d="M430.38,620.78a56.85,56.85,0,0,1-12.94,11.32c-2.1.4-1.22-1.09-1.1-1.88a76,76,0,0,1,2.46-10.54q4.17-14.45,7.52-29.11c2-8.71,3.66-17.49,5.54-26.22,2.58-12,4.9-24.07,6.83-36.19,1.42-8.9,3.49-17.71,4.12-26.72a179.09,179.09,0,0,0,.5-21.61c-1.05-21.13-9.2-40-17.71-58.87a105.56,105.56,0,0,1-8-27.12c-1.81-11.31-2.56-22.7-3.35-34.09-.34-4.79-.93-9.59-.65-14.41.26-4.57-.77-9.08-.54-13.65.08-1.5-.57-2-2.17-2.05-4.87-.07-9.81.29-14.42-1.94-1.56-.75-1.88.43-2.08,1.66-.59,3.65-.93,7.34-1.54,11a252.69,252.69,0,0,1-10.52,42.25,162.21,162.21,0,0,1-17.9,35.62c-5.6,8.45-11.53,16.7-16.48,25.56a91.54,91.54,0,0,0-8,20.62,163.47,163.47,0,0,0-4.62,21.67c-.25,1.89,0,2.81,2.2,3,4.63.46,9.27.12,13.9.29,10,.35,20.07.65,30.11.61,2.92,0,5.8.57,8.72.79,3.35.25,6.44,6,5.46,9.81-2.84,11.15-5.25,22.41-7.81,33.64-3.26,14.32-6.72,28.61-10.07,42.92C375,589.44,372.1,601.74,369,614c-2.29,9.08-5.25,18-7.06,27.2a5.51,5.51,0,0,1-4.34,4.57,15.67,15.67,0,0,1-5.1.54c-8.48-.54-17-.7-25.46-1.12-3.08-.15-6.17-.45-9.25-.76-3.25-.33-3.83.24-4.52,3.39-.3,1.37.24,3.19-1.62,4-2.72-.25-5.44-.48-8.16-.8-1.12-.13-1.81-.45-1.3-2,.69-2.1.08-4.44.78-6.59.5-3.3-.16-6.6.1-9.9a11,11,0,0,1,1.3-5.12q1.06-6.47,2.14-12.93c.34-2.83,1.77-5.53,1-8.51-.1-.41.21-.81.48-1.15l0-.06c.62-.93,0-2,.41-3l.1-.22c.8-.8.36-1.8.38-2.69.25-11.08,1.3-22.11,1.94-33.17.55-9.63,2-19.12,3.49-28.6,1.24-8,2.83-15.86,4.58-23.73,1.84-8.28,3.27-16.66,4.58-25a207.54,207.54,0,0,1,6.53-28.8,103.29,103.29,0,0,1,11.67-25.26c6.18-9.75,13.16-19,19.28-28.73a158.12,158.12,0,0,0,11.55-22.78,257.79,257.79,0,0,0,12-37.56c2.46-9.89,4.32-19.94,6.47-29.9,1.06-4.86,2.13-9.72,3.3-14.55a3.38,3.38,0,0,0-.58-3.29c-1.41-1.84-.64-4,1.54-4.71a4.42,4.42,0,0,0,1.84-.81c4.44-4.24,10-5,15.79-4.93,4.3,0,7.82,4.9,6.81,9-.46,1.87.13,3.76.15,5.64.14,17.62,1,35.2,2.78,52.73,1.31,13,2.39,26,5.1,38.78a91.26,91.26,0,0,0,6.21,20c6.63,14.16,13.15,28.37,17.24,43.57,3.74,13.9,3.88,28,3.08,42.17a190,190,0,0,1-3,22.42q-2.87,16.19-6,32.34c-2.06,10.75-4.14,21.5-6.4,32.21-1.43,6.75-3,13.49-4.93,20.11C432.63,610.86,431.34,615.77,430.38,620.78Z"/><path id="Trazado_160" data-name="Trazado 160" class="cls-3" d="M130.07,797.71c1.52-2.05,3.65-2.52,6.07-2.52q14.81,0,29.6-.12c19.3-.17,38.61-.29,57.92-.6q23.46-.39,46.92-.2c5.06,0,5.19.16,7.15-4.55,5-12.1,11.32-23.64,16.5-35.68a44.83,44.83,0,0,1,9.63-14.5,48.65,48.65,0,0,1,15.66-10.79c3.07-1.27,6-2.84,9.29-3.31,8.77-1.26,17.24-1,25.06,4.12,9.83,6.41,13.47,15.6,13,26.9-.07,1.51-.62,2.4-2.22,2.62a10.56,10.56,0,0,0-3.23.85c-3.09,1.51-5.51.26-7.58-1.84-3.4-3.47-7.86-4.72-12.27-5.83-6.05-1.52-12.22-1.17-18.41-.36-9.5,1.25-17.73,5.27-25.4,10.77a7.07,7.07,0,0,0-2.06,2.57c-5.62,10.4-11,20.92-17.33,31a4.29,4.29,0,0,1-3.93,2.29q-15.6.48-31.2.56c-14,.1-28,.38-42,.52q-24.87.27-49.74.43c-8.75.06-17.5.16-26.25.13-2.25,0-2.89.56-2.1,2.83A20.7,20.7,0,0,0,130.59,813c1.22.9,2.12,2,1.64,3.42s-1.84,1.62-3.22,1.57a30.29,30.29,0,0,1-15.08-4.92c-4.32-2.68-7.1-6.85-10.23-10.67a4.46,4.46,0,0,0-3.89-1.95c-7.47.16-14.94.09-22.41.26-2.09,0-3.84-.81-5.7-1.38-1.24-.37-1-1.44-.84-2.37.65-3,1.22-6.06,2.06-9,.51-1.8,0-2.3-1.71-2.31q-9.42-.09-18.83-.26c-7.39-.13-14.77-.22-22.15-.47-1.66,0-2.05.5-2.09,2a88.18,88.18,0,0,1-1.86,12.73c-.92,5.12-3.67,8.44-8.9,9.35s-10.44,2-15.73.16A2,2,0,0,1,0,806.94a1.94,1.94,0,0,1,.05-.2,84.26,84.26,0,0,0,.58-9c0-1.92.81-2.14,2.33-2a28.58,28.58,0,0,0,8.71-.23,2.72,2.72,0,0,0,2.33-2.6,50,50,0,0,0,.24-6.7c0-1.17-.41-1.77-1.64-1.73a15,15,0,0,1-2.32-.06c-2-.27-3.35.23-3.88,2.33-.1.41-.26,1-1.17,1a2.55,2.55,0,0,1-.13-.87c.48-2-.31-2.88-2.31-2.82C2,784,1,783.92,1,783c0-1.3,1.18-1.08,1.94-1,2.44.2,3.45-.89,4.23-3.24,7.64-23.12,21.18-42,41.15-56.08,1-.74,2.13-1.92,3.66-.85.94.31,1.14,1.23,1.58,1.94,6,9.82,16.38,15.3,28.51,12.93,14-2.75,27.15-8,39.84-14.41,5.36-2.71,10.9-5.09,16-8.31.71-.45,1.64-1.05,2.35-.26s-.06,1.6-.6,2.24c-6.78,8-13.13,16.34-19.71,24.5-6.1,7.56-12.06,15.23-18,22.89-2.06,2.66-2.06,4,0,6.64a56.36,56.36,0,0,1,4.51,5.6c.28,1.37-.72,2-1.56,2.73-3,2.66-6.12,5.26-9.3,7.76a9.31,9.31,0,0,0-1.17,1c-.64.69-1.5,1.42-.68,2.42s1.72.31,2.5-.21,1.78-1.36,2.74-1.93c3-1.75,6.1-.17,6.29,3.23.38,6.67,4.3,11.43,8.6,15.91a14.47,14.47,0,0,0,6.42,4.26,66.3,66.3,0,0,1-2.68-6.39,27.36,27.36,0,0,1-1.28-14.17c.17-.9.18-2,1.53-2a8.75,8.75,0,0,1,4.21,4.65c.29.73.5,1.5,1.37,1.73a9.17,9.17,0,0,1,3.71,2.23A3.94,3.94,0,0,0,130.07,797.71Z"/><path id="Trazado_161" data-name="Trazado 161" class="cls-4" d="M130.07,797.72c-.53.73-1,1.26-2,.56-1.86-1.2-3.13-3.51-5.84-3.21-.14,0-.49-.5-.48-.76,0-2.76-2.16-4.1-3.67-5.87-4.62-3.63-8.84-7.64-11.87-12.75-1.6-1.8-3.23-3.56-4.78-5.4-2.29-2.7-2.42-4.13-.31-6.84q10.59-13.61,21.32-27.1c5.82-7.32,11.75-14.56,17.62-21.83a5.66,5.66,0,0,0,.42-1.1c-2.05,1.12-3.71,2.1-5.42,3-9.26,4.68-18.32,9.79-28,13.43-7.87,2.94-15.69,6-24,7.49-10.22,1.84-18.87-.71-26.11-8A21.43,21.43,0,0,1,52,721.8c-3.6-7.4-2.64-14.69.79-21.76,1.23-2.51,2.67-5.3,6.31-5,.44.65,1.18.44,1.79.63,2.4,1.41,2.49,2,.46,4-5.38,5.33-7.5,11.55-5.27,19,4.67,7.26,10.08,13,19.79,13,7.34,0,14.06-2.11,20.86-4.22,14.82-4.61,28.71-11.5,42.83-17.8a48,48,0,0,1,5.8-2.14c1-.29,2.23-.5,2.92.37.85,1-.31,1.88-.85,2.66q-11.88,17.19-24.38,33.93c-5.22,6.94-10.26,14-15.55,20.9-1.94,2.52-1.88,3.06.68,5,2,1.49,3.26,3.53,5,5.25,3.24,3.31,6.73,6.37,9.94,9.71a48.07,48.07,0,0,0,4.18,4.49c1,1.16,2,1.26,2.84-.14,1.53-2.49,4.28-3.95,5.59-6.62q6.3-8.62,13.08-16.88c5.58-6.76,10.83-13.77,16-20.85,7-8.9,13.88-17.88,20.75-26.87,3.64-4.77,7.05-9.71,10.47-14.64.77-1.12,1.44-1.94,3.11-1.36a5.08,5.08,0,0,0,3.52-.13l3.83-5.76c1.57-.93,1.48.19,1.22,1.1a12.29,12.29,0,0,1-1.69,4c-2.26,3.06-2.27,6.5-2,10a2.56,2.56,0,0,1-.14,1.5A114.11,114.11,0,0,1,200.67,725c-1.48-.28-1.13-1.52-1.15-2.43-.07-3.16-.87-6.27-.69-9.53-6.86,10.33-15.43,19.24-23.1,29.55,5.9-1.58,11.47-2,16.93-3,1.29-.24,2.86-1.06,3.85.7-.88,1.15,0,2.72-.95,3.86a3.48,3.48,0,0,1-2.68,1.26c-5.91,1-11.87,1.6-17.79,2.45-1.47.22-2.81-.87-4.24-.17l-1.1,1.13a27.7,27.7,0,0,1-8.8,10.69c-4.15,5.75-9.14,10.8-13.5,16.38-2.52,3.22-5.15,6.36-7.74,9.54-3,3.91-5.79,7.92-9.36,11.32C130.14,797,130.16,797.4,130.07,797.72Z"/><path id="Trazado_162" data-name="Trazado 162" class="cls-3" d="M67.43,807A22.71,22.71,0,0,1,55.17,825.4c-1.57.86-3.64.87-5.49,1.15-2,.3-4.13,0-6.07.9a2.38,2.38,0,0,1-1.49-.12c-7.4-2.27-11.87-7.83-12.54-15.57a24.06,24.06,0,0,1,13.33-24,3,3,0,0,1,2.68-.35,3,3,0,0,0,2,.08,9.32,9.32,0,0,1,7.54.89c2.65,1.37,5.88,1.39,8,4.15C66.19,796.51,67.59,800.91,67.43,807Z"/><path id="Trazado_163" data-name="Trazado 163" class="cls-5" d="M182.14,584.12c-.57-2.6.67-4.89,1.27-7.28.44-1.75.5-3.22-1.48-4a1.65,1.65,0,0,1-.58-.5c-.64-.81-2.34-1.4-1.45-2.61s2,.17,2.86.68a27.3,27.3,0,0,0,8,3.43c7.77,1.62,13.93-3.74,16.41-10.71.42-1.2,0-1.76-1.34-1.66-2.08.16-3.85-.8-5.58-1.76-.56-.31-1.3-.82-1-1.6s1.14-.68,1.81-.61c1.45.15,2.89.39,4.33.58a3.11,3.11,0,0,0,2.22-.5,2.23,2.23,0,0,0,.65-2.13c-.07-1-1-.75-1.58-.88a2.72,2.72,0,0,0-1.27-.12c-1.55.43-2.77.19-3.15-1.57-.41-1.92,1.38-1.79,2.39-2.37a1.2,1.2,0,0,1,.48-.17c6.28-.25,5.78-2.62,5-7.5-1.77-10.87-5-21.36-7.82-32-.3-1.12-1.37-2.82.17-3.32s2.12,1.32,2.6,2.62c1.11,3,2.28,5.91,3.3,8.9.52,1.49,1.13,2.19,2.92,1.83a17.27,17.27,0,0,1,6.41-.09c1.28.23,2.92.41,2.69,2.08s-2,1.21-3,1.06c-2.37-.36-4.7-.92-7.25-.49,1.64,5.46,3.27,10.87,4.88,16.28a28.39,28.39,0,0,1,1.39,7.31c.08,2.42-.72,4.15-3,5.1-1.28.53-1.83,1.15-1.29,2.92a14.84,14.84,0,0,1-2.23,13.24,23.67,23.67,0,0,1-9.39,7.45,15,15,0,0,1-11.53.61c-1.87-.62-2.46,0-2.6,1.77-.08,1.1-.47,2.18-.65,3.28-.32,2-1.37,3.07-3.52,2.7Z"/><path id="Trazado_164" data-name="Trazado 164" class="cls-6" d="M185,512c9-1.73,15.24-6.85,18.34-15.54.12-.33.19-.66.28-1,.15-.56.17-1.3,1-1.13s.7.85.74,1.44c.12,2.15-.86,4-1.61,5.92-3.27,8.34-12.32,13.31-20.25,13.42a3.46,3.46,0,0,1-2.86-.9c-.46-.5-6.56-.56-7.1-.18s-.36.9-.27,1.39c.21,1.19.4,2.38.66,3.55,1.28,5.63-.3,10.51-4,14.81-.73.85-1.74,1.56-.43,2.73a1,1,0,0,1,.21,1.41c-.42.52-1.07.39-1.68.24-3.08-.75-5.5.36-6.63,3-1,2.3.25,5.2,2.7,6.88,1.19.81,1.95,0,2.8-.41,1-.5,2.2-1.2,3-.09s-.85,1.47-1.14,2.27c-.79,2.15-4.19,1.25-4.46,3.77a19,19,0,0,1-1.88,6.1,21.07,21.07,0,0,0-1.22,3.36c-.26,1-.74,1.62-1.78,1.35s-.83-1.2-.67-1.93a36,36,0,0,1,3.3-7.77c.7-1.41,1.1-2.56-.65-3.52a8.06,8.06,0,0,1-1.84-1.8c-4.28-4.82-3.12-10.43,2.6-13.38,5.29-2.74,7.95-7.41,8.58-13.16.5-4.56-.72-9.05-1.22-13.57-.09-.84-.86-2.1.58-2.33,1.23-.19,1.37,1.17,1.51,2,.38,2.36,1.94,3,3.92,2.63,10.12-1.69,17.19-7.21,20.77-16.93a20.23,20.23,0,0,0,.69-3.27c.12-.66.07-1.5,1-1.53s1.38.7,1.5,1.49a11,11,0,0,1-.3,4.6c-1.91,6.89-5.74,12.19-12.55,15A12.67,12.67,0,0,0,185,512Z"/><path id="Trazado_165" data-name="Trazado 165" class="cls-7" d="M94,550.87c-4.53,1.49-8.83,2.75-12.33,5.68-7,5.9-10.69,13.06-8.41,22.48.64,2.66,1.51,5.29,1.44,8.09a9.27,9.27,0,0,1-1.88,5.5,2.16,2.16,0,0,1-2.77.74c-1.12-.57-.28-1.5,0-2.23a12.41,12.41,0,0,0,.33-7.36A56,56,0,0,1,69,575.13c0-1.07-.4-1.53-1.47-1.63-3.69-.37-5.66-3.55-5.83-6.69-.4-7.34,3-13.49,8.94-16a21.76,21.76,0,0,1,6-1.05c3.44-.39,5.32-2.32,6.39-5.45,2.45-7.17,7.67-11.83,14.51-14.36,6.63-2.45,12.79,0,18.67,2.92l-.13.66c-2.71-.68-5.39-1.52-8.13-2-8.14-1.52-17.51,3.58-20.81,11.22-.54,1.26-1,2.54-1.52,3.83a8.35,8.35,0,0,1-8.2,5.87c-9.35.3-12.49,7.44-12.13,14.08a8.18,8.18,0,0,0,.5,2.24c.43,1.2.87,2.65,2.46,2.54,1.42-.1,1-1.6,1.28-2.48,3.56-10.15,10.38-16.56,21.12-18.51A3.33,3.33,0,0,1,94,550.87Z"/><path id="Trazado_166" data-name="Trazado 166" class="cls-2" d="M370.51,721.55c4.77-1.65,9.82-1.82,14.71-2.89A104.17,104.17,0,0,0,401,714.09c.79.27,1.8.45,1.42,1.64-.6,1.9-.19,4.13-2.05,5.64a4.38,4.38,0,0,0-1.17,2.24,4.44,4.44,0,0,1-4.85,3.23c-4.22-.63-8.52-1-12.66-2a81.15,81.15,0,0,0-9.3-1.51A2.11,2.11,0,0,1,370.51,721.55Z"/><path id="Trazado_167" data-name="Trazado 167" class="cls-8" d="M118.16,541.65a4,4,0,0,1-1,.23c-6.68-.92-11.29,1.52-14.94,7.21-3.23,5-4.08,10.85-6,16.31s-6.12,8.64-11.26,8.5a9.21,9.21,0,0,1-6.22-2.6c-.65-.62-1.19-1.4-.49-2.26a1.94,1.94,0,0,1,2.37-.35l.23.12c6,3.19,9.3,2,11.79-4.49,2.05-5.33,3.16-11,6.67-15.77a22.84,22.84,0,0,1,10.8-8.36A8.1,8.1,0,0,1,118.16,541.65Z"/><path id="Trazado_168" data-name="Trazado 168" class="cls-7" d="M124.17,541.83c.1,3.8-1.89,7.36-5.21,10.27-.7.61-1.62,1.47-2.47.71s.25-1.54.68-2.15c5.75-8.15,3.15-18-5.89-22.27a6,6,0,0,0-3.75-.25c-1,.16-2.54.79-2.89-.65s1.23-1.85,2.36-2.15c4.38-1.18,8.08.39,11.38,3.08A16.81,16.81,0,0,1,124.17,541.83Z"/><path id="Trazado_169" data-name="Trazado 169" class="cls-9" d="M180.42,497.37c-7.69.3-15.25.3-22.24,3.82a22.55,22.55,0,0,0-5.29,4c-.63.6-1.34,1.38-2.18.6-.69-.64-.09-1.46.34-2.08a18.4,18.4,0,0,1,9.93-6.92c7.4-2.42,15.07-3.06,22.81-3.09a5.06,5.06,0,0,1,1.28.17c1.28.36,3.38-.11,3.11,2.11-.24,2.05-2.18,1.51-3.55,1.55S181.72,497.44,180.42,497.37Z"/><path id="Trazado_170" data-name="Trazado 170" class="cls-10" d="M130,542a13.79,13.79,0,0,1-1.87,8c-.4.63-.9,1.59-1.72,1.27-1.08-.42-.19-1.31,0-2,1.56-6.79.49-13.26-2.35-19.51a6.52,6.52,0,0,0-3.3-3.12c-.95-.45-2.2-.94-1.6-2.16s1.82-.83,2.94-.41a10.54,10.54,0,0,1,6.73,7.84A37.47,37.47,0,0,1,130,542Z"/><path id="Trazado_171" data-name="Trazado 171" class="cls-11" d="M129.38,581.1a2.11,2.11,0,0,1-1.65,2.5l-.08,0c-1.67.31-3.38,1.73-5.09.16-1-.95-.75-2.06.4-2.45,2.16-.74,2.05-2.25,1.76-3.93a76.72,76.72,0,0,1-1.19-12.55,15.57,15.57,0,0,1,0-2.05c.11-.89-.08-2.09,1.32-2.1s1.19,1.17,1.26,1.91C126.75,568.86,128.44,574.92,129.38,581.1Z"/><path id="Trazado_172" data-name="Trazado 172" class="cls-12" d="M300.85,664c2.41.76,4.8,1.59,7.23,2.25,1.36.37,1.64,1.06,1.54,2.39-.55,6.85-.52,6.86-7,5-1.14-.33-2.23-.82-3.34-1.24C300.06,669.64,299.33,666.62,300.85,664Z"/><path id="Trazado_173" data-name="Trazado 173" class="cls-12" d="M300.14,685.76c1.64,1.73,3.95,2.35,6,3.46a1.9,1.9,0,0,1,1.22,2.19,46.05,46.05,0,0,0-.53,5.37c0,2-1,1.79-2.32,1.34l-5.8-2c-.63-3.26.23-6.48.23-9.72C298.9,685.71,299.73,686,300.14,685.76Z"/><path id="Trazado_174" data-name="Trazado 174" class="cls-12" d="M301.78,653.34c2.9-.54,5.56.8,8.35,1,1,.09.9.82.82,1.52-.21,1.88-.42,3.75-.59,5.64-.1,1.12-.42,1.69-1.78,1.36-2.41-.58-4.87-.95-7.31-1.41-.8-1.82-.43-3.63.06-5.42A7.71,7.71,0,0,0,301.78,653.34Z"/><path id="Trazado_175" data-name="Trazado 175" class="cls-13" d="M122.41,593.41c-3-.36-6.08-.71-8.42-3-.83-.81-1.73-1.82-.83-2.85.72-.83,1.8-.34,2.77.24,2.78,1.67,5.71,2.66,9,1.83,1.21-.3,2.32-.58,2.9-1.82a2.14,2.14,0,0,1,2.38-1.1c1,.05,2.24-.1,2.56,1.17.26,1.07-.38,1.84-1.33,2.51C128.74,592.29,125.86,593.61,122.41,593.41Z"/><path id="Trazado_176" data-name="Trazado 176" class="cls-14" d="M160.15,514.21c0,4.08-2,8-3.57,12.08-1.2,3-2.53,6-2.93,9.26-.11.86-.33,1.58-1.29,1.58-1.2,0-1.32-.93-1.26-1.82.28-3.91,1.71-7.49,3.28-11,1.89-4.24,3.74-8.47,3.49-13.27,0-.5-.11-1.1.6-1.18a1.18,1.18,0,0,1,1.27.68A6.71,6.71,0,0,1,160.15,514.21Z"/><path id="Trazado_177" data-name="Trazado 177" class="cls-12" d="M299.84,674.88c2.33.78,4.63,1.63,7,2.32,1.29.38,1.86,1,1.63,2.37-.2,1.18-.23,2.38-.36,3.58-.33,3.16-.3,3.11-3.25,1.6a23.52,23.52,0,0,1-6.13-4.54A4.12,4.12,0,0,0,299,677,1.8,1.8,0,0,1,299.84,674.88Z"/><path id="Trazado_178" data-name="Trazado 178" class="cls-12" d="M298.74,698.57c2,.88,3.9,1.8,5.88,2.61,1.12.45,1.66,1,1.37,2.32a18.26,18.26,0,0,0-.18,2.56c-.37,4.33-.37,4.33-4.48,2.86a8.88,8.88,0,0,1-3.66-8.33C297.73,699.75,297.65,698.85,298.74,698.57Z"/><path id="Trazado_179" data-name="Trazado 179" class="cls-15" d="M107.57,580.8a6.63,6.63,0,0,1-6.09-6.14c0-.75-.23-1.66.84-1.86a1.42,1.42,0,0,1,1.7,1.06s0,.07,0,.11a7.05,7.05,0,0,0,1.77,3.09c1.14,1.14,2.07,1,2.91-.3a10.57,10.57,0,0,0,1.38-3.86c.33-1.83,1.68-2.14,3.08-2,1.68.19,1.47,1.64,1.32,2.83C114,577.6,110.74,580.93,107.57,580.8Z"/><path id="Trazado_180" data-name="Trazado 180" class="cls-15" d="M197.64,524.16c.73-.07,1.5,0,1.67.81.23,1-.55,1.62-1.36,1.92a31,31,0,0,0-7.76,3.93c-.83.61-1.57,1.33-2.4,1.94a1.34,1.34,0,0,1-1.68,0c-.49-.38-.34-.87-.09-1.37C187.52,528.34,194.19,524.18,197.64,524.16Z"/><path id="Trazado_181" data-name="Trazado 181" class="cls-16" d="M99.59,568.41c-1,0-1.59.11-1.78-.51s.32-.91.78-1.16c3.73-2,7.87-2.76,11.92-3.74a1.34,1.34,0,0,1,1.72.75h0a1.41,1.41,0,0,1-.56,1.6,3.2,3.2,0,0,1-1.26.82C106.59,566.67,102.71,566.83,99.59,568.41Z"/><path id="Trazado_182" data-name="Trazado 182" class="cls-17" d="M192.86,538.56c.09-1.26-.23-2.63,1.69-2.6,1.77,0,2,1.19,2.16,2.57s-.44,2.62-2,2.69C192.79,541.3,193,539.69,192.86,538.56Z"/><path id="Trazado_183" data-name="Trazado 183" class="cls-17" d="M219.87,531.53c-.09,1.73-.5,3.24-2.43,3.41-1.52.14-1.34-1.16-1.4-2.16a2.68,2.68,0,0,1,2.15-3.13,2.57,2.57,0,0,1,.4,0C219.9,529.47,219.81,530.7,219.87,531.53Z"/><path id="Trazado_184" data-name="Trazado 184" class="cls-12" d="M311.67,651.78c1-1.25.66-2.8.9-4.2.72-4.16.8-4.5,4.79-4,8.52,1,17.09,1,25.63,1.53,3.56.24,7.12.2,10.67.56,4.54.46,6.76-1.54,7.89-6,2.34-9.22,4.93-18.39,7.25-27.62,2.06-8.23,3.87-16.52,5.84-24.77,2.51-10.56,5.1-21.11,7.6-31.67,1.83-7.75,3.55-15.53,5.35-23.29,2.12-9.15,4.29-18.3,6.4-27.46a40.59,40.59,0,0,1,1-4.46c.9-2.55-1.51-7.43-3.89-8.8-1.14-.65-2.19.27-3.27,0-6.2-1.35-12.5-.69-18.74-.88-7.18-.21-14.36-.38-21.53-.67-3.75-.15-7.5.09-11.26-.15-1.85-.11-2.22-.6-2-2.22A191.71,191.71,0,0,1,339.57,463a97.91,97.91,0,0,1,6.84-18,110,110,0,0,1,5.84-9.94c3.24-5,6.7-9.89,10-14.87a205.14,205.14,0,0,0,11.3-19,166.71,166.71,0,0,0,9.58-23.57c5.35-15.92,8.49-32.32,10.6-48.94.27-2.14.7-3,2.94-1.8,4.66,2.45,9.79,2,14.79,1.84,2,0,2.54.36,2.55,2.31.06,12,.66,24,1.49,36s1.93,24.14,4.65,36c1.88,8.2,5.16,15.93,8.82,23.49a187.36,187.36,0,0,1,12.48,34.53c2.84,10.92,3.18,22.16,2.53,33.45-.28,4.89-.64,9.76-1.22,14.6-.5,4.33-1.45,8.6-2.21,12.89-1.1,6.14-2.17,12.29-3.33,18.42-1.27,6.71-2.55,13.42-4,20.1-1.5,7-2.9,14.08-4.3,21.13s-2.93,14.23-4.83,21.25L417.84,626c-.47,1.73-.25,3.6-1.14,5.26-.3.55.42.59.74.81-4,3.23-8.57,5.43-13.14,7.67a127.52,127.52,0,0,1-30.92,10.15,167,167,0,0,1-39.71,3.38C326.34,653,318.92,653.41,311.67,651.78Z"/><path id="Trazado_185" data-name="Trazado 185" class="cls-12" d="M204.83,733.22c2.64-10.91,5.34-21.81,7.91-32.74,2.15-9.1,4.17-18.23,6.18-27.36a4,4,0,0,1,1.87-2.88c9.22-5.39,18.46-10.76,27.61-16.27,1.61-1,2-.51,2.45.94a45.71,45.71,0,0,0,1.87,4.52c1.16,2.51,2.72,3,5.1,1.53,2.74-1.68,5.43-3.45,8.49-5.4a89.28,89.28,0,0,1-1.59,13.05c-1.74,11.32-5.61,22.1-8.5,33.12-3.6,13.82-7.66,27.52-11.37,41.3-1.49,5.53-2.63,11.16-3.82,16.76-.33,1.58-.9,2.11-2.43,1.43-7-3.12-14.39-5.24-21.63-7.74-4.9-1.69-9.78-3.41-14.76-4.85a1.17,1.17,0,0,1-1-1.36,1.6,1.6,0,0,1,.05-.21c.46-1.82.94-3.63,1.4-5.44,1.08,1.15,2.25.55,3.2,0,1.12-.69.33-1.72-.06-2.47C204.85,737.24,205.63,735.1,204.83,733.22Z"/><path id="Trazado_186" data-name="Trazado 186" class="cls-12" d="M197,671.74c.33-4.13.4-8.27-1-12.24s-4-6.9-8.3-8c-6.2-1.6-12.46-2.45-18.87-1.51-2.6.38-4.94-1.23-7.76-.52-3.71.92-7.63,1.19-11.29,2.4-2.25.74-3-.32-3.56-2-1.61-4.81-3.18-9.63-4.77-14.44-.37-1.14-.79-2.26-1.18-3.4-.3-.83-.59-1.73-1.75-1.43s-1.18,1.27-.95,2.28c.64,2.85,1.25,5.7,1.89,8.55.73,3.18,1.41,6.38,2.25,9.53.5,1.89.05,2.81-2,3.15-3.63.62-7.24,1.4-10.83,2.24-1.94.45-1.52-.83-1.38-1.76.61-4.16,1.46-8.28,1.94-12.45a211.3,211.3,0,0,1,6-30.54c2.36-8.83,6.16-17.12,9.64-25.52.82-2,1.79-3.9,2.67-5.85.54-1.2,1.07-1.46,1.9-.19a69,69,0,0,0,8.17,9.57,27.07,27.07,0,0,0,9.52,6.69,2.39,2.39,0,0,1,1.52,1.85c4.06,13.85,9.32,27.28,14.43,40.76.72,1.92,2.73,3.48,1.77,5.91,2.15.58,2,3.29,3.81,4.14a5.53,5.53,0,0,0,4.52-.25c5.84-2.37,11.69-4.76,17.48-7.24,7.38-3.17,14.71-6.43,22.06-9.66a63.63,63.63,0,0,0,6-2.83c1.21-.69,1.66-.32,2.15.7,2.4,5.05,4.79,10.09,7.23,15.12.71,1.47-.08,2.25-1.16,3-5.37,3.5-10.7,7.06-16.13,10.48-4.31,2.72-8.66,5.49-12.74,8.44-4.88,3.53-10.3,6.41-14.69,10.63-.15.15-.47.12-.71.18.24-3-1.84-4.84-3.56-6.71-1.35-1.47-1,1-1.72,1.1A.5.5,0,0,1,197,671.74Z"/><path id="Trazado_187" data-name="Trazado 187" class="cls-12" d="M202.6,702.33c-.83,1.2-2.12.71-3,.49-1.69-.41-2.39.34-3.23,1.59-9.49,14.13-20.34,27.25-30.59,40.82a2.91,2.91,0,0,1-.58.47c-.84-.85-.32-1.78-.1-2.66,2-7.92,4.16-15.78,6.27-23.67,1.58-5.9,1.64-5.93-4-8.13-11.07-4.33-22.67-6.15-34.44-7.23a157.08,157.08,0,0,0-20.35-.39c-18,.65-35.46,4.12-51.73,12.36-1.75.89-3.2,2.35-5.19,2.77-3.09-7.53.23-14.87,5-19.35,1.6-1.5,2.28-2.33.25-3.73,6.94.42,14,1.68,20.57-1.77.85-.45,1.38,0,2,.51A25.83,25.83,0,0,0,103.85,699c11.56-1.93,22.05-6.63,32.87-10.6a197.49,197.49,0,0,0,25.65-11.23c.38-.2.77-.38,1.14-.6,6.11-3.58,5.07-3.9,4.44-10.19-.34-3.41-.56-6.83-.85-10.25-.11-1.25.62-1.64,1.7-1.74a75.44,75.44,0,0,1,18.75.55,2.14,2.14,0,0,1,1.62,1c2.4,3.63,3.09,7.73,3.82,12.4-2.14-2-2.06-4.35-3-6.27-.56-1.16-.57-3.09-2.56-2.35-1.64.61-3.37,1.44-2.13,4a16.65,16.65,0,0,1,1.22,7.18c-1.35-2.93-3-5.71-3.71-8.92-.27-1.21-.3-3.15-2.26-2.85-1.73.27-3.22,1.2-2.67,3.46-1.38,1-3.25.41-4.63,1.4-.6-1.4-1.17-2.81-1.82-4.18-.25-.52-.6-1.15-1.35-.9-.9.31-.75,1-.47,1.69,1.84,4.58,2.86,9.5,5.51,13.76s4.25,4.35,7.7.85c3.63,3.57,4.6,3.58,7.88-.19a1.42,1.42,0,0,1,1.49-.63c2.34.45,3.68-.87,4.76-2.67l.22.16c1.11,2.4,2.9,4.39,4,6.78-.67,1.08-3.25,1.28-2.35,2.73,1.06,1.72,2.41-.7,3.75-.77.61,4.48,1.21,9,.08,13.45-.54,1.78-2,2.9-3.06,4.31-.66.89-1.68,1.79-1.22,3,.55,1.38,2.07.86,3.18,1.07A4.27,4.27,0,0,0,202.6,702.33Z"/><path id="Trazado_188" data-name="Trazado 188" class="cls-12" d="M269.34,755.85c.23-2.49-.34-3.33-2.4-3.24-6.35.28-11.32-2.84-15.8-6.93-.44-.4-1-.83-.56-1.54s1-.5,1.6-.32a13.55,13.55,0,0,0,5.57.73,2,2,0,0,0,2-1.67c3.41-11.77,7.49-23.32,10.59-35.19,3.5-13.45,7-26.9,9.46-40.58a1.79,1.79,0,0,1,.84-1.5c.93,5.52,1.79,10.91,2.75,16.28q3.58,20,7.24,40a3.13,3.13,0,0,1-.19,2.67c-6.55,9.84-12.42,20.14-19.6,29.56C270.5,754.5,270.17,754.87,269.34,755.85Z"/><path id="Trazado_189" data-name="Trazado 189" class="cls-12" d="M244.37,602.07c7.33.18,11.9,4.61,15.68,10.14a44.69,44.69,0,0,1,3,5.61c.35.74.64,1.5-.82,1.81a38.35,38.35,0,0,0-15.11,7.13c-1.28,1-1.78,1-2.3-.49a11.7,11.7,0,0,0-.9-1.85c-1.56-2.84-2.68-3.18-5.55-1.8-10.58,5.11-21.19,10.15-31.74,15.32-4.81,2.36-9.52,4.9-14.22,7.49-1.23.67-1.58.91-2.29-.71-.95-2.19-.36-3.64,1-5.24,8.59-10.09,17.73-19.63,28.47-27.44,6.7-4.88,14.07-8.59,22.45-9.8C242.84,602.14,243.61,602.13,244.37,602.07Z"/><path id="Trazado_190" data-name="Trazado 190" class="cls-12" d="M278.47,616.46c0,1.24-.09,2.88,0,4.5s-1,2.19-1.89,2.85c-1.08.78-1.23-.8-1.95-1.07-4.36-1.6-5.23-5.77-6.94-9.34-2.38-4.91-5.58-9.08-10.43-11.88-11-6.31-21.61-4.89-32.34.74a92.32,92.32,0,0,0-16.71,11.79c-.57.48-1.13,2.1-2.08.7-.63-.94-1.2-2.28.29-3.4,4.85-3.68,9.59-7.5,14.45-11.17,6.7-5.06,13.66-9.76,21.37-13.17,5.44-2.41,11.07-4.11,17.18-3.43,6.84.77,11.38,4.58,14.46,10.51C277.5,601,277.71,608.57,278.47,616.46Z"/><path id="Trazado_191" data-name="Trazado 191" class="cls-18" d="M161,759.54c3-3.47,6.07-6.95,8.8-10.69-.73,4.87-.59,9.77-.69,14.66,0,1.31.5,2.06,2,2s3.06.18,4.62.11c2.71-.13,4.77-.74,4.79-4,0-1.22.66-1,1.55-.62,8.7,3.84,8.71,5.08,17.23,4.88-.18,1.56-1.25,2.55-2.11,3.66-1.68,2.17-1.5,3.13.89,4.34.45.23.89.5,1.32.77,3.62,2.3,5.37,2,8.06-1.24.85-1,1.52-2.28,3-3,1.16,4.12,4.14,7,7.1,10.54-2.23.13-3.92.34-5.6.31q-26.76-.43-53.52.3c-2.18.06-2.66-.49-2-2.63,1.55-5.34,2.93-10.74,4.28-16.14C160.9,761.75,161.53,760.68,161,759.54Z"/><path id="Trazado_192" data-name="Trazado 192" class="cls-18" d="M268.28,757.36,252.11,780a2.67,2.67,0,0,1-2.36,1.28c-3.17-.06-6.35-.07-9.52,0a2.94,2.94,0,0,1-2.32-1.38,31.46,31.46,0,0,1-7.48-14,17.34,17.34,0,0,0-.8-2.07c3.5,1.25,6.69,2.29,9.8,3.53,2.3.92,3.34.6,4.1-1.67.13-.41.18-.84.34-1.24.54-1.43.75-3.27,1.77-4.15s2.54.68,3.93.9a19.16,19.16,0,0,0,7.16-.15A55.68,55.68,0,0,0,268.28,757.36Z"/><path id="Trazado_193" data-name="Trazado 193" class="cls-19" d="M184.24,597.73c5.85-.44,5.81-.45,7.2-6,.59-2.32,1.41-4.58,2.13-6.9,1.22.28,1.18,1.28,1.38,2q4.17,15.55,8.27,31.12a1.87,1.87,0,0,1-.3,2.11c-3.07,3.21-6.08,6.5-9.44,10.11C190.35,619.24,187.32,608.56,184.24,597.73Z"/><path id="Trazado_194" data-name="Trazado 194" class="cls-12" d="M170.85,747.72c3.7-1,7.55-.91,11.3-1.51,4.47-.71,8.95-1.35,13.42-2-.19.92-.43,1.83-.56,2.75-.28,2.07,0,3.3,2.65,3.93s5.18,2.85,8.06,3.75c.44.14.57.56.5,1-.37,2.57-3.93,5.68-6.64,5.91-7,.58-12.54-2.64-17.31-7.25A4.61,4.61,0,0,0,177.9,753c-1.63.3-1.26,2-1.45,3.23-.24,1.61-.4,3.24-.56,4.86-.13,1.21-.88,1.51-2,1.51s-1.4-.74-1.42-1.69c-.08-3.77-.17-7.55-.22-11.33C172.25,748.54,172.23,747.62,170.85,747.72Z"/><path id="Trazado_195" data-name="Trazado 195" class="cls-12" d="M196.51,740.32c-2-1-3.85,0-5.74.3-5.37.82-10.72,1.77-16.5,2.73,8.27-11,17.46-20.78,25.3-31.84.17,3.45.31,6.9.53,10.35.07,1.06-.35,2.25.58,3.16Z"/><path id="Trazado_196" data-name="Trazado 196" class="cls-12" d="M230,781.18c-5,.25-8-3.29-10.9-6.38a44.22,44.22,0,0,1-6.3-8c-1.15-1.94-4.21-2-5.72-.22-1.29,1.49-2.49,3.05-3.76,4.55-.49.59-1.05,1.32-1.91.62s-.06-1.2.27-1.76a119.68,119.68,0,0,0,6.89-12.63c.43-1,.79-1.3,1.9-.88,5.17,2,10.37,3.82,15.56,5.71a2.13,2.13,0,0,1,1.54,1.86A37.77,37.77,0,0,0,233,779.84c.48.79.37,1.31-.67,1.33C231.52,781.19,230.75,781.18,230,781.18Z"/><path id="Trazado_197" data-name="Trazado 197" class="cls-12" d="M179.66,591.44c2,8,4,15.8,6,23.57,1.37,5.39,2.73,10.79,4.13,16.17,1,3.9,1,3.9-1.92,7.32-2.77-6.8-5.55-13.52-8.23-20.27-2.17-5.49-4.22-11-6.35-16.53-.41-1.07-.45-1.62.78-2.4,2-1.27,2.53-3.79,3.85-5.67C178.37,593,178.48,592,179.66,591.44Z"/><path id="Trazado_198" data-name="Trazado 198" class="cls-18" d="M308,604.76c-.09,3.29.07,6.61-1.5,9.67-.16-2.17,1.19-4.36.64-6.3-.45-1.62-3-1.79-4.3-3.27s-2.38-4.09-4.62-2.26c-1.85,1.52,1.1,2.7,1.38,4.24.2,1.08.78,2.08,1.09,3.15a1.66,1.66,0,0,1-.67,2,1.7,1.7,0,0,1-2.14-.25,25.58,25.58,0,0,1-4-4c-.51-.7-1.2-1.4-2.16-.78s-.25,1.42,0,2.08c.5,1.55,1.33,3,1.45,4.65.06.88.11,1.76-.91,2.19a1.74,1.74,0,0,1-2.21-.78c-1.68-2.14-3.17-4.36-5.43-6.1-1.07-.82-.62-3.43-1.21-5.1-.95-2.69,0-3.71,2.58-4.67a44.34,44.34,0,0,1,13.27-2.79,3,3,0,0,1,2.49,1c1.91,2,4,3.78,5.14,6.38A1.35,1.35,0,0,0,308,604.76Z"/><path id="Trazado_199" data-name="Trazado 199" class="cls-12" d="M276.2,648.64a144.76,144.76,0,0,1-2.42,15.91,565.51,565.51,0,0,1-13.48,55.23q-2.74,9.39-5.33,18.8c-.36,1.33-.8,2-2.25,1.62-1.63-.49-.58-1.55-.37-2.29q6.95-24.49,14-49a182.09,182.09,0,0,0,6.76-35.62C273.23,651.41,273.14,649.26,276.2,648.64Z"/><path id="Trazado_200" data-name="Trazado 200" class="cls-12" d="M391.14,692.38c-.17,2.06-.46,4.1-.49,6.16a2.54,2.54,0,0,1-2.22,2.69c-4.8,1.21-9.65,2.09-14.54,2.86-1.52.24-1.85-.16-1.71-1.52.3-2.81.62-5.63.77-8.45.07-1.31.66-1.69,1.83-1.94,4.67-1,9.34-1.94,13.94-3.21,2.3-.63,3-.2,2.52,2.13a10.87,10.87,0,0,0-.12,1.28Z"/><path id="Trazado_201" data-name="Trazado 201" class="cls-12" d="M339.14,669.3c2.14-.11,6.16-.2,10.16-.57,2-.18,2.39.54,2,2.28-.25,1.26-.35,2.55-.52,3.82-.54,3.95-.54,4.12-4.43,4.13-4.87,0-9.73-.34-14.6-.47-1.37,0-1.86-.61-1.63-1.92a7,7,0,0,0,.07-1C330.64,669,330.64,669,339.14,669.3Z"/><path id="Trazado_202" data-name="Trazado 202" class="cls-12" d="M338.32,695.18c2.66,0,5.32.08,8,0,1.49-.06,1.76.58,1.58,1.85-.36,2.46-.72,4.92-1,7.39-.13,1.36-1,1.4-2,1.39a106.88,106.88,0,0,1-15.56-1.41c-1.14-.17-1.41-.8-1.33-1.77.17-2.23.39-4.45.51-6.67.07-1.32.91-1.21,1.8-1.15l8,.53Z"/><path id="Trazado_203" data-name="Trazado 203" class="cls-18" d="M266.81,636.73c-1.92-1.39-2.65-3.09-3.79-4.46-.69-.82-1.26-2.39-2.81-1.49s-.6,2.17-.28,3.23c.4,1.3,1.12,2.5,1.61,3.79.41,1.06,1.31,2.3-.18,3.18s-2.1-.51-2.74-1.45c-.87-1.28-1.68-2.6-2.48-3.92-1.69-2.78-3-3.45-5.92-2.2-2.16.91-2-.94-2.66-1.76-.92-1.09-.37-1.88.67-2.47a68.15,68.15,0,0,1,13-6c3-.92,3.3-.67,4,2.29A48.51,48.51,0,0,1,266.81,636.73Z"/><path id="Trazado_204" data-name="Trazado 204" class="cls-12" d="M393.91,661c-.25,3-.52,5.38-.62,7.77-.09,2.06-2,2.28-3.09,2.52-4.72,1-9.13,3.2-14.05,3.53-1.45.1-1.62-.17-1.53-1.33.17-2.14.35-4.27.52-6.41a1.57,1.57,0,0,1,1.34-1.6C382.16,664,387.83,662.53,393.91,661Z"/><path id="Trazado_205" data-name="Trazado 205" class="cls-12" d="M342.61,656.54c2.83,0,5.65.05,8.48,0,1.55,0,2.11.4,1.94,2.07-.6,5.7-.68,5.81-6.71,6-4.16.13-8.32.22-12.48.47-2.12.12-2.81-.5-2.63-2.74.48-5.77.37-5.75,6-5.48,1.79.09,3.59,0,5.39,0Z"/><path id="Trazado_206" data-name="Trazado 206" class="cls-12" d="M358,705.88c-6.34-.08-5.75,1.25-5.35-5,.12-1.94,0-4.2,1-5.7,1.07-1.68,3.52-.44,5.33-.79,2.18-.41,4.4-.62,6.59-.93,1.49-.21,2,.43,1.8,1.89-.35,2.71-.69,5.43-.9,8.16a1.84,1.84,0,0,1-1.68,2h-.38C362,705.59,359.62,705.77,358,705.88Z"/><path id="Trazado_207" data-name="Trazado 207" class="cls-12" d="M338.79,691c-2.73-.15-5.47-.34-8.21-.43-1.14,0-1.52-.55-1.43-1.6.15-1.87.26-3.75.46-5.63s1.69-1.13,2.61-1c4.27.39,8.54.56,12.82.56,4.74,0,4.61,0,4.08,4.78-.27,2.45-1,3.5-3.66,3.12a49.49,49.49,0,0,0-6.67-.06Z"/><path id="Trazado_208" data-name="Trazado 208" class="cls-12" d="M370.46,668.16c-.47,8.28-.78,8.6-8.88,9.28a20.63,20.63,0,0,0-5.07.61c-1.26.43-1.49-.3-1.39-1.34q.35-3.45.65-6.91c.09-1.1.53-1.6,1.74-1.73,3.73-.38,7.47-.77,11.15-1.48C370.59,666.21,370.74,666.88,370.46,668.16Z"/><path id="Trazado_209" data-name="Trazado 209" class="cls-12" d="M341.81,717.16l-13.12-1.57c-1.18-.14-1.72-.63-1.74-2-.11-5.76,0-5.85,5.51-5.14q5.85.75,11.74,1.27c1.51.14,2.17.63,1.77,2.22a15.87,15.87,0,0,0-.26,2.3C345.41,717.27,345.41,717.27,341.81,717.16Z"/><path id="Trazado_210" data-name="Trazado 210" class="cls-12" d="M439.87,618.34c-.46,4.22-.86,7.79-1.23,11.35a4.14,4.14,0,0,1-1.17,2.23c-3,3.47-6.85,5.9-10.49,8.58-1.15.85-1.71.6-1.71-.83,0-2,0-3.94,0-5.91a2.3,2.3,0,0,1,1-2C431.49,628.32,435.42,623.58,439.87,618.34Z"/><path id="Trazado_211" data-name="Trazado 211" class="cls-12" d="M389.72,709.25c.47,2.11-.54,3.42-3.12,4.1a137.22,137.22,0,0,1-13.72,3.07c-1.7.26-2.13-.24-2-1.87.47-5.06.44-5,5.42-6,3.35-.67,6.69-1.4,10-2.3C390,705.23,389.94,705.13,389.72,709.25Z"/><path id="Trazado_212" data-name="Trazado 212" class="cls-12" d="M392.26,679c-.32,4-.33,3.95-4.56,5.06-4.07,1-8,2.45-12.23,3-1.6.22-2-.32-1.81-1.75.14-1.1.24-2.22.27-3.33a2.14,2.14,0,0,1,1.94-2.3h.29c4.62-.32,8.88-2.27,13.43-3C392.56,676.23,392.51,675.94,392.26,679Z"/><path id="Trazado_213" data-name="Trazado 213" class="cls-12" d="M375.71,658.63a17.07,17.07,0,0,0,.21-2.13c-.15-2.26.72-3.08,3.12-3.52a126.4,126.4,0,0,0,13.37-3.65c2.85-.86,2.82-1,2.48,2.16a19.62,19.62,0,0,0-.19,2.31,2.42,2.42,0,0,1-2,2.35c-4.8,1.37-9.67,2.51-14.47,3.88C376.18,660.61,375.35,660.21,375.71,658.63Z"/><path id="Trazado_214" data-name="Trazado 214" class="cls-12" d="M405.48,683.69l2.78-1.1c.31-.14.65-.18,1-.3.86-.33,1.81-.9,2.59-.09s.12,1.73-.23,2.59c-.78,1.89-1,3.93-1.57,5.87-.28.9-.41,1.83-1.31,2.35-2.74,1.81-5.84,2.88-8.8,4.23-1.13.23-2.22.5-2.61-1.12-.8-3.35,2-9.82,5.08-11.38C403.35,684.24,404.48,684.15,405.48,683.69Z"/><path id="Trazado_215" data-name="Trazado 215" class="cls-12" d="M323.23,664.46c-2.44.3-5-.6-7.67-.72-1.05-.06-1.57-.54-1.47-1.62,0-.25,0-.51,0-.77.76-7.39-1.26-6.35,6.62-5.54a53.63,53.63,0,0,0,5.38.39c1.79,0,2.23.81,1.87,2.4a17.43,17.43,0,0,0-.3,2C327.29,664.42,327.3,664.42,323.23,664.46Z"/><path id="Trazado_216" data-name="Trazado 216" class="cls-12" d="M315.46,667.73a55.37,55.37,0,0,0,9.17,1c1.55.1,2.14.7,1.87,2.27a51.32,51.32,0,0,0-.68,5.36c-.1,1.42-.81,1.75-2,1.55l-9.14-1.51c-.08,0-.2,0-.25,0-2.61-2.3-.31-5.06-.7-7.58C313.51,667.48,314.55,667.58,315.46,667.73Z"/><path id="Trazado_217" data-name="Trazado 217" class="cls-12" d="M356.57,661.55c.13-1.45.3-2.3.28-3.15-.05-1.87.81-2.36,2.65-2.48a99.53,99.53,0,0,0,10.88-1.38c1.57-.27,1.83.2,1.63,1.52-.87,5.87.42,5-5.6,6.15-2.35.44-4.77.47-7.09,1S356.14,663.39,356.57,661.55Z"/><path id="Trazado_218" data-name="Trazado 218" class="cls-12" d="M356.32,689.94c-2.22.7-2.49-.54-2.31-2.72.4-5,.31-4.91,5.44-5.06a70.16,70.16,0,0,0,7.65-.84c1.42-.2,1.79.3,1.69,1.68-.43,5.54-.4,5.56-6.25,6.36C360.59,689.63,358.61,689.73,356.32,689.94Z"/><path id="Trazado_219" data-name="Trazado 219" class="cls-12" d="M325.12,682.85c-.12,1.14-.18,2-.31,2.84-.69,4.53-.72,4.63-5.34,3.48-1.81-.45-3.72-.32-5.46-1.16a2.44,2.44,0,0,1-1.6-2.77c.4-6,.35-6,6.32-4.9a40.52,40.52,0,0,0,4.78.85C324.92,681.29,325.32,681.87,325.12,682.85Z"/><path id="Trazado_220" data-name="Trazado 220" class="cls-12" d="M199.08,589.17l12.31,11.6a.89.89,0,0,1,.27,1.22.86.86,0,0,1-.29.28c-2.3,2.12-4.57,4.3-7.1,6.68-2-6.69-3.86-13-5.75-19.39Z"/><path id="Trazado_221" data-name="Trazado 221" class="cls-12" d="M414.16,648.11c-4.85,1.56-9.35,4-14.25,5.45-1.14.32-1.62.07-1.54-1.15a22.77,22.77,0,0,0,.06-3.09,2.49,2.49,0,0,1,2-2.83,79.54,79.54,0,0,0,13.39-6.25c.65,1.77.15,3.5-.3,5.18C413.19,646.52,413.17,647.4,414.16,648.11Z"/><path id="Trazado_222" data-name="Trazado 222" class="cls-20" d="M156.57,578.14c6.23,2.32,12,5.36,17.93,8.21.37.18,1.14.31,1,.61a29.93,29.93,0,0,1-3.24,5.15c-.76.89-1.9,0-2.76-.56a47,47,0,0,1-12.88-12.3A.86.86,0,0,1,156.57,578.14Z"/><path id="Trazado_223" data-name="Trazado 223" class="cls-12" d="M311.69,696.5c.22-4.72.22-4.73,4.51-3.78,1.17.26,2.34.5,3.48.84,1.32.39,3.53-.43,3.82,1.17a16.94,16.94,0,0,1-.74,7.61c-.21.73-1.21.49-1.85.34-2.67-.62-5.34-1.22-8-2S312.2,697.75,311.69,696.5Z"/><path id="Trazado_224" data-name="Trazado 224" class="cls-12" d="M358.52,717.67c-2.12,0-4.24-.07-6.35,0-1,0-1.22-.36-1.14-1.18.17-1.7.37-3.4.53-5.1.1-1.1.89-1.09,1.68-1.1,3.6-.09,7.2-.18,10.8-.25.33,0,.85,0,1,.16,1,1.6.35,3.33.27,5a1.72,1.72,0,0,1-1.63,1.82h0C361.91,717.39,360.2,717.29,358.52,717.67Z"/><path id="Trazado_225" data-name="Trazado 225" class="cls-18" d="M117.7,624.48c-.14-3.6.54-7.05.91-10.52.09-.9.68-1.25,1.56-1.4a36.81,36.81,0,0,0,8.57-2.3c.36-.16.77-.53,1.16-.16s.12.95,0,1.43c-1.12,4.15-4.19,6.92-7.07,9.78C121.43,622.68,120.19,624.53,117.7,624.48Z"/><path id="Trazado_226" data-name="Trazado 226" class="cls-12" d="M410.63,654.8c2.83-.5,5-2.4,7.61-3.45,1.72-.7,2.21-.66,2.22,1.54,0,4.13-1.81,6.36-5.46,8.1-2,.93-4.27,1.53-5.93,3.17-2.26.2-2.67-.11-2.35-2.17A11,11,0,0,1,410.63,654.8Z"/><path id="Trazado_227" data-name="Trazado 227" class="cls-12" d="M410.63,654.8a23.73,23.73,0,0,0-3.4,7.76c-.49,1.83,1,1.3,1.84,1.6-3.18,1.24-6.37,2.44-9.53,3.73-1.36.56-1.93.25-1.83-1.23,0-.17,0-.34,0-.51,0-6.65,0-6.74,7.56-9.18C407.14,656.36,408.77,655.32,410.63,654.8Z"/><path id="Trazado_228" data-name="Trazado 228" class="cls-12" d="M310.82,709c.36-5.21.36-5.22,5.14-4,.66.17,1.29.47,2,.65,5.1,1.36,5.1,1.41,4,6.8-.25,1.25-.79,1.52-1.94,1.28-2.75-.55-5.37-1.6-8.18-2C309.88,711.56,311,709.94,310.82,709Z"/><path id="Trazado_229" data-name="Trazado 229" class="cls-12" d="M406.51,670.83l6.43-3.14c.48-.38,1.16-.12,1.66-.52s1.07-1,1.78-.53a1.91,1.91,0,0,1,.48,2.11c-.46,2.17-1.13,4.26-3,5.7l-1.11,1a55.26,55.26,0,0,1-7.28,3.17c-2.29.9-3.61-.34-2.92-2.7C403.19,673.79,403.6,671.29,406.51,670.83Z"/><path id="Trazado_230" data-name="Trazado 230" class="cls-12" d="M435.44,654.38c1.93,7.13-3.82,9.34-7.59,12.8-.31.29-.76.43-1.05.73-.66.66-1.5,1.13-2.3.7-.62-.34-.18-1.27-.21-1.93-.15-3.15.46-5.54,3.81-7.21C430.68,658.18,433,656.09,435.44,654.38Z"/><path id="Trazado_231" data-name="Trazado 231" class="cls-12" d="M408.7,693c.51-2.28,1.07-4.56,1.52-6.86a3.24,3.24,0,0,1,.73-1.83c.49-.49,1-1.11.63-1.78s-1.23-.29-1.86-.1a2,2,0,0,1-1.46.15,48.13,48.13,0,0,1,8.46-3.17c1.3-.43,1.53,0,1.46,1.12-.12,2.14-.28,4.28-.38,6.43a1.92,1.92,0,0,1-1,1.67C414.05,690.07,411.66,692.07,408.7,693Z"/><path id="Trazado_232" data-name="Trazado 232" class="cls-12" d="M425,654.86c0-2,0-3.56,0-5.09,0-2.68,2.54-3,4.1-4.12,2.14-1.52,4.58-2.61,6.46-4.53a1.64,1.64,0,0,1,1.36-.47c.58.18.28.86.29,1.35a6.15,6.15,0,0,1-2.44,5.61C431.57,649.92,428.73,652.66,425,654.86Z"/><path id="Trazado_233" data-name="Trazado 233" class="cls-12" d="M434.26,669.39c.5,7.88-6.32,9.84-10,14.17l-.69-.2c.1-2.25.18-4.49.3-6.74a2.33,2.33,0,0,1,1.37-1.77C428.14,673.07,431,671.33,434.26,669.39Z"/><path id="Trazado_234" data-name="Trazado 234" class="cls-12" d="M414.16,648.11c-.7-.26-1.53.32-2.25-.47,1.33-2.25,1.32-4.89,1.88-7.4l8.16-4.92c-.24,3-.33,5.43-.67,7.83-.22,1.52-1.79,2-2.92,2.65C417,646.63,415.31,646.89,414.16,648.11Z"/><path id="Trazado_235" data-name="Trazado 235" class="cls-12" d="M404.65,700.17a56.4,56.4,0,0,0,11-5.2c.53-.33,1.07-.59,1.46.23.51,1.1-.24,5.21-1.23,5.74-3.89,2.07-7.56,4.55-11.76,6-.45-1.09.62-1.69.83-2.56C405.28,703,406.26,701.49,404.65,700.17Z"/><path id="Trazado_236" data-name="Trazado 236" class="cls-12" d="M404.65,700.17c.81.14,1.82-.28,1.56,1.42a10,10,0,0,1-2.13,5.37,44.68,44.68,0,0,1-9,3.62c.13-2.11.27-4,.35-5.84a1.73,1.73,0,0,1,1.63-1.71C399.83,702.62,402.14,701.13,404.65,700.17Z"/><path id="Trazado_237" data-name="Trazado 237" class="cls-12" d="M249.65,747.29a28.15,28.15,0,0,0,10.22,7.93,21.6,21.6,0,0,1-11.35.83c-1.13-.25-1.64-.64-1.14-1.93C248.18,752.07,248.78,749.94,249.65,747.29Z"/><path id="Trazado_238" data-name="Trazado 238" class="cls-12" d="M406.52,670.83c-.58.8-2,.67-2.15,1.93-.26,1.87-2.41,3.88-1,5.43s3.24-.61,4.88-1.08,2.86-1.43,4.48-1.64c-2,2.13-4.86,2.29-7.28,3.44a43.77,43.77,0,0,1-6.29,2c-1.59.48-2.34.13-2.27-1.78.17-4.76.08-4.77,4.69-6.35C403.28,672.21,404.54,670.63,406.52,670.83Z"/><path id="Trazado_239" data-name="Trazado 239" class="cls-21" d="M202.68,694.1c-.48.12-1,.4-.76-.58.65-3.37,1.52-6.76-.1-10.13-.52-1.08.21-1.92.78-2.75l2.26-1.18a1.58,1.58,0,0,1,1.84.39,7.78,7.78,0,0,1,.73,7.85C205.85,689.83,204.27,692,202.68,694.1Z"/><path id="Trazado_240" data-name="Trazado 240" class="cls-12" d="M207.43,687.7c.95-2.86-.48-7.45-2.57-8.24l10.21-5.8C214.76,679.86,210.41,683.41,207.43,687.7Z"/><path id="Trazado_241" data-name="Trazado 241" class="cls-12" d="M433,683c.08,7.13-6.09,8.69-9.45,12.82-1-4.12-.69-5,2.09-7.07C428,687,430.22,685.21,433,683Z"/><path id="Trazado_242" data-name="Trazado 242" class="cls-18" d="M66.87,622.26c.12-.62.25-1.64.53-2.62.82-2.8.92-2.81,3.53-1.41a3.5,3.5,0,0,0,1.71.43c2.14-.09,2.21.74,1,2.11a19.27,19.27,0,0,1-2.4,2.29c-1.34,1.06-3.42,1.77-1.45,4.05.36.41,0,1-.43,1.32-.62.4-.9-.14-1.14-.59A13,13,0,0,1,66.87,622.26Z"/><path id="Trazado_243" data-name="Trazado 243" class="cls-22" d="M201.2,678.68c-2-1.89-3.93-3.78-4-6.77.73-.86.12-2,.75-3.17,2.76,1.6,4.07,4.4,5.8,6.79.57.79-.68,1.22-.86,1.93Z"/><path id="Trazado_244" data-name="Trazado 244" class="cls-12" d="M405.48,683.69a2.31,2.31,0,0,1-.54.49c-1.58.73-3.63.84-4.48,2.62a25.44,25.44,0,0,0-2.64,8.94c-.14,1.75,1.28,1.15,2.08,1.5-4.1,1.65-4.1,1.65-3.76-2.71,0-.34,0-.69.06-1,.37-2.24-.84-5.53.9-6.54C399.58,685.51,402.33,683.83,405.48,683.69Z"/><path id="Trazado_245" data-name="Trazado 245" class="cls-12" d="M413.87,674.45c.76-2.47,2.76-4.56,2.36-7.55-1.23-.15-2,1.47-3.29.79a20,20,0,0,1,5.05-2.28c1.44-.35,1.45.14,1.34,1.16-.08.77-.16,1.54-.23,2.31C418.77,673,418,673.76,413.87,674.45Z"/><path id="Trazado_246" data-name="Trazado 246" class="cls-18" d="M178.59,664.67a26.36,26.36,0,0,1,1.31,7.2c.06.83.39,2.15-.67,2.43-.79.21-1.34-.9-1.77-1.62a34.87,34.87,0,0,1-3.49-7.06C175.39,664.73,177.25,666,178.59,664.67Z"/><path id="Trazado_247" data-name="Trazado 247" class="cls-23" d="M204.83,733.22c.92-.3.93.29,1,.94.15,2.12.06,4.24,1.33,6.2a1.31,1.31,0,0,1-.26,1.84,1.27,1.27,0,0,1-1,.25c-1-.21-3,2.59-3.15-.83Z"/><path id="Trazado_248" data-name="Trazado 248" class="cls-18" d="M271.8,624.56a18.53,18.53,0,0,1,4.92,6.85c.49,1.11.66,2.46-1,2.91s-2.5-.38-2.77-1.85C272.55,630.06,272.25,627.63,271.8,624.56Z"/><path id="Trazado_249" data-name="Trazado 249" class="cls-18" d="M304.38,627.35q-.7,7.51-1.4,15a40.33,40.33,0,0,0-1.52-10.86C300.73,629,303,628.48,304.38,627.35Z"/><path id="Trazado_250" data-name="Trazado 250" class="cls-24" d="M178.59,664.67c0,1.29-.73,1.59-1.84,1.42-.93-.14-1.85-.31-2.78-.47l-.72-1.61c0-1.3.79-1.5,1.84-1.46s1.86,0,2.8.06Z"/><path id="Trazado_251" data-name="Trazado 251" class="cls-18" d="M254.71,640.17a2,2,0,0,1-1.23,1.57c-.74.42-1-.17-1.31-.73-.67-1.37-1.33-2.74-2-4.1a.94.94,0,0,1,.17-1.33h0a.67.67,0,0,1,.92,0A23,23,0,0,1,254.71,640.17Z"/><path id="Trazado_252" data-name="Trazado 252" class="cls-18" d="M284.94,617.12c-.21-1.61-.55-3-.12-4.47C287.49,614.82,287.56,615.67,284.94,617.12Z"/><path id="Trazado_253" data-name="Trazado 253" class="cls-25" d="M308.45,601.71c0,1,.5,2.1-.41,3C308.13,603.7,307.7,602.62,308.45,601.71Z"/><path id="Trazado_254" data-name="Trazado 254" class="cls-12" d="M318.78,600c.86-7.14,1.21-14.33,1.73-21.51.57-7.87,1.07-15.77,2.07-23.6,2-15.66,4.9-31.18,8.27-46.61.8-3.69,1.37-7.43,1.91-11.16.27-1.9,1-2.59,3-2.36,7.07.79,14.14,1.69,21.23,2,9.08.4,18.07,1.6,27.13,2.16,1.66.1,1.79.56,1.44,2q-4.62,18.72-9.1,37.47c-4.76,20-9.36,40.07-14.22,60.06-2.92,12-5.35,24.12-7.79,36.23-.24,1.24-.64,2.45-1,3.66a1.79,1.79,0,0,1-2.2,1.27,1.76,1.76,0,0,1-.3-.1c-4.12-1.29-8.35-.37-12.51-.76-7.23-.69-14.5-1-21.75-1.53-1.7-.12-2.85-.76-2.54-2.93.65-4.57,1.25-9.17,1.73-13.74.4-3.89.51-7.79,1.43-11.61.1-.42.25-.82.38-1.22l.32.18c.89,1.58.22,3.16,0,4.74a12.52,12.52,0,0,0-.43,3.28c5.11-.19,7.52-9.57,2.58-17.35-.31.51-.32,1.13-.73,1.47A.56.56,0,0,1,318.78,600Z"/><path id="Trazado_255" data-name="Trazado 255" class="cls-12" d="M409.12,322.9c-3.39,0-7-.93-10.54-1.71-2.94-.64-3.52-1.94-3.07-4.89.66-4.31,1.26-8.64,1.87-13,.19-1.31.51-2.48,2.24-1.85,4.74,1.7,9.28.38,13.72-1.07,1.78-.58,2.07-.28,2,1.39-.34,6.16-.66,12.32-.92,18.49a2.33,2.33,0,0,1-1.9,2.34C411.47,323,410.45,322.75,409.12,322.9Z"/><path id="Trazado_256" data-name="Trazado 256" class="cls-26" d="M400.59,296c-.71.1-1.37-.05-1.43-.76s.69-.57,1.14-.7c3.44-1,6.78-2.42,10.49-2.18.64.05,1.54-.53,1.77.35s-.83,1.13-1.49,1.39a26.59,26.59,0,0,1-6.46,1.55C403.25,295.8,401.85,295.42,400.59,296Z"/><path id="Trazado_257" data-name="Trazado 257" class="cls-27" d="M317.71,607.75c.28-2.59.16-5.23,1.06-7.73l.23.16c1,2.76.93,5.38-1,7.74Z"/><path id="Trazado_258" data-name="Trazado 258" class="cls-12" d="M106.15,775.69,118,788.44a1.07,1.07,0,0,0-1,1c-.67,5-.76,10,1.28,14.88,1,2.41,1.66,5,3.58,7-2,.87-3.3-.31-4.31-1.06-6.86-5.09-12.4-11.09-12.9-20.28-.12-2.07-3-3.5-4.84-2.41a15.78,15.78,0,0,0-3.52,2.56c-1.55,1.67-2.41.67-3.49-.47-1.53-1.6,0-2.24.9-3,3.6-3,7.25-6,10.87-9C105.29,777.13,106,776.64,106.15,775.69Z"/><path id="Trazado_259" data-name="Trazado 259" class="cls-18" d="M9.22,799.27c8.17.05,10-1.83,9.84-10,0-.68,0-1.37-.06-2.06-.11-1.47-.21-2.64,2-2.59,2,0,2.24.89,2.08,2.51A100.16,100.16,0,0,1,21,800.39a6.77,6.77,0,0,1-6,5.5c-3,.49-5.83,1.35-8.9,1.11-1.42-.11-1.84-.5-2-1.9C3.22,799.22,3.16,799.23,9.22,799.27Z"/><path id="Trazado_260" data-name="Trazado 260" class="cls-18" d="M93.42,796.13H77.76c-1.59,0-2.46-.26-1.56-2.2a54.12,54.12,0,0,0,2.25-6.29c.48-1.49,1.14-2.35,3-2a17.94,17.94,0,0,0,3.59,0c1.57,0,3.21-.64,2.83,2.4-.25,2,2.37,3.38,3.65,5.07a28.65,28.65,0,0,0,2.07,2.2Z"/><path id="Trazado_261" data-name="Trazado 261" class="cls-3" d="M55.63,718.75c3.33-3.43,7.82-4.84,12-6.67a104.61,104.61,0,0,1,26.86-7.55,160.57,160.57,0,0,1,43.13-.84c10.68,1.31,21.23,3.15,31.23,7.33,4.69,2,4.75,2,3.52,6.83-2.36,9.3-4.81,18.57-7.23,27.85-4.67,6.74-9.67,13.23-14.81,19.63-4.8,6-9.51,12.06-14.26,18.1A10.11,10.11,0,0,1,122.82,786c-5.55-5.52-11.07-11.06-16.66-16.53-1.14-1.11-1.26-1.79-.23-3.17,13.43-17.8,26.78-35.65,39.5-54,.64-.92,1.32-1.8,2-2.69.35-.46,1.1-.87.67-1.49s-1.08-.39-1.68-.21A92,92,0,0,0,135,712.45c-11.35,5-22.5,10.51-34.37,14.37-6.78,2.2-13.45,4.65-20.59,5.4-4,.42-8,.66-11.67-1.07A25.49,25.49,0,0,1,55.63,718.75Z"/><path id="Trazado_262" data-name="Trazado 262" class="cls-18" d="M122.82,786c3.06.48,6.16.19,9.24.31,2.08.08,2.54-2.12,4-2.84-1.68,3.06-4.76,5-6.55,8-.7,1.15-1.3.15-1.78-.33C126.09,789.38,124.47,787.66,122.82,786Z"/><path id="Trazado_263" data-name="Trazado 263" class="cls-2" d="M289.09,794.26c.12-8.51,3.42-16.62,9.3-23.7,4.88-5.86,11.53-8.82,18.37-11.9s13.09-1.53,19.86-.27c4.77.88,7.93,4.07,12.05,5.68,1.25.49,1.9,1.92,2.79,3a27.63,27.63,0,0,1,6.72,22.48,35.8,35.8,0,0,1-10.08,20.66,30.28,30.28,0,0,1-10.73,7.53c-3.77,1.45-7.29,3.69-11.32,4.51s-7.86,2.29-11.95.57c-1.28-.54-2.65.33-4.05,0-4.2-1-7.55-3.38-10.95-6C291.84,811.2,289.77,803.52,289.09,794.26Zm57.56-13.71c-1.13-3.3-1.19-7.26-4.94-9.22a3.79,3.79,0,0,1-1.44-1.77,4.15,4.15,0,0,0-2.38-2.25c-6.24-1.81-12.62-2.19-18.55.63-9.72,4.63-16.2,12.07-18.57,22.91-2.31,10.6,5.93,22.56,16.54,23.29a22.91,22.91,0,0,0,13.7-3.06,35.84,35.84,0,0,0,9.93-9,28.47,28.47,0,0,0,6.24-16.31c-.15-1.69,0-3.61-.53-5.26Z"/><path id="Trazado_264" data-name="Trazado 264" class="cls-18" d="M55.8,804.64c.05,5.63-2.92,10.3-7.49,12.18-2.65,1.08-3.69.71-5.78-2-3.44-4.55-1.13-14.32,4.09-16.66,1.42-.63,2.83-2.63,4.31-1.65,2.34,1.54,4.33,3.69,4.74,6.75C55.75,803.82,55.78,804.42,55.8,804.64Z"/><path id="Trazado_265" data-name="Trazado 265" class="cls-28" d="M191.42,615.72c.11-.31.24-.71.41-1.1.5-1.15-.32-2.92,1.54-3.44a.87.87,0,0,1,1.1.56,1.29,1.29,0,0,1,0,.19c.11,2,1.52,4,0,5.89-.37.47-1,1.07-1.78.66C191.75,617.93,191.61,616.85,191.42,615.72Z"/><path id="Trazado_266" data-name="Trazado 266" class="cls-29" d="M188.71,604a11.1,11.1,0,0,1,.38-1.73,1.54,1.54,0,0,1,1.42-.94c.81-.06.86.61,1,1.21A14.61,14.61,0,0,0,192,604c.36,1.14.86,2.31-.37,3.26-.51.39-1.05,1.06-1.78.48C188.77,607,188.64,605.77,188.71,604Z"/><path id="Trazado_267" data-name="Trazado 267" class="cls-30" d="M318,607.92c.76-2.52.7-5.15,1-7.74.19-1.12.38-2.24.6-3.52,6.22,8.13,5.22,19-2.9,20.65C316.55,614.07,317.94,611.08,318,607.92Z"/><path id="Trazado_268" data-name="Trazado 268" class="cls-31" d="M332.82,788.15c0,3.7-4,7.7-7.67,7.65-4,0-7.81-2.9-7.68-5.95.17-3.91,2.72-9.3,8.17-9.17C328.2,780.73,332.82,785.48,332.82,788.15Z"/><path id="Trazado_269" data-name="Trazado 269" class="cls-32" d="M47.05,810.7c-2.71,0-3.68-.93-3.64-3.47.05-2.69,1.43-4.29,3.72-4.32,3.85,0,5.5,1,5.49,3.49C52.6,809.18,50.63,810.7,47.05,810.7Z"/></g></g></g></svg>