<svg id="Capa_1" data-name="Capa 1" xmlns="http://www.w3.org/2000/svg" viewBox="0 0 888.03 1047.24"><defs><style>.cls-1{fill:#010302;}.cls-2{fill:#010101;}.cls-3{fill:#f5f5f3;}.cls-4{fill:#0a0e0b;}.cls-5{fill:#111712;}.cls-6{fill:#151a14;}.cls-7{fill:#131914;}.cls-8{fill:#0c120c;}.cls-9{fill:#1b211a;}.cls-10{fill:#131814;}.cls-11{fill:#c6c6c6;}.cls-12{fill:#0d130e;}.cls-13{fill:#1b221b;}.cls-14{fill:#121813;}.cls-15{fill:#192019;}.cls-16{fill:#131a13;}.cls-17{fill:#fff;}.cls-18{fill:#fffffd;}.cls-19{fill:#f7f7f6;}.cls-20{fill:#f8faf7;}.cls-21{fill:#f9faf7;}.cls-22{fill:#eef1ed;}.cls-23{fill:#f2f4f0;}.cls-24{fill:#93b48c;}.cls-25{fill:#95b68d;}.cls-26{fill:#020302;}.cls-27{fill:#333;}.cls-28{fill:#272728;}.cls-29{fill:#0c0f0d;}.cls-30{fill:#020403;}.cls-31{fill:#050b07;}</style></defs><path class="cls-1" d="M588.59,772.59c-2-2.32-5.3-3.27-6.66-6.34-.77-1.72-3-3.29-1.29-5.27,1.84-2.14,3.49.3,5.2.87,4.46.88,6.93,4.91,10.81,6.8,5.23,2.55,6,2.39,6.15-3.19.19-7.78.51-7.68-7.24-10.09-2.69-.83-6.13-.43-7.55-3.86a14.48,14.48,0,0,1-2.15-1c-1.91-1.28-6-1.3-5.21-4,.63-2.11,4.07.23,6.28.14,4.33-.94,8,1.61,11.93,2.47,5,1.09,5.12,1.19,6.06-4,1.39-7.69.79-8.47-6.86-10.83-2.83-.87-6.46-.33-8.09-3.83-1.54-1.16-4.71-1.16-4.14-3.82.6-2.82,3.33-.36,4.95-1.08,3.76-1.38,7.45-.16,11.13.39,4.5.68,5.15.23,5.53-4.35.72-8.48.71-8.41-7.58-9.92-2.71-.49-5.66-.19-8.09-1.92-2.9-1.69-6.12-2.47-9.3-3.41-.9-.27-2.12-.64-1.92-1.89s1.6-1.24,2.43-1c7,2,5.7-2.32,5.11-6.39-1.16-8.07-2.25-16.15-3.21-24.24-.36-3.05-1.3-3.86-3.94-1.89-7.43,5.56-14.91,11-22.34,16.6-2.29,1.71-2.42,4.08-2,6.75,2.67,17.4,5.16,34.83,7.86,52.23,5,32,9,64.21,13.45,96.31.83,5.93-.48,10.25-3.78,15-21.38,31.05-41.5,63-63.21,93.81a103.41,103.41,0,0,0-6.64,9.93c-3.13,5.74-7.88,7.71-14.09,7.11-1.31-.13-2.65,0-4,0,2.77,7-.56,11.34-7.94,9.93a164,164,0,0,1-29.14-8.31,26.85,26.85,0,0,0-9.71-2q-48.15-.52-96.31-1.13c-9.31-.12-18.64-1-27.92-.63-10.92.47-21.82,1.45-32.77.88-1.68-.08-3.81.79-4.58-1.75,1.89-5.82,6.66-9.61,10.13-14.31,8.63-11.7,19.23-21.81,27.45-33.86,1-1.51,2.19-3,4.45-2.09,1.66,2.26.43,4.51-.17,6.67-2.72,9.79-4.6,19.79-7.56,29.52-1,3.4-.37,4.79,3.61,4.72,20.14-.38,40.29-.16,60.43-.28,14.48-.08,29,.22,43.44,0,1.56,0,3.8.82,4.49-1,.64-1.66-1.27-2.92-2.37-4.1a27,27,0,0,1-5.58-8.21c-1.49-3.64-3.27-3.1-5.27-.4a41,41,0,0,1-2.87,3.45,8.71,8.71,0,0,1-9.11,2.57c-3.95-1-7.38-3.1-10.74-5.22-2.93-1.84-2.85-4.67-1.33-7.48,1.11-2,3-3.6,3.87-5.62-.05-.55-.24-.93-.56-.91-10.11.81-18.77-3.69-27.52-7.67-2.73-1.25-4.14-1.23-5.26,1.78-1.5,4-5.26,4.71-8.94,5.32a12.22,12.22,0,0,1-2.48.26c-13.43-.65-12.51-.93-12.37-11.77.09-7.44-1.1-15,1.52-22.3A5.77,5.77,0,0,1,338,892c3.77-.71,4.13,1.92,4.24,4.52.22,5,.06,10,.09,15a35.38,35.38,0,0,0,.08,4c.2,1.59,0,3.81,2.24,3.81,2,0,1.75-2.11,1.92-3.51.3-2.48.78-4.93,1.08-7.4.35-2.92,1.19-5.68,4.37-6.66a7.67,7.67,0,0,1,8.26,2.06c5.52,5.78,12.61,9.09,19.64,12.52,5.05,2.47,10.35,2.23,15.64,1.48,4.77-.67,6.7-4.5,8.36-8.41.66-1.55-.15-2.65-1.51-3.19-4.19-1.65-7.87-4.35-12.1-5.89-6.13-2.24-7.48-4.44-6.43-10.85.21-1.32.69-2.57.86-3.9.78-2.51.69-5.24,2-7.62,3.24-9.7,4.84-19.84,8-29.57,2.47-7.36,4-15,6.17-22.41,3.48-12.44,7.14-24.84,10.52-37-.75,1.66-2.67,2.92-3.3,5-2.36,4.12-4.29,8.55-8.37,11.4-.66.12.19.09-.47.17-3.09.39-6.61,1.44-8.54-1.91-1.82-3.18.88-5.51,2.64-7.87s3.85-4.54,5.39-7.09c3.11-4.26,5.81-8.82,9.47-12.67,4.75-7.6,12.06-13.68,14.1-24.26-6.53,3.39-12.06,6.75-17.8,9.69a29.47,29.47,0,0,1-4.47,2.38c-1.26.43-2.32,1.25-3.53,1.78-1.58.7-3.23,1.16-4.48-.48-1.47-1.92-.17-3.38,1.09-4.74a21.69,21.69,0,0,1,3.07-2.49,24.14,24.14,0,0,1,3.8-2.53c9-7.64,19.05-14,28.91-20.39,11.3-7.34,22.25-15.21,33.61-22.47,7-4.47,13.93-9.07,20.93-13.56,3.58-2.3,4-4.79,2.05-8.37a247.5,247.5,0,0,1-10.83-22.51c-1.55-3.8-3.72-4.5-7.39-2.75-13.06,6.26-26.36,12-39.62,17.78-13.42,5.86-27,11.41-40.47,17.11a38.67,38.67,0,0,1-4.7,1.69c-9.79,2.78-16.14-1.65-18.27-11.69-1.33-6.29-4.92-11.93-7.18-18-7.95-21.38-16.24-42.65-22.81-64.51-1.14-3.79-2.92-6.68-6.71-8.73-11.63-6.29-20.56-15.7-28.42-26.16-3.84-5.12-4.26-5.23-6.89.5-16.09,35.18-28.24,71.5-32.08,110.27-.87,8.77-3.15,17.35-4.31,26.11-.47,3.52.58,4.76,4,3.84,5.31-1.43,10.78-2.09,16.16-3.23,3.75-.79,4.88-2.64,3.93-6.4C277.64,695,276,686,273.64,677.12a53.58,53.58,0,0,1-1.51-7.85c-.22-2,.49-3.66,2.57-4.29a3.69,3.69,0,0,1,4.6,2,47.72,47.72,0,0,1,3.43,8.3c2.85,8.53,5.72,17.05,8.45,25.62,1.56,4.88,2.71,5.46,7.73,4.17,7.43-1.91,15-3.21,22.54-4.42a8.6,8.6,0,0,1,3.48-.22c11.09,3,22.5-.54,33.66,1.78,7.79,1.63,15.89,2,22.19,7.85a27.38,27.38,0,0,1,8.46,16,60.26,60.26,0,0,1,.51,19.37,9.23,9.23,0,0,1-8.16,6.35c-2.5.27-4.18,1.69-6,3.25-4.88,4.29-6.9,4.5-12.28.91-1.75-1.16-2.78-.85-4.39.08-5.28,3-8.67,2.21-12.25-3-6-8.59-8.73-18.55-11.93-28.3-.58-1.79-.59-3.79,1.63-4.63s3.36.72,4.31,2.37c1.34,2.32,1.94,4.93,2.94,7.38.46,1.12.94,2.23,1.48,3.3,2.64,4.87,4.48,10.2,8.53,14.44.68-5.54-.41-10.82-1.7-16.09a36,36,0,0,1-1.18-4.33c.27-4.49,2.19-7,5.77-7.28s4.92,2.46,5.71,5.19c1.59,5.43,4.17,10.52,5.07,15-.75-3.06-1.69-7.19-2.8-11.29-.91-3.38,1.22-6.5,4.73-7.66,3.86-1.28,5.52,1.13,6.74,4.12s2,5.93,3,8.9c-1.74-5.24-1.9-11-5.05-15.8a9.41,9.41,0,0,0-7.18-4.54c-9.61-1.47-19.21-1.24-28.84-.85-4.87.19-6,1.34-5.43,6.11.92,7.26.64,14.66,2,21.84,1.24,6.44-2,10.21-6.78,13.13a204.79,204.79,0,0,1-26.19,13.46c-18.82,8-38.11,14.9-57.16,22.37a177.84,177.84,0,0,1-43,10.72c-11,1.39-21.09-2.25-30.16-8.35-3.26-2.19-6-2.68-9.65-1.09-8,3.5-16.53,3.57-25,2.61-4-.45-8-.51-11.94-.9-1.35-.35-2.85-.53-3-2.39-.28-.78-1-.71-1.61-.86-9.68-2.31-10.66-4-10.23-13.68a207.6,207.6,0,0,1,7.35-47.23c1-3.59-2.41-6.18-.63-10.19,2.09-4.73,3.16-10.05,5.31-16-3.13,1.6-5.8,2.36-8.55,2-2.08-.27-3.47-1.74-3.19-3.77.34-2.46,2.24-2,3.83-1.16,2.07,1.12,3.44-.13,4.94-1.18a30.19,30.19,0,0,0,11.77-15c1.6-4.54,3-9.2,5.63-13.3,1-1.61.61-2.88-.44-4.5-5.66-8.81-5.41-18.2.78-26.52a7.14,7.14,0,0,0,1.29-6.71c-1.7-7.59-.39-14.64,6.11-19.79,2.35-1.86,1.94-2.49-.39-4.14-11.85-8.36-17.64-29-12.15-42.33,1.58-3.84,2.66-5,6.91-7.18-7,12.23-5.1,24.11.83,35.54,3.47,6.69,9,11.51,16.84,12.9,3.74.66,5-.5,3.1-4.23-3.89-7.49-5.71-15.41-3-23.63,1.7-5.09,3.46-10.67,10.4-11.13,1.56-.1,2-1.67,2.89-2.56,2.72-2.59,5.82-3.87,9.55-2.92,1.1.29,2.5.94,2.43,2.2-.1,1.57-1.7,1.31-2.79,1.25a4.78,4.78,0,0,0-5.27,3.64c-.91,2.93.49,5.19,2.63,7,1,.86,2.16,1.56,3.62.7,2.84-1.69,4.05-.3,5.71,2.22,3.66,5.55,3.64,12,5.4,18,1.13,3.83,1.92,7.75,2.9,11.61.65,2.56-.21,4.35-2.76,5s-3.58-1.23-3.92-3.37c-1.29-8.05-2.52-16.11-3.74-24.17-.4-2.65-.34-4.92-4.43-2.9s-10.73-3.24-11.79-8.79c-.27-1.43-.26-2.91-.47-5.39-4.76,4.38-5.91,9.38-6.33,14.6-.39,4.81,1.44,9.12,3.47,13.38,2.68,5.62,6.17,11,5.69,17.82,3.68-5.51,4.57-11.56,4.54-17.89,0-1.45-1.23-3.92,1.2-4.07,2-.13,2,2.4,2.23,4,1.67,10.1-.2,19.21-7.69,26.67a12.72,12.72,0,0,1-4.42,3.18c-2.24.85-3.94-.4-5.49-1.52s-.69-2.57-.18-4.06c3.35-9.81,3.31-9.7-6.73-9.71a8.71,8.71,0,0,0-7.3,3.51c-5.32,6.58-3.11,19.2,3.84,22.24,2.6,1.13,3.66.58,3.61-2.34a60.55,60.55,0,0,0-1-10.92c-.18-.94-.54-2.26.55-2.66,1.55-.56,1.79,1,2.26,2,2.47,5.24,3,11.73,1.75,21.56,10.29-3.4,14-7.37,16.58-17.58.49-2-.13-4.73,4.07-2.78,3.07,1.43,6-2,8.64-4a83.1,83.1,0,0,0,6.35-6c.93,3.29-.6,5.09-2,6.81A20,20,0,0,1,178.75,629c-3.78.8-3.44,3.93-3.54,6.23-.12,2.83,2.75,1.78,4.27,1.75,8.16-.21,14.92,3.15,20.64,8.47a48.91,48.91,0,0,0,18.65,11c5.26,1.69,7.1.39,8-5.09s2.27-10.72,3.42-16.08c.35-1.62,1.41-3.62.83-4.82-2.51-5.17.61-5.09,4.18-5.13,6.45-.06,11.64-3.54,16.84-6.73,3.51-2.14,6.47-5.21,10.74-6a2.81,2.81,0,0,0,2-2c4.9-12,11.75-23.24,12.82-36.53a75.06,75.06,0,0,0-.08-16.54c-7.68,6.77-15.71,4.78-18.44-4.11-.39-1.25-1-2.86.4-3.65,1.58-.91,2.73.18,3.63,1.61,1.47,2.36,2.85,6,5.76,5.45,2.62-.48,2.28-4.44,2.8-6.88.69-3.32,5-5,3.35-9.55-1.16-3.13-2.27-3.89-5.24-3.37a59.38,59.38,0,0,1-7.44.58c-1,.05-2.12-.06-2.45-1.25-.43-1.55.9-2,1.89-2.48,2.27-1.19,4.79-1.35,7.26-1.72,2.08-.31,3.34-.91,2.66-3.55-1.3-5-2.24-10-3.37-15.08a8.48,8.48,0,0,0-.92-2.63c-7.95,1.13-2.24-3.7-1.89-5.08,2.46-9.73,1.22-19.09-2-28.36-.76-2.18-2.27-4.1-2.41-6.51-.09-1.4.07-2.75,1.7-3.19,1.46-.39,2.87-.69,3.83,1.16,1.05,2,2.4,3.93,3.94,6.4,4-19.34,15.28-32.81,29.93-43.83l1.45,1.09q-4.74,5.57-9.48,11.15c-10.18,12.06-15.69,25.78-14.56,41.77.22,3.11-.19,7.56,2.35,8.68,2.28,1,3.6-3.62,5.79-5.32s4.19-6.23,7-3.34c2.4,2.45-2.25,4.24-3.74,6.3-1.34,1.87-3.29,3.3-4.84,5-1,1.11-3.17,1.75-1.83,4,1.22,2,2.29,4.09,5.24,3.85,3.62-.31,6.61-2.08,9.58-3.91,1.61-1,3.59-2.2,4.74-.19,1,1.73-1.26,2.76-2.47,3.79-3,2.57-6.74,3.42-11,4.15,1.49,3.12,3.83,5,5.83,7,4.56,4.71,8.58,9.76,10.68,16.08.69,2.07.65,4-1.7,5.06-2.15,1-4.51,1.34-5.8-.93-5.43-9.49-13.83-16.61-19.92-25.55-1.86-2.73-3.39-5.69-5.11-8.61-2.29,1.74-2.28,4.09-1.59,6.45,1.86,6.37,3.94,12.68,5.74,19.07.86,3,2.06,5.14,5.74,4.74,1.55-.17,3.08.51,3.17,2.42a2.39,2.39,0,0,1-2.42,2.64c-1.87.13-2.74.7-2.12,2.81a109.28,109.28,0,0,1,4.15,24.55c0,.4.47.77.95,1.52,2.57-3.5,6.13-5.86,4.54-11.21-1.18-3.94,1-5.21,5.41-5.32,7.15-.18,12.14,4.87,18.32,7,7.92,2.74,15.55,6.31,23.3,9.53,7.43,3.09,14.14,7.8,22,9.83l-.09-.08c1,4.1,3.53,7.36,6.37,11.56,1.3-3.74,2.52-6.71,3.37-9.78,1.28-4.6,3.92-6.59,8.89-7,4.7-.38,7.87,1.06,11.35,4,10.71,9,21.81,17.47,32.61,26.33,2.17,1.78,3.29,2.08,5.73.13,14.82-11.75,29.87-23.31,47.53-30.54,19.8-8.1,39-7.23,57.14,5.19,9,6.11,15.38,13.87,19,24,1.12,3.16,2.16,4.19,5.82,1.92,9.43-5.83,20.22-8.16,31-9.88,5.73-.92,15.5,8,15.74,13.85,0,1.31.24,2.62.37,3.93l.06.7a9,9,0,0,1-.65,5.55,2.24,2.24,0,0,1-1.28.62c-2.17-.27-2.85-2.14-3.78-3.65-2.12-3.44-5-6.17-7.83-9a8.34,8.34,0,0,0-7.27-2.48c-8.29.91-16.42,2.43-24.06,6.05-2.34,1.11-3.25,2.46-2.93,5,.76,6,1.56,11.87,7.18,15.73,2,1.4,3.32,3.68,4.8,5.7.75,1,1.58,2.49,3.16,1.73,1.39-.68,1.21-2.23,1.07-3.56-.26-2.52-1.47-4.75-2.23-7.12-.55-1.74-1.26-3.66.66-5s3.79-.22,5.35,1.11c2.42,2,4.41,4.53,6.89,6.5.92.74,2,1.42,3.17.65s1-2,.74-3.16a35.91,35.91,0,0,0-3.69-8.16c-1.1-2-2-4.09.2-5.84a4.76,4.76,0,0,1,6.44.13c3.72,3.25,6.83,7.14,11.82,8.86,1.85.63,1.52,3.24.92,5a34.74,34.74,0,0,0-1.56,10.8c-1.32,6.18-1.59,12.5-2.62,18.72a13.4,13.4,0,0,1-1.76,5.64c-5,3.36-5.85,7.84-4,13.34,1.72,5.05,1.72,10.35,1.56,15.64-.54,3.58-.8,7.19-1.17,10.79-.35,3.32,1,4.37,4,4.7,4.25.45,8.51.89,12.77,1.37,11.74.94,23.39,2.23,35.25,2,9.42-.16,18.94.7,28.41.47a333,333,0,0,0,53-5.79,250.32,250.32,0,0,0,74.51-26.27c4.25-2.31,7.77-5.75,12.3-7.56a151.44,151.44,0,0,0,21.14-17.69c1.56-1.62,2.89-3.66,5.37-4.12A75.33,75.33,0,0,0,855,627.57c2.18-4.25,5.23-3.12,8.46-2.49s4.8,2.65,4.6,6c-.34,5.64-.4,11.32-1,16.94-.35,3.47.66,5.1,4.15,5.9,5.37,1.23,6.21,3.37,3.25,8.15a76.26,76.26,0,0,1-6.7,8.67,10.28,10.28,0,0,0-2.72,5.73c-.34,3.46-.55,5.92,4.42,6.38,6.49.61,7.27,3.43,3,8.45-2.58,3-5.5,5.79-8.14,8.78-1.89,2.15-2.35,4.09,1.34,4.9,1.11.25,2.1,1,3.21,1.32,3.51,1,4.27,3.07,3.07,6.45-1.94,5.44-5.28,10-8.88,14.33-3.91,4.78-4.12,10.13,0,14.67,2.7,3,2.29,5.13-.44,7.54a13.72,13.72,0,0,0-4.72,10.57c-.14,6-1.61,11.87-1.21,17.9a6.15,6.15,0,0,1-2,4.91,172.49,172.49,0,0,1-52.45,37.41A167.61,167.61,0,0,1,784,827.47a3.41,3.41,0,0,1-2.41,2.32,164.44,164.44,0,0,1-40.44,10.1c-5.42.6-10.59,3.14-16.2,2-1.08,2.55-2.11,4.79-5.25,5.9-3.74,1.31-5.88.9-6.3-3.23-.21-2.11-1-2.92-3.12-2.81-7,.37-13.9.63-20.88.33-2.75-.11-5.54,1.87-8.37,2.68-2.32.67-4.71.92-5.89-2-.64-1.56-2-1.67-3.3-1.7a131.52,131.52,0,0,1-24.5-3.41c-4.16-.9-8.42-1-11.94,2.2s-5,1.09-5.6-2.28c-.37-2-.14-4-3-4.22-2.69-.2-5.59-1.77-7.47,1.65-1,1.71-1.74,4-4.31,3.27a5.43,5.43,0,0,1-3.84-4.79c-.68-5.45-3-5.18-6.78-2.57s-6,1.62-6.07-2.82c0-3.11-1.19-4.41-3.89-5.22a17.83,17.83,0,0,1-7.23-4.18c.74-2.26,2.55-.88,3.77-1.28,7.08-.37,7.88-1.4,7.7-8.82-.08-3-1.33-4.76-4.09-6.06-3-1.42-6.89-1.58-8.63-5.17-.36-.3-.67-.73-1.09-.86-1.76-.56-3.89-1.23-3.27-3.43.7-2.48,2.82,0,4.21-.54,3.73-1.46,6.72,1,9.89,2s4.44.35,4.74-2.78c0-.5.11-1,.17-1.49,1-8.78.93-8.74-6.89-13C591.57,776.3,588.71,775.83,588.59,772.59Z"/><path class="cls-1" d="M840.88,646.71a109.4,109.4,0,0,1-25.07,21.94c-4.07.78-2.35-2.11-2.14-3.65a146,146,0,0,1,4.78-20.41q8.07-28,14.56-56.39c3.85-16.87,7.09-33.88,10.73-50.79,5-23.25,9.49-46.62,13.24-70.11,2.75-17.24,6.75-34.31,8-51.75,1-13.91,1.67-27.81,1-41.86-2-40.95-17.81-77.54-34.31-114a205.93,205.93,0,0,1-15.44-52.55c-3.51-21.91-5-44-6.49-66-.64-9.27-1.79-18.57-1.26-27.92.51-8.84-1.49-17.58-1-26.43.15-2.91-1.12-3.94-4.2-4-9.44-.12-19,.56-28-3.74-3-1.46-3.64.83-4,3.21-1.15,7.07-1.8,14.21-3,21.27-4.7,27.8-11,55.22-20.37,81.84a314.45,314.45,0,0,1-34.66,69c-10.85,16.36-22.33,32.34-31.92,49.51-7,12.58-11.74,26.09-15.53,39.95a317.75,317.75,0,0,0-8.94,42c-.49,3.67,0,5.44,4.26,5.86,9,.9,18,.24,26.93.56,19.43.69,38.88,1.27,58.33,1.19,5.65,0,11.25,1.11,16.9,1.53,6.48.49,12.46,11.61,10.58,19-5.51,21.61-10.18,43.42-15.13,65.16-6.33,27.76-13,55.43-19.51,83.15C733.59,586,728,609.84,722,633.56c-4.44,17.6-10.16,34.87-13.67,52.7-.94,4.77-3.76,7.61-8.41,8.86a30.46,30.46,0,0,1-9.88,1c-16.43-1-32.89-1.36-49.33-2.17-6-.3-11.94-.88-17.9-1.48-6.32-.63-7.43.46-8.77,6.57-.58,2.65.46,6.18-3.14,7.68-5.27-.5-10.54-.93-15.8-1.54-2.18-.26-3.51-.89-2.52-3.91,1.32-4.06.14-8.6,1.5-12.77,1-6.38-.3-12.78.2-19.18.27-3.51.66-6.87,2.51-9.92q2.07-12.53,4.15-25c.66-5.49,3.43-10.72,2-16.49-.19-.78.4-1.57.94-2.23l0-.1c1.19-1.81,0-4,.79-5.81l.19-.44c1.55-1.55.71-3.48.75-5.21.47-21.47,2.52-42.84,3.75-64.25,1.07-18.65,3.89-37,6.75-55.42,2.41-15.4,5.49-30.71,8.88-46,3.56-16,6.33-32.26,8.87-48.5a403.3,403.3,0,0,1,12.65-55.78,200.23,200.23,0,0,1,22.6-48.94c12-18.88,25.5-36.73,37.35-55.66a307.19,307.19,0,0,0,22.39-44.13c9.9-23.59,17.14-48,23.3-72.76,4.78-19.16,8.37-38.62,12.55-57.93,2-9.41,4.12-18.81,6.4-28.17.61-2.47.53-4.22-1.13-6.38-2.74-3.56-1.25-7.69,3-9.13,1.25-.43,2.53-.58,3.57-1.57C785.15,1.34,796-.08,807.12,0c8.33.07,15.15,9.5,13.2,17.46-.9,3.63.25,7.28.28,10.93.27,34.13,2,68.19,5.39,102.14,2.54,25.14,4.63,50.36,9.88,75.13,2.82,13.29,6.2,26.38,12,38.82,12.85,27.44,25.47,55,33.39,84.4,7.25,26.93,7.52,54.19,6,81.7-.82,14.64-3.21,29-5.74,43.42q-5.55,31.37-11.59,62.65c-4,20.83-8,41.65-12.4,62.39-2.77,13.08-5.84,26.13-9.55,39C845.25,627.51,842.74,637,840.88,646.71Z"/><path class="cls-2" d="M259.13,989.47c2.94-4,7.08-4.89,11.76-4.89q28.68,0,57.34-.22c37.4-.33,74.8-.57,112.19-1.18q45.45-.73,90.89-.37c9.82.06,10.06.31,13.86-8.82,9.77-23.45,21.92-45.79,32-69.12a87.15,87.15,0,0,1,18.65-28.08c8.9-8.77,18.57-16,30.34-20.9,6-2.46,11.61-5.5,18-6.42,17-2.43,33.39-1.88,48.54,8,19,12.41,26.1,30.23,25.16,52.12-.13,2.92-1.2,4.65-4.31,5.06a20.47,20.47,0,0,0-6.25,1.65c-6,2.93-10.66.51-14.67-3.57-6.59-6.71-15.24-9.14-23.78-11.29-11.72-2.94-23.66-2.27-35.66-.7-18.41,2.42-34.36,10.21-49.2,20.86a13.77,13.77,0,0,0-4,5c-10.9,20.15-21.38,40.53-33.57,60-1.9,3-4,4.33-7.61,4.44q-30.22.91-60.44,1.09c-27.14.19-54.27.73-81.41,1q-48.18.49-96.35.82c-16.95.13-33.9.31-50.85.26-4.36,0-5.6,1.08-4.06,5.48a39.92,39.92,0,0,0,14.46,19.52c2.36,1.73,4.1,3.79,3.18,6.63s-3.56,3.14-6.24,3c-10.65-.39-20.26-4-29.22-9.53-8.36-5.2-13.75-13.27-19.8-20.67-2-2.48-4.1-3.85-7.54-3.77-14.47.31-29,.18-43.42.5-4,.09-7.43-1.57-11-2.67-2.39-.73-2-2.79-1.63-4.6,1.26-5.85,2.37-11.74,4-17.48,1-3.48,0-4.46-3.33-4.49-12.16-.1-24.32-.29-36.48-.5-14.3-.24-28.61-.43-42.91-.9-3.21-.11-4,1-4,3.88-.26,8.35-2.12,16.48-3.59,24.67-1.79,9.91-7.1,16.34-17.24,18.1s-20.24,3.81-30.48.32c-2.6-.88-3.32-2.09-3.06-4.7a159,159,0,0,0,1.12-17.42c0-3.73,1.57-4.15,4.52-3.95,5.63.39,11.24.87,16.87-.46,2.94-.69,4.07-2.19,4.52-5,.67-4.32.36-8.64.47-13,.05-2.26-.81-3.44-3.19-3.36a27,27,0,0,1-4.5-.12c-3.76-.52-6.48.45-7.5,4.52-.2.8-.52,2-2.27,1.9a4.43,4.43,0,0,1-.25-1.68c.92-3.84-.6-5.58-4.48-5.47-1.57,0-3.42-.18-3.48-2-.07-2.53,2.29-2.08,3.76-2,4.74.39,6.7-1.71,8.21-6.26,14.79-44.8,41-81.32,79.7-108.64,2-1.44,4.13-3.73,7.11-1.66,1.81.62,2.2,2.39,3,3.77,11.64,19,31.73,29.64,55.22,25,27.22-5.33,52.61-15.49,77.18-27.92,10.39-5.25,21.12-9.85,31-16.1,1.37-.87,3.16-2,4.54-.5s-.11,3.1-1.17,4.35c-13.13,15.49-25.44,31.65-38.18,47.46-11.8,14.64-23.35,29.49-34.9,44.34-4,5.14-4,7.77.08,12.85,2.9,3.62,6.29,6.86,8.74,10.86.53,2.64-1.41,3.86-3,5.28-5.88,5.16-11.86,10.19-18,15a16.92,16.92,0,0,0-2.27,2c-1.24,1.34-2.92,2.75-1.32,4.69s3.33.6,4.85-.41c1.8-1.19,3.45-2.62,5.31-3.73,5.71-3.4,11.81-.34,12.18,6.26.73,12.91,8.34,22.14,16.67,30.81,3.22,3.35,6.92,6.62,12.44,8.25a132.63,132.63,0,0,1-5.21-12.36,53.17,53.17,0,0,1-2.46-27.46c.32-1.75.33-3.84,3-3.85a16.89,16.89,0,0,1,8.14,9c.57,1.42,1,2.91,2.66,3.34,2.84.72,5,2.48,7.19,4.33A7.6,7.6,0,0,0,259.13,989.47Z"/><path class="cls-3" d="M259.13,989.47c-1,1.43-1.91,2.45-4,1.1-3.59-2.33-6.07-6.8-11.31-6.23-.27,0-1-1-.94-1.46.08-5.35-4.17-8-7.11-11.38-8.95-7-17.12-14.79-23-24.69-3.09-3.48-6.25-6.9-9.26-10.45-4.43-5.24-4.68-8-.59-13.27q20.52-26.34,41.29-52.5c11.28-14.17,22.76-28.19,34.13-42.29a10.13,10.13,0,0,0,.82-2.12c-4,2.18-7.18,4.07-10.5,5.75-17.93,9.05-35.48,19-54.34,26-15.24,5.69-30.39,11.6-46.59,14.52C148,876,131.2,871.07,117.19,857a41.66,41.66,0,0,1-9.29-14.53c-7-14.33-5.11-28.46,1.55-42.17,2.37-4.86,5.16-10.25,12.22-9.69.84,1.27,2.29.87,3.46,1.22,4.64,2.74,4.82,3.84.9,7.72-10.42,10.33-14.53,22.37-10.21,36.76,9.05,14.07,19.52,25.28,38.34,25.27,14.2,0,27.23-4.09,40.4-8.19,28.72-8.92,55.61-22.27,83-34.47a91.72,91.72,0,0,1,11.24-4.14c1.91-.56,4.32-1,5.66.71,1.64,2-.61,3.65-1.65,5.16q-23,33.3-47.24,65.72c-10.1,13.45-19.87,27.14-30.11,40.48-3.75,4.89-3.64,5.94,1.32,9.71,3.79,2.87,6.32,6.83,9.58,10.15,6.29,6.41,13,12.34,19.27,18.82,2.29,3.28,5.43,5.77,8.09,8.7,2,2.25,3.83,2.44,5.5-.28,3-4.82,8.28-7.64,10.82-12.82q12.19-16.71,25.36-32.69c10.8-13.11,21-26.68,30.94-40.4q20.31-25.87,40.2-52c7.06-9.24,13.65-18.82,20.27-28.37,1.5-2.15,2.8-3.76,6-2.63a9.79,9.79,0,0,0,6.81-.25l7.43-11.16c3-1.8,2.87.37,2.36,2.13-.78,2.7-1.61,5.54-3.27,7.78-4.38,5.93-4.39,12.6-3.89,19.42a4.82,4.82,0,0,1-.26,2.91,221,221,0,0,1-6.1,22.88c-2.87-.55-2.2-2.95-2.23-4.72-.13-6.13-1.68-12.15-1.33-18.46-13.3,20-29.89,37.28-44.76,57.24C359,879.66,369.8,879,380.39,877c2.48-.47,5.52-2.06,7.45,1.35-1.71,2.22,0,5.27-1.84,7.48-1.24,1.85-3.21,2.1-5.2,2.44-11.44,1.92-23,3.1-34.47,4.75-2.85.41-5.43-1.7-8.2-.33L336,894.83c-3.77,8.48-9.78,15.11-17,20.7-8,11.13-17.72,20.92-26.16,31.73-4.89,6.25-10,12.33-15,18.49-5.74,7.56-11.23,15.34-18.15,21.93C259.27,988.05,259.3,988.86,259.13,989.47Z"/><path class="cls-2" d="M137.8,1007.51c-1.31,14.55-8.94,27.47-23.76,35.6-3,1.67-7,1.69-10.64,2.22-3.91.57-8-.1-11.76,1.74a4.55,4.55,0,0,1-2.88-.22c-14.33-4.4-23-15.18-24.29-30.16-1.71-19.84,8-37.48,25.82-46.56,1.62-.83,3.21-1.5,5.2-.67a6,6,0,0,0,3.91.16c5.19-1.73,9.92-.71,14.61,1.72,5.14,2.65,11.38,2.7,15.44,8C135.38,987.14,138.09,995.66,137.8,1007.51Z"/><path class="cls-4" d="M360,575.7c-1.11-5,1.28-9.47,2.45-14.09.85-3.39,1-6.24-2.86-7.82a3.14,3.14,0,0,1-1.12-1c-1.25-1.57-4.53-2.71-2.81-5.05s3.82.32,5.52,1.31c4.9,2.85,9.92,5.48,15.46,6.64,15.06,3.15,27-7.25,31.79-20.74.83-2.33,0-3.4-2.59-3.21-4,.31-7.45-1.56-10.8-3.41-1.1-.61-2.53-1.6-2-3.11s2.21-1.32,3.51-1.19c2.81.3,5.6.76,8.4,1.12a5.92,5.92,0,0,0,4.28-1c1.33-1,1.39-2.6,1.28-4.12-.14-2-1.88-1.45-3.06-1.71a5.51,5.51,0,0,0-2.46-.23c-3,.83-5.38.37-6.11-3-.8-3.74,2.68-3.47,4.63-4.6a2.36,2.36,0,0,1,.94-.33c12.16-.47,11.18-5.07,9.64-14.52-3.43-21.05-9.75-41.38-15.15-61.94-.58-2.18-2.65-5.48.33-6.45s4.1,2.57,5.05,5.08c2.15,5.75,4.4,11.46,6.39,17.25,1,2.89,2.17,4.25,5.64,3.55a33.44,33.44,0,0,1,12.42-.18c2.49.45,5.66.8,5.2,4s-3.93,2.34-5.87,2.05c-4.59-.69-9.09-1.79-14-.95,3.17,10.59,6.31,21.06,9.44,31.53a55.33,55.33,0,0,1,2.69,14.16c.15,4.7-1.38,8-5.88,9.9-2.49,1-3.55,2.21-2.49,5.64,2.8,9.07,1,17.89-4.34,25.66-4.53,6.55-11.15,11-18.17,14.41A29.07,29.07,0,0,1,373,560.61c-3.61-1.19-4.76,0-5,3.44-.16,2.14-.92,4.22-1.25,6.36-.63,4-2.67,5.93-6.82,5.21Z"/><path class="cls-5" d="M365.57,436.06c17.49-3.37,29.52-13.27,35.52-30.12.22-.62.37-1.28.54-1.92.29-1.1.33-2.52,2-2.2s1.35,1.66,1.42,2.8c.25,4.16-1.67,7.78-3.11,11.46-6.34,16.17-23.86,25.78-39.23,26-2,0-4-.05-5.53-1.73-.9-1-12.71-1.1-13.75-.35s-.71,1.73-.54,2.7c.42,2.29.77,4.59,1.28,6.86,2.49,10.92-.57,20.36-7.67,28.7-1.4,1.65-3.36,3-.83,5.3a2,2,0,0,1,.4,2.72c-.81,1-2.06.75-3.24.46-6-1.44-10.67.7-12.85,5.82-1.89,4.44.49,10.07,5.24,13.32,2.3,1.58,3.78,0,5.43-.79,2-1,4.25-2.32,5.8-.17,1.44,2-1.64,2.84-2.21,4.39-1.53,4.17-8.12,2.41-8.64,7.3A36.78,36.78,0,0,1,322,528.41a40.44,40.44,0,0,0-2.35,6.51c-.52,1.9-1.44,3.14-3.46,2.62s-1.61-2.32-1.29-3.73c1.23-5.4,4-10.18,6.4-15.07,1.36-2.72,2.13-5-1.27-6.81a15.19,15.19,0,0,1-3.55-3.48c-8.3-9.33-6-20.19,5-25.92,10.24-5.3,15.4-14.35,16.62-25.49,1-8.84-1.41-17.54-2.37-26.29-.18-1.63-1.67-4.07,1.12-4.5,2.39-.38,2.66,2.25,2.93,3.91.73,4.57,3.76,5.74,7.59,5.1,19.61-3.28,33.3-14,40.24-32.81a40.06,40.06,0,0,0,1.33-6.32c.24-1.3.13-2.92,1.95-3s2.67,1.34,2.91,2.89a21.16,21.16,0,0,1-.59,8.92c-3.7,13.34-11.11,23.6-24.31,29A24.23,24.23,0,0,0,365.57,436.06Z"/><path class="cls-6" d="M189.2,511.29c-8.78,2.89-17.12,5.33-23.9,11-13.63,11.43-20.7,25.29-16.28,43.54,1.25,5.15,2.93,10.24,2.78,15.67a17.94,17.94,0,0,1-3.64,10.66,4.17,4.17,0,0,1-5.36,1.42c-2.17-1.09-.54-2.9,0-4.3,1.94-4.7,1.61-9.55.65-14.27-1.13-5.55-2.37-11.08-2.61-16.74-.08-2.07-.78-2.95-2.83-3.15-7.15-.71-11-6.89-11.3-13-.78-14.21,5.71-26.12,17.32-30.9,3.74-1.54,7.79-1.6,11.71-2,6.68-.75,10.32-4.49,12.39-10.56,4.74-13.89,14.85-22.92,28.11-27.82,12.85-4.75,24.77,0,36.17,5.66l-.26,1.29c-5.24-1.33-10.43-2.95-15.74-3.94-15.78-2.95-33.92,6.93-40.31,21.73q-1.59,3.68-3,7.41c-2.7,7.43-8.18,11.14-15.88,11.39-18.12.58-24.19,14.4-23.5,27.27a15.44,15.44,0,0,0,1,4.33c.83,2.34,1.67,5.14,4.76,4.93,2.75-.2,1.88-3.1,2.48-4.81,6.9-19.66,20.11-32.08,40.91-35.85C184.81,509.92,186.8,509.31,189.2,511.29Z"/><path class="cls-1" d="M724.9,841.92c9.24-3.18,19-3.52,28.5-5.59A201.85,201.85,0,0,0,784,827.48c1.53.53,3.48.86,2.74,3.18-1.17,3.67-.36,8-4,10.92a8.7,8.7,0,0,0-2.28,4.34,8.58,8.58,0,0,1-9.38,6.26c-8.19-1.23-16.51-1.88-24.53-3.79a156.35,156.35,0,0,0-18-2.93C726.35,845.2,725.42,843.81,724.9,841.92Z"/><path class="cls-7" d="M236.05,493.43a7.47,7.47,0,0,1-2,.45c-12.93-1.78-21.87,2.94-28.94,14-6.26,9.77-7.9,21-11.67,31.59s-11.85,16.75-21.8,16.48a17.83,17.83,0,0,1-12.06-5c-1.24-1.19-2.3-2.71-.94-4.36,1.19-1.45,2.93-1.33,4.59-.68.15.06.29.16.44.23,11.73,6.17,18,3.81,22.84-8.7,4-10.32,6.11-21.37,12.92-30.56,5.49-7.42,12.27-13.13,20.92-16.18C225.69,488.75,231,489.49,236.05,493.43Z"/><path class="cls-6" d="M247.71,493.79c.19,7.37-3.67,14.26-10.1,19.89-1.34,1.18-3.15,2.84-4.79,1.38s.48-3,1.32-4.17c11.13-15.79,6.1-34.8-11.42-43.13-2.46-1.17-4.75-.9-7.25-.5-2,.31-4.93,1.53-5.59-1.25-.7-2.94,2.38-3.58,4.57-4.17,8.47-2.29,15.65.75,22,6C243.7,473.72,247.8,483.07,247.71,493.79Z"/><path class="cls-8" d="M356.66,407.65c-14.89.59-29.53.59-43.08,7.41a43.32,43.32,0,0,0-10.25,7.79c-1.22,1.15-2.6,2.67-4.22,1.17-1.34-1.24-.17-2.84.65-4,4.73-6.86,11.56-10.9,19.24-13.41,14.34-4.67,29.21-5.93,44.2-6a9.43,9.43,0,0,1,2.47.34c2.49.7,6.56-.23,6,4.09-.48,4-4.24,2.92-6.88,3C362,408.1,359.18,407.78,356.66,407.65Z"/><path class="cls-9" d="M259,494.18c.18,5-.48,10.6-3.64,15.56-.78,1.23-1.73,3.08-3.32,2.46-2.09-.8-.36-2.53-.08-3.77,3-13.16.95-25.7-4.54-37.79a12.63,12.63,0,0,0-6.4-6.05c-1.85-.87-4.26-1.82-3.11-4.18s3.53-1.6,5.71-.8c7.2,2.65,11.24,8.09,13,15.18A73.35,73.35,0,0,1,259,494.18Z"/><path class="cls-10" d="M257.8,569.86c.2,2.57-.94,4.42-3.36,4.87-3.24.61-6.55,3.36-9.86.32-2-1.85-1.46-4,.78-4.76,4.18-1.42,4-4.34,3.4-7.61a150.19,150.19,0,0,1-2.29-24.31,31.07,31.07,0,0,1,0-4c.21-1.7-.16-4,2.56-4,2.44,0,2.29,2.26,2.43,3.69C252.7,546.14,256,557.88,257.8,569.86Z"/><path class="cls-11" d="M590,730.49c4.66,1.47,9.29,3.07,14,4.35,2.63.71,3.18,2.06,3,4.64-1.05,13.26-1,13.29-13.54,9.59-2.2-.65-4.32-1.6-6.47-2.41C588.42,741.36,587,735.52,590,730.49Z"/><path class="cls-11" d="M588.59,772.59c3.18,3.36,7.65,4.57,11.53,6.71,2,1.1,2.62,2.18,2.37,4.24a91.31,91.31,0,0,0-1,10.4c0,3.83-2,3.47-4.49,2.6l-11.23-3.95c-1.22-6.31.45-12.54.45-18.82C586.19,772.5,587.78,773,588.59,772.59Z"/><path class="cls-11" d="M591.77,709.79c5.6-1,10.76,1.56,16.18,2,2,.17,1.72,1.58,1.57,3-.4,3.64-.81,7.27-1.14,10.91-.21,2.18-.81,3.28-3.44,2.65-4.67-1.12-9.43-1.84-14.16-2.73-1.55-3.52-.83-7,.11-10.51A15.15,15.15,0,0,0,591.77,709.79Z"/><path class="cls-12" d="M244.29,593.7c-5.86-.68-11.77-1.37-16.32-5.87-1.59-1.57-3.34-3.51-1.59-5.53,1.38-1.59,3.48-.64,5.36.48,5.37,3.22,11.07,5.14,17.52,3.54,2.34-.58,4.47-1.12,5.6-3.53.92-2,2.68-2.24,4.62-2.13s4.35-.18,4.95,2.27c.51,2.07-.72,3.57-2.57,4.87C256.56,591.52,251,594.09,244.29,593.7Z"/><path class="cls-13" d="M317.4,440.27c0,7.92-3.81,15.58-6.91,23.41-2.31,5.86-4.9,11.61-5.69,17.93-.2,1.68-.62,3.07-2.49,3.08-2.32,0-2.56-1.82-2.44-3.54.54-7.57,3.31-14.51,6.35-21.32,3.66-8.22,7.24-16.42,6.76-25.71-.05-1-.2-2.12,1.17-2.3a2.32,2.32,0,0,1,2.46,1.33C317.61,435.15,317.66,437.3,317.4,440.27Z"/><path class="cls-11" d="M588,751.51c4.51,1.52,9,3.18,13.53,4.51,2.5.74,3.62,1.91,3.16,4.59-.38,2.28-.45,4.62-.69,6.93-.64,6.13-.59,6-6.3,3.09a45.61,45.61,0,0,1-11.87-8.78,8,8,0,0,0,.58-6.15A3.5,3.5,0,0,1,588,751.51Z"/><path class="cls-11" d="M585.88,797.42c3.79,1.69,7.54,3.49,11.39,5.05,2.16.88,3.21,2,2.65,4.5a36.74,36.74,0,0,0-.35,4.95c-.71,8.4-.71,8.4-8.67,5.55-5.45-4-7.6-9.51-7.11-16.15C583.91,799.7,583.76,798,585.88,797.42Z"/><path class="cls-14" d="M215.54,569.28c-6-.24-11.49-5.71-11.8-11.9-.07-1.45-.44-3.22,1.64-3.61,1.72-.32,2.82.58,3.32,2.27a13.73,13.73,0,0,0,3.43,6c2.21,2.21,4,2,5.64-.58a20.61,20.61,0,0,0,2.68-7.48c.64-3.54,3.26-4.15,6-3.84,3.27.37,2.85,3.18,2.58,5.48C228.08,563.08,221.69,569.52,215.54,569.28Z"/><path class="cls-14" d="M390,459.55c1.41-.13,2.9,0,3.25,1.58.43,2-1.08,3.13-2.64,3.72a59.92,59.92,0,0,0-15,7.6c-1.6,1.18-3,2.58-4.64,3.76a2.59,2.59,0,0,1-3.25,0c-.95-.74-.66-1.69-.18-2.67C370.41,467.64,383.34,459.6,390,459.55Z"/><path class="cls-15" d="M200.09,545.27c-1.92.06-3.09.22-3.45-1s.62-1.76,1.5-2.24c7.22-3.95,15.25-5.35,23.11-7.25,1.28-.31,2.78-.09,3.32,1.48a2.73,2.73,0,0,1-1.09,3.09A6,6,0,0,1,221,541C213.64,541.9,206.13,542.21,200.09,545.27Z"/><path class="cls-16" d="M380.76,487.44c.18-2.43-.43-5.09,3.28-5,3.43.05,3.94,2.31,4.18,5,.26,2.95-.85,5.09-3.89,5.22C380.62,492.76,381.09,489.63,380.76,487.44Z"/><path class="cls-16" d="M433.09,473.84c-.19,3.33-1,6.27-4.7,6.6-2.95.26-2.61-2.25-2.72-4.19-.2-3.54,1.52-5.82,4.93-6.15C433.14,469.85,433,472.21,433.09,473.84Z"/><path class="cls-17" d="M610.91,706.77c1.88-2.42,1.29-5.42,1.76-8.13,1.39-8.06,1.56-8.72,9.27-7.82,16.51,1.93,33.12,1.86,49.66,3,6.88.46,13.78.37,20.67,1.08,8.79.89,13.09-3,15.29-11.65,4.53-17.88,9.55-35.63,14-53.51,4-15.94,7.5-32,11.31-48,4.87-20.46,9.88-40.89,14.72-61.36,3.54-15,6.88-30.07,10.37-45.1,4.11-17.74,8.3-35.45,12.39-53.2a76.84,76.84,0,0,1,2-8.63c1.74-4.94-2.93-14.41-7.54-17.05-2.21-1.27-4.23.51-6.32.06-12-2.61-24.2-1.34-36.32-1.7-13.9-.41-27.81-.74-41.71-1.29-7.26-.29-14.52.17-21.8-.29-3.58-.22-4.3-1.17-3.86-4.31A372.29,372.29,0,0,1,665,341.12a188.44,188.44,0,0,1,13.26-34.82A206.23,206.23,0,0,1,689.51,287c6.29-9.71,13-19.16,19.37-28.81a391.41,391.41,0,0,0,21.9-36.79c7.58-14.69,13.32-30,18.56-45.65,10.37-30.85,16.45-62.62,20.53-94.81.53-4.14,1.35-5.79,5.71-3.5,9,4.75,18.95,3.86,28.64,3.58,3.81-.11,4.92.69,4.94,4.47.12,23.31,1.29,46.58,2.89,69.83s3.75,46.74,9,69.64c3.65,15.9,10,30.87,17.1,45.52a363.19,363.19,0,0,1,24.17,66.87c5.51,21.16,6.17,42.94,4.91,64.82-.54,9.46-1.25,18.9-2.36,28.28-1,8.37-2.81,16.65-4.29,25-2.13,11.9-4.21,23.81-6.45,35.69-2.46,13-4.93,26-7.7,38.94-2.91,13.6-5.61,27.28-8.33,40.94s-5.68,27.57-9.37,41.16q-6.08,22.37-12.14,44.72c-.91,3.35-.48,7-2.2,10.18-.58,1.06.81,1.15,1.42,1.57-7.71,6.26-16.59,10.51-25.44,14.85-19.06,9.35-39.16,15.42-59.9,19.67a323.1,323.1,0,0,1-76.94,6.54C639.34,709.18,625,709.94,610.91,706.77Z"/><path class="cls-11" d="M404,864.53c5.12-21.14,10.35-42.25,15.33-63.42,4.15-17.63,8.07-35.32,12-53,.54-2.43,1.42-4.28,3.62-5.57,17.86-10.45,35.76-20.85,53.48-31.52,3.13-1.88,3.82-1,4.75,1.82a85.25,85.25,0,0,0,3.64,8.74c2.23,4.88,5.26,5.82,9.88,3,5.31-3.26,10.52-6.68,16.43-10.45-.12,9.07-1.81,17.16-3.06,25.28-3.38,21.91-10.88,42.79-16.46,64.15-7,26.77-14.85,53.3-22,80-2.89,10.71-5.09,21.61-7.39,32.46-.65,3.05-1.75,4.09-4.72,2.77-13.59-6-27.87-10.15-41.9-15-9.49-3.27-18.94-6.62-28.59-9.39a2.31,2.31,0,0,1-1.8-3c.88-3.52,1.82-7,2.73-10.54,2.08,2.23,4.35,1.06,6.2-.08,2.17-1.34.63-3.32-.13-4.77C404,872.33,405.51,868.18,404,864.53Z"/><path class="cls-11" d="M388.68,745.44c.65-8,.79-16-1.87-23.71s-7.8-13.36-16.09-15.5c-12-3.11-24.14-4.74-36.55-2.93-5,.74-9.56-2.38-15-1-7.19,1.79-14.78,2.31-21.86,4.65-4.37,1.44-5.81-.62-6.92-3.94-3.1-9.31-6.14-18.64-9.22-28-.73-2.2-1.53-4.39-2.3-6.58-.57-1.61-1.14-3.36-3.38-2.77s-2.29,2.45-1.84,4.41c1.25,5.52,2.41,11,3.67,16.57,1.4,6.16,2.73,12.35,4.34,18.46,1,3.67.1,5.44-3.86,6.11-7,1.19-14,2.72-21,4.33-3.76.87-3-1.61-2.68-3.41,1.19-8,2.83-16,3.76-24.13a412.8,412.8,0,0,1,11.55-59.16c4.58-17.1,12-33.15,18.7-49.43,1.58-3.83,3.46-7.54,5.17-11.33,1-2.31,2.06-2.82,3.68-.38,4.51,6.82,10.16,12.69,15.82,18.54,5.33,5.51,11.26,10.17,18.44,13,1.86.73,2.45,1.89,2.94,3.58,7.86,26.83,18.06,52.84,27.95,79,1.41,3.72,5.3,6.74,3.44,11.45,4.16,1.13,3.9,6.38,7.38,8,2.91,1.37,6,.63,8.75-.5,11.33-4.59,22.64-9.21,33.87-14,14.29-6.12,28.5-12.43,42.73-18.7A122,122,0,0,0,470,662.55c2.34-1.34,3.22-.62,4.16,1.36,4.64,9.77,9.28,19.55,14,29.28,1.38,2.85-.15,4.38-2.24,5.74-10.4,6.79-20.74,13.68-31.24,20.31-8.36,5.27-16.78,10.63-24.68,16.34-9.47,6.84-20,12.41-28.46,20.59-.3.29-.92.24-1.38.35.46-5.79-3.56-9.37-6.9-13-2.61-2.84-1.86,1.9-3.33,2.14A1,1,0,0,1,388.68,745.44Z"/><path class="cls-11" d="M399.64,804.7c-1.61,2.33-4.11,1.38-5.9.95-3.27-.8-4.63.66-6.25,3.07-18.38,27.38-39.4,52.79-59.26,79.08a5.61,5.61,0,0,1-1.12.92c-1.62-1.65-.62-3.45-.2-5.15,3.81-15.35,8-30.59,12.14-45.86,3.06-11.42,3.17-11.48-7.72-15.74-21.45-8.4-43.9-11.92-66.71-14a309,309,0,0,0-39.42-.76c-34.95,1.26-68.7,8-100.21,23.95-3.39,1.72-6.19,4.56-10.06,5.36-6-14.57.46-28.79,9.71-37.48,3.1-2.91,4.42-4.51.49-7.23,13.45.83,27,3.25,39.84-3.43,1.66-.86,2.67.08,4,1,11.88,8.45,24.46,11.43,39.41,8.93,22.38-3.75,42.7-12.85,63.67-20.54A383.7,383.7,0,0,0,321.7,756c.73-.39,1.48-.74,2.2-1.16,11.84-6.93,9.82-7.54,8.6-19.74-.66-6.6-1.09-13.22-1.65-19.84-.2-2.43,1.2-3.17,3.29-3.38A145.28,145.28,0,0,1,370.46,713a4.06,4.06,0,0,1,3.14,2c4.66,7,6,15,7.4,24-4.15-3.81-4-8.44-5.78-12.15-1.1-2.25-1.12-6-5-4.56-3.18,1.19-6.53,2.8-4.13,7.7,2.1,4.27,2.31,9.11,2.36,13.91-2.6-5.69-5.8-11.08-7.18-17.29-.52-2.35-.57-6.09-4.38-5.51-3.35.51-6.23,2.32-5.17,6.69-2.67,2-6.29.79-9,2.72-1.16-2.7-2.27-5.44-3.52-8.1-.47-1-1.16-2.23-2.62-1.73-1.73.59-1.44,1.94-.9,3.27,3.56,8.88,5.53,18.41,10.68,26.65s8.22,8.44,14.91,1.65c7,6.92,8.9,6.93,15.26-.36.91-1.05,1.65-1.47,2.88-1.23,4.54.88,7.14-1.69,9.22-5.18.14.11.28.22.43.32,2.15,4.65,5.62,8.51,7.81,13.13-1.3,2.09-6.3,2.49-4.56,5.3,2.06,3.32,4.67-1.35,7.27-1.5,1.17,8.68,2.34,17.36.17,26.06-1.06,3.44-3.91,5.61-5.94,8.35-1.29,1.73-3.25,3.47-2.36,5.72,1.07,2.66,4,1.65,6.16,2.06A7.49,7.49,0,0,0,399.64,804.7Z"/><path class="cls-11" d="M528.93,908.38c.43-4.83-.67-6.46-4.66-6.28-12.31.54-21.92-5.49-30.61-13.43-.84-.77-1.85-1.61-1.07-3s2-1,3.1-.63a26.11,26.11,0,0,0,10.78,1.41,3.92,3.92,0,0,0,3.79-3.24c6.61-22.78,14.51-45.16,20.51-68.15,6.79-26.05,13.5-52.11,18.34-78.62a3.48,3.48,0,0,1,1.61-2.9c1.81,10.69,3.47,21.14,5.34,31.54q6.93,38.75,14,77.44c.33,1.79.86,3.33-.37,5.18-12.69,19.07-24.05,39-38,57.27C531.17,905.77,530.52,906.48,528.93,908.38Z"/><path class="cls-11" d="M480.55,610.48c14.2.34,23,8.92,30.38,19.65A84.66,84.66,0,0,1,516.8,641c.7,1.43,1.26,2.9-1.58,3.5A74.34,74.34,0,0,0,486,658.31c-2.48,1.86-3.45,2-4.45-1a22.26,22.26,0,0,0-1.75-3.57c-3-5.51-5.18-6.17-10.74-3.48C448.51,660.19,428,670,407.51,680c-9.31,4.56-18.45,9.5-27.54,14.5-2.39,1.31-3.07,1.76-4.43-1.37-1.85-4.25-.7-7.05,1.94-10.15,16.62-19.55,34.34-38,55.13-53.16,13-9.44,27.28-16.64,43.51-19C477.58,610.61,479.07,610.59,480.55,610.48Z"/><path class="cls-11" d="M546.62,638.35c0,2.4-.18,5.58,0,8.73.21,2.92-1.88,4.24-3.66,5.52-2.1,1.5-2.39-1.57-3.77-2.07-8.45-3.1-10.13-11.19-13.46-18.09-4.6-9.53-10.81-17.61-20.2-23-21.21-12.22-41.86-9.47-62.64,1.42-11.86,6.22-22.26,14.26-32.37,22.84-1.11.94-2.21,4.06-4,1.36-1.22-1.81-2.33-4.41.56-6.59,9.4-7.12,18.58-14.53,28-21.63,13-9.8,26.45-18.91,41.38-25.52,10.55-4.67,21.45-8,33.3-6.64,13.25,1.49,22,8.88,28,20.35C544.73,608.39,545.13,623.07,546.62,638.35Z"/><path class="cls-11" d="M319,915.53c5.89-6.73,11.76-13.47,17-20.71-1.41,9.42-1.14,18.92-1.32,28.39-.05,2.55,1,4,3.89,3.87s5.93.35,8.94.21c5.25-.24,9.24-1.42,9.29-7.77,0-2.36,1.26-1.95,3-1.18,16.86,7.43,16.88,9.83,33.38,9.44-.35,3-2.43,5-4.08,7.08-3.26,4.22-2.9,6.08,1.71,8.42.88.44,1.73,1,2.57,1.49,7,4.46,10.4,3.86,15.6-2.41,1.64-2,2.94-4.41,5.84-5.81,2.25,8,8,13.59,13.75,20.42-4.33.26-7.6.66-10.86.61q-51.84-.84-103.67.59c-4.23.11-5.15-1-3.95-5.1,3-10.35,5.67-20.81,8.28-31.27C318.86,919.81,320.07,917.74,319,915.53Z"/><path class="cls-11" d="M526.87,911.3l-31.33,43.84a5.17,5.17,0,0,1-4.57,2.48q-9.23-.17-18.44,0c-2.16,0-3.29-1.29-4.51-2.66-7-7.92-12.13-16.82-14.47-27.22a35.38,35.38,0,0,0-1.54-4c6.77,2.42,13,4.44,19,6.85,4.45,1.77,6.46,1.16,7.93-3.25.26-.79.36-1.63.66-2.4,1.05-2.77,1.45-6.33,3.43-8s4.92,1.31,7.61,1.75a37.58,37.58,0,0,0,13.87-.29A108.41,108.41,0,0,0,526.87,911.3Z"/><path class="cls-18" d="M364.06,602.07c11.35-.86,11.26-.88,14-11.56,1.14-4.5,2.73-8.88,4.13-13.36,2.35.53,2.27,2.47,2.65,3.9q8.08,30.12,16,60.28c.39,1.46.74,2.7-.58,4.09-6,6.23-11.78,12.59-18.3,19.6C375.91,643.73,370,623.05,364.06,602.07Z"/><path class="cls-11" d="M338.13,892.64c7.17-1.89,14.61-1.77,21.88-2.94,8.65-1.38,17.33-2.62,26-3.93-.36,1.78-.84,3.54-1.08,5.33-.55,4-.08,6.39,5.12,7.6,5.43,1.27,10.06,5.53,15.64,7.27.84.27,1.1,1.08,1,2-.73,5-7.62,11-12.87,11.44-13.62,1.13-24.29-5.11-33.53-14a8.91,8.91,0,0,0-8.46-2.64c-3.17.58-2.46,3.91-2.81,6.25-.48,3.12-.77,6.26-1.1,9.4-.24,2.36-1.7,2.93-3.81,2.93-2.33,0-2.72-1.43-2.75-3.27-.15-7.31-.32-14.62-.43-21.94C340.85,894.2,340.8,892.43,338.13,892.64Z"/><path class="cls-11" d="M387.84,878.3c-3.81-2-7.47,0-11.13.58-10.4,1.58-20.76,3.42-32,5.29,16-21.3,33.82-40.27,49-61.69.33,6.68.61,13.37,1,20,.13,2.06-.69,4.35,1.12,6.13Z"/><path class="cls-11" d="M452.67,957.43c-9.71.51-15.41-6.36-21.12-12.34a86.85,86.85,0,0,1-12.2-15.59c-2.23-3.76-8.16-3.83-11.09-.44-2.49,2.89-4.82,5.91-7.27,8.83-.95,1.13-2,2.55-3.7,1.18s-.11-2.32.53-3.4c4.72-8,9.61-15.93,13.34-24.47.83-1.88,1.53-2.51,3.68-1.69,10,3.79,20.08,7.39,30.13,11.06a4.1,4.1,0,0,1,3,3.59,73.2,73.2,0,0,0,10.5,30.69c.94,1.52.72,2.54-1.3,2.58C455.66,957.46,454.16,957.43,452.67,957.43Z"/><path class="cls-11" d="M355.19,589.88c3.92,15.52,7.73,30.6,11.56,45.67,2.65,10.44,5.29,20.89,8,31.31,2,7.57,2,7.55-3.72,14.2-5.35-13.18-10.74-26.19-15.93-39.28-4.22-10.63-8.17-21.36-12.3-32-.8-2.06-.87-3.12,1.5-4.64,3.83-2.45,4.9-7.33,7.46-11C352.7,592.82,352.91,591,355.19,589.88Z"/><path class="cls-11" d="M603.85,615.69c-.18,6.36.13,12.8-2.9,18.72-.31-4.2,2.3-8.45,1.25-12.2-.87-3.13-5.88-3.46-8.32-6.34-2.24-2.63-4.62-7.92-9-4.36-3.59,2.94,2.13,5.22,2.67,8.2.39,2.09,1.52,4,2.11,6.1a3.22,3.22,0,0,1-1.28,4,3.29,3.29,0,0,1-4.15-.49,48.9,48.9,0,0,1-7.76-7.73c-1-1.36-2.32-2.72-4.19-1.51s-.48,2.75-.07,4c1,3,2.58,5.78,2.8,9,.12,1.69.22,3.39-1.75,4.22s-3.18-.08-4.3-1.51c-3.24-4.14-6.12-8.43-10.51-11.8-2.06-1.59-1.19-6.65-2.34-9.89-1.84-5.21.08-7.19,5-9a85.92,85.92,0,0,1,25.71-5.42,5.71,5.71,0,0,1,4.82,2c3.7,3.81,7.77,7.33,10,12.35A2.63,2.63,0,0,0,603.85,615.69Z"/><path class="cls-11" d="M542.21,700.68c-.8,10.66-2.8,20.75-4.68,30.84-6.75,36.13-15.8,71.72-26.12,107-3.54,12.11-7,24.25-10.32,36.43-.7,2.56-1.56,4-4.35,3.13-3.17-1-1.15-3-.74-4.43q13.47-47.46,27.07-94.88c6.43-22.6,11.26-45.51,13.1-69C536.47,706.05,536.28,701.89,542.21,700.68Z"/><path class="cls-11" d="M764.88,785.43c-.34,4-.91,8-1,11.93,0,3.13-1.65,4.54-4.29,5.2-9.29,2.34-18.7,4.05-28.17,5.55-3,.47-3.58-.3-3.31-2.94.56-5.45,1.19-10.91,1.48-16.37.14-2.55,1.27-3.27,3.55-3.75,9-1.92,18.1-3.78,27-6.22,4.46-1.23,5.85-.38,4.89,4.12a18.43,18.43,0,0,0-.22,2.48Z"/><path class="cls-11" d="M664.14,740.71c4.13-.21,11.93-.38,19.68-1.09,3.94-.37,4.62,1,3.95,4.41-.49,2.44-.69,4.93-1,7.39-1,7.66-1,8-8.57,8-9.43,0-18.86-.65-28.3-.91-2.63-.07-3.6-1.18-3.14-3.71a16.49,16.49,0,0,0,.14-2C647.66,740.22,647.66,740.22,664.14,740.71Z"/><path class="cls-11" d="M662.55,790.85c5.14,0,10.29.15,15.43-.06,2.89-.11,3.42,1.12,3.06,3.58-.69,4.76-1.38,9.53-1.85,14.32-.26,2.63-1.89,2.71-3.84,2.7a207,207,0,0,1-30.13-2.74c-2.21-.34-2.73-1.56-2.59-3.44.33-4.3.75-8.6,1-12.92.14-2.55,1.77-2.34,3.49-2.22l15.42,1Z"/><path class="cls-11" d="M524,677.62c-3.73-2.69-5.12-6-7.33-8.64-1.34-1.59-2.46-4.63-5.45-2.89-2.78,1.62-1.17,4.21-.55,6.25.77,2.53,2.17,4.86,3.12,7.34.79,2.07,2.55,4.46-.35,6.18s-4.06-1-5.31-2.83c-1.68-2.47-3.25-5-4.8-7.58-3.27-5.39-5.81-6.68-11.47-4.27-4.18,1.77-3.81-1.82-5.15-3.41-1.79-2.11-.72-3.64,1.3-4.78,8.1-4.58,16.37-8.81,25.28-11.59,5.72-1.79,6.39-1.32,7.8,4.43A92.94,92.94,0,0,1,524,677.62Z"/><path class="cls-11" d="M770.23,724.56c-.48,5.82-1,10.43-1.2,15.05-.18,4-3.86,4.42-6,4.89-9.14,2-17.69,6.19-27.21,6.84-2.82.19-3.15-.35-3-2.59.33-4.13.68-8.27,1-12.4a3,3,0,0,1,2.59-3.1C747.47,730.49,758.45,727.61,770.23,724.56Z"/><path class="cls-11" d="M670.86,716c5.47,0,10.95.11,16.42,0,3-.09,4.1.78,3.76,4-1.17,11-1.32,11.26-13,11.62-8.06.26-16.13.43-24.18.9-4.11.25-5.45-1-5.09-5.3.93-11.17.72-11.15,11.64-10.61,3.47.17,7,0,10.44,0Z"/><path class="cls-11" d="M700.66,811.57c-12.28-.14-11.14,2.44-10.37-9.71.24-3.76,0-8.14,1.9-11.05,2.07-3.26,6.81-.87,10.34-1.53,4.22-.8,8.51-1.22,12.77-1.81,2.88-.41,3.85.83,3.48,3.66-.69,5.25-1.35,10.52-1.74,15.8-.21,2.73-1.42,3.76-4,3.87C708.41,811,703.81,811.37,700.66,811.57Z"/><path class="cls-11" d="M663.47,782.68c-5.3-.29-10.6-.66-15.91-.83-2.21-.08-2.94-1.08-2.78-3.1.3-3.63.51-7.28.9-10.9s3.27-2.21,5.05-2.05q12.4,1.13,24.84,1.08c9.18,0,8.92-.09,7.91,9.26-.52,4.75-2,6.78-7.1,6.06-4.22-.6-8.6-.12-12.91-.12Z"/><path class="cls-11" d="M724.8,738.51c-.91,16-1.5,16.65-17.19,18-3.29.28-6.63.1-9.83,1.19-2.44.83-2.88-.57-2.69-2.6.44-4.46.88-8.91,1.26-13.38.18-2.13,1-3.11,3.37-3.35,7.23-.75,14.48-1.5,21.6-2.88C725.06,734.74,725.34,736,724.8,738.51Z"/><path class="cls-11" d="M669.31,833.42l-25.43-3c-2.28-.28-3.32-1.23-3.37-3.84-.19-11.17,0-11.34,10.69-10q11.34,1.45,22.74,2.47c2.92.26,4.2,1.22,3.43,4.28a31.37,31.37,0,0,0-.5,4.46C676.28,833.63,676.28,833.63,669.31,833.42Z"/><path class="cls-11" d="M859.26,642c-.89,8.18-1.65,15.08-2.39,22a7.86,7.86,0,0,1-2.26,4.32c-5.82,6.71-13.26,11.43-20.32,16.62-2.23,1.63-3.31,1.15-3.31-1.61,0-3.81,0-7.63,0-11.45a4.47,4.47,0,0,1,2-3.82C843,661.32,850.64,652.16,859.26,642Z"/><path class="cls-11" d="M762.12,818.09c.9,4.1-1,6.64-6,8A263,263,0,0,1,729.49,832c-3.3.52-4.13-.46-3.84-3.62.9-9.8.84-9.71,10.5-11.64,6.48-1.29,13-2.72,19.33-4.46C762.59,810.31,762.54,810.13,762.12,818.09Z"/><path class="cls-11" d="M767.05,759.42c-.64,7.7-.65,7.66-8.85,9.79-7.87,2-15.56,4.75-23.68,5.88-3.11.43-3.86-.62-3.51-3.4.26-2.14.46-4.29.53-6.45.09-2.85,1.58-4.26,4.3-4.45,9-.61,17.21-4.39,26-5.76C767.61,754.15,767.53,753.58,767.05,759.42Z"/><path class="cls-11" d="M735,720a29.72,29.72,0,0,0,.41-4.12c-.29-4.38,1.4-6,6-6.83,8.77-1.62,17.32-4.47,25.89-7.05,5.54-1.68,5.47-1.87,4.81,4.17a37.23,37.23,0,0,0-.36,4.47c0,2.72-2,4-3.93,4.55-9.31,2.66-18.74,4.88-28.05,7.53C735.89,723.87,734.28,723.1,735,720Z"/><path class="cls-11" d="M792.66,768.6l5.37-2.13c.6-.28,1.26-.36,1.87-.59,1.67-.63,3.5-1.75,5-.16s.23,3.35-.45,5c-1.5,3.65-1.86,7.62-3,11.38-.55,1.74-.79,3.53-2.55,4.55-5.31,3.51-11.31,5.57-17,8.18-2.18.45-4.3,1-5.05-2.16-1.54-6.49,4-19,9.84-22C788.52,769.66,790.71,769.47,792.66,768.6Z"/><path class="cls-11" d="M633.31,731.33c-4.72.59-9.71-1.15-14.84-1.39-2.05-.1-3.05-1-2.86-3.13,0-.5,0-1,.06-1.49,1.47-14.32-2.44-12.31,12.82-10.73a101.38,101.38,0,0,0,10.42.75c3.47,0,4.32,1.57,3.63,4.65a34.44,34.44,0,0,0-.57,3.93C641.18,731.26,641.19,731.26,633.31,731.33Z"/><path class="cls-11" d="M618.25,737.68c5.84,1.37,11.82,1.6,17.77,2,3,.2,4.16,1.35,3.62,4.4a98.29,98.29,0,0,0-1.3,10.39c-.19,2.74-1.58,3.39-4,3l-17.69-2.93c-.17,0-.38,0-.49-.09-5.05-4.45-.6-9.81-1.35-14.7C614.47,737.19,616.49,737.39,618.25,737.68Z"/><path class="cls-11" d="M697.9,725.7c.26-2.8.58-4.45.54-6.1-.09-3.63,1.56-4.58,5.13-4.8a191.83,191.83,0,0,0,21.08-2.67c3-.54,3.54.39,3.17,2.93-1.7,11.37.79,9.77-10.87,11.93-4.53.84-9.24.89-13.71,1.94C699,729.91,697.06,729.26,697.9,725.7Z"/><path class="cls-11" d="M697.42,780.7c-4.3,1.36-4.82-1-4.48-5.27.78-9.66.59-9.5,10.53-9.8A137.46,137.46,0,0,0,718.3,764c2.75-.39,3.47.56,3.26,3.23-.82,10.74-.76,10.79-12.09,12.34C705.69,780.09,701.86,780.29,697.42,780.7Z"/><path class="cls-11" d="M637,767c-.24,2.22-.36,3.87-.61,5.51-1.33,8.77-1.39,9-10.35,6.74-3.51-.87-7.2-.62-10.58-2.25-2.45-1.18-3.29-2.62-3.1-5.37.78-11.68.69-11.68,12.24-9.49a75.84,75.84,0,0,0,9.26,1.65C636.6,763.94,637.36,765.07,637,767Z"/><path class="cls-11" d="M392.82,585.48q11.93,11.22,23.84,22.46c1,.91,1.17,1.82,0,2.92-4.47,4.11-8.86,8.32-13.75,12.94-3.84-12.95-7.5-25.26-11.15-37.57Z"/><path class="cls-11" d="M809.46,699.66c-9.4,3-18.11,7.83-27.61,10.56-2.21.63-3.13.14-3-2.23a47.72,47.72,0,0,0,.11-6c-.17-2.9.93-4.47,3.81-5.48a154.14,154.14,0,0,0,25.94-12.11c1.26,3.42.29,6.77-.58,10C807.59,696.59,807.55,698.29,809.46,699.66Z"/><path class="cls-19" d="M310.46,564.13c12.07,4.49,23.32,10.39,34.74,15.91.72.34,2.21.6,1.89,1.17a57.84,57.84,0,0,1-6.27,10c-1.47,1.72-3.69,0-5.35-1.07a91,91,0,0,1-25-23.85A1.66,1.66,0,0,1,310.46,564.13Z"/><path class="cls-11" d="M611,793.4c.42-9.15.43-9.15,8.74-7.32,2.25.5,4.52,1,6.74,1.63,2.55.75,6.84-.83,7.41,2.26.89,4.81-.08,9.94-1.44,14.74-.41,1.42-2.35,1-3.6.66-5.15-1.2-10.33-2.35-15.41-3.84S612,795.82,611,793.4Z"/><path class="cls-11" d="M701.68,834.41c-4.11,0-8.21-.13-12.31.06-1.93.09-2.36-.69-2.2-2.28.32-3.3.71-6.59,1-9.89.2-2.14,1.73-2.1,3.26-2.13,7-.16,13.94-.34,20.91-.48.64,0,1.64,0,1.86.31,1.86,3.09.68,6.45.53,9.69-.08,1.84-.79,3.06-3.2,3.53C708.26,833.86,704.92,833.69,701.68,834.41Z"/><path class="cls-11" d="M235.17,653.89c-.27-7,1.05-13.66,1.76-20.38.18-1.74,1.32-2.42,3-2.72,5.67-1,11.3-2.14,16.62-4.46.7-.3,1.49-1,2.24-.31s.23,1.85,0,2.77c-2.17,8-8.12,13.41-13.7,19C242.39,650.41,240,654,235.17,653.89Z"/><path class="cls-11" d="M802.62,712.62c5.48-1,9.73-4.66,14.74-6.69,3.34-1.34,4.28-1.27,4.32,3,.05,8-3.52,12.33-10.6,15.69-3.82,1.82-8.27,3-11.47,6.14-4.39.39-5.18-.21-4.56-4.19C795.9,721.05,798.17,716.22,802.62,712.62Z"/><path class="cls-11" d="M802.62,712.62a46,46,0,0,0-6.57,15c-1,3.54,2,2.51,3.56,3.09-6.16,2.41-12.35,4.73-18.47,7.24-2.63,1.08-3.74.47-3.54-2.38,0-.33,0-.67,0-1,.09-12.89,0-13.06,14.64-17.79C795.85,715.65,799,713.63,802.62,712.62Z"/><path class="cls-11" d="M609.27,817.69c.7-10.1.71-10.11,10-7.72,1.29.33,2.5.92,3.78,1.27,9.88,2.63,9.88,2.74,7.8,13.17-.49,2.43-1.52,2.94-3.76,2.49-5.32-1.07-10.4-3.11-15.83-3.82C607.45,822.59,609.68,819.43,609.27,817.69Z"/><path class="cls-11" d="M794.65,743.68l12.44-6.08c.95-.74,2.26-.24,3.23-1s2.06-2,3.44-1,1.24,2.61.93,4.08c-.89,4.21-2.18,8.25-5.79,11.06l-2.15,2a110,110,0,0,1-14.09,6.14c-4.44,1.74-7-.67-5.67-5.24C788.21,749.41,789,744.56,794.65,743.68Z"/><path class="cls-11" d="M850.69,711.82c3.74,13.81-7.41,18.09-14.71,24.79-.6.55-1.47.82-2,1.4-1.27,1.28-2.91,2.19-4.44,1.36-1.21-.65-.36-2.45-.42-3.73-.3-6.1.9-10.73,7.39-14C841.46,719.18,845.9,715.14,850.69,711.82Z"/><path class="cls-11" d="M798.88,786.66c1-4.42,2.08-8.83,3-13.28.26-1.32.41-2.56,1.41-3.55s2-2.16,1.21-3.44-2.38-.57-3.59-.2c-1,.29-1.84.73-2.84.29,5.16-2.87,10.85-4.31,16.4-6.15,2.52-.84,3,.09,2.83,2.18-.25,4.15-.55,8.29-.74,12.45a3.77,3.77,0,0,1-2,3.24C809.25,781,804.62,784.83,798.88,786.66Z"/><path class="cls-11" d="M830.36,712.74c0-3.91,0-6.89,0-9.86.06-5.18,4.92-5.82,8-8,4.15-3,8.88-5.06,12.53-8.79a3.2,3.2,0,0,1,2.63-.9c1.11.34.54,1.67.56,2.6.11,4.36-.93,8.1-4.74,10.88C843.19,703.17,837.69,708.48,830.36,712.74Z"/><path class="cls-11" d="M848.4,740.9c1,15.26-12.24,19.05-19.35,27.44l-1.34-.4c.19-4.35.35-8.7.59-13.05.09-1.7,1.39-2.65,2.65-3.43C836.53,748,842.17,744.66,848.4,740.9Z"/><path class="cls-11" d="M809.46,699.66c-1.35-.5-3,.62-4.36-.9,2.57-4.35,2.56-9.48,3.64-14.34l15.8-9.53c-.46,5.79-.62,10.51-1.29,15.16-.43,3-3.47,3.79-5.66,5.14C815,696.8,811.7,697.3,809.46,699.66Z"/><path class="cls-11" d="M791,800.52a109.38,109.38,0,0,0,21.22-10.07c1-.65,2.09-1.14,2.83.44,1,2.13-.46,10.1-2.38,11.12-7.52,4-14.65,8.82-22.77,11.66-.87-2.11,1.19-3.27,1.61-5C792.25,805.92,794.15,803.07,791,800.52Z"/><path class="cls-11" d="M791,800.52c1.57.27,3.52-.55,3,2.75-.59,3.9-1.53,7.41-4.11,10.4-5.3,3-11,5-17.38,7,.25-4.08.51-7.69.68-11.31a3.35,3.35,0,0,1,3.15-3.31C781.69,805.26,786.17,802.38,791,800.52Z"/><path class="cls-11" d="M490.77,891.79c5.5,7.06,11.91,11.37,19.8,15.37-8,2.43-14.88,3.18-22,1.61-2.2-.48-3.17-1.24-2.2-3.75C487.93,901.05,489.1,896.93,490.77,891.79Z"/><path class="cls-11" d="M794.65,743.68c-1.11,1.55-3.81,1.3-4.15,3.74-.51,3.63-4.67,7.5-1.88,10.52,2.62,2.83,6.27-1.19,9.44-2.1,2.94-.83,5.55-2.76,8.69-3.17-3.79,4.12-9.41,4.43-14.1,6.66-3.81,1.82-8.1,2.64-12.19,3.87-3.07.92-4.53.25-4.4-3.45.33-9.22.17-9.25,9.09-12.3C788.38,746.35,790.83,743.28,794.65,743.68Z"/><path class="cls-20" d="M399.8,788.75c-.95.23-1.85.78-1.48-1.11,1.26-6.54,2.94-13.11-.2-19.64-1-2.09.41-3.71,1.51-5.31L404,760.4c1.32-.35,2.49-.49,3.57.75,3.08,3.55,3.82,11,1.41,15.22Z"/><path class="cls-11" d="M409,776.37c1.85-5.55-.92-14.44-5-16l19.78-11.24C423.19,761.17,414.76,768.05,409,776.37Z"/><path class="cls-11" d="M846,767.32c.17,13.81-11.79,16.84-18.29,24.84-2-8-1.34-9.66,4-13.7C836.19,775.07,840.57,771.53,846,767.32Z"/><path class="cls-11" d="M136.69,649.59c.24-1.2.5-3.18,1.05-5.07,1.57-5.43,1.77-5.44,6.83-2.74a6.78,6.78,0,0,0,3.31.83c4.15-.17,4.28,1.43,1.89,4.1a38.07,38.07,0,0,1-4.65,4.42c-2.61,2.07-6.63,3.43-2.81,7.85.7.8,0,2-.84,2.55-1.21.79-1.73-.27-2.21-1.14C137.52,657.28,137,653.86,136.69,649.59Z"/><path class="cls-21" d="M396.92,758.89c-3.8-3.66-7.61-7.32-7.81-13.13,1.41-1.66.25-3.88,1.47-6.12,5.33,3.1,7.88,8.52,11.23,13.14,1.11,1.53-1.33,2.37-1.68,3.74Z"/><path class="cls-11" d="M792.66,768.6a4.56,4.56,0,0,1-1,.93c-3.07,1.43-7.05,1.63-8.69,5.08a49.53,49.53,0,0,0-5.11,17.32c-.28,3.39,2.48,2.24,4,2.91-8,3.19-7.94,3.19-7.27-5.26.05-.66,0-1.33.11-2,.71-4.34-1.62-10.71,1.74-12.68C781.23,772.11,786.55,768.86,792.66,768.6Z"/><path class="cls-11" d="M808.9,750.7c1.47-4.8,5.35-8.84,4.57-14.63-2.38-.29-3.93,2.85-6.38,1.53,3.14-1.75,6.16-3.54,9.79-4.43,2.79-.67,2.8.27,2.6,2.26-.15,1.49-.32,3-.44,4.47C818.39,747.81,817,749.35,808.9,750.7Z"/><path class="cls-11" d="M353.13,731.75a50.62,50.62,0,0,1,2.53,13.94c.12,1.6.77,4.16-1.3,4.7-1.53.41-2.6-1.74-3.42-3.13-2.56-4.4-5.23-8.76-6.77-13.68C346.93,731.87,350.53,734.27,353.13,731.75Z"/><path class="cls-22" d="M404,864.53c1.79-.58,1.81.56,1.9,1.84.29,4.1.12,8.2,2.58,12,1.2,1.86-.05,4.55-2.51,4-2-.4-5.87,5-6.1-1.59Q401.88,872.68,404,864.53Z"/><path class="cls-11" d="M533.67,654a35.84,35.84,0,0,1,9.55,13.27c.94,2.15,1.27,4.76-1.87,5.65-3,.85-4.84-.75-5.35-3.59C535.15,664.71,534.56,660,533.67,654Z"/><path class="cls-11" d="M596.8,659.45q-1.35,14.55-2.71,29.1a79.21,79.21,0,0,0-2.94-21C589.73,662.55,594.2,661.63,596.8,659.45Z"/><path class="cls-23" d="M353.13,731.75c0,2.49-1.43,3.08-3.57,2.75-1.8-.28-3.59-.61-5.39-.92l-1.4-3.11c-.06-2.52,1.53-2.91,3.56-2.83,1.81.08,3.61.08,5.42.11Z"/><path class="cls-11" d="M500.58,684.28a3.88,3.88,0,0,1-2.37,3.05c-1.44.81-2-.33-2.54-1.41-1.3-2.66-2.59-5.32-4-7.94a1.84,1.84,0,0,1,.34-2.6,1.28,1.28,0,0,1,1.78,0C496.62,678,498.59,681.17,500.58,684.28Z"/><path class="cls-11" d="M559.15,639.64c-.42-3.13-1.08-5.81-.25-8.67C564.08,635.18,564.21,636.83,559.15,639.64Z"/><path class="cls-24" d="M604.69,609.78c.08,2,1,4.08-.8,5.81C604.06,613.64,603.24,611.55,604.69,609.78Z"/><path class="cls-11" d="M624.69,606.51c1.67-13.84,2.34-27.77,3.36-41.67,1.11-15.25,2.08-30.55,4-45.71,3.88-30.35,9.5-60.41,16-90.31,1.55-7.13,2.66-14.38,3.7-21.61.53-3.68,1.91-5,5.85-4.57,13.69,1.54,27.39,3.27,41.13,3.88,17.58.78,35,3.1,52.54,4.17,3.21.2,3.49,1.09,2.79,3.91q-8.93,36.25-17.62,72.58c-9.22,38.78-18.14,77.63-27.54,116.36-5.66,23.26-10.35,46.72-15.08,70.18-.48,2.39-1.25,4.74-1.93,7.09-.75,2.56-3,2.83-4.85,2.25-8-2.48-16.18-.7-24.25-1.47-14-1.34-28.08-1.93-42.12-3-3.29-.24-5.52-1.46-4.92-5.68,1.26-8.85,2.43-17.75,3.35-26.62.78-7.52,1-15.08,2.77-22.48.19-.81.49-1.58.73-2.37l.62.35c1.72,3.07.44,6.13,0,9.19-.31,2.11-1.09,4.16-.83,6.35,9.89-.36,14.55-18.54,5-33.61-.61,1-.62,2.19-1.43,2.85A1.07,1.07,0,0,1,624.69,606.51Z"/><path class="cls-17" d="M799.7,69.69c-6.57,0-13.5-1.81-20.42-3.32-5.69-1.25-6.81-3.77-5.94-9.48,1.27-8.36,2.42-16.73,3.61-25.1.36-2.55,1-4.81,4.35-3.6,9.17,3.31,18,.76,26.56-2.06,3.45-1.12,4-.55,3.85,2.69-.67,11.94-1.29,23.88-1.78,35.82-.11,2.66-1.42,3.74-3.69,4.54C804.24,69.88,802.28,69.38,799.7,69.69Z"/><path class="cls-17" d="M783.17,17.54c-1.38.18-2.65-.1-2.78-1.48s1.34-1.1,2.22-1.35c6.67-1.9,13.14-4.7,20.32-4.22,1.24.08,3-1,3.44.68.52,2-1.61,2.19-2.89,2.68a51.76,51.76,0,0,1-12.52,3C788.33,17.17,785.62,16.44,783.17,17.54Z"/><path class="cls-25" d="M622.63,621.48c.54-5,.31-10.12,2.06-15l.43.31c2,5.35,1.8,10.41-2,15Z"/><path class="cls-11" d="M212.8,946.81l23,24.69a2.06,2.06,0,0,0-1.85,2c-1.32,9.79-1.48,19.41,2.46,28.83,1.95,4.66,3.22,9.6,6.94,13.59-3.91,1.7-6.4-.6-8.35-2-13.29-9.86-24-21.49-25-39.29-.22-4-5.84-6.78-9.37-4.67a30.19,30.19,0,0,0-6.82,5c-3,3.24-4.67,1.3-6.77-.91-3-3.11,0-4.34,1.75-5.8,7-5.87,14.05-11.65,21.07-17.48C211.12,949.6,212.55,948.65,212.8,946.81Z"/><path class="cls-11" d="M25,992.49c15.83.1,19.43-3.54,19.06-19.29,0-1.33,0-2.67-.1-4-.23-2.85-.42-5.12,3.84-5,3.87.09,4.34,1.73,4,4.87a191.37,191.37,0,0,1-4.05,25.61c-1.47,6.26-5.45,9.62-11.65,10.66-5.71.95-11.29,2.61-17.24,2.15-2.73-.21-3.54-1-3.92-3.68C13.41,992.39,13.29,992.41,25,992.49Z"/><path class="cls-11" d="M188.14,986.39q-15.16,0-30.35,0c-3.08,0-4.77-.49-3-4.25A104.33,104.33,0,0,0,159.14,970c.92-2.88,2.21-4.55,5.7-3.8,2.22.48,4.63,0,7,.06,3,0,6.21-1.23,5.49,4.64-.48,4,4.59,6.55,7.07,9.82a57.43,57.43,0,0,0,4,4.27Z"/><path class="cls-2" d="M114.93,836.5c6.46-6.65,15.15-9.37,23.28-12.92a203.49,203.49,0,0,1,52-14.63c27.75-4.07,55.62-5.05,83.55-1.61,20.69,2.54,41.14,6.1,60.5,14.2,9.1,3.8,9.19,3.93,6.83,13.22-4.58,18-9.33,36-14,54-9.06,13.06-18.74,25.63-28.68,38-9.32,11.6-18.43,23.37-27.63,35.06-6.69,8.09-16.48,10-25.72,4.91-10.74-10.69-21.44-21.42-32.27-32-2.2-2.15-2.44-3.47-.43-6.13,26-34.48,51.87-69.07,76.51-104.56,1.23-1.77,2.55-3.48,3.85-5.21.67-.88,2.12-1.68,1.3-2.89-.67-1-2.1-.75-3.26-.41-7.68,2.24-14.91,5.59-22.2,8.82-22,9.76-43.6,20.36-66.58,27.83-13.13,4.27-26.06,9-39.89,10.47-7.66.81-15.49,1.28-22.61-2.08C128.64,855.41,120.12,847.58,114.93,836.5Z"/><path class="cls-11" d="M245.08,966.7c5.94.93,11.93.36,17.9.59,4,.15,4.92-4.1,7.82-5.5-3.25,5.94-9.21,9.64-12.69,15.43-1.34,2.23-2.52.28-3.44-.64C251.42,973.33,248.27,970,245.08,966.7Z"/><path class="cls-26" d="M567.17,982.79c.25-16.5,6.65-32.2,18-45.91,9.44-11.36,22.33-17.09,35.59-23.07,13.47-6.07,25.35-2.95,38.47-.52,9.23,1.71,15.35,7.88,23.35,11,2.4.94,3.67,3.72,5.4,5.72,10.87,12.6,15.08,27.18,13,43.55a69.43,69.43,0,0,1-19.53,40c-5.73,5.91-12.43,11.35-20.78,14.58-7.32,2.82-14.13,7.15-21.94,8.74-7.61,1.55-15.22,4.44-23.15,1.09-2.48-1-5.14.66-7.84,0-8.14-2-14.62-6.54-21.21-11.61C572.52,1015.6,568.5,1000.72,567.17,982.79Zm111.52-26.57c-2.2-6.4-2.31-14.07-9.57-17.86a7.36,7.36,0,0,1-2.79-3.42,8.09,8.09,0,0,0-4.62-4.37c-12.09-3.5-24.44-4.24-35.93,1.23-18.83,9-31.39,23.37-36,44.38-4.48,20.53,11.47,43.71,32,45.12,9.31.64,18.43-1,26.54-5.93A69.52,69.52,0,0,0,667.62,998c7.12-9.31,11.52-19.58,12.09-31.61C679.43,963.13,679.79,959.42,678.69,956.22Z"/><path class="cls-11" d="M115.25,1002.88c.1,10.91-5.66,20-14.51,23.6-5.12,2.11-7.14,1.39-11.18-4-6.66-8.81-2.2-27.73,7.92-32.26,2.74-1.23,5.48-5.1,8.35-3.2,4.52,3,8.39,7.14,9.18,13.08C115.16,1001.3,115.22,1002.46,115.25,1002.88Z"/><path class="cls-27" d="M378,636.93c.22-.61.48-1.38.8-2.13,1-2.24-.62-5.67,3-6.66a1.69,1.69,0,0,1,2.22,1.45c.21,3.81,3,7.68,0,11.4-.71.91-2,2.08-3.43,1.28C378.61,641.19,378.35,639.12,378,636.93Z"/><path class="cls-28" d="M372.72,614.3a20.93,20.93,0,0,1,.75-3.36,3,3,0,0,1,2.75-1.83c1.56-.1,1.66,1.2,1.9,2.36a25.5,25.5,0,0,0,.9,2.81c.7,2.22,1.67,4.5-.71,6.32-1,.76-2,2.06-3.45.94C372.85,620,372.58,617.65,372.72,614.3Z"/><path class="cls-29" d="M623.14,621.82c1.45-4.89,1.34-10,2-15l1.16-6.83c12.06,15.75,10.13,36.79-5.61,40C620.38,633.73,623.06,627.93,623.14,621.82Z"/><path class="cls-30" d="M651.89,970.94c0,7.17-7.77,14.91-14.86,14.83-7.81-.09-15.13-5.62-14.87-11.52.33-7.59,5.27-18,15.83-17.77C642.94,956.59,651.9,965.78,651.89,970.94Z"/><path class="cls-31" d="M98.32,1014.62c-5.26,0-7.15-1.8-7.06-6.71.09-5.21,2.76-8.31,7.21-8.37,7.45-.08,10.65,2,10.62,6.75C109.06,1011.69,105.25,1014.63,98.32,1014.62Z"/></svg>