<svg id="Capa_1" data-name="Capa 1" xmlns="http://www.w3.org/2000/svg" viewBox="0 0 156.89 17.69"><defs><style>.cls-1{fill:#dc6544;}.cls-2{fill:#1d1d1b;opacity:0.3;isolation:isolate;}</style></defs><g id="Grupo_39" data-name="Grupo 39"><circle id="Oval" class="cls-1" cx="8.5" cy="8.5" r="8.5"/><path id="Oval_Copy" data-name="Oval Copy" class="cls-1" d="M43.5,0A8.5,8.5,0,1,1,35,8.5,8.51,8.51,0,0,1,43.5,0Z"/><path id="Oval_Copy_2" data-name="Oval Copy 2" class="cls-1" d="M78.39,0a8.85,8.85,0,1,1-8.84,8.84A8.84,8.84,0,0,1,78.39,0Z"/><path id="Oval_Copy_2-2" data-name="Oval Copy 2-2" class="cls-2" d="M113.22,0a8.85,8.85,0,1,1-8.84,8.84A8.84,8.84,0,0,1,113.22,0Z"/><path id="Oval_Copy_2-3" data-name="Oval Copy 2-3" class="cls-2" d="M148.05,0a8.85,8.85,0,1,1-8.84,8.84A8.84,8.84,0,0,1,148.05,0Z"/></g></svg>