<svg id="Capa_1" data-name="Capa 1" xmlns="http://www.w3.org/2000/svg" viewBox="0 0 667.25 1005.78"><defs><style>.cls-1{fill:#020301;}.cls-2{fill:#212960;}.cls-3{fill:#edeae3;}.cls-4{fill:#a27780;}</style></defs><path class="cls-1" d="M497.87,607c3.62.38,3.7,3.22,4.38,5.9,5.77,22.67,11.78,45.27,17.38,68,1.55,6.27,2.23,12.46,10.83,12.55,1.09,0,2.16,2.15,3.25,3.31,3.7,1.93,4.78,5.59,6,9.14-.19,1.13-.75,2.41-1.82,2.45-9.72.35-7.83,6.31-6.16,12.33.73,2.62,1.55,5.23,2.23,7.86,1,4,3.57,5,7.41,4.22,6.92-1.42,13.51-2.9,14.07-12,.24-3.93,3.09-5.5,6.9-5.37a8,8,0,0,1,3.55,1.12c4.54,4.07,3.1,9.56,3.35,14.58.59,11.74.51,11.71,11.89,14a121.45,121.45,0,0,1,12.65,3.23c12.16,3.84,19.68,12.1,22.78,24.47,2,8.1,4.33,16.14,3,26.37,13.46-12.59,18.07-26.27,14.9-42-1.38-6.84-7.51-11.13-13.1-15.09-2.22-1.57-4.72-2.76-6.45-4.93a10.52,10.52,0,0,1-1.65-10.79c1.33-3.54,4.48-4.51,7.92-4.71a67.71,67.71,0,0,1,15.42,1.06c2.82.47,7.39,1.65,7.5-3.45.09-4.38-3.76-4.73-7.16-4.73-10.34,0-20.68.16-30.92-1.7-2.87-.52-6.21-.15-7.11-4.09a4.4,4.4,0,0,1,3-4.18c1.07-3.78,4-3.71,7.13-3.62,13.62.39,27.25.81,40.88.92,5.25.05,7.43,2.19,7.22,7.38a129,129,0,0,1-2.78,22.58c-1,4.51-2.92,7.44-8.11,7.33-4.3-.09-3.84,1.51-2.16,5C658,772.85,641,812.8,610.52,823.81c-2.78,1-6.14,2.78-8.25-.26a11,11,0,0,1-.65-10.94c5.16-10.9,4.77-22,2.6-33.48A14.78,14.78,0,0,0,595,767.61c-8.23-3.61-16.55-7.55-25.69-7.63-6.72-.07-10.4-3.27-11.48-9.14-.77-4.16-2.53-3.74-5.56-3.19-11.94,2.17-14.43,5.18-11.69,16.34,8.76,35.59,18,71.06,26.56,106.7,5.59,23.35,14.07,45.78,21.14,68.64,2.14,6.94.38,9.73-6.22,10.75-4.56.7-9.08,1.74-13.66,2.25-2.94.32-7.25.76-8.44-1.7-4.28-8.8-9.26-3.31-13.1-.66-16.54,11.43-33.37,8.95-50.19,1.53-8-3.52-14.64-9.32-20.88-15.46-1.77-1.75-3.75-3.46-2.45-6.3a5.57,5.57,0,0,1,6-3.36c7.86.94,14.93-2.54,22.36-3.86,11.52-2,16-10.13,16.59-21.49,1.42-25.34-13.3-44.91-22.13-66.55-7-17.15-15.18-33.8-22.42-50.86-2.23-5.26-4.71-5.91-9.89-4.19-26.8,8.9-53.49,18.3-80.71,25.7-16.52,4.49-33.2,10.34-50.89,8.57-5.45-.55-4.9,3.13-5,6.22-.89,34.38-6.28,68.39-8.54,102.63-.95,14.37-6.9,23.93-18.75,31-14.61,8.71-29.88,15.71-46.76,18.5-4.13.69-9.36,1.27-9.76-5.3-.27-4.46-2.46-3.63-5.48-3-8.51,1.83-17,3.6-25.88,2.33-6-.86-11.92-2.49-13.15-8.89s4.67-8.45,9.3-10.83a24.89,24.89,0,0,0,2.67-1.79c-.36-.61-.48-1.17-.8-1.33-4.26-2.16-10.17-3.15-9.87-9.38.33-6.73,6.88-5.78,11.16-7.37,3.82-1.42,8.36-.79,8.89-7.29.29-3.58,5.54-3.82,9.05-4.09,12.61-1,24.92.93,38.3,4.56-2.06-6.72-3.95-13-5.9-19.21-6.72-21.5-10.43-43.43-9.53-66,.15-3.61,1.16-7.27-4.77-6.88-31,2-62.11,2-93.18,2.64-.48,0-.94.41-2,.93,4.12,6.16,2.81,13.31,3.92,20,1.27,7.52-.1,16,2.58,22,2.6,5.88,7.73,12.09,13,17.11,4.51,4.33,5,6.65-1.63,9.7-8.91,4.11-13.36,12.52-16.06,21.66-2.47,8.35-3.06,17.21-6.8,25.2-1.24,2.66.16,3.87,2,5.4,5.38,4.59,7.69,11.14,10.46,17.34,1.85,4.13,1.22,7.55-3.84,8.76-2.17.51-4.65.89-5.23,3.29-1.3,5.36-5.85,6.07-9.57,5.52-5.08-.75-10.33,2-15.22-1-.73-.45-2.67-.35-3,.15-5.07,8.19-14.38,8.17-21.53,8.3a110.31,110.31,0,0,1-33.63-5c-9.32-2.78-13.4-14.34-24.85-12.46-3.77.62-6.23-3.72-8.17-7.14-4.26-7.55-7.77-15.52-14.64-21.45-2.46-2.13-3.79-6-4.79-9.33-9-30.11-4.66-59.26,6.72-87.85a7.51,7.51,0,0,1,1.67-2.77q14.94-13.9,6.71-32.55c-.89-2-1.45-4.27.33-6.13a5.64,5.64,0,0,1,6.85-.89c6.07,3.18,16.29,4.36,18,1.57,3.48-5.83,1.86-14.73-2.07-21-6.6-10.52-8.81-22.18-10.68-33.92a192,192,0,0,1,1.23-66.55c11.94-62.84,44.78-115,84.06-163.7,16-19.81,34.17-37.36,55.45-51.53,1.81-1.2,4.18-2.53,3.84-4.9-1-6.94,4-10.65,8.07-14.14,15.34-13.1,30.57-26,49.61-34.36,13.36-5.88,26.56-11.81,40.49-16.13,5.26,2.75,5.6,8,5.52,12.73-.17,9.34,4.6,14,12.74,17.65,30.3,13.73,61.61,12.66,92.87,6C410.2,437.76,422.6,430,435,423.18c2.6-1.41,4.75-3.73,7.94-4,40.15,27.5,53.43,64.26,39.06,106.39-1.67,2.2-4.16,2.54-6.57,2.48-9-.23-17.68,2.29-26.56,2.91-6.09-.18-6.54-4.76-7-9.19-1.94-19.65-10.63-35.84-25.15-49-22-20-53.22-21.67-77.9-5.93-1.94,1.24-5,2.62-3.45,5.54,1.41,2.67,4.34,1.31,6.67.74a11.72,11.72,0,0,0,3.79-1.51c22.38-15.1,54.91-4.73,71.65,17.75,14,18.81,16.95,39.64,10.21,61.95-2.4,8-8.13,13.46-14.23,18.56-10.3,8.59-12.36,15.54-7.51,28.34,4.25,11.22,10,21.79,14.81,32.77q6.56,15,13.83,29.64c2,4.1,4.19,8.3,4.3,13.09-3.09,11.48-1.12,16,9.53,21.77,1.93,1,3.92,1.91,5.08,3.91,6.79,16.89,15,33.13,22.88,49.52,2,4.19,5.05,5.2,9.36,4,8.89-2.58,17.06-7,25.91-9.75,3.15-1,3.59-3.75,3-6.72-1.66-8.53-4-16.91-6-25.35-.88-3.68-3.77-5-7.12-5.86-3-.78-6.74,0-8.63-3.53,1-4.59,5.29-4.91,8.49-6.6,11.13-5.89,11.85-11.4,2.46-19.31-2.27-1.91-4.74-3.63-5.85-6.58-4.78-16.12-8-32.63-12.37-48.83-.72-2.64-1-5.34.26-8C489.28,609.14,492.48,605.64,497.87,607Z"/><path class="cls-2" d="M443,419.19c-6.46,8.49-16.87,10.34-25.49,15.2-23.63,13.33-49.58,14.87-75.5,12.87-11.93-.92-24.71-2.48-35.63-9.38-2.64-1.67-6.38-1.63-9-3.35-6.13-4.11-10.37-9.46-9.26-17.66a20.46,20.46,0,0,0-2.76-12.55c-6.44-37.05-2.29-74.45-3.06-111.66-.51-24.43,6.21-48.4,15-71.27,6.74-17.51,9.65-35.44,11-54,2.7-37.85.34-75.67.58-113.5,0-4.9.58-9.8.45-14.68-.29-11.84,7-18.65,16.34-23.13a54.64,54.64,0,0,1,35-4.18c7.24,1.47,8.2,7.8,7.75,12.63-.85,9,1.76,17.32,3.63,25.66,6.46,28.67,9.7,57.87,15.13,86.67,7,37.2,17.42,73.61,37.35,106.32,13.42,22,18.73,45.64,20.09,71.22,1.44,27.19.73,54.34,1.42,81.49A70.65,70.65,0,0,1,443,419.19Z"/><path class="cls-1" d="M446.18,529.55c11.71-3.54,23.79-3.68,35.86-4,5.88,1.09,11.73,2.32,17.64,3.22,9.46,1.44,23.73,17.37,24.61,26.92,2.1,22.82-5.59,40.41-26.43,51.31l-11.07,6.06c-4.77,3.2-6.12,7.73-5.9,13.32.65,16.43,3.8,32.66,3.42,50,3.55-9,6.84-10.31,15.64-6.68,1.4,1.16,2.78,2.35,4.21,3.48,13,10.18,12,17.63-3.27,24.39-2.71,1.19-5.49,2.22-8.24,3.33a8,8,0,0,1-6.17,3.43,107.29,107.29,0,0,1-26.62-.21,9.52,9.52,0,0,1-6.83-3.93c-6.31-4-14.53-5.35-17-14.56-1.28-4.76-1.08-8.21,1.92-11.76,3.55-7.13,10.25-9.81,17.3-10.69,6.31-.78,7.42-3.42,6.72-9.11-1.13-9.15-2.21-18.33-2.14-27.61.07-8.13-3-14.44-10.72-18.62-8.44-4.57-13.69-12.21-16.68-21.35-4.45-13.61-6.42-27.42-3.84-41.72C430.38,534.83,435.89,529.84,446.18,529.55Z"/><path class="cls-1" d="M566.51,718.21l-6.08-1.68c-8.62.37-16-1.81-20.59-9.88a16,16,0,0,1-6.13-9.87c.92-9.18,3.52-12.25,16.07-12.9,8.62-.45,10.26-4.48,10.45-11.49.19-7.35.79-14.69,1.28-22,.16-2.44-.73-3.83-2.94-5.17-22.78-13.77-36-46.24-29.38-72.12a16.44,16.44,0,0,1,10.41-11.66c18.38-7.43,37.66-7.93,56.16-3.16,8.59,2.21,17.15,8.82,24,15.94q-5,3.69-10.11,7.39c-10.71-3.05-21.86-2.77-32.79-4.21-5.35-.7-10.86-.16-16.32.34,13,4.88,26.52,2.65,39.87,2.55,3.22,0,6.47-1.26,9.31,1.24-3.05,5.12,1.7,4.1,3.46,3.67,3.35-.81,6.46-2.61,9.67-4,2,7.16,0,14.18-2.33,20.58C613.42,621,601.25,636.32,582,644.86c-3.85,1.71-5.19,4.09-5.91,7.85-1.71,8.93-.76,17.92-1.1,26.89-.14,3.6,1.91,4.72,4.93,5.14,3.53.5,6.68,2,10,3.32,7.82,3,11.57,8.47,12,16.57-.92,1.7-1.83,3.43-2.75,5.15a8.27,8.27,0,0,1-3.39,4.57c-7,4.2-15,4.94-22.83,6.16C570.41,720.79,568.47,719.47,566.51,718.21Z"/><path class="cls-3" d="M251.27,965.78c1-5,4.24-6.8,7.88-8.11,3.07-1.11,6.37-1.69,9.29-3.08,2.47-1.18,7.16-1.2,6.44-4.9s-5-4.87-8.65-4.39c-4.05.52-7,1.49-7.68-4.73-.41-3.47-5.43-4.68-9.68-3.83A60.53,60.53,0,0,1,220.7,936c5.11-2.8,5.93-2.92,16.25-2.32,2.72.15,5.44.44,8.16.46,3.09,0,7.07,1.9,8.8-2,1.56-3.49-2.95-4.69-4.69-8.44,11.31,1.46,22.83-.27,27.56,13.59,1.5,4.41,6.2,4.36,9.88,3.71,4.83-.85,1.19-4,.5-5.47-10.8-23.51-16.79-48.29-19.73-73.87a141.78,141.78,0,0,1-.45-30.2c1.07-10.86.08-12-11.2-13-48.93-4.22-98-4.79-147-4.36-10.72.09-19.44-3.11-26.75-9.48-12.92-11.27-21.68-24.9-24.46-42.8C49.41,709.82,62.25,662,85,616c18.93-38.31,42.49-73.49,72.42-104.16a410.52,410.52,0,0,1,34-30.54c3.49-2.86,5.18-2.34,7.76,1,22.37,29.22,46.87,56.59,72.32,83.15a17.72,17.72,0,0,1,4.81,15c-2.3,19.21-4.57,38.42-6.69,57.64a13.62,13.62,0,0,1-4.1,8.6c-12.69,12.74-27.34,22.62-44.37,28.24-7.36,2.43-15.49,1.65-23.25-.1-4.6-1-9.9-4.1-13,2.06-3.2,6.35,3.18,8.11,6.39,10.52-1.31,6-11.82,5.89-7.93,13.94,1.82,3.78,4.29-.4,7.07-.6a45.68,45.68,0,0,1-17.84,13.52c-2.37,1-6.09,2.87-.35,4.51,3.59,1,1.53,2.41.92,4-2.35,6.35-9.57,11.47-4.19,19.8,1.57,2.43-1.65,3.36-4,3.44-4.9.17-9.84,0-14.7.59-3.13.35-8.32-1.41-8.45,3.78-.11,4.41,4.77,3.63,7.7,4,15.7,1.76,31.41,3.56,47.16,4.77,18.75,1.44,37.54,2.44,56.32,3.31,5,.24,7.44,1.29,8.64,7,2.95,13.9,12.9,23,24.18,30.57,7.44,5,15.38,9.19,24.48,10.48,4.14.59,4.1,3.66,4,6.77-.41,23.45-1,46.9-3.58,70.21-1.67,15.14-1.29,30.49-4.73,45.46-.54,2.37-.18,5-2.24,6.76C288.6,952.73,272.28,963.44,251.27,965.78Z"/><path class="cls-3" d="M277.61,735.64c3.75-52.18,8.09-104.32,9.21-156.66.59-27.9,25.24-44.47,56-39.07,15.13,2.66,26.37,11.06,35.71,22.35a32.17,32.17,0,0,1,7.37,22c-1.19,40.24-15,76.6-34,111.34-4.31,7.86-9.4,15.31-14.07,23-1,1.59-2.23,3.45-.42,5.16a3.78,3.78,0,0,0,5.25,0c11.38-9.74,26-10.71,39.5-14.34,16.1-4.31,32.69-5.77,49.25-7.31,4.71-.43,7.39.88,9.33,5.57,6.85,16.61,14.06,33.07,21.43,49.46,2,4.45,1.82,6.94-3.31,8.42-31.27,9.07-60.77,23.44-92.5,31.16-10.91,2.65-22,3.27-33.18,3.42-5.13.07-6.58-2-6.77-6.68-.67-16.44-9-27.95-23.08-36-5.65-3.26-12-4.16-17.95-4.85-8.05-.95-9.55-4.39-8.15-11.19A43.23,43.23,0,0,0,277.61,735.64Z"/><path class="cls-3" d="M446.18,529.55c-14,5.54-17.41,9.67-16.58,24.53.87,15.53,1.78,30.81,11.63,44,3.56,4.76,8.2,7.77,13.27,10.35,4.2,2.13,6.47,5,6.8,10.05.9,13.79,2.37,27.55,3.75,41.31.34,3.35-.44,5.34-4.18,5.16-9-.43-15.92,4.34-22.93,8.94-11.48-25.3-22.79-50.67-34.56-75.83-3.26-7-1.14-13.93-1.79-20.87-.2-2.16,1.79-3.12,3.38-4.23,22.38-15.63,29.7-38.13,20.82-63.85-9.92-28.7-36.17-45.66-64.22-41.55a34,34,0,0,0-13.51,5.36,29.46,29.46,0,0,1-8.26,3.25c-3.14.83-6.91,1.75-8.31-2.49-1.27-3.87,1.7-5.34,4.64-7.37,45.78-31.64,101.36,2.2,107.49,51.59C444.11,521.82,443.1,526.15,446.18,529.55Z"/><path class="cls-3" d="M67.29,808.56c11,9.14,20.4,17.41,32.54,21.35,2,.66,4.37,1.5,6.31,1.09,5.52-1.18,7.73-.29,7.41,6.24-.26,5.56,7.29,7.94,12.39,4.35,2.88-2,5.38-4.58,9-5.44,9.13-2.18,15.8,4.77,13.36,13.82-.65,2.38-2.13,2.72-4.14,3a18.41,18.41,0,0,0-11.58,7.09c-1.31,1.62-3.37,3.5-1.53,5.7s4.41,1.53,6.7.22c1.88-1.08,3.63-2.63,5.65-3.16,2.66-.71,6.35-2.24,6.86,2.62.33,3.19,2,7.39-4.14,7.42-5,0-8.18,2.86-8.9,7.85-.6,4.18,2.68,5.7,5.78,6.81,2.51.9,5.3,1,4.48-3.07-1.18-5.93,2.35-5,5.68-3.94,5,1.6,7.29,6.34,10.4,10,1.53,1.8-.72,2.74-2,3.55a38.75,38.75,0,0,0-16.83,21.4c-1.59,5-3.75,4.63-7.73,2.64-6-3-10.83-7.25-15.59-11.74-1.67-1.57-3.63-3-5.65-1-1.72,1.68-.29,3.55.75,5.13,5,7.68,11.19,14.21,20.34,16.66,3.06.82,4.44,1.65,3.54,4.76-1.25,4.33-1,9.72-5.55,12.05-2,1-3.13-2.52-4.21-4.24-3.51-5.57-8.32-8-14.48-5.39-3.78,1.61-5.66,0-7.52-2.53C105.07,927,102.21,921.5,98,917.36c-6.06-6-11.68-11.9-15.73-19.63-1.86-3.56-4-6.18-2.38-10.21.76-1.92,1-3.84-1.28-4.85-1.93-.85-3.66-.23-5.17,1.27a86.7,86.7,0,0,1-7.17,6.67c-2.83,2.21-6.1,2.15-7.44-1.42-2.08-5.57.3-10.73,3.18-15.45,2.48-4,6.5-5.14,10.72-3.53,6.94,2.65,11.45,1.39,13.55-6.33,1.18-4.34,4.78-7.22,7.93-10.2,2.09-2,6-3.19,4.2-6.84s-5.74-2-8.89-2.28-5.34,5.78-8.32,1.79c-2.35-3.13.31-6.7,2-9.85,3.42-6.39-1.82-7.63-5.76-10.06C71.56,822.8,66.53,818.32,67.29,808.56Z"/><path class="cls-3" d="M545.59,875.7c-9.9.87-15.94-3.64-20.33-14.13-11.44-27.35-24.43-54.05-36.83-81-4-8.78-3.18-10.46,5.87-13.18a200,200,0,0,0,22.3-7.65c4.78-2.07,6.19-.72,7.3,3.69,5.84,23.19,11.86,46.34,17.77,69.51,3.22,12.6,6.28,25.25,9.53,37.85C552.34,875.21,551.16,877.12,545.59,875.7Z"/><path class="cls-3" d="M399.07,612.59c9.2,16.07,14.35,31.27,20.84,45.84,3.86,8.69,6.91,17.74,11,26.31,2.23,4.69,1.57,5.94-3.52,6.53a271.35,271.35,0,0,0-67.72,16.55C379.84,679.68,392.68,648.57,399.07,612.59Z"/><path class="cls-3" d="M453,700.18a90.15,90.15,0,0,0,39.63.71c.45.29.93.86,1.37.83,14.24-.87,18.16,8,19.48,20,.76,7,6.49,14.58,3.66,20.35s-12.31,5.5-18.76,8.13c-20,8.12-20.07,7.91-29.33-11.44-4.94-10.32-9.83-20.67-14.57-31.09C453.47,705.36,451,703.16,453,700.18Z"/><path class="cls-3" d="M266.58,669.88c-1.51,16.41-2.84,30.88-4.18,45.34-.78,8.39-2.09,16.77-2.19,25.17-.08,6.73-2.86,8.44-8.93,7.7-4.84-.59-9.77-.52-14.65-.82-13.44-.81-13.37-.82-13.92-14.33-.19-4.61,1.57-9.15.29-13.79-.19-.7-.05-2.07.34-2.25,11.52-5.4,5.86-15.25,6-23.48,0-1.89.05-3.25,1.81-3.84C243.46,685.4,254.41,678.59,266.58,669.88Z"/><path class="cls-4" d="M495.78,936.3c7-2,13.83-3.23,20.12-6.43,15-7.59,19.55-12.93,18.46-30.52-.79-12.92-.85-12,12.16-12.6,10.4-.49,14.88,3.86,17.89,13,4,12.11,9.2,23.83,13.67,35.8.82,2.2,3.17,5.74-1.19,6.58-3.22.63-7.82,2.77-9.37-3.06-.64-2.36-1.65-4.61-2.37-6.95-1.25-4-2.52-7.47-7.95-7.73-5.17-.25-7.73,1.75-10.09,6.16C536.65,950.15,512.48,953.7,495.78,936.3Z"/><path class="cls-4" d="M566.51,718.21c1.91-1,3.6.43,5.42.5,2.92,3.17,2.05,7.18,2.24,10.89.32,6.16,2.87,10.1,9.22,11.68,5.78,1.44,11.35,3.71,17,5.74,16.36,5.88,20.92,19.23,22.45,34.62.16,1.58-.61,3.21.27,4.75,13.57-15.44,12.19-27.35-3.37-40.3-2.91-2.41-6.47-4.11-8.89-7.09-3.77-4.63-4.58-10-1.8-15.24,2.49-4.67,7.16-5.52,12.07-4.6,4.66.87,9.15.52,15.35-1.9a31.72,31.72,0,0,0-15.17-.29c-8.91,1.69-17.26.55-24.86-4.67.73-1,1.13-2.44,2.74-2.53,13.64,3,27.59,1.94,41.39,2.9,5.56.39,7.46,1.83,6.59,7.76-.63,4.35-2,5.61-6.07,5.06-5.66-.75-11.35-1.38-17.05-1.69-3.58-.2-8.22-1.61-9.52,3.61s.43,9.39,5.84,11.92c10,4.65,16.78,12,17.46,23.54,1,16.82-6.28,29.84-19.76,40.51-2-5.14-.36-10.19-.84-15-1.36-13.67-3.29-27.29-17-34.7a63.19,63.19,0,0,0-25.67-7.36c-4.41-.3-6.71-.63-6.48-6.22C568.37,732.8,567.1,725.49,566.51,718.21Z"/><path class="cls-3" d="M500,669.69c-2.16,0-4.33.16-6.49.13-5.1-.08-8.12,1.8-6.19,7.32.88,2.5,1.2,4.43-1.73,4.91-2.45.4-3-1.72-3.13-3.77-1.39-18.61-2.67-37.22-4.25-55.81-.56-6.63,2.11-9.6,8.63-9.38q5.63,24,11.27,48C498.73,663.93,499.32,666.81,500,669.69Z"/><path class="cls-3" d="M539.84,706.65c6.26,4.59,12.87,8.43,20.61,9.88-3.09.82-3,3.26-3.16,5.74-.6,7.53-15.75,16.43-22.55,13.34-2.06-.94-2.07-2.92-2.51-4.77-1.38-5.83-2.7-11.68-4.45-17.39-1.53-5-.77-7.38,5-6C535.2,708,537.68,708.45,539.84,706.65Z"/><path class="cls-3" d="M312.8,789.43c.65,5.81-.66,7.69-4.34,6C296.21,789.85,285,783,278.8,770.22c-.85-1.74-1.89-3.62-.79-5.38,1.25-2,3.42-1.08,5.19-.63,12.65,3.26,24.63,7.47,28.82,21.88A30.73,30.73,0,0,1,312.8,789.43Z"/><path class="cls-3" d="M253.81,947.6c-13.08,5.42-26.51,9.23-40.88,8.76A68.07,68.07,0,0,1,253.81,947.6Z"/><path class="cls-3" d="M369.17,394.86c1.81-27.13,3.5-54.27,5.47-81.39.9-12.5,1.35-25,1.13-37.53,0-2.25-.15-4.51-2.15-5.88-7.88-5.36-16.1-11.2-25.88-10.3-9.11.84-17.87-1.22-26.84-.86-5.53.21-7.68-2.59-6.17-8.45a268.59,268.59,0,0,1,12.32-36.91c4.63-11,6.62-22.45,7.11-34.14,1.42-34.3,1.07-68.53-5-102.49-1.71-9.61-2.79-19.33-4.39-29-.83-5.07.71-7,6-6.32,4.85.59,9.92.69,14.6-.91,7.24-2.48,8.24,1.21,8.54,7.16,1.55,30.44,3,60.91,6.5,91.21a290.09,290.09,0,0,0,36.84,112.4c14.09,24.51,20.81,50,22.74,78,1.34,19.54,0,39.14,2.5,58.61.84,6.62-1.15,13.42.27,20.11-2.49,1-4.8.11-7.07-.75-12.19-4.62-24.64-8-37.7-9.06C374.8,398.13,371.61,397.32,369.17,394.86Z"/><path class="cls-3" d="M308.59,299.86c-.08-8.18,0-16.31,1.32-24.45.75-4.64,1.88-6.87,7.29-5.55,8.14,2,16.47,3.19,24.73,4.66,5.46,1,7.57,3.77,7.11,9.64-2.33,29.57-4.29,59.17-6.36,88.76-.79,11.32-.95,11.47-12,9.54a16.52,16.52,0,0,0-2.42-.31c-14.8-.45-15.82-1.09-16.62-15.39C310.4,344.47,309.59,322.16,308.59,299.86Z"/><path class="cls-3" d="M369.17,394.86c18.58,1.63,36.79,4.75,53.64,13.34-.8,6.11-6.58,7.58-10.52,8.66-18.45,5.08-37,9.13-56.59,8.06-8.8-.49-17.66-.8-26.5-1.27-8-.43-12.33-6.38-18.21-9.9-2.12-1.27-1.26-5.11-.91-7.78.45-3.49,3.31-1.76,5.19-2.06a51.62,51.62,0,0,1,21.84,1.46c9.12,2.56,17.18-.48,25.49-2.83C366.36,401.48,368.26,398.51,369.17,394.86Z"/><path class="cls-3" d="M347.76,23.73c1.11.22,4.76-1.34,5.32,1.3.76,3.56-3.38,3.65-5.7,4.26a77.54,77.54,0,0,1-12.78,2.06c-1.92.17-5.09,1.26-5.66-1.4-.68-3.15,2.86-3.54,4.93-4.24A32,32,0,0,1,347.76,23.73Z"/><path class="cls-3" d="M484.52,598.43c-15.71,7.09-26,3-33.46-12.46a91.5,91.5,0,0,1-6.49-19c-.82-3.48.41-6.16,4-3.4,8.49,6.5,18.81,3.95,28,6.54C482.88,578.54,482.06,588.94,484.52,598.43Z"/><path class="cls-3" d="M484.52,598.43c-5.82-8.55-5.76-18.74-7.89-28.32l14-.08c6.23,5.46,6.62,12.66,6,20.16C493.52,594.35,489,596.32,484.52,598.43Z"/><path class="cls-3" d="M485.11,553.21c-5.21-.35-11.59,3.68-14.83-4.07-1-2.44-2.12-.28-2.83.3a8.91,8.91,0,0,1-7.57,2.15c-3.84-.8-10.35.78-10.84-3.22-.58-4.79,6.13-3.3,9.47-4.94,6.7-1,13.45-.54,20.16-.33C485.1,543.31,487,546.68,485.11,553.21Z"/><path class="cls-3" d="M496.57,590.19l-6-20.16c1.84-.43,3.67-1.19,5.52-1.22,3.36-.06,7.66-3.2,9.81-.1,2.3,3.32.47,7.84-1.25,11.62C502.85,584.34,500.53,587.94,496.57,590.19Z"/><path class="cls-3" d="M485.11,553.21c.57-7.49-3.19-10.31-10.33-9.94-5.42.28-10.86.13-16.28.16,12.66-3.37,25-1.22,37.28,2,2.76.73,5.43,1.8,9.06,3A28.91,28.91,0,0,1,485.11,553.21Z"/><path class="cls-4" d="M596.42,712.3c12.06,5,24.48,2.08,36.78,1.64,3.32-.12,6.63.54,6.61,4.24s-3.76,1.85-5.86,2.37c-3.93,1-7.89,2.58-12,1.06-5-1.87-9.9-1.29-11.77,3.68-1.79,4.74-1.17,9.75,3.56,14s10.83,5.74,14.49,11.53c9.39,14.89,7.75,28.56-6.32,40.83-3.9-6.35-1.09-13.51-2.75-20.14C616,758.75,608.24,752,597,747.8c-4.05-1.51-8.13-3-12.27-4.18-12.11-3.55-12.7-4.24-12.75-16.74,0-2.73,0-5.45,0-8.17C580.32,717.45,588.66,716,596.42,712.3Z"/><path class="cls-3" d="M540.55,590.66c20,7.64,38.91,10.28,58.41,8.65,5-.41,5.59,1.49,3.86,5.68a61.31,61.31,0,0,1-20.53,26.72c-4.86,3.55-10.64,2.53-16.1-.43C550.62,622.84,545.16,608.18,540.55,590.66Z"/><path class="cls-3" d="M609.71,581.5c-9.17.57-18.33,1.27-27.5,1.68a68.89,68.89,0,0,1-29.43-4.87c1.3-3.5,3.82-3.29,6.11-3.48,16.1-1.39,31.87,1.91,47.77,3.45,2,.2,2.65,1.61,3,3.3Z"/><path class="cls-3" d="M587.85,700.81c-13.6,6.81-27.15,7-40.57-.36-1.18-.64-2.51-1.39-2.34-3,.23-2.09,2-2.38,3.64-2.43a13.92,13.92,0,0,1,12.08,5.33c3.65,4.54,7.23,5.85,11.75.23S582.63,699.33,587.85,700.81Z"/><path class="cls-1" d="M257.93,641c-1.56,4.4-3.52,8.89-9.28,9.49-2.23.24-3.32-1.58-3.29-3.75,0-1.66,9-11.2,10.17-10.8C257.73,636.7,257.82,638.66,257.93,641Z"/></svg>