<svg id="Capa_1" data-name="Capa 1" xmlns="http://www.w3.org/2000/svg" viewBox="0 0 385.86 428.68"><defs><style>.cls-1{fill:#dc6544;opacity:0.3;isolation:isolate;}.cls-2{fill:#101012;}.cls-3{fill:#030405;}.cls-4{fill:#05050a;}.cls-5{fill:#111218;}.cls-6{fill:#181926;}.cls-7{fill:#161622;}.cls-8{fill:#fff;}.cls-9{fill:#fdfffd;}.cls-10{fill:#fdfffc;}.cls-11{fill:#fbfbfa;}.cls-12{fill:#fffffd;}.cls-13{fill:#fafafa;}.cls-14{fill:#fdfdfb;}</style></defs><g id="Grupo_58" data-name="Grupo 58"><path id="Trazado_1044" data-name="Trazado 1044" class="cls-1" d="M14.4,287.15c32.28,79.62,88.74,96.37,123.37,94.59,29-1.49,65.46-9.79,84.23-55.73s46.76-68.06,88.86-79.8,90.73-27.92,70.1-86.81S321.78,72.13,283.75,49.85C205.72,4.14,104.6,32.22,54.34,85.23,7.87,134.23-17.87,207.54,14.4,287.15Z"/><g id="Grupo_55" data-name="Grupo 55"><path id="Trazado_1017" data-name="Trazado 1017" class="cls-2" d="M138.17,357.37c8,8.27,18.05,14.19,26,22.35,6.26,6.41,13.06,7.4,21.1,6.6a68.3,68.3,0,0,1,11.17.15c4.86.32,6.5,2.13,5.72,7-.44,2.74.53,3.26,2.77,3.59a71.16,71.16,0,0,1,12.5,2.67c2.65.89,4.4,2.5,4,5.44-.37,2.74-2.94,2.57-4.86,2.95s-3.67.28-5.68,1.11c2.37.91,4.75,1.78,7.08,2.77,1.52.64,3,1.43,4.44,2.2a3.69,3.69,0,0,1,2,4.53c-.55,1.86-2.4,1.52-3.89,1.5-4.73-.05-9.24-1.46-13.83-2.36l-4-.78c2.17,1.93,3.8,3.29,5.33,4.77s2.75,3.45,1.67,5.51-3.16,1.27-4.88.92c-9.21-1.83-17.3-6.28-25.22-11.06-6.13-3.7-12.15-7.58-18.24-11.36-.68-.43-1.71-1.24-2.12-1-6.7,3.54-12.74-.3-18.64-2.09-22.94-6.94-42.52-19.86-60.5-35.4-2.6-6.08-6.43-11.49-9.2-17.5-14.55-31.45-23.75-64.44-29-98.62-2.32-15.28-4-30.6-2.92-46.07.34-4.93,1.3-9.82,1.87-14.74.24-2.06,1.79-2.71,3.28-3.33,6.11-2.51,12.27-4.92,18.4-7.37,1.66,1.41,3.24,2.88,3,5.37-2.84,3.56-7.2,4.54-11.1,6-5,1.84-6.83,4.73-7.33,10-2,21.16,1.14,41.85,4.89,62.5a351.18,351.18,0,0,0,23.77,78.28c3,6.84,6.9,13.21,10.58,19.68a17.4,17.4,0,0,0,3,3.36c13.64,10.83,27.8,20.77,44.13,27.31,6.64,2.67,13.34,5.2,20,7.81,2.28.9,3.89.6,5.34-1.44a69.47,69.47,0,0,0,5.41-8.3c1.12-2.15.78-3.45-1.39-4.69-13.85-7.91-25.89-18.21-37.68-28.84-5.93-4.38-10.75-9.92-15.81-15.2-1.62-1.69-1.89-3.9-2.07-6.15-.68-8.54-.47-17.1-.85-25.65-1-23-2.34-46-1.91-69.11a61.61,61.61,0,0,1,1.1-9.86c.23-1.24.72-2.52,2.28-2.52,1.28,0,1.87,1.07,2.3,2.1a24.94,24.94,0,0,1,1.51,8.11c.68,9.91,1.59,19.79,2.1,29.72.71,14,1.08,28.12,2.16,42.15.58,7.43-.35,14.91.87,22.33a10.37,10.37,0,0,0,3,6.17c4.28,4.11,8.22,8.57,12.9,12.28A18.1,18.1,0,0,1,138.17,357.37Z"/><path id="Trazado_1018" data-name="Trazado 1018" class="cls-3" d="M65.57,184.45c-1.19-1.46-3.26-2.36-3-4.74.52-3.3,2.24-2.73,4.22-1.29,2.6-.19,4,2.4,6.32,2.76,7.38,3.1,14.5,1.54,21.67-1,3.09-1.09,4.07-2.43,2.23-5.35a13.17,13.17,0,0,1-1.45-3.41c-.44-1.46-.95-2.92.07-4.35-.52-1.67-.46-3.26,1.47-3.84,1.66-.5,1.8,1.08,2.23,2.14,1.4,1.46,2.8,2.71,4-.18.1-1.3-.59-3,1.12-3.62,1.87-.67,2.06,1.34,2.86,2.31a7.16,7.16,0,0,1,1,1.77c3.87,9.72,11.87,13.93,21.45,15.71,6.14,1.14,12.1,3.32,18.62,2.4,4-.56,8-.43,11.33-3,1.19-.92,2.68-.36,4-.7,1.36.16,1.69,2.15,3.3,1.87.51,2.09-1,3.09-2.41,3.79a37.23,37.23,0,0,1-13.38,4,61.76,61.76,0,0,1-22.1-2.05,8.75,8.75,0,0,0-2-.31c-1,0-2,0-2.5,1-.58,1.27.23,2.18,1.18,2.78a51.79,51.79,0,0,0,10.6,5.57c13.37,4.74,25.52,2,36.65-6.4a19.15,19.15,0,0,0,4.19-5.08c.65-1,1.27-2.9,3-1.08l2.68,4.24c1.13,2.85-1,4.42-2.6,5.94-14.41,13.49-40.37,15.91-57.16,5.43-2.22-1.39-4.33-3-7-3.38-3-.42-5,.27-5.94,3.56-1.56,5.7-4.89,10.39-8.77,14.81-6.94,7.9-16.17,10.69-26,12.06-2.55.36-5.17,1.1-7.8.44-1.77-.45-3.66-1.06-4.08-3.05-.47-2.21,1.39-3.22,3-3.85,7.31-2.82,11-8.83,14.06-15.49,1.3-2.83,1.06-4.34-2.23-5.54C71.55,196.79,67.32,191.62,65.57,184.45Z"/><path id="Trazado_1019" data-name="Trazado 1019" class="cls-4" d="M164.4,46.76l3.21.78c2,.47,4.74.46,4.63,3.11s-2.65,3.55-5,4a72.24,72.24,0,0,0-18.71,6.17,6.82,6.82,0,0,1-3.13.76c-2,0-2.9-1.14-1.49-2.92C149.13,52,156.08,48.26,164.4,46.76Z"/><path id="Trazado_1020" data-name="Trazado 1020" class="cls-5" d="M95.67,167.07c.38,1.26,0,2.7.92,3.82a3,3,0,0,1-1.42,2c-6.4,3.22-13,6.08-19.57,8.83a5.53,5.53,0,0,1-2.85.24c-2.36-.51-4.09-2.09-5.92-3.5,6-3.63,12.69-5.64,19.15-8.16C89.14,169,92.18,167.3,95.67,167.07Z"/><path id="Trazado_1021" data-name="Trazado 1021" class="cls-6" d="M162.26,67c.22,2.09-.87,3.29-2.78,3.3-2.38,0-2.2-2-2.23-3.61s-.19-3.2,2.08-3.27C161.84,63.33,162.14,65.09,162.26,67Z"/><path id="Trazado_1022" data-name="Trazado 1022" class="cls-7" d="M203.11,61.22c-.14,2.35-.59,4.3-3.06,4.54-2.05.19-2-1.44-2-2.85,0-2.2,1-3.8,3.32-4C203.4,58.68,202.77,60.47,203.11,61.22Z"/><path id="Trazado_1023" data-name="Trazado 1023" class="cls-8" d="M103.39,165.19c.68,1.62.68,3.18-1.38,3.48-2.4.34-2.3-1.76-2.64-3.3C100.69,164.83,102,164.11,103.39,165.19Z"/><path id="Trazado_1024" data-name="Trazado 1024" class="cls-8" d="M180.35,184.14c-.95-.37-1.51,0-1.88.91-3.73,9.49-22.78,17-34.33,14.79-6.62-1.27-12.52-4-18.28-7.21-1.81-1-4-2.2-2.58-5.14,1.33-2.76,3.57-1.64,5.34-1.17,11.64,3.11,23.17,4.26,34.57-1a7.24,7.24,0,0,0,3.92-3.4c3.38-1,6.93.18,10.41-1.17C179.85,179.8,179.81,182.61,180.35,184.14Z"/><path id="Trazado_1025" data-name="Trazado 1025" d="M348.31,260.62c-2.74,2.06-6.32,2.6-8.9,4.93a30,30,0,0,1-11.73,3.37,13.08,13.08,0,0,1-6.11-.63c-7.38-2.66-9-9.14-3.81-15a24.53,24.53,0,0,1,6.36-5.25,4.49,4.49,0,0,0,2.43-5.56c-1.44-5.48-2.09-11.13-3.33-16.65-.29-1.28-.28-3.14-2.08-3.15a10.51,10.51,0,0,0-6.82,2.62c-1.56,1.32-.28,3,.68,4,5.7,6,4.48,11.59.08,18-11.67,16.94-21.6,35-33.21,52a52.13,52.13,0,0,1-7.55,8.77A15.16,15.16,0,0,1,256,310.26c-7.4-4.24-13.49-10-19-16.46-1.16-1.35-2.16-2.84-3.94-4.61,0,3.44-.11,6.37.08,9.3,1,15.28,1.62,30.58,1.59,45.9,0,2.54,0,5-2.55,6.56-2,2.13-3.63,1.61-5-.7-1.77-1.48-1.29-3.54-1.28-5.41,0-14.77-.49-29.56-1.09-44.29-.9-22-.17-43.92-.59-65.88a16.82,16.82,0,0,1,.3-4.53c.35-1.35.79-2.88,2.46-2.93,2-.06,2.4,1.57,2.7,3.1a27.35,27.35,0,0,1,.76,4.49c.34,10.76,2.08,21.44,1.83,32.22a21.24,21.24,0,0,0,5.07,14.85c5.95,7.18,12.31,13.8,20,19.14,7,4.9,11.81,4.27,16.81-2.94,6.85-9.88,13.48-19.93,19.41-30.37,4.31-7.58,9.08-14.84,13.94-22,2.65-3.92,2.95-7.16.36-11.35-3.76-6.1-7.4-12.32-10.61-18.75-.48-.95-.89-2.31-2.12-2.33s-1.5,1.45-2,2.37c-9.3,16.32-18.08,32.93-27.55,49.16-1.18,2-2.3,4.13-4.57,5.2a3.27,3.27,0,0,1-3.54-.11,3,3,0,0,1-.93-3.37,5.65,5.65,0,0,1,.64-2c3.2-4.6,2-8.94-.17-13.6-8.5-18.6-16.14-37.57-24.34-56.3-1.67-3.83-4.75-6-7.81-8.31-1.56-1.2-2.8-.4-3.92.87-5.66,6.52-13.09,8.86-21.44,9.08a20.87,20.87,0,0,1-16.68-6.9,14.65,14.65,0,0,1-3.1-4.77c-.65-2.35-2.14-2.91-4.39-2.25a22.82,22.82,0,0,1-8.15.45c-1.57-.36-2.92-1-3.25-2.78a18.35,18.35,0,0,1-8.44-13.57c-.34-2.67-1.05-3-3.64-2.18-7.64,2.47-15.16,3.17-21.43-3.47a17.6,17.6,0,0,1-5-15.55c.38-2.3.3-3.61-2.23-4.3-4.28-1.16-6.53-4.54-7.82-8.42-4.29-12.92-3.46-27.92,2.15-41a33.37,33.37,0,0,0,14.05,8.29c8.33,2.37,16-.1,23.64-3.15q5.55-2.23,11-4.79a35.09,35.09,0,0,1,18-3.35c-2-2.35-3.69-4.09-5.08-6-.53-.75-1.3-2.06,0-2.93,1.07-.69,1.72.19,2.44.88,2,2,4,5,7.25,3,3.11-2,2.09-5.5,1.48-8.38-1.45-6.78-4.22-13.1-7.28-19.3-1.07-2.18-2.76-4.17,1.76-5.25,4.92-1.17,5.17-2.71,3.74-7.76a111.54,111.54,0,0,0-4.92-14.47c-6.15-14-17.74-19.93-32.1-22.82-17.8-3.59-31,8.18-38.8,21.21a56.18,56.18,0,0,0-7.81,25.87A28.24,28.24,0,0,1,104,57c-.6,2.75-1.09,5.25-5.2,3.74-3-1.1-5.26,1-6.74,3.56a12.47,12.47,0,0,0,4.44,17c2.43,1.52,4.38.72,5.75-1.23a4.15,4.15,0,0,1,5.38-1.63c2.06.83.82,2.9.81,4.43-.1,12.32,1.38,24.5,2.76,36.71,1.42,12.45,2.68,24.92,4,37.38,0,.41,0,.82,0,1.24.08,2.4.12,5.62-2.5,5.86-3.24.29-2.64-3.27-2.89-5.39-2.14-17.65-4.27-35.3-6.18-53-.64-5.89-.68-11.86-.87-17.79-.06-1.86-.27-2.69-2.53-2.24C93.06,87.05,88.16,81,86.4,75.85c-2-5.92.52-13.41,5.45-16.56a6.42,6.42,0,0,1,4.72-1.19c4,.8,4.43-1.21,4.33-4.57-.58-20.23,7.28-36.46,23.82-48.21,5.5-3.91,12-5.2,18.71-5.3A58,58,0,0,1,178,10.33c7.26,5,11.18,12.78,14.12,20.91,1.54,4.27,2.72,8.68,3.89,13.07.41,1.55.78,2.53,2.66,2.22,4.3-.71,8.51,0,12.71.93,1.27.26,3.3-.07,3.06,1.85-.18,1.44-.41,3.52-2.25,4.09-2.19.69-4.3,1.43-6.84.85a67.31,67.31,0,0,0-18-1.75c2.5,5.89,5.36,11.24,6.81,17.12a51.75,51.75,0,0,1,1.39,6.88c.67,6.5-3.16,9.87-8.63,11.74-.2.84.33.82.64.85,6.53.5,11,4,14.74,9.21,11.55,16.09,17.78,34.1,20.32,53.57,1.05,8.06,2.23,16.1,1,24.24-.27,1.76.84,2.62,2.13,3.13,9.79,3.81,14.45,11.62,18.07,21,6.09,15.83,13.13,31.3,19.78,46.91.42,1,.53,2.18,2.12,2.93,3.9-7.14,7.83-14.3,11.7-21.47q6.48-12,12.87-24c.77-1.46,1.66-2.52,3.46-2.32,3,.33,3.91-1.22,4.28-4,.89-6.89,3.44-13.32,6.25-19.63.7-1.57,1.46-3.7,3.71-3.21,1.91.42,2.7,2.33,3,4.14.44,2.8.63,5.64,1,9.11,2.81-3,4.76-5.33,3.74-9.34-1.18-4.67-1.75-9.5-2.51-14.27-.23-1.46-.49-2.69-2.29-2.91-13.52-1.65-21.34-10.89-27.3-21.7A115.9,115.9,0,0,1,269.24,83a4.21,4.21,0,0,1,2.39-4c6.37-3.67,13.39-5.62,20.48-7.1,14.43-3,28.95-5.56,43.78-5.33,3.41.06,6.82.5,10.23.77,3.59.6,7.1,1.37,9.57,4.4a8.21,8.21,0,0,1,1.81,4.91c.17,18.69-2,37-8.69,54.59a35.65,35.65,0,0,1-2.12,4.46c-4,7.86-8,15.71-15.55,20.95a21,21,0,0,1-5.95,3.69c-3.67,1.22-4.47,3.54-3.47,7,.5,1.7.39,3.55,1.36,5.41,3.27-1.79,5.25-4.84,7.85-7.19a24.49,24.49,0,0,1,5.59-4.21c1.77-1,3.64-1.54,5.4-.09a4.92,4.92,0,0,1,1.5,5.62c-1.65,5.47-4.58,10.29-7.51,15.12-.42.68-.9,1.32-1.55,2.44,3.84-2.26,6.78-5,10.34-6.7,2.49-1.5,4.92-3.13,7.79-3.77,3.1-.68,4.82.79,4.67,4a11.18,11.18,0,0,1-2.24,5.7c-2.47,3.7-6,6.47-9,10,2.67-.37,4.84.23,5.84,2.68a6.52,6.52,0,0,1-1.22,7.32c-2.08,2.24-4.69,3.84-7.11,5.65-3.07,2.12-6.33,3.94-9.51,5.89a5,5,0,0,0-2.54,5.57c.91,5.59,2.24,11.1,3.16,16.69.52,3.18,2,4.6,5.3,4.05a13.11,13.11,0,0,1,4.95.29c.8.17,1.59.36,2.41.46,5,.56,7.6,2.45,8.35,5.89a10.46,10.46,0,0,1-5.09,11.55C349.79,259.94,348.91,260,348.31,260.62ZM333.65,137c.54-6.87-.32-13.69-.2-20.54.1-5.88,1.54-11.65,1.15-17.55-4.6,2.22-5.71,6.71-7.09,11-3.16,9.8-16.82,13.47-23.38,5.81-2.42-2.82-4.89-5.62-7.54-8.22-3.48-3.41-7.64-3.6-12.08-.83-3.77,2.35-7,8-6,11,3.65,10.61,8.4,20.66,15.86,29.2,3.47,4,7.43,7.47,12.36,9.41,9.8,3.84,18.58.28,25.47-10C332.58,143.17,333.4,140.19,333.65,137Zm3.75-50.77c.33-1.07.69-2.34-.23-3.42-21.5,4.94-43.09,8.46-65.17,4.09-.17,5.27,2.45,17.9,4.5,21.4.49-.54,1-1,1.38-1.55,6.56-8.4,20.34-9,27.19.18a33.72,33.72,0,0,0,6.06,6.17c2.8,2.24,5.21,1.88,7.6-.68a10.92,10.92,0,0,0,2.21-4.39c2.88-9.28,9-14.83,18.56-16.48-2-1.26-2.84-2.9-2.1-5.32ZM312.64,73.6a202.41,202.41,0,0,0-20.3,3.74A79.24,79.24,0,0,0,278.24,82c-.94.4-1.94,1-1.87,2,.09,1.35,1.45.94,2.32,1a62.57,62.57,0,0,0,6.57.34A222.87,222.87,0,0,0,325,80.43a133.11,133.11,0,0,0,21-5.87c.84-.32,2.16-.44,1.78-1.79-.25-.94-1.34-.7-2.14-.78a63.63,63.63,0,0,0-11.38-.21C326.32,72,319.5,72.79,312.64,73.6Z"/><path id="Trazado_1026" data-name="Trazado 1026" class="cls-9" d="M332.2,146.25c-1.43-1.85,0-3.73.08-5.55.39-7.7-.07-15.4.09-23.1.13-6.27-.27-12.65,2.23-18.66,6-3.37,8.87-2.73,12.18,2.21,1.58,2.33.68,4.57.3,6.72-2.05,11.52-5.36,22.63-10.94,33C335,142.94,332.67,143.87,332.2,146.25Z"/><path id="Trazado_1027" data-name="Trazado 1027" class="cls-10" d="M343.11,208.23c3.23,2.28,1.35,5.76,1.82,8.62a189,189,0,0,1,1.93,19.44c.12,2.14,2.22,5.36-2,6.23-2.05.06-4.14-.7-6.14.13-3.17,1.3-4.36,0-4.88-3.12-1.09-6.67-2.44-13.29-3.8-19.9a3.92,3.92,0,0,1,2.1-4.8C335.83,212.71,339.45,210.44,343.11,208.23Z"/><path id="Trazado_1028" data-name="Trazado 1028" class="cls-11" d="M339.51,91.58c-3.49.3-4.74-.94-3.28-4.43a22.71,22.71,0,0,0,.94-4.31l11.6-3.63c.9,4.36,0,8.72,0,13.56C345.51,91,342.51,91.27,339.51,91.58Z"/><path id="Trazado_1029" data-name="Trazado 1029" class="cls-12" d="M180.09,117c-5.15,0-8.54-1.61-10.68-5.46-.55-1-1.11-2.13-.1-3a2.27,2.27,0,0,1,3,.19c.22.17.4.39.62.56,6.34,5,7.8,5,13.36-.7,1.38-1.4,2.93-2,4.3-.94,1.81,1.36.42,3-.53,4.28C187.39,115.61,183.28,116.3,180.09,117Z"/><path id="Trazado_1030" data-name="Trazado 1030" class="cls-13" d="M338,260c-3.23-.43-3.67-3-2.6-5a10,10,0,0,0,.88-6.57,24.06,24.06,0,0,1,8.1-.75c3.71.32,4.51,2.14,2.42,5.18A22.3,22.3,0,0,1,338,260Z"/><path id="Trazado_1031" data-name="Trazado 1031" class="cls-12" d="M85.86,362.39c.39-2.66,2.52-2,4.19-2.19q18.24-1.65,36.5-3.25c3.45,2.07,6.18,5,9.13,7.67,9,8,18.92,14.71,29.15,21,1.94,1.18,2.28,2,1,3.72a20.08,20.08,0,0,0-1.32,2.57c-5.51,10.79-6.45,11.11-17.4,6.84-15.56-6.05-31-12.26-44.45-22.5C96.93,371.82,90.49,368.19,85.86,362.39Z"/><path id="Trazado_1032" data-name="Trazado 1032" class="cls-14" d="M197.29,391.85c-2.67,1.9-4.66,1.33-6.52,1.55a9.06,9.06,0,0,0-2.84.33,3.15,3.15,0,0,0-1.36,3.94c1.2,2.52-3.67,6.15,1.89,7.88,6.42,2,12.61,4.73,18.84,7.34-7-1.1-13.6-3.39-20.27-5.55-1.44-.46-2.85-1.06-4.32-1.43-1-.26-2.47-1.55-3.12.35a2.84,2.84,0,0,0,1.47,3.73l.1,0c5.38,2.78,10.69,5.68,16,8.63a52.12,52.12,0,0,1,7.57,5.08c-2.41.48-4.57-.42-6.72-1.24-12.44-4.73-23.36-12.37-35.1-18.45-1.76-.91-1.7-1.92-.27-3.1a29.1,29.1,0,0,0,5.77-6.93c.59-.92,1.08-1.92,2.46-1.89C179.35,392.31,187.85,391.11,197.29,391.85Z"/><path id="Trazado_1033" data-name="Trazado 1033" class="cls-8" d="M80.78,218.64c5.07-6,6.58-13.42,9.5-20.18a19.49,19.49,0,0,1,3.48-5.56c1.51-1.6,2.68-5.08,5.49-3.64,4.69,2.43,5.65,5.11,4,9.28-3.58,9-9.34,16.09-18.49,20A4.47,4.47,0,0,1,80.78,218.64Z"/><path id="Trazado_1035" data-name="Trazado 1035" class="cls-8" d="M92.77,186.62c-6.94,8.35-12.07,8.82-18.49,1.9C80.62,188.93,86.37,189.18,92.77,186.62Z"/></g></g></svg>