<svg id="Capa_1" data-name="Capa 1" xmlns="http://www.w3.org/2000/svg" viewBox="0 0 326.95 48.71"><defs><style>.cls-1{fill:#1d1d1b;}</style></defs><path class="cls-1" d="M47.56,1.67l-22.34,47H22.77L0,1.93l12.21-.06L23.84,26,35.23,1.74Z"/><path class="cls-1" d="M51.89,48.55l-.26-46.9,11.46-.07.26,46.91Z"/><path class="cls-1" d="M71.39,1.42,99,26,98.85,1.27l11.84-.07.26,47-2.57,0L80.84,23.76,81,48.39l-11.81.07-.26-47Z"/><path class="cls-1" d="M115,48.2l22.36-47,2.71,0L163,47.94,150.56,48,147,40.89,130.88,41l-3.44,7.15Zm20.87-16.58,6,0-3-6.33Z"/><path class="cls-1" d="M167.1,47.91,166.81,1,184,.91a28.74,28.74,0,0,1,8.17,1.14,16.71,16.71,0,0,1,6.06,3.64c3,2.82,4.87,5.6,4.9,10.87v1.17A15.09,15.09,0,0,1,200,26.88a11.27,11.27,0,0,1-4.91,4.05l11.36,16.76-13.94.08-14-18.25.1,18.33ZM191.17,17.6a4.9,4.9,0,0,0-1.85-3.78c-1.23-1-3.84-1.54-6-1.53l-5,0,.07,10.91,4.25,0v0l2.49,0C188.28,23.21,191.19,20.83,191.17,17.6Z"/><path class="cls-1" d="M209.34,47.68,209.08.77,220.55.71l.26,46.9Z"/><path class="cls-1" d="M224.88,47.59l22.36-47L250,.6l22.91,46.72-12.44.07-3.52-7.11-16.16.09-3.44,7.15ZM245.75,31l6,0-3-6.33Z"/><path class="cls-1" d="M279,.27,301.86,30,324.33,0h2.36L327,47l-11.47.07-.09-17.32L302,47.12,288.3,29.92l.09,17.32-11.46.06-.26-47Z"/></svg>