<svg id="Capa_1" data-name="Capa 1" xmlns="http://www.w3.org/2000/svg" viewBox="0 0 2252.48 329.88"><defs><style>.cls-1{fill:#fff;}</style></defs><path class="cls-1" d="M327.92.94l-156.74,323-16.89-.05L0,0,84.19.24,163,167,242.91.7Z"/><path class="cls-1" d="M355,324.44,356,1,435,1.25l-.93,323.41Z"/><path class="cls-1" d="M492.24.61,681.08,171.35l.5-170.2,81.64.24-.93,324.22-17.78-.05L556.1,155.22,555.62,325l-81.43-.23L475.12.56Z"/><path class="cls-1" d="M790.34,325.69,947.24,3.12l18.68.06,155.25,323.46-85.81-.25-23.85-49.22-111.44-.32L876,325.93ZM935.18,212.54l41.65.12-20.56-43.81Z"/><path class="cls-1" d="M1149.39,326.72l.72-323.42,118.26.34A195.2,195.2,0,0,1,1324.63,12a115,115,0,0,1,41.6,25.42c20.37,19.63,33.26,38.92,33.16,75.24l0,8.08c-.07,22.34-7.5,43.43-21.95,62.86-10.34,13.78-19,20.85-34.15,27.69l77.39,116.21-96.12-.28-95.75-126.64-.36,126.36Zm167.76-207.57c0-10-4.1-18.51-12.59-26.19-8.39-6.94-26.35-10.84-41.12-10.88l-34.5-.1-.22,75.23,29.34.09v.19l17.15.06C1296.85,157.61,1317.08,141.42,1317.15,119.15Z"/><path class="cls-1" d="M1440.68,327.56l.93-323.42,79.05.23-.93,323.41Z"/><path class="cls-1" d="M1547.81,327.86,1704.7,5.3l18.68,0,155.25,323.46-85.81-.24L1769,279.35,1657.53,279l-24.12,49.08Zm144.83-113.14,41.65.12L1713.74,171Z"/><path class="cls-1" d="M1923.83,4.72l155.72,206L2236.25,5.62l16.23,0-.93,324.21-79.05-.22.34-119.38-93.63,118.83-93.15-119.4-.34,119.41-79-.23.93-324.21Z"/></svg>