<svg id="Capa_1" data-name="Capa 1" xmlns="http://www.w3.org/2000/svg" viewBox="0 0 143.39 170.46"><defs><style>.cls-1{fill:#1d1d1b;}.cls-2{fill:#171718;}.cls-3{fill:#232323;}.cls-4{fill:#2b2b2b;}.cls-5{fill:#f6f6f6;}.cls-6{fill:#f0efee;}.cls-7{fill:#edeae3;}</style></defs><path class="cls-1" d="M41.08.13,20.81,42.2h-2.2L-1.58.13h11L19.68,21.8,30,.13Z"/><path class="cls-1" d="M44.73,42.2V.13H55V42.2Z"/><path class="cls-1" d="M2.23,64.16,26.86,86.3V64.16H37.47v42.17H35.16L10.59,84.25v22.08H0V64.16Z"/><path class="cls-1" d="M41.13,106.33l20.29-42h2.42l20.32,42H73l-3.12-6.39H55.38l-3.12,6.39ZM59.92,91.56h5.42l-2.69-5.69Z"/><path class="cls-1" d="M0,170.46,0,128.4H15.38a25.32,25.32,0,0,1,7.32,1.06,15,15,0,0,1,5.42,3.29c2.66,2.55,4.34,5.05,4.34,9.78v1.05a13.57,13.57,0,0,1-2.83,8.18,10.16,10.16,0,0,1-4.43,3.62l10.11,15.08H22.81L10.31,154v16.43ZM21.77,143.4a4.43,4.43,0,0,0-1.65-3.4c-1.09-.9-3.43-1.4-5.35-1.4H10.28v9.79H14.1v0h2.23A5.27,5.27,0,0,0,21.77,143.4Z"/><path class="cls-1" d="M37.92,170.46V128.4H48.2v42.06Z"/><path class="cls-1" d="M51.85,170.46l20.29-42h2.43l20.31,42H83.72l-3.12-6.39H66.11L63,170.46Zm18.8-14.77h5.42L73.38,150Z"/><path class="cls-1" d="M100.65,128.29,121,155l20.3-26.74h2.11v42.17H133.11V154.94L121,170.43l-12.16-15.5v15.53H98.54V128.29Z"/><path class="cls-1" d="M105.47,66.16a10,10,0,0,0,5.6.37,2.89,2.89,0,0,1,2,.26c.43.23,1,.39,1.07,1s-.51.65-.82.95c-2.68,2.6-6.47,2.46-9.68,3.72a87.67,87.67,0,0,0-8.26,3.59c-.38.19-1.24.1-.89,1.12a5.47,5.47,0,0,0,2.59.2l13.3-3.24c.93-.23,1.86-.41,2.78-.67a1.8,1.8,0,0,1,2.32,1.27c.42,1.23-.49,1.56-1.34,1.83C108.59,78.26,103,80,97.52,81.75c-.77.24-2.26.27-1.88,1.48s1.63.47,2.47.35A26.31,26.31,0,0,0,102.87,82c4.06-1.4,8.14-2.74,12.22-4.08a4.92,4.92,0,0,1,1.34-.14,1.76,1.76,0,0,1,1.74,1.2c.35.9-.42,1.2-.94,1.45-2.6,1.26-5.24,2.47-7.87,3.69-3.14,1-6,2.55-9.09,3.85.78,1,1.21,0,1.75.33a121.27,121.27,0,0,0,16.66-5.51c2.69-1,5.44-2.1,8.6-1A4.94,4.94,0,0,1,130,83.56a14.56,14.56,0,0,1,2.18,3c.22.32.41.72.1,1s-.63.19-.95,0a12.62,12.62,0,0,1-1.94-1.86,3.18,3.18,0,0,0-3.69-1c-4.72,1.48-9.45,2.91-14.13,4.47-2.37.79-4.74,1.56-7.15,2.24a11.92,11.92,0,0,1-5,.2c-2.51-.84-3-1.51-2.81-4.1.09-1-.32-1-.89-1.26-1.45-.73-2.86-1.56-2.54-3.73.36-1.23.83-2.31-.79-3.42-.94-.64-.73-2.74.21-3.79A10.86,10.86,0,0,1,97,72.07c2.54-.85,4.61-2.77,7.39-3a1.86,1.86,0,0,0,.62-.26c.29-.14.68-.21.67-.68s-.38-.67-.71-.83a9.75,9.75,0,0,1-3.21-3c-.5-.67-.93-1.53-.21-2s1.07.32,1.41,1A5.67,5.67,0,0,0,105.47,66.16Z"/><path class="cls-1" d="M115.76,40.89c1.46,2.73,1.86,5.76,2.78,8.64.36,1.15-.22,1.48-1.05,1.16s-1.67.08-2.51.11a.53.53,0,0,0-.48.77c.13.4.46.26.74.23,1-.12,2-.69,3.17-.1,0,.26-.15.33-.37.22-4.86.8-9.05,3.21-13,5.91-3.18,2.16-2.86,4.75.45,8.33-1.42-.23-2-1.55-2.75-2.7-.27-.43-.48-1.22-1-.94s-.13,1.08.19,1.53a9,9,0,0,0,3.32,3.12c.95.45,1.33,1,.25,1.67-.74.46-1.28,1.31-2.39.81a.91.91,0,0,0-.8.17c-2.71,2-6.12,2.54-8.68,4.79a4.47,4.47,0,0,0-1.53,3.09c0,.56,0,1.18.48,1.41,2.09,1.07,1.22,2.25.58,3.46A3.6,3.6,0,0,0,92,79c-1.06-1-.67-2.64.59-3.95,2.91-3,6.64-4.52,10.42-5.9.78-.28,1.58-.54,2.53-.86-1.26-1.24-2.65-2-3.66-3.37-1.74-2.36-2-4.45-.66-6.73a8.91,8.91,0,0,1,3.71-3.43,78.23,78.23,0,0,1,9.2-4.38,4.61,4.61,0,0,1,3-.31c1.22.36,1.12-.3.83-1.34A76.55,76.55,0,0,1,115.76,40.89Z"/><path class="cls-1" d="M136.49,45c1.77.16,2.48,1.67,3.41,2.82,3.18,3.95,4.41,9.53,1.55,14.41-.5.86-1,1.73-1.42,2.63a2.09,2.09,0,0,1-3.16,1c-1.43-.72-.37-1.86,0-2.72.61-1.32,1.46-2.53,2.13-3.83,2.56-5,.5-11.78-4.94-13.54-1.83-.67-3.49.09-5.14.67-1.37.48-2.68,1.16-4,1.75a1.88,1.88,0,0,1-2,0C126.05,44.63,132.44,43.14,136.49,45Z"/><path class="cls-2" d="M117.61,52.1l.45-.24c1.49,2.12,2.74,4.34,2.58,7.07a1.86,1.86,0,0,1-1-1.38c-.35-1.84-1.22-1.6-2.47-.81-1.4.87-3,1.35-4.48,2.12a3.83,3.83,0,0,0-2,2,24.62,24.62,0,0,0,6.2-1.26c1.25-.4,2.46-1,3.84-.74.43.82-.1,1.06-.74,1.22L112.07,62c-1.37.34-2.72.56-3.78-.81-.42.77.14,1.17.16,1.66-1.42-.76-1.32-1.85-.57-3a12.09,12.09,0,0,1,5.17-4.21c1.26-.57,2.55-1.1,3.76-1.77C117.43,53.57,118.36,53.15,117.61,52.1Z"/><path class="cls-2" d="M121.63,52l.2-.52c0-.22.15-.27.35-.16a7.21,7.21,0,0,0,2.84.46,41.09,41.09,0,0,0,4.3-.13c2,.26,4.18.13,5.12,2.53a3.09,3.09,0,0,1-2.1,2.57c-2.26,1.12-4.48,2.38-7.12,2.39l0-.84c.61-1.34,2-1.47,3.13-1.83,1.53-.45,3.12-.75,4-2.28a1.25,1.25,0,0,0-.12-.43,1.34,1.34,0,0,0-1-.47,2.85,2.85,0,0,1-.51-.08c-2.6-.37-5.21.21-7.81,0a1.76,1.76,0,0,1-.8-.23A1,1,0,0,1,121.63,52Z"/><path class="cls-3" d="M122.18,51.34l-.35.16a4.06,4.06,0,0,0-1.37-1.85c-.54-.41-1-.89-.6-1.65.33.59.49,1,1.41.42a30.17,30.17,0,0,1,9-4.36c2.13-.55,4.3-.72,6.17.9-5.52-1.1-8.88-.31-13.15,3.07.86.39,1.54-.11,2.25-.41a27.72,27.72,0,0,1,6.11-2.27c.85-.15,1.69-.4,2.39.37-4.31,0-7.86,2-11.37,4.12A1.12,1.12,0,0,0,122.18,51.34Z"/><path class="cls-3" d="M125.22,59.16a26.14,26.14,0,0,0,8.16-3.35c.5-.29.71-1.06,1.06-1.61.57,1.16-.3,1.67-1,2.22-2.84,2.11-6.27,2.84-9.55,3.81-4.16,1.23-8.3,2.67-12.67,3.06a.65.65,0,0,1,.81-.46A111.53,111.53,0,0,0,125.22,59.16Z"/><path class="cls-3" d="M129.32,51.67a6.8,6.8,0,0,1-4.3.13A8.94,8.94,0,0,1,129.32,51.67Z"/><path class="cls-4" d="M97.09,77.37a2.11,2.11,0,0,1-2.59-.2A6.73,6.73,0,0,1,97.09,77.37Z"/><path class="cls-2" d="M112,62.83l-.81.46a1.91,1.91,0,0,1-1.8-.08A5.67,5.67,0,0,1,112,62.83Z"/><path class="cls-1" d="M123,12.12A21.22,21.22,0,0,1,123,26.38c-3,7.78-10.2,11-18.35,8.36a24.27,24.27,0,0,1-12.29-9.37c.61-2.48,3-4.13,6-4.1,2.45,0,4.9.2,7.35.33s4.63-.54,5.86-3.13a15.83,15.83,0,0,1,3.18-4.55C116.87,11.9,120.57,11.07,123,12.12Z"/><path class="cls-1" d="M109.39,63.21l-.94-.33c-.34-.48-.91-1.05-.6-1.56s1-.1,1.57.12a3.25,3.25,0,0,0,2.13.14c2.87-.83,5.88-1.19,8.62-2.48,0-.19.06-.38.07-.56-.23-2.38-1.46-4.38-2.36-6.5a7.31,7.31,0,0,0-3.46.5c-.5.12-1.12.24-1.25-.52a.92.92,0,0,1,.82-1.13,7,7,0,0,1,2.91-.36c.95.17,1.47-.08,1.13-1.31-.76-2.78-1.35-5.6-2.28-8.33-.38-1.13-.44-2.73-1.22-3.24s-2.24.17-3.41.26c-8.07.59-14-3.26-18.94-9.15a24.85,24.85,0,0,1-4.84-9.33,3.12,3.12,0,0,0-.6-1.45c-1.95-1.78-1.26-3.6-.11-5.37A19.25,19.25,0,0,1,93.12,6.8,44.15,44.15,0,0,1,113.55,0a9.49,9.49,0,0,1,9.81,5.7c3.49,7,4.67,14.12,1.64,21.54a17.19,17.19,0,0,1-7.44,8.58c-1.06.62-1.37,1.07-.92,2.3,1.17,3.25,2.16,6.56,3.22,9.85a1,1,0,0,0,.66,1.27c1,.36,1.18,1.18,1.42,2a1.35,1.35,0,0,1,.13.84c-.45,1,.14,1.76.37,2.61a3.41,3.41,0,0,1,.13.53c0,.2.06.39.09.58.23,1.58.82,2.76,2.74,2.45a.92.92,0,0,1-.22,1.15A88.49,88.49,0,0,1,112.28,63,25.42,25.42,0,0,1,109.39,63.21ZM89.93,12.08c-1.23,1.19-2.73,2.53-2,4.44s2.62,1.4,4,1.37A39.3,39.3,0,0,0,117.44,8,8.13,8.13,0,0,0,119,6.22c1.25-2,.49-3.48-1.87-3.69C111,2,105.41,3.68,99.43,6.11A34,34,0,0,0,89.93,12.08Z"/><path class="cls-5" d="M90.05,21.48a9.08,9.08,0,0,1-.63-1,4.14,4.14,0,0,1-.2-1c3.34.95,6.53.33,9.72,0,4.92-.61,9.26-2.85,13.64-4.94a3.6,3.6,0,0,1,2-.46c-1.33,2.05-2.58,4-3.77,6a4,4,0,0,1-3.29,1.6,55.42,55.42,0,0,1-8.15-.24,7.39,7.39,0,0,0-6.15,2.15c-1.06,1.13-1.57.82-2.14-.39C90.84,22.66,90.83,21.83,90.05,21.48Z"/><path class="cls-6" d="M90.05,21.48a2,2,0,0,1,.53.24c.68.7.53,2.31,1.64,2.25.8,0,1.49-1.19,2.32-1.69a8.46,8.46,0,0,1,4.94-1c2.84.18,5.68.6,8.54.11a4.16,4.16,0,0,0,3.2-2.32c.82-1.57,1.88-3,3-4.82-3.19,1.41-6.07,2.8-9,4a14,14,0,0,1-6.26,1.39c4.73-1.31,9.45-2.63,13.7-5.21.44-.47,1.16-.44,1.6-.91a17.44,17.44,0,0,0,6-4.92c.86-1.17,1.24-.82,1.62.23s.78,2.23,1.16,3.35a7.94,7.94,0,0,1-1,.05c-4-.27-7.22,1.14-8.85,4.75-2.09,4.61-5.46,5.92-10.11,5.14-1.11-.19-2.25-.15-3.37-.27a7.15,7.15,0,0,0-7.38,3.58A12.55,12.55,0,0,1,90.05,21.48Z"/><path class="cls-7" d="M122.33,52.78l.39.13c2.84.4,5.69-.43,8.52.16h0a2.37,2.37,0,0,1,1.61.58h0c-.06,2.17-1.94,2.52-3.36,2.91A27.72,27.72,0,0,0,125,58.19c-1.11.52-1.89.59-2.15-.88-.12-.71-.75-1.26-.64-2.05l0-.15-.12-.1c0-.63-.44-1.11-.53-1.69S121.66,52.37,122.33,52.78Z"/><path class="cls-3" d="M122.21,55.26c1.34,3.05,1.34,3,4.68,1.84,1.6-.57,3.34-.83,4.74-1.88.52-.4,1.44-.58,1.17-1.59,1,.46.34.91,0,1.31a6.58,6.58,0,0,1-3.62,1.94,18.26,18.26,0,0,0-3.88,1.44C122.73,59.35,122.35,59,122.21,55.26Z"/><path class="cls-3" d="M122.33,52.78c-1.42.62.22,1.51-.2,2.23-.44-.95-1.37-1.82-.5-3Z"/><path class="cls-7" d="M120.65,58.91a44.6,44.6,0,0,1-10.27,2.78c-.89.15-1.09-.3-.61-1a6.23,6.23,0,0,1,2.12-2.06,27.42,27.42,0,0,1,3.71-1.87c1.27-.48,2.61-1.94,3.69-1.37.84.45.93,2.33,1.35,3.57Z"/><path class="cls-3" d="M131.24,53.07c-2.84-.1-5.69.53-8.52-.16C125.56,52.85,128.42,52,131.24,53.07Z"/></svg>