<svg id="Capa_1" data-name="Capa 1" xmlns="http://www.w3.org/2000/svg" viewBox="0 0 881.5 877.75"><defs><style>.cls-1{fill:#fff;}</style></defs><path class="cls-1" d="M9.22,878.12c.79-7.4,1.45-14.81,2.42-22.18,1-7.92.55-15.88.5-23.77-.07-11-1.34-22.06-2.5-33C8.29,786.32,6.36,773.57,5,760.77,3.56,748.14,4.83,735.64,9.81,724c2.6-6.08,7.51-11.25,13.06-15,3.39-2.26,6.45-5.58,11.06-6,1.94-.17,1.92-1.75,1.12-3.39-8.49-17.55-13.32-36.2-16.34-55.35A241.8,241.8,0,0,1,16,619.92c-.62-11.31-1.32-22.59-.48-33.89,1.48-19.87,4.21-39.44,11.1-58.38,5-13.83,10.15-27.55,16.77-40.71a202.78,202.78,0,0,1,14.47-24.18c3.83-5.56,7.56-11.22,11.87-16.4,6.07-7.3,11.83-15.15,19.08-21.11,14.57-12,29.71-23.08,47.65-30.19a184.64,184.64,0,0,1,42.87-11c6.79-.94,13.78-1.62,20.74-.92,2.9.29,4-.26,3.1-3.81a113.81,113.81,0,0,1,3.59-66.17,131.23,131.23,0,0,1,14.22-29c9.81-14.7,22-27.52,38.56-35.35a108.39,108.39,0,0,1,12.12-5.17c11.3-3.58,22.93-4.33,34.7-4.68,12.34-.38,24.54.91,36.79,1.73,4.1.28,8.12,1.1,12.19,1.55,2.7.29,5.32,1.43,7.46-1.46a2.14,2.14,0,0,1,3.15.08c4.55,5.43,11.13,4.3,16.95,5.12,13,1.85,26,3.7,39.14,3.06,7.25-.35,14.85.17,21.55-3.71a64.72,64.72,0,0,0,6.76-21.48c.88-5.9-4.65-10.3-10.43-8.7-5.13,1.43-8.48,4.8-10.59,9.54a62.85,62.85,0,0,1-3.61,7.54,18.73,18.73,0,0,1-28.55,4,31.38,31.38,0,0,1-7.95-10.53c-3.06-5.8-7.11-7.31-13.34-4.91a13.36,13.36,0,0,1-3.1,1.29c-3.38,1.09-5.32,3.58-6.6,6.74a7.79,7.79,0,0,1-.72,1.25c-1.45,1.93-3.4,3.86-5.6,2-1.76-1.51-1.3-4.24-.06-6.29,2.86-4.73,7.89-7.11,11.83-10.67a6.16,6.16,0,0,1,2.89-1.2,54.15,54.15,0,0,1,9.27,0c5.41.52,10,2.68,13.25,7.27a13,13,0,0,0,3.8,3.73c2.17,1.52,3.86,3.57,5.89,5.23,3.26,2.66,5.24,2.42,7.9-.87a34.5,34.5,0,0,0,3.65-6.42c6.21-12.43,16.23-18.28,30.05-16.79,4.19.45,5.53-.51,5.62-4.7.16-7.62.45-7.29-7.3-5.6a202.26,202.26,0,0,1-36.06,5,234.62,234.62,0,0,1-37.3-1.1,11.12,11.12,0,0,1-3.82-.86c-1.61-1.19-3.55-1.25-5.42-1.56a7.87,7.87,0,0,1-1.4-.45c-4.09-1.35-7-3.59-6.18-8.49,3.53-4.22,8.78-5.79,13.58-6.84,23.62-5.17,47.58-7.79,71.78-6,6.05.44,12.24,1.26,18,4.12,3.9,1.93,5.27,4.3,5,8.45-.92,15.28-2.5,30.43-6.73,45.22-.6,2.08-2.39,5-.6,6.37S461,238,462.77,237c11.78-6.55,20.3-16.66,29.58-26.12C501.09,202,503.3,190.17,509,180a11.07,11.07,0,0,1,.61-1.35c3.85-5.15,3.24-9.8.43-15.69-4.29-9-7.08-18.79-4.32-29.11.13-.47,0-1.09.28-1.43,5.95-7.73,8-18.16,17.06-23.8,6.84-4.24,13.21-9.24,21-11.77,3.33-1.08,6.3-1.79,9.18,1.75,2.33,2.86,5.55,3.36,9.63,1.42,8.62-4.1,17-2.68,24.2,3.76a50,50,0,0,1,16.69,30.86c.66,4.62.28,9.22-2.25,13.34-1.58,2.55-3.48,5.29-6.71,5.24-6.32-.12-11.2,3.28-16.42,5.91-7.63,3.84-15.16,7.9-22.81,11.7a7.33,7.33,0,0,0-4.16,5.53c-3.78,16.78-7.73,33.53-11.6,50.29-.06.25.21.58.55,1.42,5.79-3.44,11.33-7.18,17.25-10.17,19.31-9.76,37.95-20.85,57.83-29.46,7.12-3.08,14.66-4.82,22.58-3.79,4.89.63,4.2-3.76,5.27-6.28.93-2.19-.6-5.54,3.35-6.14,3.71-.56,6.2,1,8.34,3.93a59.19,59.19,0,0,0,20.21,17.58c21.31,11.19,44.16,4.78,57.34-14.31,3-7.88,7-9.14,14.28-4.39,1.79,1.17,3.68,1.19,5.63,1.41,12,1.36,20.28,8.62,27.6,17.39a6.85,6.85,0,0,1,.75,2.33c16.45,19.12,22.47,42.7,28,66.38a698.6,698.6,0,0,1,17.54,136c.25,8.2,1,16.4,1.27,24.6.1,2.81,1.07,3.72,3.88,3.41a79.69,79.69,0,0,1,15.75-.32c3.59.31,6.5,1.72,7.78,5.09.8,2.14,1.95,2.49,3.95,2.67a99,99,0,0,1,14.05,2.15c3.79.91,6,2.6,7.57,6.09,2,4.53,1.13,7.13-3.68,9-6.08,2.31-12.53,2.42-18.9,3-1,.08-2-.08-2.77.81-.2,1.39,1.11,1.82,1.79,2.63,1.79,2.15,3.95,4.42,2.59,7.33-1.56,3.33-4.63,4.17-8.31,3.84a93.34,93.34,0,0,1-18.83-3.36c-10.15-3.08-20.54-5.25-30.53-9-6.91-2.6-10.65-6.24-12.37-13.92-5.88-26.24-12.72-52.27-19.25-78.35-4.5-18-8.64-36.07-14.32-53.74-.48-1.48-.46-3.23-2.64-4.57,1,9.36,1.87,18.23,2.8,27.09.81,7.68,1.38,15.4,2.57,23,.77,4.93-.53,9.66-.53,14.51,0,4-4.37,2.07-7,2.81,2.73,7.55,5.73,15,8.1,22.54,6.53,20.87,10,42.16,7.57,64.1-2.16,19.85-8.78,37.66-24.28,51.17a70.43,70.43,0,0,1-39.59,17.56c-15.18,1.7-29.82-1-44.58-2.88-28.66-3.7-57.27-7.78-85.89-11.75-8.29-1.15-16.56-2.5-24.85-3.66-1.51-.21-3.47-1.38-4.53.18-.82,1.21.56,2.77,1.15,4.09,8.86,20,17.82,39.89,26.64,59.87q13.78,31.28,27.34,62.66c.38.86.91,2.19.53,2.77-5.09,8,1.81,13,5,18.44A180.22,180.22,0,0,1,618.44,691c1.57,4.54-.39,7.5-6.28,10.76-3,1.66-6.07,3.18-9.09,4.81s-4.59-.57-6-2.56c-1.88-2.66-2.78-5.95-5.31-8.54-4.22,3.71-6.73,8.86-11.35,12.17-8.24,5.91-17.52,8.12-27.37,9.54-11.21,1.63-21-1.16-30.21-7.16-2.29-1.49-4.91-3.22-3.16-6.19a6.41,6.41,0,0,1,7.79-2.73c13.63,5,22.64-3.57,32.16-10.68,2.1-1.58.68-3.4-.16-4.82a113,113,0,0,1-9.81-20.93c-1.83-5.41-5.08-6.07-9.66-4.69-1.87.56-3.62,1.53-5.44,2.27-5.83,2.37-8.49,1.39-11-4.29C513.3,634.69,503,611.41,492.9,588.05c-5.92-13.71-11.48-27.58-17.23-41.36a13.74,13.74,0,0,0-1.48-2.1c-2.26,7.73-4.38,14.9-6.44,22.08-1,3.62-1.92,7.29-2.93,10.92-1.63,5.88-4,7-9.64,4.88-2.34-.87-4.38-4.3-6.68-2.64-1.38,1-.43,4.75-1.33,6.94-3.67,8.92-7.57,17.75-11.57,26.53-3.31,7.28-6.89,14.43-9.38,22.06-1.36,4.13-3.62,4.93-7.54,3.1-6.67-3.12-13.12-6.73-20.14-9.13-5.42-1.85-5.19-6.88-5.73-11.54-1-.73-2.12-.12-3.1.22-12.49,4.31-23.68.22-35-4.68-9.69-4.18-16.38-11-21.64-19.79-1.22-2-1.15-3.78.2-5.4a3.48,3.48,0,0,1,4.55-.62c7,4.46,14.3,2.47,21.52,1.28,13-2.14,21.84-10.75,30.39-19.75a38,38,0,0,0,4.51-5.83c1.72-2.71,5.11-6.36,3.9-8.38-1.82-3-6.07-4.75-10-5.38a7.29,7.29,0,0,1-5.54-9.8c10.38-24.42,16-50.48,25.5-75.14,7.9-20.41,14.37-41.4,24.88-60.81,5.36-9.9,9.86-20.28,15.75-29.94A95.29,95.29,0,0,1,457.54,362a15.75,15.75,0,0,1,13.44-5.8c34.16,1.26,68.36,1.74,102.48,3.68,29.67,1.68,59.38,2.24,89.06,3.84a4.79,4.79,0,0,0,1.78-.2c-11.95-3.05-24.25-3.66-36.39-5.29-17.55-2.36-35.13-4.47-52.66-6.95-6.58-.92-8.13-4.64-5.14-10.43,9.33-18.07,18.54-36.2,27.88-54.25,3.08-5.94,6.41-11.73,10-18.24-6,1.61-10.56,4.92-15.48,7.3-15.37,7.41-30.39,15.61-46,22.55-9,4-17.71,8.82-27.67,10.57-4.58.8-8.06-.66-11.33-3.08-9.15-6.76-13.17-16.58-15.34-27.28-3.38-16.67-2.17-33.31.87-49.89.17-.95.25-1.92.52-4-4,3.57-7.5,6.33-10.56,9.52-8.64,9-18.23,16.47-30.18,20.74-3.12,1.12-4.47,4.62-6.1,7.48-4.89,8.58-10.55,16.45-18.5,22.65-5.66,4.41-12.12,6.18-18.8,7.58-2.54.54-4,1.13-4.18,4.17-2.17,32-5,63.89-6.09,95.93-.08,2.35.35,3.18,2.92,2.93,5.29-.52,10,1.87,14.54,4,2.95,1.4,5.44,3.94,5.43,7.63,0,4.94-2.86,8.55-6.93,10.64A49.09,49.09,0,0,1,379.79,422c-4.8-1.21-8.41-4.33-9-9.35-.57-4.8,2.75-7.82,6.66-10.05,2.71-1.56,5.45-3.17,8.57-3.65,4.06-.63,5-3,5.11-6.82,1.23-32.17,2.93-64.33,5.47-96.43.19-2.43.15-3.95-2.7-5.28-12.58-5.84-20.08-16.5-25.47-28.75-1.38-3.13-3.18-4.72-6.42-5.13-12.18-1.56-24.38-2.92-36.49-4.85a101.29,101.29,0,0,0-20-1.46c-6.79.28-13.77-1.17-20.65,2-4.21,1.9-9.44,1.79-14.16,3.17a49,49,0,0,0-17.06,8.88c-16.4,13.13-26.95,30.15-34,49.76-7.62,21.16-9.12,42.41-3.12,64.17,1.13,4.09,2.76,6.84,7.48,7.7a53.58,53.58,0,0,1,22.28,9.66A25.42,25.42,0,0,1,254.94,406c3.29,7.82,1.75,12.57-7.65,19.66-5.7,4.31-11.26.2-16.22-2.63a42.77,42.77,0,0,1-17-18c-3-5.87-6.87-8.15-13-7.87-10.22.47-20.56,0-30.63,1.4-12,1.69-23.92,4.55-35,9.64A126.29,126.29,0,0,0,108.71,424a201.59,201.59,0,0,0-36.11,37.6c-8.55,11.45-14.85,24-21.25,36.6-12.89,25.36-19.53,52.54-22.21,80.58-1.54,16.12-.93,32.45.83,48.67,2.46,22.84,7.56,44.9,17.33,65.81,2.23,4.76,5,6,10.41,6.58,20.59,2.07,37.84,10.3,47.29,30.23a16.33,16.33,0,0,1-1.17,13.76c-4.46,10-12.18,12.78-21.84,8.15-13.42-6.43-23.55-16.46-32.46-28-1.4-1.82-3.05-3.55-4-5.59-2.19-4.78-6.13-4-9.59-2.85-11.68,4-17.39,12.83-17.82,24.77a201.05,201.05,0,0,0,1.73,33.77c2.21,16.46,5,32.91,5.37,49.54a249.59,249.59,0,0,1-2.46,43.93c-.55,3.51-1,7.06-1.71,10.56ZM789.67,174.77c0-14.13-6.43-24.76-17.57-32.38-5.22-3.57-6.4-7.88-6.43-13.32a44.86,44.86,0,0,1,1.45-12.19c1.6-5.86,3.68-11.7,4.32-17.68A213.17,213.17,0,0,0,771,49a44.43,44.43,0,0,0-6.62-18.38A77.56,77.56,0,0,0,739,6.27C727.31-.9,714.33-2.14,701.77,3.69c-5.11,2.37-9.39,2.35-13.86.3C678.19-.46,669,1.34,660.77,6.85c-18.11,12.11-31,27.85-31.12,51,0,14.5-1,28.63-5.81,42.61-9.51,27.5,8.08,54.88,30.24,66.21,3.41,1.74,3.79.54,3.79-2.54,0-2.16-1.15-4.64,1.07-6.47.46-4-.27-7.84-.65-11.75a32.68,32.68,0,0,1-8.68-14.46c-1.07-3.59-2.13-7.18-3.23-10.75-4.08-13.16-7.3-26.44-5.69-40.4-2.14-2.3-2.79-4.23,1.15-5.26.68-.18,2.09-.27,1.33-1.75-1.52-3.61,1.2-6.6,1.42-10-2.1-2.74-6.14-.22-8.32-2.89.73-1.89,2.4-1.63,3.74-1.93,4.51-1,9.1-.73,13.66-.85,2.19-.06,4.65.58,6.33-1.62a35.82,35.82,0,0,0-3.84-.54c-9.3-.32-9.33-.31-5.35-9.07.91-2,1.35-4.78,4.32-4.72,4.12.07,8.21-.87,12.25-.71,17.56.73,35.12.24,52.67.3,3.71,0,5.86,1.21,7.4,4.28,6,12,9.29,24.47,8,37.94-.29,3.14-.05,5.17,3.57,6.83,8.33,3.8,9.1,14.57,1,18.81-6,3.12-6.67,7.18-6.42,12.67.13,2.94-.19,5.91-.26,8.86-.35,16.24-1.86,32.47-.81,48.73l2.77-3.34c2.49-3,7.16-3.79,9.77-.94,1.81,2,3.66,2.15,5.94,2.38a32.46,32.46,0,0,1,7.63,1.58c9.16,3.33,15.75,10.1,22.15,17.06C784.91,189.52,789.68,183.34,789.67,174.77ZM689.23,161.93c6.74-2.44,13.57-4.91,19.82-8.34,6-3.28,12.51-5.75,17.62-10.46,1.07-1,2.94-2.22,1.36-4.07-1.26-1.48-2.6-.33-3.94.32-7.93,3.79-15.79,7.74-23.86,11.21-14.79,6.36-29.13,7.38-41.94-4.68-.82,4-1.31,7.92.65,11.74C668.3,164.25,678.47,165.83,689.23,161.93ZM440.06,245.34a120.35,120.35,0,0,1-32.26,2c-11.62-.77-23.08-2.72-34.61-4.14-3.12-.38-4.89-2.18-6-5.08s-.46-6.19-1.73-9.08c-2.12,0-2.87,5-5.3,2.06-1.87-2.27.46-4.8,2.17-6.78.3-.35.84-.49,1.2-.81q4.31-3.83,8.57-7.67c-3.82-1.7-5.59,2.59-9,3.15-1.36-5.79-1.81-11.61-2.59-17.39-.4-2.92.72-4.17,2.94-5.2-3-2.12-7-3.27-7-8a32.33,32.33,0,0,0-1.24,10.44,160.07,160.07,0,0,0,4.91,40c.77,3,1.19,4.33-2.9,3.2s-8.69-1.27-13.06-1.82a256.27,256.27,0,0,0-58.52-.79c-4.71.48-9.87,1.16-14,4.33a11,11,0,0,0,2.94-.09c8.18-2.62,16.66-3.35,25.13-3.64,14.08-.48,28.16-.38,42.16,1.74,5.48.83,11.83,3.31,16.32,1.47,6.53-2.68,9.51,2.2,14.12,3.32a25.93,25.93,0,0,0,3.43.17c4.4.39,8.86.47,13.17,1.28a149.29,149.29,0,0,0,46.87,1.5c3.24-.42,7.36-.14,9.48-3.9C443.58,244.27,441.8,245,440.06,245.34ZM669.43,94c8.57-10.41,9.9-22.08,6.09-34.66a11.12,11.12,0,0,0-1.18-2.66c-.45-.7-1.27-1.25-2.07-.71-.34.23-.38,1.13-.33,1.71.15,1.79.49,3.57.63,5.36.85,11-2,20.73-9.2,29.16-2.86,3.33-4.46,7.23-1.55,11.16s7,2.45,10.59.6c1.51-.78,2.74-1.26,4.56-.62,2.74,1,5.6.09,8.11-1.07,3.24-1.51,3.84-4.22,2.35-7.42-.6-1.28-1.35-2.2-3-1.93a2.48,2.48,0,0,0-2.4,2.57c0,1,.63,2.49-.88,2.91-1.24.34-2-.64-2.76-1.61-2.38-3.08-4.85-2.71-7.19.09-.92,1.09-1.44,2.62-3.2,2.71C667.63,96.43,667.64,96.22,669.43,94Zm4.71,29.42c1.33,1.22,1.21,3.56,3.8,3.92,5,.71,12.83-2.13,14.67-6.76a16.44,16.44,0,0,1,6.22-7.72c1.61-1.13,3.68-2.52,2.1-4.67-1.27-1.74-3.32-.31-5,.21a3.49,3.49,0,0,0-1.57,1.11c-1.6,2-3.1,1.73-5,.33-3.61-2.6-7.35-2.38-9.76,1.45-1.41,2.22-2.5,1.88-4.3,1.19-3.62-1.39-6.67.65-9.85,1.84-1.59.6-1.42,2.22-1.34,3.36.11,1.69,1.57,1.17,2.68,1,1.79-.23,3,1.08,4.53,1.65A6.66,6.66,0,0,1,674.14,123.46ZM701.66,55.7c-2.06.8-5.78-.23-5.34,3.49.36,3,3.46,3,5.93,3.09a89.93,89.93,0,0,1,18.37,3,20.63,20.63,0,0,0,4.36.6,2.19,2.19,0,0,0,2.3-1.5c.37-1.18-.49-1.86-1.39-2.27-7.15-3.26-14.78-5-22.3-7C702.91,55.33,702.27,55.47,701.66,55.7Zm-52.12,5.68c4.62-1.9,9.83-.24,14.29-2.64.26-1.43-1-1.67-1.79-2.2L660,56c-7.61.52-15.28-.21-22.84,1.34-2,.41-3.55,1.05-3.39,3.29.15,2,1.73,2.64,3.5,2.68,2.43.06,4.87,0,7.31,0C646.12,62.36,647.92,62,649.54,61.38ZM698.6,76.54c-1.19.77-2.66,1.67-2,3.5.61,1.6,2.1,1.23,3.39,1.28a11.59,11.59,0,0,0,6.06-1.77c3.09-1.76,6.08-1.14,9,0,2.28.92,4,2.83,5.59,4.69.9,1,1.77,3.06,3.38,1.84,1.44-1.08.18-2.8-.56-4-3.24-5.2-7.71-8.4-13.41-8.18C705.5,73.69,701.85,74.4,698.6,76.54Zm-38.78,1.39a1.41,1.41,0,0,0,2-.91,3.88,3.88,0,0,0-.59-2.24c-1.35-2.52-4.49-1.47-6.31-3.09a14.86,14.86,0,0,0-4.66.12c-2.4.28-5-.24-7.07,1.46-.7.94-1.77.44-2.65.68-2,.55-3.66,1.6-3.73,3.82-.08,2.69,2.39,2,3.9,2.52C647,79.21,652.88,74.41,659.82,77.93Zm-9.59-6.12,4.67-.12C653.32,71,651.76,70.63,650.23,71.81Zm23.91,51.65c.24-2.12-1-2.88-2.84-3.07ZM662,56.54l1.8,2.2C664.91,56.64,663.84,56.3,662,56.54Zm79.31,348.37q-143.94,0-287.89,0a27.71,27.71,0,0,1-10.15-1.5c-1.9,1.71-2.59,4.13-3.61,6.34-5.37,11.61-10.05,23.5-14.36,35.54-6.34,17.67-13,35.23-18.93,53-4.45,13.32-7.58,27.09-13,40.09-1.27,3-.07,4.2,2.34,5.25,19.27,8.35,38.13,17.6,57,26.85,2.72,1.34,3.73.68,4.49-2,7.16-25.61,14.07-51.29,21.9-76.7,4.67-15.15,8.86-30.44,13.3-45.66a5.54,5.54,0,0,1,4.59-4.36c6.75-1.56,13.58-1.94,20.41-2.66q57.27-6.06,114.67-10.68c9.65-.79,19.36-.85,29-1.31,2.35-.12,4.74.26,4.85,2.85s-2.67,2.29-4.5,2.57c-9.25,1.4-18.46,3.08-27.75,4.07-36.89,3.95-73.81,7.7-110.73,11.47-6.52.66-13.07,1.39-19.61,1.4-2.89,0-3.53.8-4.16,3.28-3.2,12.53-6.58,25-10,37.47q-5.78,21.09-11.74,42.13a6.44,6.44,0,0,0,.6,5.11c5.38,10.7,10.86,21.36,15.86,32.24q18.65,40.5,36.87,81.19c1.41,3.12,2.94,4,6.41,2.86,15.19-4.84,30.44-9.54,45.79-13.88,5-1.41,5.8-3.21,2.91-7.36-1.08-1.56-1.24-3.73-2-5.51Q560,574.33,538,520.81c-3.66-8.91-7.16-15.83-18-15.15a1.47,1.47,0,0,1-.47-.14c-1.84-.56-4.67-.67-4.39-3.07.31-2.64,3.17-1.63,4.91-1.55,20.83.93,41.5,3.59,62.19,6,33.42,3.81,66.75,8.47,100.2,12a67.41,67.41,0,0,0,74.75-61.34,136.25,136.25,0,0,0-1-31.46c-1.13-7.88-1.8-15.89-5-23.34C748.29,405.16,744.79,404.91,741.34,404.91Zm26.38-207c-7.22-1.5-14.44-3.11-21.79-3.77-3.51-.31-7.21-1-10.52,1.11a73.26,73.26,0,0,0-4.82,52.23c2.3,8.5,6.72,15.67,15.36,19.33,1.18.5,2.7,1.17,2.7,2.6,0,6.7,4.47,11.54,6.91,17.19,11.56,26.78,19.2,54.78,26.25,83,6.21,24.85,12.51,49.67,18.68,74.52.88,3.54,2.11,6.29,6.18,7.07,6.06,1.17,12.06,2.67,18.1,4,6.91,1.51,13.83,2.95,20.75,4.42l.33-1.19c-2.85-.84-5.72-1.67-8.56-2.54s-5.76-1.42-7.94-3.66c-.84-.85-1.62-1.75-1-3a2.38,2.38,0,0,1,2.33-1.55c8.66,1.39,16.54-3.82,25.15-2.93a10.6,10.6,0,0,0,6.34-1.58c-11.73-1.11-22.9-.59-34.05-.2-8.92.31-8.91.5-9.56-8.19-.12-1.47-.35-2.93-.43-4.4-1.29-23.78-1.85-47.62-4-71.32-3.57-39.25-10.18-78-20.85-116.07-4.34-15.47-10.36-30.11-20.81-42.59A11.78,11.78,0,0,0,767.72,197.92ZM540,239.64l-1.73,1.3c-5.14.79-5,6.52-8.51,9.63-.7-8.41-.55-16.1,1.32-23.7,1.8-15.89,6.54-31.25,9.13-47.61-2,.92-3.41,1.44-4.69,2.13-3.38,1.84-6.65,3.69-10.16.09-1.08-1.12-2.5-.78-3.17.78-3.71,8.61-10.53,15.67-13.45,24.47-6.61,19.94-10.07,40.53-8,61.62,1,10,3,19.83,10.6,27.46,2.73,2.73,5.63,3.75,9.31,2.64a168,168,0,0,0,25.55-9.95c21.48-10.52,42.67-21.65,64-32.46,2-1,3.53-2,4.39-4.26,4.08-10.53,8.43-21,12.5-31.51,3.46-9,6.68-18,10.27-27.81a59.42,59.42,0,0,0-25.34,8C589.9,213,566.32,222.83,545,236.83,543.11,237.4,541.7,238.76,540,239.64Zm-17.12-69.45c1.11.92,2.47,2.13,2.69,3.38.65,3.67,2.53,2.56,4.61,1.65q22.74-10,45.49-20c6.84-3,6.91-3,1.39-7.75a47.5,47.5,0,0,1-12.24-15.78c-.79-1.68-2.25-3.52-4.09-2.88-2.49.87-.29,2.73,0,4.06,1.09,4.86-.2,6.6-5.35,6.45a3.07,3.07,0,0,0-3.19,1.47c-4,5.95-6.75,6.72-13,3.25-5.79-3.22-10.33-8-14.31-13.2-1.21-1.6-2.1-3.14-4.22-1.86-6.29,3.77-9.35,4.45-9.16,14.81C512.45,152.48,513.94,162.82,522.89,170.19ZM395.53,284.5c4.55,2.25,9.5,3.83,14.74,2.69,13.74-3,21-13.42,27.48-24.53,1.14-1.94.28-2.84-1.85-2.28-11.53,3-23.25,2.73-34.95,1.65-8.77-.81-17.48-2.17-26.64-3.34C377.52,268.05,387.75,280.67,395.53,284.5ZM579.31,104.61c-2.63-2-5.93-3.64-9-.81s-4,6.4-2.12,10.3c1.29,2.7,2.68,5.48,2.56,8.4-.47,11.14,6.57,17.64,14.36,23.58,3.78,2.88,7.58,1.55,9.65-2.73,1-2.13,1.06-4.45,1.33-7.5C595.13,123.5,590,112.54,579.31,104.61ZM406,182.48c-12.88,1.13-25.69,2.83-38,7.12-1.45.5-3.28,1-3.24,2.53.06,2,2.16,1.46,3.52,1.65,2.43.32,4.86.66,7.29.8,14.77.86,29.46-.46,44.1-1.92a191.69,191.69,0,0,0,32.13-6.45c1.07-.29,3.09-.17,2.73-2.09-.26-1.38-1.87-.9-2.94-1.1-7.77-1.48-15.65-1.37-25.71-1.63C420.69,181.66,413.32,181.83,406,182.48Zm5.41,227.69c3.06-2.82,2.68-5.08-1.19-6.59-2.11-.82-4.46-1-6.68-1.53-2.86-.71-5-1-5.3,3.17-.17,2.78-2.91,4.1-5.32,4.25s-2.44-2.18-2.44-4c0-1.41-.51-2.27-2.07-1.8-4.06,1.22-7.52,3.36-9.71,7.07-1.28,2.15-.21,3.63,1.78,4.81,2.85,1.7,6,1.56,9.83,1.73C397.63,417.36,405.22,415.87,411.39,410.17ZM539.17,109.91a2.38,2.38,0,0,1,2-1c4.49,1.31,7.33-2.25,10.87-3.6,3.27-1.24,1.88-2.68-.2-3.9-1-.6-2.14-1.13-3.26-.59-9.14,4.44-17.4,10.07-24.1,17.84C529.65,116.06,536.12,115.82,539.17,109.91Zm20.92.28c.07-1.22-.34-2.84-1.45-2.76-4,.33-6.8,3.5-10.22,5.28-.88.46-.34,1.42.27,2.05,2.83,2.95,5.79,5.78,9.48,7.62,1.22.61,3.06,1.27,2.78-1.43A42,42,0,0,1,560.09,110.19Zm-15.88,23.66c-2.66-4.28-6.91-7.3-9.3-11.89-.86-1.65-2.61.22-3.82.79s-2.64,1.49-1.56,3c3.34,4.63,7,9,12.15,11.79,1.55.83,2.88.26,3.07-2A6.86,6.86,0,0,0,544.21,133.85ZM845.09,432.07c-5-.22-10-.47-14.93-.64-1.72-.06-2.18,1-2.12,2.57s.26,3,2,2.65c5-.93,10.36-.67,15.09-3ZM540,119.44c3.21,3.7,6.83,7,10.34,10.47a1.68,1.68,0,0,0,2.24.22c.82-.69.29-1.51-.14-2.18a50.49,50.49,0,0,0-8.41-10.19,16.6,16.6,0,0,0-2.1-1.42C540.82,117.27,538.33,117.49,540,119.44ZM375.93,215.15c9.18-1,17,1.13,22.25,9.48.37.59,1.28.85,1.94,1.26-5-10.29-15.85-14.83-26.11-10.94A9.71,9.71,0,0,0,375.93,215.15Zm-.67,4.83c5.95-1.24,10.77.73,14.72,5.17C387.63,218.82,381.44,216.65,375.26,220Zm-9.79,9,7.14-7.77C368.45,222.19,365.89,224.62,365.47,229ZM678.54,121.43c-.89-.08-2.17-.13-2.11,1.29a2.37,2.37,0,0,0,1.88,2c3.74,1,6.47-.57,9-4C683.8,119.67,681.29,121.69,678.54,121.43Zm6.75-8.09c-1.48-.32-1.89,1-2.36,2s.07,1.61,1.08,1.53a2.86,2.86,0,0,0,2.7-1.75A1.82,1.82,0,0,0,685.29,113.34Z"/></svg>