<?xml version="1.0" encoding="utf-8"?>
<!-- Generator: Adobe Illustrator 24.1.2, SVG Export Plug-In . SVG Version: 6.00 Build 0)  -->
<svg version="1.1" id="Layer_1" xmlns="http://www.w3.org/2000/svg" xmlns:xlink="http://www.w3.org/1999/xlink" x="0px" y="0px"
	 viewBox="0 0 1080 1080" style="enable-background:new 0 0 1080 1080;" xml:space="preserve">
<style type="text/css">
	.st0{fill:#FFFFFF;}
</style>
<g>
	<path class="st0" d="M1080,551.95c-3.7,3.75-8.58,4.78-13.46,5.54c-4.29,0.67-8.65,0.89-12.98,1.34c-1.51,0.16-3.01,0.4-4.93,0.65
		c0.54,1.01,0.78,1.66,1.18,2.17c0.77,0.97,1.71,1.81,2.44,2.81c3.95,5.41,1.35,11.61-5.34,12.32c-2.95,0.31-6.01,0.04-8.98-0.29
		c-10.76-1.2-21.06-4.45-31.42-7.39c-7.96-2.26-15.9-4.64-23.79-7.14c-9.11-2.89-14.25-9.25-16.47-18.52
		c-7.45-31.01-15.07-61.99-22.75-92.95c-4.34-17.49-8.86-34.93-13.41-52.37c-1.44-5.51-3.21-10.93-4.85-16.38
		c-0.25-0.83-0.65-1.61-0.98-2.41c-0.21,0.05-0.41,0.11-0.62,0.16c0.35,3.87,0.67,7.75,1.06,11.61c1.15,11.24,2.31,22.47,3.5,33.7
		c0.4,3.81,0.98,7.61,1.35,11.42c0.26,2.67,0.48,5.37,0.39,8.05c-0.13,3.72-0.49,7.44-0.92,11.14c-0.33,2.83-1.07,3.4-3.93,3.92
		c-1.19,0.21-2.36,0.51-3.9,0.84c0.49,1.5,0.81,2.66,1.24,3.78c4.7,12.4,9.15,24.89,12.3,37.79c4.47,18.32,6.9,36.88,5.77,55.75
		c-0.97,16.25-3.77,32.2-11.46,46.75c-12.6,23.84-32.39,38.61-58.59,44.69c-11.82,2.74-23.87,2.9-35.86,1.49
		c-19.75-2.33-39.47-4.93-59.19-7.55c-21.87-2.9-43.74-5.87-65.59-8.94c-13.13-1.85-26.22-3.95-39.33-5.93
		c-0.92-0.14-1.85-0.25-2.78-0.35c-2.65-0.27-3.46,0.75-2.36,3.27c2.53,5.79,5.21,11.52,7.76,17.3
		c19.49,44.16,38.96,88.33,58.46,132.49c1.4,3.18,1.95,6.25,0.18,9.53c-1.25,2.33-1,4.86,0.03,7.23c0.7,1.61,1.47,3.25,2.53,4.62
		c7.05,9.1,11.82,19.46,16.42,29.89c2.21,5.02,4.06,10.2,6,15.34c0.51,1.34,0.82,2.78,1.07,4.2c0.61,3.48-0.53,6.4-3.34,8.48
		c-2.32,1.72-4.8,3.26-7.32,4.68c-2.89,1.62-5.88,3.06-8.86,4.51c-2.77,1.34-4.64,1.04-6.64-1.32c-1.26-1.49-2.22-3.23-3.25-4.9
		c-0.98-1.59-1.84-3.24-2.81-4.83c-0.31-0.51-0.81-0.91-1.28-1.42c-1.65,0.48-2.73,1.6-3.58,2.87
		c-7.99,11.98-19.77,17.87-33.36,20.87c-6.49,1.43-13,2.64-19.69,2.5c-11.15-0.23-21.05-4.06-30.07-10.42
		c-0.91-0.64-1.72-1.52-2.34-2.45c-1.38-2.07-1.13-4.48,0.63-6.25c2.67-2.7,5.88-3.3,9.44-2.16c4.29,1.37,8.67,2.38,13.14,1.34
		c3.1-0.72,6.21-1.68,9.08-3.03c6.05-2.84,11.1-7.21,16.35-11.27c1.38-1.07,1.57-2.33,0.75-3.83c-0.95-1.72-1.84-3.48-2.82-5.19
		c-3.93-6.85-7.17-14.01-9.85-21.43c-0.35-0.97-0.71-1.95-1.17-2.87c-1.57-3.09-3.98-4.49-7.37-3.85c-2.32,0.43-4.55,1.35-6.79,2.13
		c-1.85,0.64-3.63,1.55-5.51,2.08c-5.13,1.43-8.12,0.17-10.44-4.61c-2.48-5.12-4.77-10.35-7.06-15.56
		c-17.46-39.74-35.2-79.35-51.4-119.63c-0.56-1.39-1.22-2.73-1.84-4.09c-0.24,0.02-0.48,0.04-0.71,0.06
		c-0.32,0.81-0.72,1.6-0.96,2.44c-3.27,11.56-6.5,23.13-9.78,34.68c-0.48,1.69-1.01,3.39-1.77,4.96c-1.45,2.96-3.58,3.99-6.84,3.69
		c-2.64-0.24-5.07-0.99-7.16-2.69c-0.4-0.33-0.81-0.65-1.25-0.92c-2.55-1.54-4.33-0.73-4.33,2.28c0,3.45-1.12,6.5-2.47,9.54
		c-6.11,13.72-12.27,27.42-18.32,41.17c-1.96,4.45-3.7,9-5.44,13.54c-2.42,6.33-4.99,7.44-11.2,4.58
		c-6.77-3.12-13.5-6.33-20.26-9.47c-1.12-0.52-2.31-0.92-3.48-1.32c-3.82-1.28-5.91-4.04-6.71-7.87c-0.3-1.42-0.42-2.87-0.68-4.3
		c-0.39-2.16-0.76-2.38-2.93-1.93c-3.24,0.67-6.45,1.51-9.72,1.98c-5.51,0.79-10.96,0.08-16.31-1.32
		c-10.81-2.81-21.08-6.85-30.04-13.7c-6.1-4.67-10.73-10.62-14.59-17.21c-0.31-0.53-0.58-1.1-0.77-1.69
		c-0.75-2.3-0.18-4.47,1.56-5.92c1.79-1.5,3.74-1.67,5.77-0.54c4.07,2.26,8.4,3.63,13.07,3.32c3.4-0.23,6.78-0.81,10.17-1.27
		c11.39-1.54,20.96-6.74,29.43-14.34c7.22-6.48,13.76-13.49,18.92-21.73c0.27-0.44,0.59-0.85,0.85-1.3
		c1.67-2.86,1.42-4.46-1.13-6.45c-2.39-1.88-5.04-3.25-8.08-3.79c-0.51-0.09-1.02-0.18-1.53-0.29c-6.43-1.39-9.59-7.03-7.3-13.22
		c2.05-5.53,4.49-10.94,6.34-16.54c4.8-14.55,9.5-29.14,13.98-43.79c6.18-20.23,14.1-39.83,21.26-59.71
		c5.62-15.61,11.92-30.92,19.58-45.66c4.54-8.73,9.06-17.48,13.45-26.28c4.23-8.48,9.35-16.37,15.38-23.67
		c0.99-1.2,2.04-2.34,3.11-3.47c4.16-4.38,9.28-6.5,15.31-6.33c5.9,0.17,11.8,0.44,17.71,0.61c10.67,0.3,21.34,0.49,32.01,0.86
		c21.02,0.72,42.04,1.46,63.05,2.34c15.84,0.66,31.66,1.57,47.5,2.3c8.28,0.38,16.57,0.6,24.85,0.93
		c14.28,0.57,28.57,1.16,42.85,1.74c0.7,0.03,1.4,0,2.17-0.47c-2.5-0.43-5-0.97-7.52-1.29c-13.78-1.72-27.57-3.31-41.34-5.08
		c-17.57-2.25-35.13-4.61-52.69-6.97c-1.52-0.2-3.07-0.63-4.45-1.27c-3.2-1.49-4.52-4.24-3.73-7.68c0.37-1.6,0.9-3.21,1.65-4.67
		c8.58-16.79,17.16-33.58,25.87-50.3c6.12-11.76,12.45-23.42,18.67-35.13c0.24-0.45,0.41-0.92,0.86-1.93
		c-1.15,0.29-1.91,0.35-2.54,0.66c-5.75,2.85-11.49,5.72-17.22,8.62c-22.44,11.4-44.88,22.79-67.9,32.97
		c-6.07,2.68-12.29,4.93-18.83,6.26c-5.15,1.05-9.82,0.32-14.24-2.59c-8.7-5.73-14.13-13.87-17.48-23.51
		c-3.78-10.86-5.24-22.15-5.58-33.59c-0.39-12.9,1.11-25.65,3.4-38.33c0.13-0.71,0.21-1.43,0.24-2.15c0.01-0.26-0.21-0.52-0.51-1.21
		c-1.24,1-2.39,1.81-3.41,2.76c-4.84,4.53-9.63,9.12-14.48,13.65c-8.5,7.93-18.01,14.27-28.97,18.32c-3.21,1.18-5.15,3.61-6.89,6.42
		c-3.82,6.16-7.56,12.39-11.81,18.25c-7,9.64-16.09,16.66-27.61,20.21c-2.76,0.85-5.62,1.4-8.44,2.08c-3.5,0.85-4.47,1.87-4.79,5.49
		c-0.47,5.26-0.84,10.53-1.22,15.8c-1.22,16.84-2.51,33.68-3.59,50.54c-0.85,13.13-1.44,26.28-2.14,39.41
		c-0.15,2.79-0.28,5.58-0.39,8.38c-0.04,0.93-0.06,1.87,0.02,2.8c0.22,2.47,0.76,3.13,3.31,3.09c6-0.1,11.37,1.96,16.61,4.54
		c0.28,0.14,0.56,0.27,0.84,0.41c8.64,4.6,9.73,14.51,2.27,20.97c-1.09,0.94-2.32,1.76-3.59,2.44c-13.78,7.29-28.3,8.87-43.42,5.42
		c-1.8-0.41-3.58-1.1-5.22-1.95c-4.08-2.09-6.31-5.59-6.95-10.07c-0.46-3.27,0.51-6.14,2.81-8.55c4.45-4.64,10.01-7.4,16.11-8.91
		c3.88-0.96,5.79-2.91,5.96-7.42c0.55-13.97,1.18-27.95,1.89-41.91c0.58-11.38,1.28-22.76,2-34.13c0.71-11.27,1.49-22.54,2.25-33.8
		c0.21-3.2,0.4-6.41,0.67-9.61c0.22-2.72-0.94-4.7-3.31-5.8c-14.46-6.69-23.27-18.56-29.89-32.45c-0.62-1.31-1.23-2.63-1.86-3.94
		c-1.36-2.83-3.59-4.51-6.7-4.94c-5.95-0.81-11.92-1.56-17.87-2.36c-9.86-1.33-19.7-2.74-29.57-4.01c-4.52-0.58-9.06-1.13-13.6-1.29
		c-8.08-0.27-16.17-0.32-24.25-0.25c-2.13,0.02-4.35,0.55-6.35,1.31c-4.97,1.88-10.07,3.13-15.31,3.95
		c-10.2,1.59-19.05,6.15-26.98,12.63c-15.63,12.78-27.11,28.7-35.42,47c-6.25,13.76-10.75,28.05-12.72,43.06
		c-2.21,16.77-0.81,33.3,3.69,49.58c1.36,4.91,4.75,7.6,9.69,8.51c8.04,1.48,15.55,4.36,22.38,8.86c2.59,1.7,5.1,3.57,7.44,5.6
		c4.68,4.05,7.76,9.11,9.02,15.22c1.02,4.92-0.08,9.31-3.45,12.98c-2.09,2.28-4.47,4.32-6.83,6.33c-4.16,3.56-8.85,3.83-13.66,1.6
		c-12.55-5.83-22.92-14.07-29.13-26.82c-1.28-2.63-2.96-5-5.44-6.68c-2.01-1.37-4.23-2.28-6.67-2.3
		c-20.54-0.17-41.02,0.14-61.1,5.47c-25.92,6.87-48.29,19.92-67.81,38.15c-22.46,20.98-40.14,45.43-53.81,72.9
		c-7.86,15.79-15.15,31.79-20.11,48.76c-4.52,15.44-7.6,31.18-9.73,47.12c-1.78,13.39-2.32,26.84-2.09,40.32
		c0.52,29.8,4.63,59.06,14.04,87.42c2.47,7.46,5.71,14.66,8.59,21.99c2.2,5.6,6.3,8.34,12.29,8.94c9.93,0.99,19.63,3.03,28.79,7.23
		c12.7,5.83,22.27,14.93,28.91,27.18c3.51,6.47,3.85,13.04,0.49,19.65c-1.31,2.57-2.68,5.19-4.46,7.43
		c-4.33,5.46-10.16,7.47-16.9,5.9c-3.38-0.79-6.71-2.18-9.8-3.79c-13.18-6.87-23.9-16.72-33.17-28.19
		c-3.38-4.18-6.45-8.62-9.57-13.01c-1.87-2.63-3.79-3.51-6.91-2.84c-13.74,2.97-22.51,12.46-24.49,26.36
		c-1.17,8.17-0.55,16.33-0.21,24.51c0.61,14.63,3.12,29.04,5.01,43.52c1.91,14.7,3.4,29.42,3.67,44.27
		c0.37,19.86-1.56,39.52-4.79,59.07c-0.15,0.89-0.5,1.75-0.78,2.72c-5.01,0-9.85,0-15.04,0c0-1.69-0.12-3.3,0.02-4.89
		c1.03-11.35,2.36-22.68,3.09-34.05c0.43-6.7-0.04-13.46-0.19-20.19c-0.42-18.57-2.51-36.99-4.87-55.39
		c-1.29-10.07-2.54-20.15-3.8-30.22c-0.46-3.68,0.23-7.49-1.3-11.05c-0.04-0.09-0.03-0.21-0.01-0.31c1.71-7.98,1.33-16.32,4-24.14
		c0.84-2.45,1.62-4.91,2.49-7.35c2.57-7.24,7.1-13.09,13.04-17.84c3.15-2.52,6.39-4.98,9.77-7.17c2.05-1.33,4.45-2.13,6.71-3.13
		c0.91-0.4,1.87-0.7,3.14-1.17c-0.63-1.72-1.07-3.18-1.69-4.55c-5.36-11.71-9.76-23.76-12.98-36.23
		c-4.07-15.78-7.02-31.77-8.4-48.01c-1.06-12.48-1.87-25.01-2.23-37.53c-0.21-7.43,0.36-14.92,1.11-22.33
		c1.07-10.51,2.31-21.01,4.05-31.43c2.63-15.79,7.57-30.97,13.26-45.9c6.28-16.47,12.69-32.88,21.55-48.18
		c11.77-20.33,25.32-39.4,41.12-56.83c7-7.73,15.03-14.24,23.38-20.41c11.94-8.82,24.19-17.13,37.8-23.22
		c15.77-7.06,32.25-11.84,49.23-14.89c8.98-1.61,17.99-3,27.14-3.16c2.69-0.05,5.38,0.14,8.07,0.24c0.52,0.02,1.03,0.13,1.54,0.12
		c2.52-0.03,3.19-0.7,3.01-3.16c-0.08-1.03-0.32-2.05-0.56-3.05c-3.44-14.56-4.32-29.3-2.98-44.16
		c1.49-16.56,6.03-32.33,12.79-47.49c7.57-17,17.42-32.5,30.54-45.79c11.3-11.44,24.51-20.01,39.48-25.91
		c2.79-1.1,5.51-2.37,8.18-3.73c3.38-1.72,6.97-2.64,10.69-3.1c16.5-2.02,33.07-2.53,49.66-1.75c14.49,0.69,28.92,2.16,43.23,4.68
		c0.59,0.1,1.21,0.01,2.28,0.01c-0.13-1.31-0.15-2.49-0.36-3.62c-1.33-7.02-3-13.99-3.99-21.05c-0.96-6.86-1.37-13.81-1.76-20.73
		c-0.25-4.44-0.1-8.9-0.03-13.35c0.09-5.74,2.85-9.79,7.97-12.33c4.13-2.05,8.54-3.12,13-4.08c14.6-3.14,29.34-5.44,44.22-6.65
		c16.25-1.33,32.51-1.46,48.73,0.45c5.37,0.63,10.54,2.13,15.46,4.45c4.38,2.07,6.79,5.4,6.42,10.35
		c-0.64,8.47-1.22,16.95-2.16,25.39c-1.07,9.58-2.85,19.05-5.42,28.36c-0.47,1.7-1.05,3.36-1.55,5.05
		c-0.26,0.89-0.62,1.81-0.61,2.71c0.01,0.62,0.44,1.5,0.95,1.78c0.47,0.26,1.45,0.09,1.95-0.27c9.19-6.54,18.72-12.63,26.39-21.1
		c3.55-3.92,7.37-7.58,11.12-11.31c6.2-6.16,10.66-13.44,14.05-21.45c3.31-7.82,6.46-15.71,10.77-23.08
		c2.16-3.7,2.26-7.73,0.76-11.71c-1.13-3-2.49-5.92-3.71-8.89c-3.07-7.45-5.19-15.1-4.7-23.25c0.3-4.98,1.04-9.79,4.11-14.09
		c2.27-3.18,3.95-6.8,5.74-10.31c3.81-7.49,9.12-13.5,16.48-17.72c4.76-2.73,9.24-5.96,14.07-8.56c3.34-1.8,7-3.09,10.62-4.3
		c3.65-1.22,6.93-0.41,9.52,2.67c2.77,3.3,6.23,3.75,10.13,2.32c2.72-1,5.4-2.2,8.21-2.81c7.77-1.7,14.84,0.15,21.02,5.06
		c12.16,9.67,19.81,22.12,22.66,37.45c0.84,4.51,1.26,9.02,0.11,13.55c-0.91,3.59-2.65,6.72-5.01,9.55
		c-1.62,1.93-3.63,3.07-6.18,3.1c-4.57,0.05-8.74,1.48-12.75,3.55c-11.59,5.99-23.2,11.96-34.8,17.93
		c-2.97,1.53-4.68,3.95-5.41,7.18c-3.11,13.63-6.25,27.26-9.37,40.88c-1.32,5.75-2.64,11.51-3.94,17.26
		c-0.22,0.96-0.33,1.95-0.6,3.59c1.42-0.66,2.26-0.97,3.01-1.41c26.24-15.5,53.32-29.42,80.64-42.87c4.73-2.33,9.66-4.26,14.6-6.1
		c5.69-2.11,11.63-2.92,17.71-2.54c1.65,0.1,3.32,0.1,4.97,0.02c2.28-0.11,3.13-0.75,3.78-2.98c0.66-2.29,1.6-4.62,1.61-6.94
		c0.01-4.15,3.01-5.72,7.4-5.21c2.98,0.35,5.13,2.08,6.98,4.27c2.27,2.69,4.4,5.52,6.79,8.09c10.91,11.74,24.14,19.08,40.27,20.63
		c9.31,0.89,18.18-0.84,26.49-5.13c7.47-3.86,13.82-9.1,19.03-15.72c1.42-1.8,2.13-3.7,2.01-6.01c-0.98-18.45,0.57-36.85,1.17-55.27
		c0.15-4.56,0.22-9.12,0.14-13.68c-0.12-6.62,2.37-11.62,8.39-14.74c8.85-4.58,8.52-15.83,0.82-20.92
		c-0.95-0.63-1.97-1.15-2.97-1.69c-2.49-1.35-3.87-3.39-3.82-6.28c0.03-1.55,0.05-3.11,0.17-4.66c0.83-10.19-0.75-20.06-4.04-29.66
		c-1.54-4.49-3.6-8.81-5.44-13.2c-1.78-4.25-4.99-6.01-9.57-5.94c-8.4,0.13-16.8,0.04-25.2,0.04c-8.61,0-17.21,0.03-25.82-0.02
		c-3.21-0.02-6.42-0.4-9.62-0.3c-6.31,0.21-12.61,0.63-18.92,0.98c-1.5,0.08-2.52,0.9-3.09,2.24c-1.34,3.14-2.75,6.26-3.95,9.46
		c-0.75,2.01-0.23,2.82,1.91,3.37c1.29,0.33,2.65,0.44,3.98,0.6c3.59,0.44,7.19,0.87,10.79,1.27c1.13,0.13,2.27,0.52,2.16,1.73
		c-0.08,0.85-0.84,2.12-1.56,2.34c-2.35,0.72-4.8,1.3-7.24,1.46c-3.97,0.25-7.8,0.98-11.56,2.22c-2.36,0.77-3.92,2.17-4.33,4.76
		c-0.34,2.2-1.76,4.21-1.13,7.04c2.77-0.33,5.55-0.44,8.21-1.06c2.25-0.52,4.3-0.39,6.39,0.37c1.85,0.68,3.76,1.24,5.49,2.15
		c1.01,0.53,1.87,1.55,2.51,2.53c0.64,0.98,0.66,2.19-0.23,3.18c-0.92,1.02-1.99,0.84-3.13,0.38c-4.27-1.75-8.52-1.3-12.75,0.17
		c-2.15,0.75-4.28,1.56-6.48,2.17c-2.11,0.58-3.2,1.83-3.17,3.99c0.07,5.07-0.1,10.16,0.36,15.19c0.95,10.36,3.72,20.35,6.72,30.28
		c1.35,4.46,2.64,8.94,4.08,13.37c4.03,12.38,11.51,21.65,23.95,26.45c9.19,3.55,18.4,3.37,27.73,0.58
		c8.28-2.48,15.98-6.3,23.75-9.96c5.15-2.43,10.27-4.92,15.41-7.38c0.75-0.36,1.5-0.73,2.29-0.96c1.45-0.42,2.67-0.03,3.48,1.31
		c0.75,1.22,0.64,2.45-0.33,3.43c-1.53,1.53-3.03,3.21-4.84,4.34c-4.39,2.73-8.9,5.29-13.47,7.71c-9.25,4.9-18.76,9.23-28.68,12.64
		c-12.58,4.31-24.63,3.75-36.1-3.39c-0.43-0.27-0.92-0.46-1.4-0.65c-0.18-0.07-0.4-0.01-1.05-0.01c-0.21,0.93-0.57,1.95-0.64,3
		c-0.11,1.65,0.08,3.32-0.05,4.96c-0.21,2.65-1.43,3.43-3.98,2.65c-0.79-0.24-1.55-0.59-2.27-0.99
		c-19.65-10.93-32.79-27.01-38.33-48.94c-2.76-10.94-1.86-21.81,1.73-32.46c4.17-12.37,6.2-25.12,6.77-38.12
		c0.24-5.48,0.34-10.98,0.49-16.46c0.46-16.67,6.59-31.03,17.7-43.35c6.78-7.53,14.57-13.82,23.25-19.03
		c10.03-6.02,20.39-7,31.18-2.19c5.3,2.36,10.64,2.51,15.95,0.08c5.03-2.29,10.25-3.89,15.73-4.65c0.27-0.04,0.5-0.31,0.75-0.47
		c2.7,0,5.39,0,8.09,0c0.46,0.19,0.9,0.51,1.37,0.55c6.63,0.55,12.71,2.74,18.51,5.9c13.57,7.38,24.53,17.6,33.23,30.29
		c2.88,4.21,5.1,8.76,6.72,13.61c2.39,7.15,2.97,14.6,3.6,22.02c0.85,10.02,1.35,20.07,0.72,30.12c-0.5,7.95-0.92,15.94-2.02,23.82
		c-0.74,5.3-2.51,10.46-3.98,15.64c-1.75,6.13-2.68,12.34-2.47,18.72c0.21,6.31,2.57,11.35,8.03,14.92
		c5.33,3.49,9.91,7.88,13.47,13.2c6.48,9.68,9.18,20.29,7.49,31.9c-0.64,4.38-2.44,8.33-4.71,12.08c-1.76,2.92-3.53,5.84-5.4,8.93
		c0.98,1.32,1.87,2.57,2.81,3.79c10.63,13.7,17.79,29.15,22.78,45.64c6.52,21.53,11.2,43.52,15.44,65.6
		c5.91,30.76,10.09,61.77,12.35,93c1.57,21.69,2.31,43.45,3.43,65.17c0.12,2.27,0.19,4.56,0.53,6.81c0.36,2.39,1.19,2.98,3.58,2.9
		c1.76-0.06,3.51-0.39,5.27-0.39c5.27,0.02,10.56-0.03,15.81,0.3c3.84,0.24,6.92,2.14,8.59,5.79c1.07,2.36,2.92,3.26,5.38,3.55
		c4.63,0.54,9.24,1.26,13.85,1.92c5.9,0.84,10.53,3.44,12.84,9.27C1080,546.97,1080,549.46,1080,551.95z M911.07,464.62
		c-16.98-2.66-33.53-3.46-50.09-4.07c-12.11-0.45-24.24-0.7-36.34-1.37c-16.34-0.9-32.66-2.22-49-3.16
		c-16.03-0.92-32.07-1.64-48.11-2.35c-12.21-0.54-24.43-0.87-36.64-1.43c-10.14-0.46-20.27-1.11-30.41-1.69
		c-9.93-0.57-19.85-1.18-29.78-1.73c-5.48-0.3-10.97-0.76-16.45-0.67c-7.04,0.11-14.06,0.9-21.1,1.02
		c-4.85,0.08-9.74-0.24-14.55-0.86c-3.27-0.42-6.33-0.32-8.88,1.66c-2.67,2.07-5.44,4.3-7.35,7.03
		c-5.87,8.41-11.1,17.22-15.79,26.38c-3.97,7.75-6.94,15.89-10.36,23.86c-1.67,3.9-3.46,7.76-5.05,11.7
		c-11.91,29.38-22.37,59.31-32.77,89.24c-4.62,13.3-8.35,26.9-12.62,40.32c-1.47,4.63-3.39,9.12-5.04,13.7
		c-1.08,3-0.67,4.05,2.13,5.55c1.46,0.78,3.02,1.37,4.51,2.07c21.34,10.09,42.68,20.18,64.02,30.29c4.95,2.34,5.72,2.02,7.15-3.09
		c5.14-18.35,10.17-36.73,15.46-55.04c6.49-22.49,13.2-44.91,19.78-67.38c2.45-8.35,4.89-16.7,7.16-25.09
		c1.13-4.2,3.57-6.63,7.89-7.23c1.74-0.24,3.46-0.71,5.21-0.89c13.91-1.48,27.82-2.95,41.73-4.36c11.44-1.16,22.89-2.27,34.34-3.34
		c12.79-1.2,25.59-2.36,38.39-3.49c10.84-0.95,21.67-1.96,32.53-2.71c13.23-0.92,26.47-1.62,39.71-2.34
		c3.62-0.2,7.25-0.22,10.88-0.11c2.52,0.08,3.89,1.45,4.03,3.48c0.14,2.13-0.86,3.2-3.68,3.67c-3.17,0.53-6.35,0.95-9.53,1.41
		c-9.23,1.33-18.43,2.83-27.69,3.92c-12.96,1.53-25.97,2.73-38.95,4.09c-10.92,1.14-21.84,2.32-32.77,3.45
		c-12.99,1.34-25.98,2.65-38.97,3.95c-12.47,1.25-24.95,2.51-37.43,3.69c-3.71,0.35-7.45,0.4-11.17,0.64
		c-2.9,0.18-3.79,0.93-4.63,3.69c-0.15,0.5-0.29,0.99-0.43,1.49c-8.52,31.16-17.01,62.33-25.61,93.48c-1.12,4.05-0.7,7.63,1.2,11.36
		c5.5,10.8,11.04,21.59,16.11,32.6c14.62,31.7,29.03,63.49,43.52,95.25c1.46,3.2,2.88,6.43,4.43,9.59c1.37,2.78,2.77,3.37,5.81,2.75
		c0.71-0.14,1.41-0.33,2.1-0.54c18.24-5.51,36.47-11.01,54.7-16.55c1.47-0.45,2.92-1.08,4.25-1.85c1.3-0.75,1.71-1.93,1.03-3.46
		c-2.12-4.83-4.09-9.73-6.26-14.54c-16.59-36.84-32.72-73.87-48.18-111.2c-3.09-7.46-6.17-14.94-9.59-22.26
		c-3.37-7.2-9.08-11.05-17.29-10.94c-1.79,0.02-3.66-0.62-5.35-1.32c-0.77-0.32-1.5-1.45-1.68-2.33c-0.4-1.96,0.83-3.24,3.12-3.18
		c4.35,0.12,8.7,0.36,13.03,0.7c8.99,0.69,17.98,1.37,26.94,2.26c9.79,0.97,19.57,2.14,29.35,3.26c13.28,1.52,26.56,3.01,39.83,4.62
		c14.19,1.72,28.37,3.59,42.56,5.32c15.12,1.84,30.25,3.59,45.38,5.36c9.91,1.16,19.82,1.81,29.71-0.25
		c27.58-5.74,47.8-20.98,60-46.54c6.98-14.62,8.4-30.25,7.82-46.12c-0.27-7.34-1.42-14.64-2.04-21.96
		c-0.62-7.31-2.6-14.4-3.14-21.76c-0.35-4.76-1.95-9.5-3.45-14.09C916.37,478.88,913.62,471.73,911.07,464.62z M1052.42,546
		c0.01-0.31,0.01-0.63,0.02-0.94c-7.54-0.23-15.07-0.61-22.63-0.34c-7.14,0.26-14.29,0.42-21.44,0.48
		c-3.44,0.03-4.88-1.33-5.43-4.72c-0.32-1.94-0.57-3.9-0.69-5.86c-0.56-9.1-1.08-18.19-1.57-27.29c-0.92-17.17-1.68-34.34-2.75-51.5
		c-1.12-17.99-3.06-35.91-5.49-53.78c-3.41-25.06-8.02-49.89-13.88-74.49c-3.55-14.91-7.1-29.82-12.34-44.26
		c-4.2-11.56-9.82-22.36-17.06-32.32c-2.79-3.84-6.27-6.66-11.02-7.5c-8.87-1.56-17.74-3.16-26.67-4.37
		c-8.31-1.13-10.22,0.23-13.29,8.15c-7.21,18.59-7.94,37.53-2.97,56.75c1.63,6.29,4.27,12.1,8.83,16.89
		c2.9,3.05,6.33,5.34,10.18,6.98c1.86,0.79,3.24,1.95,3.34,4.06c0.23,4.71,2.19,8.78,4.4,12.8c1.79,3.26,3.56,6.56,5.02,9.98
		c9.73,22.7,17.35,46.14,23.56,70.01c8.73,33.56,17.05,67.24,25.56,100.86c1.85,7.33,3.77,14.64,5.64,21.96
		c1.03,4.05,3.54,6.15,7.72,7c12.78,2.6,25.51,5.49,38.25,8.26c1.67,0.36,3.35,0.69,5.02,1.03c-0.74-0.78-1.61-1.08-2.48-1.35
		c-2.87-0.87-5.77-1.68-8.62-2.62c-2.49-0.81-4.83-1.96-6.48-4.09c-1.9-2.46-0.68-5.29,2.41-5.69c0.41-0.05,0.83-0.06,1.24-0.02
		c4.94,0.49,9.7-0.49,14.42-1.73c5.44-1.43,10.92-2.4,16.58-2.1C1050.68,546.29,1051.56,546.09,1052.42,546z M779.15,237.63
		c-1.85,0.1-3.08,0.04-4.27,0.26c-8.52,1.53-16.58,4.36-24.23,8.44c-12.06,6.43-24.17,12.76-36.31,19.03
		c-18.32,9.45-36.54,19.07-53.9,30.21c-0.87,0.56-1.78,1.07-2.73,1.46c-2.03,0.82-3.44,2.25-4.49,4.11
		c-0.96,1.72-1.88,3.46-2.97,5.1c-0.5,0.76-1.36,1.28-2.42,2.25c-0.37-1.39-0.75-2.16-0.76-2.94c-0.04-5.07-0.49-10.21,0.13-15.21
		c1.14-9.34,2.73-18.65,4.49-27.9c2.07-10.88,4.54-21.68,6.8-32.52c0.52-2.49,0.89-5,1.44-8.15c-1.77,0.68-2.91,1.05-3.99,1.55
		c-1.32,0.6-2.55,1.4-3.89,1.94c-3.16,1.27-6.21,1.27-9.13-0.82c-2.41-1.73-2.76-1.51-4.19,1.04c-2.28,4.06-4.51,8.17-7.04,12.07
		c-4.08,6.28-7.83,12.7-10.01,19.92c-1.31,4.36-2.6,8.73-3.72,13.15c-5.62,22.23-7.5,44.68-3.99,67.46c1.33,8.66,4.22,16.65,10,23.4
		c4.65,5.43,8.4,6.56,15.14,4.35c11.62-3.82,22.93-8.39,33.85-13.94c17.35-8.82,34.72-17.61,52.07-26.42
		c6.83-3.47,13.65-6.97,20.49-10.41c3.28-1.65,5.72-3.99,7.06-7.49c8.45-22.04,16.94-44.07,25.4-66.1
		C778.37,240.41,778.63,239.31,779.15,237.63z M626.03,176.08c0.38,3.11,0.62,6.11,1.11,9.07c1.58,9.47,5.2,17.84,12.86,24.13
		c1.53,1.26,2.55,3.19,3.63,4.93c1,1.6,1.41,1.91,3.23,1.32c0.79-0.25,1.54-0.6,2.3-0.94c14.31-6.3,28.62-12.6,42.93-18.91
		c5.21-2.3,10.43-4.57,15.58-6.98c2.93-1.37,3.03-2.36,0.7-4.49c-1.68-1.54-3.46-2.98-5.1-4.55c-5.22-4.99-9.48-10.67-12.73-17.14
		c-0.61-1.21-1.75-2.21-2.8-3.13c-0.3-0.26-1.31-0.11-1.68,0.21c-0.34,0.29-0.43,1.09-0.35,1.63c0.11,0.7,0.58,1.34,0.74,2.03
		c1.57,6.73-0.85,8.37-5.81,8.57c-2.48,0.1-4.2,1.04-5.7,3.09c-4.27,5.85-7.99,6.61-14.48,3.32c-0.37-0.19-0.73-0.39-1.09-0.59
		c-5.9-3.25-10.78-7.68-15.01-12.87c-1.31-1.61-2.61-3.22-3.91-4.84c-0.99-1.23-2.13-1.54-3.53-0.67c-2.02,1.26-4.14,2.38-6.09,3.73
		c-2.41,1.68-3.75,4.16-4.25,7C626.22,172.04,626.19,174.13,626.03,176.08z M443.64,268.67c1.43-0.86,2.38-1.44,3.34-2
		c1.34-0.77,2.62-1.75,4.05-2.26c8.82-3.12,17.62-3.33,26.31,0.54c2.59,1.16,4.8,2.82,6.55,5.09c4.09,5.31,9.48,9.23,14.53,13.51
		c2.13,1.8,4.1,1.6,6.08-0.41c1.15-1.17,2.15-2.53,2.99-3.94c1.32-2.22,2.44-4.56,3.65-6.84c5.7-10.69,14.09-17.81,26.42-19.34
		c3.35-0.42,6.82-0.25,10.2,0.01c4.36,0.33,6.18-1.07,6.37-5.45c0.03-0.62,0-1.24,0.01-1.86c0.04-5.91-0.37-6.26-6.24-4.85
		c-10.58,2.55-21.29,4.36-32.1,5.49c-17.34,1.82-34.72,2.03-52.1,0.61c-5.12-0.42-10.37-0.24-15.15-2.78
		c-1.14-0.61-2.59-0.74-3.92-0.87c-3.29-0.32-4.41,0.77-4.32,4.01c0.01,0.52,0.05,1.04,0.13,1.55c0.79,5.64,1.57,11.27,2.39,16.9
		C442.95,266.57,443.26,267.33,443.64,268.67z M501.46,304.16c14.41,0.02,25.74-0.93,36.97-3.04c2.68-0.5,4.36-1.96,5.39-4.54
		c2.59-6.47,4.15-13.2,5.74-19.96c1.56-6.62-4.93-13.93-12.9-11.03c-5.63,2.05-9.31,5.97-11.78,11.26
		c-1.27,2.72-2.42,5.51-3.89,8.12c-7.62,13.51-25.24,16.3-36.75,5.9c-4.28-3.87-7.57-8.44-10.15-13.61
		c-2.52-5.05-8.38-7.41-13.72-5.69c-1.67,0.54-3.32,1.18-4.91,1.94c-3.39,1.62-5.8,4.3-7.68,7.48c-1.35,2.27-0.23,4.65-0.14,6.99
		c0.03,0.93,0.17,1.86,0.36,2.77c1.04,5.01,3.81,7.43,8.94,8.01c4.01,0.46,8.01,1.06,12.02,1.54
		C480.77,301.71,492.59,303.11,501.46,304.16z M534.55,321.03c-1.54,0.07-2.75-0.04-3.88,0.21c-14.02,3.15-28.15,2.95-42.31,1.36
		c-8.84-1-17.66-2.19-26.49-3.25c-1.15-0.14-2.34-0.02-3.84-0.02c0.41,1.17,0.59,1.96,0.94,2.68c4.25,8.78,9.97,16.45,17.39,22.8
		c3.25,2.78,6.77,5.15,10.86,6.5c3.63,1.19,7.29,2.28,11.23,1.74c8.31-1.15,15.27-4.93,21.28-10.66
		c5.76-5.49,10.05-12.07,13.96-18.92C534.02,322.87,534.16,322.16,534.55,321.03z M728.62,167.7c-0.51-12.5-4.88-23.42-13.56-32.46
		c-2.56-2.67-5.53-4.99-8.51-7.21c-2.05-1.52-4.47-2.2-6.99-0.81c-4.11,2.27-6.03,7.32-4.43,11.78c0.35,0.97,0.8,1.91,1.26,2.84
		c1.77,3.6,2.59,7.41,2.52,11.41c-0.06,3.27,0.76,6.33,2.12,9.29c3.46,7.55,9.42,12.74,16.15,17.19c3.39,2.24,6.13,1.72,8.68-1.45
		c1.47-1.83,2.28-3.93,2.5-6.25C728.51,170.6,728.54,169.15,728.62,167.7z M554.32,226.14c-1.15-0.25-2.14-0.6-3.14-0.68
		c-7.84-0.58-15.67-1.38-23.52-1.6c-11.49-0.32-22.96,0.33-34.42,1.39c-13.52,1.25-26.91,3.2-39.95,7.1
		c-1.98,0.59-3.91,1.34-5.83,2.1c-0.89,0.35-1.82,1.03-1.35,2.08c0.26,0.57,1.24,1.05,1.95,1.13c4.11,0.49,8.23,1.17,12.35,1.19
		c9.41,0.04,18.84-0.04,28.24-0.48c14.48-0.67,28.91-2.04,43.13-4.98c6.78-1.4,13.47-3.24,20.19-4.91
		C552.98,228.23,554.32,228.21,554.32,226.14z M477.42,512.7c1.97-0.17,4.56-0.26,7.1-0.66c5.39-0.85,10.48-2.55,14.82-6
		c1.37-1.09,2.67-2.32,3.74-3.7c1.4-1.81,1.12-3.24-0.68-4.51c-0.75-0.53-1.62-1-2.5-1.21c-3.12-0.74-6.25-1.47-9.41-1.99
		c-2.23-0.37-2.89,0.22-3.55,2.46c-0.15,0.5-0.24,1.01-0.36,1.51c-0.79,3.16-2.65,4.79-5.82,5.12c-2.74,0.28-3.76-0.42-4.46-3.09
		c-0.19-0.7-0.31-1.42-0.47-2.12c-0.29-1.23-1.07-1.77-2.3-1.41c-4.77,1.4-8.54,4.13-11.01,8.52c-0.78,1.38-0.39,2.55,0.72,3.62
		c1.72,1.66,3.81,2.49,6.12,2.76C471.82,512.31,474.3,512.45,477.42,512.7z M671.01,139.55c0.34,0.68,0.49,1.19,0.8,1.55
		c3.08,3.53,6.63,6.49,10.78,8.66c0.63,0.33,1.78,0.54,2.2,0.21c0.48-0.39,0.59-1.46,0.53-2.22c-0.29-4-0.68-8-1.02-11.99
		c-0.22-2.56-1.24-3.31-3.67-2.34C677.07,134.83,674.1,137.2,671.01,139.55z M645,143.83c1.05-0.37,2.09-0.76,3.15-1.12
		c4.28-1.43,8.24-3.28,10.66-7.43c0.8-1.37,2.21-1.64,3.78-1.61c4.18,0.09,10.94-3.02,13.91-6.27c-1.83-2.94-3.74-3.73-6.64-2.13
		c-4.78,2.63-9.5,5.42-14.06,8.41C651.65,136.4,647.89,139.63,645,143.83z M652.78,149.85c-1.11,0.61-1.94,1.01-2.7,1.5
		c-2.38,1.54-2.69,2.32-0.94,4.42c2.83,3.4,5.85,6.66,8.96,9.81c1.21,1.22,2.83,2.08,4.38,2.88c0.61,0.31,1.89,0.33,2.22-0.07
		c0.49-0.58,0.74-1.75,0.5-2.47c-0.42-1.24-1.17-2.42-2-3.45c-1.75-2.17-3.69-4.19-5.47-6.33
		C656.1,154.17,654.56,152.12,652.78,149.85z M1034.53,532.91c-0.09-0.31-0.18-0.62-0.27-0.92c-2.04-0.13-4.07-0.29-6.11-0.37
		c-3.5-0.15-7-0.37-10.49-0.34c-1.71,0.01-2.44,1.23-2.23,2.99c0.18,1.48,0.88,2.16,2.55,1.96c4.5-0.54,8.98-1.15,13.45-1.89
		C1032.51,534.16,1033.5,533.4,1034.53,532.91z M660.74,145.62c0.07,0.36,0.03,0.63,0.15,0.75c4.19,4.28,8.37,8.56,12.62,12.78
		c0.32,0.32,1.07,0.2,1.69,0.29c0.04-0.55,0.17-0.9,0.06-1.13c-2.76-5.31-6.62-9.73-11.23-13.49
		C662.78,143.8,661.53,144.34,660.74,145.62z"/>
	<path class="st0" d="M819.01,121.62c1.03-1.19,1.74-2.06,2.49-2.88c2.97-3.21,5.98-3.27,9.11-0.22c1.58,1.54,1.58,1.54,3.47,1.66
		c0.13-0.98,0.24-1.98,0.42-2.97c0.3-1.71,1.34-2.76,3.02-3.16c1.62-0.38,2.81,0.33,3.81,1.53c2.87,3.45,2.15,8.17-1.71,10.42
		c-3.12,1.82-6.52,2.7-10.14,1.87c-2.46-0.56-4.69-0.25-6.89,0.97c-1.17,0.64-2.44,1.15-3.73,1.51c-6.05,1.72-11.4-2.62-11.05-8.89
		c0.17-3.16,1.78-5.64,3.6-8.09c2.15-2.9,4.29-5.85,6.09-8.98c4.74-8.28,5.99-17.32,5.28-26.71c-0.16-2.17-0.37-4.34-0.57-6.5
		c-0.1-1.1,0.01-2.16,1.21-2.55c1.11-0.37,2.05,0.13,2.68,1.07c0.46,0.68,0.91,1.41,1.16,2.18c4.92,15.21,3.95,29.6-6.03,42.71
		c-0.69,0.91-1.4,1.8-2.05,2.74C818.4,118.5,818.09,119.74,819.01,121.62z"/>
	<path class="st0" d="M823.37,137.37c1.12,0.17,2.29,0.19,3.35,0.54c2.2,0.72,3.86,0.1,5.16-1.69c3.21-4.42,7.55-4.72,11.99-1.82
		c2.43,1.59,4.47,1.69,6.67-0.42c1.53-1.47,3.56-2.05,5.71-2.07c1.41-0.01,2.37,0.65,2.87,1.94c0.49,1.26,0.35,2.44-0.61,3.45
		c-0.21,0.22-0.45,0.43-0.7,0.6c-3.98,2.82-6.95,6.57-9.22,10.77c-3.82,7.04-10.29,8.42-17.36,8.68c-2.22,0.08-3.85-1.26-5.08-3.09
		c-0.92-1.37-1.86-2.75-2.98-3.95c-2.03-2.19-4.49-3.65-7.61-3.65c-1.32,0-2.49-0.24-2.98-1.7c-0.5-1.51-0.08-3.39,1.23-4.16
		C816.75,139.05,819.74,137.36,823.37,137.37z"/>
	<path class="st0" d="M861.18,67.77c1.62,0.16,2.81,0.09,3.87,0.41c7.23,2.18,14.43,4.42,21.63,6.69c1.07,0.34,2.08,0.93,3.06,1.49
		c1.06,0.61,1.7,1.53,1.39,2.84c-0.3,1.25-1.18,2.04-2.39,2.13c-1.53,0.11-3.12,0.12-4.62-0.16c-4.78-0.88-9.51-2.05-14.3-2.84
		c-3.67-0.61-7.4-0.79-11.11-1.21c-1.33-0.15-2.71-0.27-3.95-0.71c-1.75-0.62-2.66-2.34-2.57-4.21c0.09-1.86,0.82-2.81,3.04-3.36
		C857.34,68.33,859.5,68.07,861.18,67.77z"/>
	<path class="st0" d="M868.83,90.15c8.83,0.01,14.46,4.8,18.46,12.08c0.29,0.53,0.59,1.22,0.48,1.75c-0.17,0.83-0.51,1.8-1.11,2.32
		c-0.85,0.73-1.99,0.56-2.81-0.28c-1.08-1.11-2.05-2.32-3.11-3.46c-2-2.15-4.27-3.88-7.12-4.79c-3.12-0.99-6.12-0.83-8.99,0.79
		c-2.68,1.52-5.55,2.2-8.62,2.04c-1.54-0.08-2.88-0.53-3.44-2.14c-0.57-1.62,0.25-2.81,1.39-3.81c2.25-1.95,4.95-3.01,7.8-3.58
		C864.09,90.61,866.47,90.45,868.83,90.15z"/>
	<path class="st0" d="M1034.53,532.91c-1.03,0.49-2.02,1.25-3.1,1.43c-4.47,0.74-8.96,1.35-13.45,1.89
		c-1.68,0.2-2.37-0.48-2.55-1.96c-0.21-1.76,0.52-2.98,2.23-2.99c3.5-0.03,7,0.19,10.49,0.34c2.04,0.09,4.07,0.25,6.11,0.37
		C1034.35,532.3,1034.44,532.6,1034.53,532.91z"/>
</g>
</svg>
