<svg id="Capa_1" data-name="Capa 1" xmlns="http://www.w3.org/2000/svg" viewBox="0 0 1084.48 1182.85"><defs><style>.cls-1{fill:#278828;}.cls-2{fill:none;}.cls-3{fill:#1d1d1b;}.cls-4{fill:#edeae3;}.cls-5{fill:#706e6e;}</style></defs><path class="cls-1" d="M137.22,556.67c.37,9.93-4.29,13.9-14,17.83C44.43,606.55,6.22,652,1.6,738.05c-2.66,49.44-3.1,99.32,7.47,148.2,13.54,62.52,34.75,122.58,58.46,182,16.69,41.8,42.57,77.65,67,114.65h270c5.91-7.36,6.29-16.4,6.73-25,3.28-64.21,9.75-128.13,16.27-192.08,2.21-21.59,3.26-43.32,6-64.89,1.21-9.53,4.32-17.9,11.17-24.74,0-28.25,5.66-56.11,5.9-84.34,0-5.09.14-10.22-1.68-15.09-7.49-7.85-10.62-.32-12.42,4.58-5.25,14.22-11.3,28.17-15.08,39.53,2.5-11.2,10.12-24.91,7-40.39C409.17,779.7,400,762.64,386,753.61c-14.18-9.15-26.11-21.76-40.65-30.76-7.61,2.36-10.13,9.5-12.89,15.48-9,19.39-21.52,36.81-30.22,56.3,8.86-28.46,23.4-54.43,35.81-81.31,6.76-14.65,8.54-28.54-.66-42.17-6-8.83-5.62-22.26-18.54-26.16-17.84,3.09-32.33-7.12-47.29-13.36-18.69-7.79-37.72-15.73-54-28.52-2.48-2-5.33-4-8.82-1.77-4.32,6.45-2.2,13.33-1.55,20.19,1.92,20.6,8,40.58,9.24,61.29-5.14-21.49-14.87-41.6-18.09-63.59-1.23-8.29-1.24-16.6-2-24.88-.45-4.8-1.87-9.39-7.14-10.83-5.53-1.52-8.48,2.54-11.18,6.36-3.2,4.53-5.9,9.42-9.34,13.79-2,2.55-4.25,7-6.65,6.73-16.48-1.53-24.22,12-36,19.7,8.26-13.1,16.11-25.81,18-41.33a80.92,80.92,0,0,0-1-26.19c-.59-2.91-1-6.82-5.88-5.91"/><rect class="cls-2" width="1084.48" height="1182.85"/><path class="cls-3" d="M421.22,1182.85c4.07-41.88,8.39-83.75,12.16-125.66,4.78-53,9.14-106,13.61-159,.63-7.41.95-14.86-3.6-21.44-11.35-2.33-11.56,7.43-12.65,13.46-3.09,17.14-5.17,34.51-6.79,51.87q-7.17,76.95-13.62,154c-2.38,28.89-3.9,57.83-5.82,86.76Z"/><path class="cls-3" d="M371.11,0c22.19,14.81,44.44,29.68,59.68,52.24,22.76,33.69,53.28,58.5,87.85,79,6.83,4.06,13.76,7.64,21.58,9.15,3.85.75,8.93,4.09,11.1-.75,2-4.46-3.58-6.94-6.47-9.5C533.4,120,520,112.55,507.68,103.53c-19.24-14.12-36.2-30.18-50.17-49.19-15.19-20.67-33.22-38.29-53-54.34Z"/><path class="cls-4" d="M944.56,1182.85c1-30.07-4.53-60-2.64-90.08a29.93,29.93,0,0,0-1.14-9.58A14.09,14.09,0,0,0,925.89,1073c-6.29.58-4,8-3.83,12.79.46,13.23,4.9,26.17,1.09,39.8-1.57,5.62-3.19,10.49-7.43,14.25-17.2,15.27-33.8,31.46-56.83,38.15-2.49.71-5.22,1.9-6.19,4.91Z"/><path class="cls-3" d="M268.11,0c-18,58.35,15.86,107.44,55.29,136.59,2.5,1.84,5.59,5.2,8.24,1.66,2.53-3.39-1.66-5.66-3.72-7.8-19.07-19.77-36.08-40.57-41.79-68.66-4.38-21.56-3.65-42.14,7-61.79Z"/><path class="cls-3" d="M393.2,164.58c16.42,10.79,35,10.8,53.56,10.49,21.74-.36,29,3.62,37.07,23.8,9.56,23.92,11.47,49.29,13.27,75.77-15.64-1.52-30-3.42-44.24-6.88-6.57-1.59-17.68-5-19.1,4-1.68,10.7,10,9.48,17.47,10.36,10.1,1.19,20.24,2.17,30.37,2.65,12.43.59,17.18,5.94,17.71,19.05,1.78,43-4.55,85.16-12.74,127-13.06,66.67,0,128.72,30.82,187.77,8.08,15.45,19.24,29.29,29,43.86l14-10.76c-10-20.17-24.31-37.9-33.51-58.54a47.44,47.44,0,0,1-5.77-15.47,19.59,19.59,0,0,0-1.45-3.44c-3.55-5.19-4-11.67-7-17.08-2.83-8.3-3.58-17.12-6.5-25.39,2.91,7.59,3.89,15.76,7.1,23.27,2.5,5.82,3.11,12.37,6.81,17.71,6.23,9.2,10.21,19.78,17.68,28.2,2.76,3.13,5.25,6.5,8.93,8.66,2.94,1.73,6.15,2.76,9.18.79,3.72-2.4,1.73-5.85.66-8.72a91.19,91.19,0,0,0-6.89-15.18c-26.16-43.46-28-92.5-32.4-140.88-3.18-34.44,6-68.19,6.32-102.47.41-45.59.6-109.38-26.49-156.92,19.53,5.79,35.16,26.34,36.67,49.25a215.65,215.65,0,0,1-1.21,38.83c-4.36,38,.12,74.1,25.28,105.1,4.68,5.12,9,10.57,13.54,15.82,3.68,4.24,8.62,8.49,14.44,5.28s4.63-9.55,3-15c-2-6.71-5.45-12.76-8.89-18.82-8.75-15.42-16-31.42-17.72-49.35-.54-5.71-2.89-12.19,7.1-12.94,6.1-.46,4.86-8.33,9.31-12.23,5.09,2.39,5.89,7.73,7,12.25,4.5,18.47,6.82,36.93,5.29,56.28-2.27,28.49-3,57.1-6.31,85.55-.8,7-2.75,13.57-4.33,20.3a220.87,220.87,0,0,1-9.94,33c-7.55-19-10.47-38.18-18.49-55.57a47.54,47.54,0,0,1-4.25-20.1c.06-4.14-.14-8.33-1.84-12.2s-3.76-8.23-8.52-7.87c-5.42.43-5.24,5.64-5.53,9.61-1.25,17.13,1.13,33.89,5,50.56,1.25,5.32,3.31,10.57,3.15,16.19,7.58,29.53,14.33,59.37,29.93,86.11,2.47,4.22,3.48,9.9,9.88,10.43.2-10.41-5.53-19.41-7.14-29.41-.88-5.42-1.9-10.73.61-17,16.88,8.53,12.8,30.45,26.64,40.13,4.61-5.48,2.31-11.46,1-17.19a106.86,106.86,0,0,1,2.09-56.1c17-55.8,17.71-112.78,10.85-170-1.92-16-8.41-31.17-17.27-45-5.16-8-8.57-16.45-4.5-26.1,4-7.08-2.44-15.15,2.13-22.16,8.1-32.73-7.64-59.24-39.72-68.5C515.62,154.2,476.25,158,437,159.14c-13.14.4-25.92.71-37.66-6.3-9.35-4.6-14.17-12.65-17-22.24,0-2.23.36-4.6-2.46-5.58-4.74-2.5-4.69-13.45-10.7-10.16-6.34,3.47.68,10.34,2,15.7q4.11,9.87,8.23,19.73c3.63,5.69,8.74,10,13.77,14.29"/><path class="cls-3" d="M102.85,240.1c-.63,25.17,2.91,50.09,8.24,74.37,8.68,39.65-.45,74.06-24.16,105.9C64.3,450.75,55.53,484.59,61,522.5c3.7,25.64-10.92,49.31-34.63,59.93-3,1.34-6.3,2.36-5.53,6.69,1,5.36,4.6,5.71,9.3,5.71,24.78,0,49.11-28.18,50-57.47.55-18.41-3.73-36.87,1.09-55.25A146.6,146.6,0,0,1,107.74,429c30.57-39.1,29.16-82.37,21.57-128-8.78-53-11.41-106.3,13.74-156.31,16-31.81,47.91-53.91,86.61-45a47.58,47.58,0,0,1,18.56,8.75c1.78,1.34,4.21,2.66,6.27.64,2.73-2.67.79-5-1.16-7.09-4.84-5.22-10.88-8.54-17.4-11.16-44.59-17.93-89.79.48-113.8,46.51-16.84,32.27-19.39,67.28-19.28,102.75"/><path class="cls-3" d="M308.88,63a26.36,26.36,0,0,0,1,6.71c9.31,29.05,26.24,53.92,43.78,78.4,2.28,3.18,5.9,8.06,10.07,5.31,4.93-3.22-.14-7.52-1.81-10.78-10.72-21.05-23.19-41.24-31-63.66-2.9-8.3-7.23-18.24.94-24.56,7.87-6.1,17-.6,24.34,4.36,21.14,14.22,36.92,33.57,50.72,54.61a93.53,93.53,0,0,0,18.22,20.9c11.83,9.83,26.6,6.21,31.62-7.44,1.27-3.43,3.22-7.14.55-10.56-3.13-4-8.87-3.55-11.45-1.51-8.73,6.89-11.31.7-15.27-5.29-18.81-28.3-38.79-55.37-71.42-69.75a50.73,50.73,0,0,0-32.58-2.94c-11.19,2.62-18.29,10.59-17.68,26.2"/><path class="cls-3" d="M615.71,543.42c2-8.37-1.89-16.2-2.73-24.27-1.44-13.85,4.81-25.88,6.63-41.3,4.13,8.08,7.35,14.41,10.58,20.73,6.24-.86,6-6.23,6.74-10.4,2.05-11.16,5.18-22.22,3.9-33.77-1.84-3.91-4-3.26-5.15.15-1.49,4.54-4.8,4.68-8.48,4.64-.59.62-1.2,1.21-1.83,1.79.64-.57,1.26-1.14,1.86-1.75-.89-6.69-2.25-13.35-2.59-20.06-.52-10.68,3.82-16,14.77-10.58,4,2,5.82,1.1,7.37-2.44-7.27-3.33-3.64-9.64-3.45-14.48,2-51.79-11.38-100-33.22-146.34-1.68-3.56-3-7.79-7.11-9.8-2.81-1.06-5.46-1.48-7.22,1.77-.59,2.94.45,5.56,1.53,8.19,3.52,6.9,7.18,13.74,6.82,21.87,8.9,33.54,16.6,67.22,16,102.28-.48,31.07-5.42,61.49-12.08,91.74-3.57,16.24-7,32.68-1.4,49.25,1.73,5.09,2.27,11.16,9,12.78"/><path class="cls-3" d="M1036.42,1046.52c3.88-17.77,3.59-35.78,2.87-53.79-.17-4.43,1.13-9.28-2.37-13.18-8.22,9.13-4.29,20.29-4.77,30.57-.82,17.67-1.78,18.67-19.77,16.75-12.29-1.3-24.8-4.28-36.68,2.14,10.55,8.36,23.63,2.78,35.12,6.29,4.64,1.42,9.95-.83,15.29,2.11-4.27,5-9.66,3.14-14.31,3.06-24.1-.42-48.14-.08-71.62,6.16-8.82,2.34-9,3.13-6.35,10.8,3.74-11.61,14.62-9.2,22.73-10.54,26.5-4.38,53.21-3.11,79.86-.37"/><path class="cls-3" d="M371.19,130.56c-.72-4.66-1.44-9.33-2.21-14.3,6,.68,4.89,9.07,10.93,8.77-3.74-7.39-7.44-14.79-11.26-22.13-1.32-2.53-3.44-4.94-6.46-4-3.44,1.1-2.87,4.64-1.79,7,3.81,8.14,3.83,17.95,10.79,24.69"/><path class="cls-3" d="M382.36,130.6c.31,11.5,5.35,19.38,17,22.25a92.93,92.93,0,0,1-17-22.25"/><path class="cls-3" d="M393.2,164.58c-2.95-6.34-8-10.69-13.77-14.29-1.4,3.52,2.79,4.78,3.08,7.61,4.29,1.07,5.63,6.84,10.69,6.68"/><path class="cls-3" d="M456.86,523c-9.5,29.89-15.71,60.77-27.1,90.1-2.17,5.6-4.1,11.3-5.9,17-.91,2.88-3.73,6.71.15,8.67,4.39,2.19,4.76-2.72,6.22-5.29a41.3,41.3,0,0,1,2.83-4.77c4.63-5.9,10.83-10.29,17.81-5.92,7.45,4.67,5.73,12.47,1,18.22s-5.41,10.49-2.13,17.42c4.17,8.79,8.59,8.21,14.78,2.88,5.41-4.65,11.87-14.43,17.76-9.32,6.45,5.58-1,14.51-5.94,20.19-6.32,7.33-2.5,13.67,1.56,18.67,4.44,5.47,8.89-.2,13-2.86a59.19,59.19,0,0,1,7.28-4c4.86-2.29,9.93-3.16,14.28.77,4.74,4.3,2.69,9.45.5,14.07-4.93,10.43-13.58,17.58-23.13,23.28-15.3,9.14-30.56,18.61-48,23.27-4.82,1.29-6.26,3.9-7.25,8.54-1.85,8.74-4.83,17.24-7.35,25.84q-5.71,27.87-11.43,55.76l2.51.84c6.51-15.9,13.15-31.75,19.44-47.72,2.17-5.45,2.59-11.72,8.42-15.07,2.7-14.48,11.59-21.62,25.78-25.61a95.47,95.47,0,0,0,43.73-26.1c14.86-15.61,19-37.44,4.37-47.82-13.91-9.86-17.2-24.44-26.41-35-10.1-11.58-23.21-22.69-35.85-31.9-10.09-7.35-9.58-11-5.91-19.52,5.83-13.6,11.34-27.35,14-42,2-7.83,4.73-15.48,4.18-23.83-.31-4.71.17-10-5.8-10.55-7.74-.76-4.43,6-5.59,9.75a5.23,5.23,0,0,1-1.77,2"/><path class="cls-3" d="M1036.42,1046.52c-5.37-3.22-2.62-7.59-2.24-12.07,1.56-18.2,2.58-36.46-.71-54.63-1.54-7.9-.74-17.57-12.75-17.88-10.59-.29-21.08-1.39-31.6-2.57-5.09-.57-11.91.1-11,6.93,2.43,19.56-1.36,39.47,3.6,58.88,9.87,5.67,21.05,4.9,31.82,6.24,5.27.65,13.81-1,13.94,5.32.16,9.07-8.78,5.46-14.11,5.42-23.82-.15-47.66-.46-70.87,5.87-4.14,1.13-12.5.17-8.62,9.4,15.51,8.69,32.34,13.66,49.53,17.52,29.73,6.67,59.53,13,89.83,16.78,4.82.6,11.73.59,11.26,7.43-.45,6.55-5.87,10.12-12.7,10.28-4.62.12-9.25-.17-13.88-.12-17.78.19-35.56.39-53.59,8.59a45.3,45.3,0,0,0,18,11.86c15.53,5.94,31.18,11.56,46.78,17.31,4,1.49,8.47,3.35,7.6,8.42-.71,4.19-4.64,7.23-8.41,8.54-3.25,1.13-7.27.23-10.93,0-14.32-1-28.71-2.07-42.73,1.77-4.59,1.25-11.75.83-12.85,6.49-1.14,5.85,6.58,6.75,9.63,10.56H983.53c-7.76-21.92,13-24.79,23.44-34.58-30.06-22.48-31.35-29-9.75-48.66-20.89-6.92-20.89-6.92-20.91,14.93,0,17.08.09,34.17-.06,51.25,0,5.9.86,12.15-3.85,17.06H944.56c-3.12-3.24-3.92-7.3-3.87-11.54.32-23.6-4.51-47-3-70.64.32-5.05.27-10.24-1.93-15-1.16-2.53-2.69-5.42-5.88-5.05-3.69.42-3.2,4-3.37,6.58-.36,5.58,1.12,11,1.46,16.55.9,14.57-.23,28.61-11.21,40-18,18.66-38.29,33.3-64,39.09H649.48A18.08,18.08,0,0,1,643,1171c-7.71-50.82-20.59-100.65-27.42-151.73-6.22-46.41-14.31-92.44-10.85-139.54.56-7.41-1-14.81-2.62-22-5.89-26.76-4.4-53.45.93-80,1.91-9.51,2.63-17.86-5.46-25.44-5.94-5.59-5.11-13.59-3.59-21q3.43-17.05,5.45-34.32c.4-3.39,1.69-7.27-2.66-10.09-4.45,4.72-4.14,10.37-4.28,15.8q-.33,14.59-.8,29.17c-1.41,44.74-15.42,87.45-20.8,131.56-5.81,47.76-26.66,90.39-47.63,132.81-6.59,13.36-11.54,27.3-16.42,41.29-2.38,6.81,0,10.65,6.87,12.11,5,1.08,10.13.86,15.22,1.21,16.18,1.12,32.18,2.67,47.32,9.7,11.07,5.14,16,12.84,16.21,24.92.39,19-.41,38-1.45,56.85-.74,13.42,2.36,28-5.56,40.66H549.27c-6.35-6-6.89-13.86-6.59-21.82.48-12.47.23-24.94-.06-37.41-.94-43.08,3.4-34-35.13-46.09-10.85-3.4-13.57.24-16,9.61-6.4,24.27-9.26,48.95-10.48,73.9-.39,7.89-.47,15.83-6.86,21.81h-39c-4.22-4.5-4-10.17-4.06-15.73-.26-15.81,1.73-31.54,4.16-47,7.53-47.83,21.85-93.7,41.39-138.08,15.07-34.26,35.54-66.51,41.54-104.32,8.58-54,22.11-107.16,29-161.47,1.62-12.77,3.79-25.65-4.53-37.58-3.29-4.73-2.54-10.69.6-15.87,4.23-6.13,10.19-10.23,16.4-14a81,81,0,0,1,20-9.24c9.95-3,12.34-9.22,9.75-19.08-4-15.1-8.92-29.91-13.23-44.88-2-12.71-8.39-24.52-8-37.72.11-3.63.35-7.87,4.65-9.17,4-1.22,7.12,1.24,9.57,4.15,3.9,4.61,7.29,9.71,8.88,15.53a50.71,50.71,0,0,0,10.43,19.3c7.75,14.34,11.53,30.27,18,45.13,2.37,5.52,3.19,11.76,6.53,16.81,5.08,7.68,13.8,11.92,21.5,8.78,8.88-3.61,3-12.34.72-18.2-7.32-18.53-17-36-26.34-53.6-4.33-8.15-9.51-16-9.83-25.68-2.57-14.63-5.58-29.74-.79-43.92,2.11-6.3-.36-18.23,7.88-18.46,8.89-.25,11.06,10.86,14.09,18.51,2.84,41.19,9.4,60.85,29.2,87.73,2.22-9.94,2-19.88.9-30.16-2.83-26.26-10.76-51.62-12.92-77.95-.55-6.81-4.36-12.07-9.41-16.52-4.77-2.82-9.55,4-14.35-.06a11,11,0,0,1-2.3-3.25c-1.83-5.61-3.49-11.29-3.5-17.27,0-13,6.72-18,19.36-14.28,2.19.64,4.13,1.76,6.46.92,30.58-23.09,65.16-22.86,99.72-14.3,16,3.94,18.78,16.6,12.25,34-1.08,2.87.08,5.12.87,7.82C767.87,482,779,509.87,782,539.23c3.19,30.85,14,58.55,26.27,86.34,16.21,36.78,39.68,69.94,53,108.12,5.15,14.72,11.36,29.07,17.9,45.66,5-9.5,8.92-16.74,12.54-24.13a42.84,42.84,0,0,0,3.05-9.07C907.18,692.58,907,637.89,909,583.42c.59-16.23,3.42-20.46,20-21.14,22.29-.91,43.86,5.49,65.87,7.26,13.31,1.08,16.71,7.5,16.68,19.83-.11,56.74-8.56,113.25-3.5,170.19,1.23,13.76,3.68,26.6,10.13,38.15,32.66,58.4,47.08,121.45,49,187.75.5,18,7.46,35.23,6.11,53.43-.22,3.11,2.06,4.9,4,6.93,5.07,5.36,3.38,7.65-3.56,8.31a64.72,64.72,0,0,1-37.28-7.61m-267.9,125.22c-4.42-11.52-1.57-22.06-1.31-32.25,1.07-43.32-1.12-87.3,10.92-129.29,6.49-22.65-1-42.26-4.91-62.73-7.8-40.94-20.89-80.77-26.38-122.21-2.83-21.25,6.41-33.25,28-37.38,16.7-3.18,33.29-7.09,50.52-6,9.15.57,12.32-2.46,8.91-12.49-8.58-25.24-19-49.61-32.45-72.57-17.7-30.21-34.58-61.12-45.6-94.14-11-32.78-14.61-67.56-15-102.37-.14-12.52-.27-25-.21-37.54,0-8.24-3.36-11.3-11.92-10.6-17.51,1.41-34.15,8.12-52.06,7.42-6.69-.26-5.48,5-3.52,10.11,9,23.52,17.22,47.35,26.29,70.85,17.26,44.71,12.23,87.66-10,129.11-20.13,37.53-27.06,78.48-32.48,119.91-1.78,13.65-2.83,27.41-5.23,40.93-5,28.24,6.41,51.85,19.71,75.19,16.69,29.3,33.27,58.65,44.28,90.76,14,40.92,21,83,22.35,126.2.43,13.57,1.45,27.11,2,40.67.24,6,2,9.37,9,8.55,5.92-.69,12-.14,19-.14"/><path class="cls-4" d="M917.55,1044.73c20.85-3.55,21.76-18.28,21.71-33.5,0-13.44-.68-26.9-.31-40.33.76-27.68,16.68-39.53,43.46-33.77,14,3,28.4,3.74,42.29,7,8.93,2.06,9.23-1.15,8.51-8.15-3.64-35.67-12.27-70.54-30.22-101.15-18.1-30.87-20.68-64.16-24.42-97.67-4.63-41.54.46-83.1,1.35-124.65.15-6.79,5.1-16.42-3.39-20.12a60.43,60.43,0,0,0-32.61-4.62c-5.32.81-4,8.72-4.26,13.38-1.19,24-1.26,48.08-3.24,72.12-4.27,51.83-10.75,102.69-45.4,144.9-4.09,5-1.48,10.44-.44,15.6C900.16,880.8,906,928.42,911,976.14c2.38,22.86,4.4,45.75,6.59,68.59"/><path class="cls-4" d="M857.45,878.67c-15.35,23.22-23.33,48.85-35,72.66-9.32,19-.58,35.77.56,53.38.73,11.3,3.85,22.57,6.64,33.75,1.86,7.48,3.14,10,11.21,8.88,10.95-1.49,24.6,2.55,32.58-2.67,9.78-6.4,1.11-20.48,1.77-31.23,2.37-38.5-4.53-76.17-12.47-113.56-1.4-6.56.86-14.09-5.28-21.21"/><path class="cls-4" d="M795.53,1122.62c0,11.76.23,23.52-.11,35.27-.2,6.94,2,7.62,8.92,7.4,19.66-.63,36.95-8.37,53.52-17.09,8.45-4.45,17.9-7.09,25.63-13.17,4.1-3.24,6-5.07,3-10.78-5.22-9.67-1.43-20.8-2.43-31.27-.82-8.61-4.44-11.51-12-10.94a201.09,201.09,0,0,0-21.9,2.67c-15.78,2.94-30.34,1.1-42.81-9.88-7.53-6.63-9.75-1-10.07,5-.78,14.25-3.3,28.45-1.67,42.8"/><path class="cls-4" d="M596.7,258.45c-3.48-.13-4.07-5.33-8.06-4.58-5.44,9.72-4.36,17.77,2.46,27.44,16.28,23.07,21.7,49.94,21.48,77.83-.37,48.59,1.54,97.29-15.58,144.32-8,22-2.2,44.79,2.76,67q10.8,29.91,21.62,59.84c2.21,6.12,23.39,16.4,29,13.75,6-2.79,7-7.9,5.38-14.07a142.48,142.48,0,0,0-13.24-32c-9.83-17.73-19.85-35.4-26.87-54.54-8.73-16.35-8-33.81-5.42-51.26,3.59-24.66,10-48.81,12.89-73.66,5.34-46-3.48-90.17-15.83-134-1.76-7.09-5.45-13.38-8.14-20.07-.84-2-1.67-4-2.5-6"/><path class="cls-4" d="M651.07,959.37c4.56,31.67,8.58,63.45,13.85,95,5.34,32,12.23,63.8,17.73,95.79,1.36,7.91,3,12.38,12.22,11.31,10.82-1.26,6.67-7.87,6.34-14-1.44-27.19-2.69-54.32-7.72-81.22-7.14-38.17-20.8-73.73-42.42-106.89"/><path class="cls-4" d="M804.82,909.28c13.51-25.19,24.44-48.52,38.22-70,6.94-10.86,4.66-20,2.53-30.24-1-4.82-2.54-6.94-9.43-5.8-14.08,2.31-27.56,6.72-41.47,9.25-8,1.46-9.75,4.89-9,12.13,2.31,21,8.78,41.08,13.24,61.61,1.43,6.64,3.34,13.19,5.87,23.08"/><path class="cls-4" d="M640.83,454.41c-7.17,13.85-4.91,30-10.63,44.17-2.8,37.64,16.09,67.7,34.23,100.46,8.46-33.22-.09-63-5-93.06-1.47-9.08-3.79-18.13-4.15-27.25-.46-11.14-6.12-18.32-14.47-24.32"/><path class="cls-3" d="M365.39,398.6c-6.61-.08-13.05-.8-13.47,9.21-.35,8.25,1.9,13.13,10.36,15.13,10.33,2.46,20.31,6.7,30.73,8.36,15.84,2.53,22.41-2.92,24.49-18.78,2.25-17.12-1.72-34-2.37-51.08-1.36-35.55-.21-71.09-.33-106.62,0-5,2.88-14.9-4.33-15-6.75-.09-4.83,9.43-5.15,15.07-2.57,45.6-8.67,91-5.05,136.93,1.54,19.28-.32,20.12-18.51,11.94-4.35-5.23-9.93-6.56-16.37-5.17"/><path class="cls-3" d="M293.34,447.61c10.15,8.29,21.34,14.74,27.33,28.05s18.35,13.91,36.14,5.16l-.07.07c8.25-6.06,17.83-1.65,26.66-3.35,3.66-.7,8.41-.54,8.67-5,.31-5.39-5.41-4.53-8.37-4.61-7.92-.18-10.85-3.48-12.4-11.32-1.46-7.44-6.36-14-16-9.5-5.11,2.37-6.36-1-8.15-4.38-4.2-7.9-11-9.41-18.86-6.74-5.26,1.8-9.79,7.64-15.53.19s-10.83-14.93-7.53-25c1.48-4.52,6.35-9.73-.18-13.17-5.9-3.11-8.89,3-12.11,6.63-4.76,5.36-10.76,8.44-17.28,11.07-5.72,2.31-7.12,8.55-1.39,9.86,11.36,2.58,13,11.56,16.93,19.44a3,3,0,0,0,2.16,2.6"/><path class="cls-3" d="M223.73,217.14c-6.17,16.44-4.84,33-.77,49.6,2.29,9.39,4.42,18.83,6,28.35,1.53,9-2.23,14.3-12,14.21,5.38,5.34,11.47,4,13.43-1.91,2.53-7.68,8.76-8.52,14-11.8,27.6-17.19,57.41-17.74,88.22-12.75,9.1,1.46,18.39,2.29,27.66.26,4.07-.88,7.08-2.63,7.48-6.9a8.3,8.3,0,0,0-5.49-8.81A44.56,44.56,0,0,0,349,264.28c-18.92-.82-37.86-1.73-56.78-1.51-16.82.2-28.75,11.87-41.79,20.41-17.62,11.55-16.71,11.6-21.87-8.32a165.46,165.46,0,0,1-4.83-57.72"/><path class="cls-3" d="M456.86,523c5.39-.91,1.53-11,7.43-9.15,6.58,2,3.56,9.33,3.74,14.45.2,5.86-3.95,11.24-2.19,17.35,7.35-15.86,8-32.81,8.07-49.83,0-3.89-1.26-8-4.63-9.56-13-5.84-7.26-13.67-3.61-22.27,5-11.67,12.35-22.43,14-35.4,1.87-2.78,2.4-5.89-.37-8-2.1-1.61-3.82.37-4.77,2.5-8.12,17.35-21.56,31.74-28,50.06,13.77,0,14.55,13.77,21.24,21,2.74,3-1.57,8.69-6.81,5.07-17.84-12.34-10.1,4.3-11.88,10.16l5.32-7.58,2.42,1.45Z"/><path class="cls-3" d="M455.58,333.42c-1.44,10.33,2.07,14.22,8.74,14,8.85-.28,8.92-8.61,10-14.24,1.24-6.41-3.35-10.15-10-10.28-10.16-.21-8.23,7.8-8.73,10.49"/><path class="cls-3" d="M338.21,325.69c.46-7.33-3.11-11.71-10.23-11.76-7.56-.06-9.6,5.63-10.16,12.11-.69,8.18,4.23,12.46,11.21,12.51,7.59.06,8.7-6.7,9.18-12.86"/><path class="cls-3" d="M446.57,473.2c4.33-3.53,10.28-3.93,11.21,1.36,1.15,6.59,5.67,9,9.37,12.7,3.16,3.18,4.93,6.8,3.07,11.22-2,4.89-6.25,5.3-10.44,3.77-8.23-3-6.44,3.41-7.35,7.38-.8,5.17-3.66,9.44-6.09,13.9a596.11,596.11,0,0,0-43.33,102c-4.74,14.77-15,22-33.88,23-13.31.68-19.93-8.45-24.89-18.76-4.82-10-7-21-11.23-31.33-3.78-9.23-7.83-18.37-19-26.37,5.44,23,13.55,41.46,21.88,60,7.61,16.9,19,31.78,25.59,49.19,5.62,15-.78,33.21-15,42.87-13.39,17.15-21.38,37.42-32.21,56-5.22,9-9.26,18.72-17.64,26.68-1.92-7.49,1.31-12.9,3.4-18.37,10.55-27.63,24.2-53.86,36.66-80.64,3.36-7.22,7-15.57,3.44-22.74-6.71-13.42-11.57-28-21.61-39.61-.51-.29-1-.58-1.53-.89-2.59-3.26-3.49-7.42-5.68-10.88-.58-1.05-1.15-2.1-1.63-3.19a82.09,82.09,0,0,0-6.6-11.28c-8.55-17.68-14.15-36.17-15-55.92-.26-5.66-.9-11.14-5.17-15.39-20.23-20.09-39.33-41.16-56.5-68.29-1.64,28.62-7.32,53-10.54,77.74-1.89,14.48.35,29.58-5.8,43.47-1.89,6.88-.56,13.54.36,20.46,2.75,20.54,10,40.39,9.48,61.39-.11,4.26.71,10.8-6.22,9.93-6.44-.81-.91-5.89-1.62-8.93-.61-2.67-.46-5.56-1.33-8.11-9.27-27-19.08-53.89-18.76-83.1,0-3.09,0-7.12-4.29-7.56s-4.63,3.6-6.07,6.4a86.39,86.39,0,0,1-19.49,25c-2.12,1.89-4.87,6.17-7.69,1.53-4.73-7.79-6.84-2-9.65,1.27-3.28,3.88-6.34,8-9.91,11.56-3.88,3.89-9.13,9.64-14.08,5.36-5.74-4.95.79-9.87,4.24-13.76,17.25-19.48,19.28-41.67,12.18-65.62.85-6.64-1.4-12.83-3.81-18.65-9.38-22.53-14.12-45.85-12.93-70.22,1.6-32.44,13.32-62.27,24.4-92.24,10.27-27.77,16.45-55.67,9.27-85.61-8.1-33.78-9.32-67.52,2.57-101.25,14-39.85,40.65-63.78,75.8-65.39,15.91-.73,30.92,4.46,46.23,7.71,7,5.53,16.58,6.8,22.77,13.69,2.31,6.1.1,7.69-5.68,5.71a7.69,7.69,0,0,1-2.51-.6c-7.31,1.35-13.48-2.55-20-4.49-40.26-11.89-68.09.29-86.75,38.16-2,4.08-3,8.87-7.57,11.21-13.14,28.65-11.63,58.32-5.92,88.19,1,5.17,3.24,8.65,9.2,3.77,5.72-4.67,12.42-6,19.56-3,7.4,3.08,7.83-.46,6.51-6.48-2.26-10.38-4.48-20.78-6.15-31.26-7-43.6,19.64-80.14,58.91-80.58,16.17-.18,32.37.79,48.55,1.36,3.43.12,8.35-1.1,8.29,4.51,0,4.56-4.51,5.93-8,6.28-9.19.92-18.48,1.82-27.69,1.47-28.71-1.08-49.28,9.72-58.49,38.21-2.3,2.26-1.28,5.19-1.6,7.86-2.61,21.94,2.22,42.89,8.1,63.78,4.32,15.33.49,20.93-13.19,20.53-3-1.05-6.2-1.78-9-3.24-4.34-2.26-8.54-4.2-12.6.07-4.32,4.54-5,10.14-2.08,15.38,2.2,3.93,5.69,7.21,8.88,10.52,8.6,8.95,14,18.36,6.73,30.9-3.14,5.41-3.1,11.83-1.83,17.66,4.92,22.59,9.45,45.94,20.25,66.09,20.72,38.67,46.82,73.4,83.16,100C341,569,389.77,558.6,406.19,535.48c14.33-20.15,27-41.48,40.38-62.28M173.35,567.67c18.66-39.66,12.4-80.42,5.41-121.22-1.81-10.46-3.94-20.87-5.46-31.36-3-20.53,2.15-39.34,12-57.36,6.66-12.16,6.17-12.43-6.62-24-5.36,43.6-29.29,80.26-36.08,122.39-4.45,27.6-2.48,54.24,7.59,80.34,1.8,4.69,2.43,9.84,3.61,14.77,3.55,4.7.15,10.74,3.15,15.72,2,3.31,1.68,8.1,7.19,8.74,6.25.73,7.4-3.92,9.2-8M396.94,570c-18.06,6.46-34.16,6.76-49.92,8.69,4.91,15.74,9.4,30.72,14.35,45.54,1.09,3.28,2.16,7.82,6.47,8.26,5,.53,7.25-3.8,8.72-7.63,6.58-17.24,12.88-34.59,20.38-54.86M196.6,392.35c-11.56,28.8,2.57,55.94,5.49,83.79,8.53-28.59-3.45-55.87-5.49-83.79"/><path class="cls-5" d="M312.31,632.11c.3,5.25,1.15,10.25,6.18,13.31-.61-5.1-1.41-10.12-6.18-13.31"/><path class="cls-5" d="M307,620.7c.07,4.56.53,8.94,5.25,11.34-.15-4.51-.71-8.85-5.25-11.34"/><path class="cls-4" d="M561,273c7.66-16.58,13-33.2,14.16-50.77,1.76-26.21-11.8-41.07-44.24-43.36,34.5,26.25,29,61,30.08,94.13"/><path class="cls-3" d="M549.61,448c-3.45-23.24-5.08-46.64-6.24-70.08-.2-3.93.29-9.78-4.84-10.05-5.9-.32-4.58,6-4.93,9.57-3.54,35.5-3.86,70.76,9.78,104.68.89-13.62-5.36-26-6.66-39.37a201.69,201.69,0,0,1-.35-39C548.51,418,538.77,436,549.61,448"/><path class="cls-3" d="M627.24,459.25c-4.46-.08-8.52.47-7.9,6.44.12,1.07,1.58,3,2,2.9,4.76-1.26,5.31-5.36,5.87-9.39Z"/><path class="cls-4" d="M325.39,467c5,12.4,12.65,14.35,23.67,7.12-6.71-9.07-15.9-5.79-23.67-7.12"/><path class="cls-4" d="M361.11,464.46c2.64.41,4.63-.31,4.87-3.15.29-3.45-.94-6.49-4.67-7-3.18-.42-4.86,2-5.19,5-.4,3.61,2.53,4.27,5,5.16"/><path class="cls-4" d="M340.43,450.44c-1.12-3.55-3.12-6.47-7.24-5.9s-5.82,3.62-4.64,7.54c1.12,3.72,3.91,5.66,7.95,4.66,3.16-.79,4.09-3.28,3.93-6.3"/></svg>