<svg id="Capa_1" data-name="Capa 1" xmlns="http://www.w3.org/2000/svg" viewBox="0 0 419.59 424.09"><defs><style>.cls-1{fill:#278828;opacity:0.3;isolation:isolate;}.cls-2{fill:#fff;}.cls-3{fill:#07070b;}.cls-4{fill:#fffffd;}.cls-5{fill:#060609;}.cls-6{fill:#010101;}</style></defs><g id="Grupo_57" data-name="Grupo 57"><path id="Trazado_1043" data-name="Trazado 1043" class="cls-1" d="M193.48,19.75c-78.11,16.8-95.72,87.32-76.94,135.83S137.16,251,102.47,312.67s13.5,138.66,122,101.84S388,275.82,391.39,207.79C398.84,58.51,271.59,3,193.48,19.75Z"/><g id="Grupo_56" data-name="Grupo 56"><path id="Trazado_1036" data-name="Trazado 1036" class="cls-2" d="M295.82,371.61c-16.24-.1-68.15-1-84.36-1.73-13.05-.56-26.12-.49-39.14-1.76-3.56-.21-6.81-.42-10.21-.53a25,25,0,0,1-5.26-.29c-10.82-1-21.27-4-31.89-6.12a31.75,31.75,0,0,1-7.55-2.39c-5.25-2.51-6.18-5-3.4-10.12,3.73-6.86,7.33-13.78,10.95-20.7,9.07-17.36,18.65-34.44,27.74-51.8,1.59-3,1.37-3.59-2.18-4.64-21.59-6.43-39.92-18.33-55.34-34.43-20.32-21.21-34.62-45.93-41.44-74.8-1.28-5.43,0-9,4.4-11.82.73-.6,1.43-1.23,2.13-1.86C65.76,144.05,71,139.18,77,135.24c1.36-.76,1.74-3,3.85-2.65,2.84-1.22,3.74-4.3,5.9-6.18,2.79-2.45,4.67-2,5.83,1.4,9.88,29.05,25.7,54.3,48.43,75a147.07,147.07,0,0,0,11.9,9.22c.89.65,1.75,1.14,1.86,2.33.6,1.15-.09,2.07-.63,2.93-4.79,7.51-2,14.33,2.82,19.9,3.1,3.54,3.14,3.5.25,7-3.34,4-4.18,10.28-2,14.5,3,5.7,7.71,8.51,13.71,7.86,2.78-.3,4,.38,3.65,3.36a13.36,13.36,0,0,0,2.23,8.68c4,6.3,10,7.55,16.3,3,2.93-2.14,4.94-2.27,7.42.42,2.91,3.15,6.72,2.78,10.36,1.73,6.4-1.86,10.88-5.82,12.62-12.48.54-3.17,2-4.39,5.47-3.5a27.58,27.58,0,0,0,14.06-.35c1.38-.37,3.09-1.47,4.05.76.3,3.21-1.32,6.13-1.25,9.37.24,10.85,10.39,17.94,20.29,13.84,2.15-.89,3-.17,4.08,1.54,2.06,3.29,4.42,6.31,8.86,6.51,5.5.24,9.83-2.47,12.21-7.77,2.14-4.77,2.15-4.8,6.81-3.31,5.64,1.81,10.25-.47,14.12-4.09s4.91-8.63,3.13-13.89c-1.5-4.44-1.52-4.44,2.67-7,8.73-5.28,10.9-10.92,8-20.78-.25-.88-.7-1.75-.16-2.67,1.87-3.67,5.53-5.55,8.39-8.18,12.62-11.58,22-25.22,27.32-41.54.74-2.28,1.65-2.09,3.37-1.87,2.76.36,5,2.45,7.87,2.3l.61-.08c6,0,11.49,2.52,17.16,4.09,1.92,1.09,4.36.89,6.09,2.44,2,1.2,4.24,1.27,6.4,1.73,3.24.68,4.15,2.17,3.52,5.59-2.25,12.28-7.39,23.38-13.66,33.95a174.23,174.23,0,0,1-48,52.7c-11.46,8.28-23.88,15.09-38.3,17a18.79,18.79,0,0,1-4.73.39c-3.58-.45-4.68.71-4.7,4.49"/><path id="Trazado_1037" data-name="Trazado 1037" class="cls-3" d="M7.61,127.14c-1-.82-2-1.66-3.06-2.45C-1,120.47-1,120.47,2.07,114.24c6.75-1.83,13,1.1,19.45,2.06,1.8.27,3.56.78,6.17,1.37-3.9-4.94-7.74-8.93-10.58-13.64a33.74,33.74,0,0,1-2.33-4.56c-.9-2.18.38-3.91,1.69-5.35s3-.84,4.42-.11a64.71,64.71,0,0,1,9.59,6.3c1,.73,1.74,2,3.46,1.73-.87-2.94-1.81-5.78-2.54-8.66a10.79,10.79,0,0,1-.43-4.3c.31-1.93,1.09-4,3.05-4.75s3.18.86,4.4,2.09a111.12,111.12,0,0,1,10,12.29c.53.72.86,1.68,2,1.84,1.39-2.51.9-5.43,1.68-8.08.38-1.31-.54-1.82-1.64-2.23C36.75,85.1,29.85,73.78,24.81,61.16,18,44.21,16,26.37,16.29,8.23c.06-4.12,2.68-6.15,8.43-7.1C38.34-1.13,51.85.36,65.29,2.45,74.51,3.88,83.77,5.33,92.5,8.93c1.69.69,3.12,1.85,4.93,2.39a3.4,3.4,0,0,1,2.17,3.45,117,117,0,0,1-8.4,45.59C88,68.43,84,75.94,78,82.25c-4.57,4.76-9.88,8.18-16.61,9.06-1.13.15-2.43.33-2.65,1.9-.69,5-1.42,9.94-2.07,14.91a1.4,1.4,0,0,0,1.08,1.68l.12,0q1.11-3.81,2.23-7.62a18.78,18.78,0,0,1,1-3c.89-1.8,2-3.65,4.27-3.67,2.47,0,3.12,2.09,3.69,4a34.27,34.27,0,0,1,.58,18.73c-.65,2.42-.12,3.71,1.54,5,2.47,2,5,3.91,7.42,5.95,1,.87,2.64,1.47,2.31,3.33q-1.75,1.74-3.52,3.47a4.57,4.57,0,0,1-4.77-1c-2.37-1.9-4.69-3.85-6.94-5.9-3.5-3.2-4.22-6.86-2.44-11.1a18,18,0,0,0,1.17-10,33.51,33.51,0,0,1-1.21,9c-.72,2.67-2.1,5.08-5.58,4.1-1.67-.48-2.12.26-2.42,1.61-1,4.39-1.51,8.85-2.19,13.29-.28,1.85.81,3.27,1.94,4.6,1.45,1.71,3.2,3.15,4.65,4.87.85,1,2.38,1.93,1.27,3.67a3,3,0,0,0-1.73,1.95c-2.54.93-4.3-.47-6-2-1.49-1.39-2.17-.93-2.6.9-1.51,6.31-2.29,12.75-3.56,19.1-.42,2.1.55,3.53,2.27,4.64a33.55,33.55,0,0,1,5.66,4.33c2.79,2.76,4.68,5.85,3.22,9.92-1.19,3.3-5.91,6.25-10,6.07-9.23-.42-17.7-3.12-24.83-9.17-3.14-2.68-5.47-6.09-4.31-10.42s4.82-5.94,9.09-6.4c2.36-.25,4.7-.83,7.09-.33s3.4-.68,3.8-2.85c1.36-7.28,2.74-14.56,3.95-21.86.61-3.76-.32-4.78-4.16-4.86-9.77-.23-18.68-3.27-27.19-7.84A11.52,11.52,0,0,1,7.61,127.14ZM73.1,79.82c8.27-8,13.28-17.94,17.05-28.62A11.23,11.23,0,0,0,78.71,36.35c-4,.3-6,3.47-8.29,6.18S66,48.31,62.7,49.78a13.86,13.86,0,0,1-18.2-7.25c-.14-.34-.28-.69-.4-1.05-1.16-3.54-2.35-7.14-5.44-9.45C35.78,29.86,32.35,27.9,28.8,30A7.65,7.65,0,0,0,25,38.71c2.69,13,6.17,25.64,14,36.57,4.5,6.31,9.9,11.73,18.09,12C63.78,87.15,68.75,84,73.1,79.82ZM97.22,20.08c.24-1.7-.74-1.55-2-1.2-9.44,2.69-19.11,2.31-28.71,1.66-14.72-1-29.31-3-43.42-8.36-.53,4.51.15,8.65.47,12.87,10.45-3.28,22.8,2.38,25.82,12.56a26.65,26.65,0,0,0,2,4.72c2.08,3.94,5.24,4.49,8.74,1.75,2.43-1.9,4.17-4.41,6.25-6.61,5.57-5.88,12.24-7,19.75-3.88,2.94,1.24,4.36,4.14,7.39,5.62a133.88,133.88,0,0,0,3.64-19.13ZM26.28,5.53c-.73.07-1.78-.21-1.9.87S25.29,7.54,26,7.83s1.22.5,1.85.7a181.31,181.31,0,0,0,33.54,7.16c8.65,1,17.32,2.18,26.05,1.45,1.68-.14,4.68.81,4.92-1.08.32-2.49-2.89-2.59-4.71-3.21C72.52,7.65,56.79,6,40.93,5.12A102.41,102.41,0,0,0,26.28,5.53ZM51.55,184.15c-1-2.88-3.21-4.77-5.73-6.35-.87-.54-1.42-.44-1.75.59-.47,1.49-.83,3.59-2.92,2.83-1.79-.65-3.49-2.09-3.14-4.49.3-2.11-.57-2.88-2.61-2.78-1.45.06-2.91-.2-4.36-.15s-3.43-.17-4.21,1.52c-.87,1.86.53,3.26,1.63,4.56,4.77,5.59,11.29,7.4,18.18,8.4C50.66,188.36,52.49,186.88,51.55,184.15Z"/><path id="Trazado_1038" data-name="Trazado 1038" class="cls-4" d="M45.53,131.27c-1.89-.93-3.05-2.24-1.82-4.3,1.71-2.89.35-4.64-1.84-6.34A68,68,0,0,1,28.48,107.5c2.72.77,4.55,2.82,6.6,4.51q4,3.27,7.85,6.66C48,123.12,48.24,124.2,45.53,131.27Z"/><path id="Trazado_1039" data-name="Trazado 1039" class="cls-4" d="M37.55,95.26a106.78,106.78,0,0,1,11.2,14.06c.52.74.9,2,.07,2.54-1.09.78-1.58-.56-2-1.21C43.23,105.82,39.45,101.11,37.55,95.26Z"/><path id="Trazado_1040" data-name="Trazado 1040" class="cls-4" d="M17.94,123.45A117.84,117.84,0,0,1,39,129C34.39,130.21,23.54,127.38,17.94,123.45Z"/><path id="Trazado_1041" data-name="Trazado 1041" class="cls-5" d="M394.7,197.1a13,13,0,0,1-6.46-1.62c-1.09-1.78-.13-3.31.62-4.84,1.62-3.32,3.25-6.64,4.71-10,.72-1.66.61-2.64-.92-4-2.44-2.18-3.89-5.27-7.24-6.73-1.76-.77-1.18-3.25-1-5.11a210.09,210.09,0,0,1,3.52-23.67q-1.77,8.73-3,17.55c-.36,2.46-.44,5.43-3.25,6.3s-5.33-.75-7.23-3a22.1,22.1,0,0,1-3.48-5.88,21,21,0,0,0,3.44,5.81c7.62,8.1,7.38,6.08,3.4,17.39q-1.69,4.83-3.76,9.5c-.52,1.18-1,2.89-3,2l-.2-.06c-1.84-.83-1.81-2.07-1.21-3.84,1.24-3.61,2.13-7.34,3.26-11,.7-2.26.17-3.82-1.56-5.62a44.53,44.53,0,0,1-12.4-26.71c-.23-2.2-.55-4.72,1.92-6s4.6.19,6.48,1.68a17.82,17.82,0,0,1,5.52,6.6c.84,1.86,2.33,3.44,4.08,5.95.8-3.28,1.37-5.73,2-8.17,2-7.83,4.42-15.52,8.79-22.43,1.25-2,2.48-4.25,5.53-3.5,3.32.82,4.22,3.24,4.14,6.3a191.76,191.76,0,0,1-1.93,20.16c4.06-5.15,6.91-9.81,10.81-13.59,1.13-1.09,2.21-2.41,4.09-1.3,1.72,1,3.61,1.9,3.45,4.36a30.89,30.89,0,0,1-.54,4.7,56.77,56.77,0,0,1-3.92,10.81c-.81,1.79-1.59,3.6-2.82,6.4a53.65,53.65,0,0,0,4.67-3.28c2.57-2.25,5.14-1.21,7.23.35s.94,4,0,5.8a87.21,87.21,0,0,1-11,17.43A72.28,72.28,0,0,0,397.66,192,58.58,58.58,0,0,1,394.7,197.1Zm9.65-52.54c-5.66,6.21-8.68,13.66-10.38,21.83l10.38-21.83ZM374,161.46a14.77,14.77,0,0,0-4.27-7,51.1,51.1,0,0,0,3.09,6.14c.22.39.82.56,1.24.83Z"/><path id="Trazado_1042" data-name="Trazado 1042" class="cls-6" d="M222.4,271.59c-1.34,6.86-6,10.6-12.17,12.9-6.49,2.44-10.58,1.18-15.4-4.8-4.28,4.6-9.26,7.7-15.56,4.47-6.76-3.47-8.4-9.62-7.42-16.72-9.14,1-14.07-1.32-17.53-8-3.12-6.06-1.65-12,4.69-18.8-9.47-7.86-11-17.46-4.23-26.21,1-.8,1.95-2.07,3.1-2.32,5.09-1.1,4-3.35,2.23-7-3.91-8.21-.31-15.92,8.31-18.8,1.69-.57,1.52-1.17,1.13-2.53-3.92-13.55,2.48-24.52,16.09-27.27,2.59-.52,2.57-1.73,2.5-3.77-.35-10.62,4.46-18.06,13.16-20.6,5.7-1.67,10.11-.6,15.67,4,3.13-8.83,9.87-13.25,18.67-14.2,9.19-1,16.27,2.7,20.25,11.65,6-6.79,13.36-8.43,21.37-5.26,8.9,3.52,14.5,9.89,14.45,20.27,7.33-3.37,13.59-2,19,3.53,5.93,6.09,6.09,13.35,3.29,20.67-1.23,3.23-.68,4.26,2.21,5.89,11.27,6.36,13,20.76,4,31.75,9.5,7.9,9.75,15,.74,24-1.19,1.19-1.7,1.87,0,3a26.93,26.93,0,0,1,3,2.57c5.21,11.7,2.16,19.89-9.6,25.52-1,.49-2,.52-1.08,2.1,3.63,6.28,3,12.46-2,17.46-5.19,5.18-11.56,6.7-18.51,3.07a2.37,2.37,0,0,0-.84-.06c-1.95,6.8-5.47,12.09-13.28,12.67-5.59.41-9.23-2.44-12.43-9.45-5.16,4.4-10.54,4-15.56.08-5.63-4.35-9.37-9.8-7.58-17.46.42-1.8,1.11-3.53,1.68-5.29.27-1.3.51-2.67,1.64-3.5,3.24-2.41,4-5.68,3.51-9.46-.42-3.3,1.25-6.13,2.57-9.58-10.36,1.53-20.23,1.65-29.76-4.36a19.67,19.67,0,0,1-1.83,12.75,3.38,3.38,0,0,0,0,3.42C223.5,262.19,223.36,266.84,222.4,271.59Zm50.8-62.12c-6.62.7-12.11-1.84-17.1-5.85-.86-.37-1.91-1-2.64-.68-4.38,2-8.35.22-12.66-.34s-6.72-1.5-7.65-5.66a3.17,3.17,0,0,0-1.88.45c-6.5,3.66-13,3.77-19.55.13-.66-.37-1.42-.77-2.18-.13-2.1,3.91-.72,6.26,2.61,9.13,6.64,5.7,7.67,13.86,3.73,21.89-.6,1.22-.85,2,.24,3.08,12.86,12.87,30.88,14.56,44.62,5.92a3.79,3.79,0,0,0,1.89-3.9c-.25-8.61,4.28-14.49,11.87-17.36,4.14-1.57,5.2-3.36,4.05-7.19-1.89-1-3.57.32-5.35.51Zm-36.61-14.14a19.5,19.5,0,0,1,8.94-6.73c2.52-.85,4.08-.6,3.64,2.71a11.83,11.83,0,0,0,2.29,8.51,13.49,13.49,0,0,0,4,4.45c6.76,6.09,14.33,8.2,23,4.7.67-.42,1.33-.86,2-1.26,7.53-4.55,12.59-15.29,6.35-25a22.69,22.69,0,0,0-14.78-10.2c-1.58-1.36-3.45-1.14-5.27-.84-4.53.76-8.84,2.33-11.74,6-3.34,4.18-8.05,2.13-12,3.3-1,.3-1.35-1-1.59-1.92-1.16-4.48-3.82-8-7-11.26a8.91,8.91,0,0,0-7.28-3.09,18.71,18.71,0,0,0-23.5,8.3c-4.45,8.48-4,15.8,5.81,24.38,7.94,5.32,15.86,5.24,23.74-.14,1.75.48,2.4-.94,3.31-1.92Zm34.16-30.45c.1-1.37.19-2.44-1.74-2.84-7-1.43-12.58-5-15.87-11.75-5.09,5.28-11.19,6.93-17.9,6.22-2.65-.27-3.36.6-4,2.91s-1.12,4.76-4.06,5.29c7.49,2.54,11.58,8,13.25,15.5.45,2,1.15,2.55,3.24,2,2.36-.68,4.86-1.33,7.39-.45,1.44.5,2.15-.53,2.92-1.45a20.12,20.12,0,0,1,18.1-7.72A13.38,13.38,0,0,1,270.75,164.88ZM250.66,212.2a4.82,4.82,0,0,0-6.58.11c-1.87,1.67-2.65.86-4.06-.42-3.31-3-7-5.11-11.31-1.84-1.61,1.23-2.17-1.05-3.66-.49a21.37,21.37,0,0,1,3,8.07c1.52,7.27,7.91,10.68,15.33,9.38,7.64-1.33,9.68-8.81,15.25-13-3.7,2.86-5.59.55-7.93-1.76Zm-11.11-8.8c1.71-.38,2.78-.43,4.14.85,2.14,2,4.93,2.34,7.19.47,1.69-1.4,3.05-.8,4.63-.46q-1.6-2.4-3.19-4.8c-1.71-.89-2.3.75-3.26,1.48-1.16.88-2.56,1.58-3.48.23-1.87-2.74-4-3.14-6.7-1.5a1.4,1.4,0,0,1-1.94-.3,1.06,1.06,0,0,1-.12-.2c-.34-.68.19-1.26.63-1.75s1.2-1,1.7-1.66.86-1.14.43-1.77a1.46,1.46,0,0,0-1.79-.45,4.9,4.9,0,0,0-1.92,1.35l-2.59,2.35c-.69,4.52,1.81,7.14,6.27,6.17Zm20.91-2.18c7.1,4.6,14.65,2.58,19.6-2.44,5.34-5.4,3.69-16.39-2.77-18.71a14.43,14.43,0,0,0-14.8,2.58c-4.87,4-6.24,9.12-4.81,15.13,2.87-.42,2.2,2,2.78,3.44Zm-49.25-9.37c.91.43,1.84.85,2.75,1.31,7.31,3.7,15.18-.42,18.44-6.45,3.87-7.16-.12-15.16-7.93-16.83-6.55-1.4-10.41,1.91-14.09,6.27.86,5.2,1.76,10.4.83,15.7Zm39.06-2.1c.58-2.67-.66-3.06-2.73-2.75-5.13.78-8.69,3.92-11.67,7.89,1.15.06,2.14-1.16,3.39-.41-.11.22-.15.51-.31.63-1.85,1.27-5.13,2.15-3.45,5.06,1.5,2.59,3.85.75,5.7-.53a1.61,1.61,0,0,1,2.27,0,1.41,1.41,0,0,1,.33.5c2.86,4.13,3.8,4.12,6.86,0,.5-.66,1.05-.61,1.66-.73a12.08,12.08,0,0,1-2-9.71Zm-39.06,2.1c2.38-3.17,1.88-12.75-.83-15.7-3.41,6.24-3.17,10.74.83,15.7Zm49.25,9.37c1.53-2,.41-3.5-1-4.72-1.9-1.65-1.64.21-1.78,1.28.81,1.24,1.42,2.65,2.78,3.44ZM230.3,216.47c1.22,4.67,4.39,6.23,8.2,6.9,3.45.61,6.84.88,9.05-3.3-6,0-11.54-1.41-17.25-3.59Zm1.58-5.05c-.63.09-1.4,0-1.64.78s.45,1.17,1,1.54a13,13,0,0,0,8.13,2.51c-1.26-3.93-3.63-5.41-7.46-4.83Zm13.3,5.68c1.49-.26,3.26.54,4.39-1,.38-.53-.28-1-.67-1.17-1.8-.62-3.6-.78-5.14.67a10.56,10.56,0,0,0-1,1.4,11.94,11.94,0,0,0,2.39.12Zm29.46-25.59c.42-1.17.44-2.33-1-3a2,2,0,0,0-2.72.6,2,2,0,0,0-.2.42c-1.51,3-2.83,3.93-3.92-.24a1.93,1.93,0,0,0-2-1.59c-.31,0-.7.7-.85,1.15-1.12,3.3,1.8,7.26,5.43,7.16,2.62-.3,4.31-2,5.22-4.51Zm-46.32-6c1.11-1.33,2.49-2.87.58-4.42s-2.63.46-3.58,1.66c-.78,1-1.42,2.59-2.94,2.23-1.32-.32-.92-2-1.47-3.05a9.41,9.41,0,0,0-1-2.07c-.72-.81-1.59-.9-2.17.3-1.42,2.93,1.54,8.08,4.7,8.15a7.29,7.29,0,0,0,5.88-2.8Z"/></g></g></svg>