<svg id="Capa_1" data-name="Capa 1" xmlns="http://www.w3.org/2000/svg" viewBox="0 0 267.84 73.61"><defs><style>.cls-1{fill:#030304;}.cls-2{fill:#020203;}.cls-3{fill:#010101;}.cls-4{fill:#040405;}.cls-5{fill:#060607;}.cls-6{fill:#121113;}.cls-7{fill:#010202;}.cls-8{fill:#020202;}.cls-9{fill:#010102;}</style></defs><path class="cls-1" d="M127.39,73.61l-5.22-5.68-1.57-1.69V70c0,.94,0,1.88,0,2.82,0,.47-.26.42-.54.39s-.58.16-.58-.35c0-3.08,0-6.17,0-9.25l.11-.07,6.62,7.22c.21-.14.12-.33.12-.48,0-1.38,0-2.76,0-4.14,0-2.34,0-2.34.59-2.34s.55,0,.55,2.37,0,4.94,0,7.41Z"/><path class="cls-2" d="M199.87,73.61c0-.13-.07-.19-.13-.26-2.16-2.33-4.31-4.66-6.48-7-.2.17-.1.38-.1.55,0,1.93,0,3.85,0,5.78,0,.45-.11.59-.57.57s-.56-.09-.56-.54c0-2.88,0-5.77,0-8.66a.61.61,0,0,1,.12-.49L199,71V66.78c0-.83,0-1.66,0-2.49,0-.47.21-.46.55-.46s.54,0,.54.47c0,3.1,0,6.21,0,9.31Z"/><path class="cls-2" d="M175.93,73.61q-2-4.85-3.94-9.69c1.16-.22,1.17-.22,1.57.85l2.23,5.77a.39.39,0,0,0,.22.3l1.9-5c.21-.52.41-1,.62-1.57a1,1,0,0,1,1.23-.43c.26.17,0,.36,0,.51-1,2.42-2,4.82-2.93,7.24a8.42,8.42,0,0,0-.73,2Z"/><path class="cls-3" d="M256.61,6.75a1.91,1.91,0,0,0-.77,1c-3.75,9.19-7.52,18.38-11.24,27.59-.34.85-1,.65-1.56.78s-.79,0-1-.6q-5.21-13.09-10.48-26.17c-.23-.57-.45-1.15-.67-1.73-.12.06-.06.25-.1.26-.28,0-.23.24-.22.41.17,8.14,0,16.29.09,24.43a1.1,1.1,0,0,0,.89,1.24c.76.19,1.5.47,2.24.72a1.27,1.27,0,0,1,.38,1.28c-.08.1-.19.06-.3,0-2.69-.2-5.38-.07-8.08,0-.52,0-1.05,0-1.57,0s-.7-.21-.79-.68.22-.6.61-.7l2.61-.71a1,1,0,0,0,.87-1.1q0-14.58,0-29.16a1,1,0,0,0-.86-1.12c-.92-.27-1.83-.57-2.76-.78-.74-.17-.43-.71-.45-1.1s.39-.22.59-.22c3.6,0,7.19,0,10.79,0a.72.72,0,0,1,.81.53c2.36,6,4.75,12,7.12,18q1.2,3,2.38,6.07c.07.19.12.42.38.41s.23-.25.3-.41q4.88-12,9.76-24a.75.75,0,0,1,.85-.55q5.41.11,10.85,0c.2,0,.56-.16.5.27s.37,1-.32,1.17c-.92.28-1.84.56-2.77.78a1,1,0,0,0-.83,1c0,.41,0,.83,0,1.24q0,13.47,0,26.92c0,2.15,0,1.77,1.79,2.34q.87.27,1.77.48c.7.18.38.74.4,1.13s-.39.2-.57.2c-4.3-.09-8.6-.05-12.89,0h-.66c-.33,0-.75.1-.77-.45s-.1-.85.54-1a18.93,18.93,0,0,0,1.92-.54c.86-.25,1.08-.53,1.08-1.43,0-5.36,0-10.73,0-16.09C256.42,13.32,256.44,10.08,256.61,6.75Z"/><path class="cls-3" d="M267.36,54.07c-6.26,0-12.6,0-18.93,0a38.86,38.86,0,0,1-4.16-.44c-1.67-.2-3.34-.42-5-.61-2.21-.27-4.42-.52-6.63-.77-2.06-.23-4.12-.45-6.18-.69l-7.27-.89c-2-.24-4.08-.45-6.12-.69-2.47-.28-4.93-.59-7.4-.87-1.71-.2-3.43-.38-5.14-.56-2.32-.26-4.64-.52-7-.76q-2.77-.3-5.54-.55-4.11-.41-8.22-.77c-1.76-.16-3.53-.29-5.29-.42q-4.16-.33-8.31-.63c-1.5-.11-3-.2-4.52-.28-6.36-.34-12.73-.62-19.1-.73-5.35-.09-10.7-.12-16,0-3.59.1-7.19.15-10.78.3-3.76.16-7.51.41-11.27.64-2.91.17-5.81.34-8.71.56s-5.76.49-8.63.74c-2.57.23-5.14.45-7.71.7-2.35.23-4.7.49-7,.74l-6.65.7c-2.48.27-4.95.56-7.43.84L51,50.5l-7.16.83-7.36.87-7.55.87c-2.39.27-4.78.58-7.17.84-3.4.36-6.82.1-10.23.15-3.24,0-6.49,0-9.73,0A.89.89,0,0,1,1.29,54l3.24-.45,5.69-.76c1.83-.24,3.67-.45,5.5-.69,2.2-.29,4.4-.6,6.6-.88,2-.25,4-.47,6-.7l6.5-.75L41,49l6.3-.74,4.94-.56L59,47c2.06-.23,4.13-.46,6.19-.67,3.22-.33,6.44-.66,9.66-1,4.47-.43,8.94-.88,13.41-1.25s9.22-.73,13.83-1q7.32-.46,14.64-.71c6.49-.23,13-.36,19.46-.32s13.15.19,19.72.5q7.85.39,15.68.92c4.82.34,9.65.74,14.46,1.18,4.66.43,9.32.92,14,1.41,4.39.46,8.78.95,13.17,1.44q7.14.78,14.27,1.6c4.43.51,8.86,1.06,13.3,1.54,5.36.59,10.71,1.35,16.06,2,3.32.42,6.63.87,9.95,1.31A5.11,5.11,0,0,1,267.36,54.07Z"/><path class="cls-3" d="M86.2,24.16q0-9.13,0-18.26c0-.76-.11-1.53-.09-2.29a.94.94,0,0,0-.82-1.06l-2.52-.67A1,1,0,0,1,82.14.56c.12-.21.31-.1.47-.1,3.09,0,6.18,0,9.27,0h.53c.72,0,1,.36.9,1.1,0,.29-.26.27-.42.32-.9.27-1.79.56-2.7.76a1.1,1.1,0,0,0-1,1.24c-.13,10.44,0,20.88,0,31.32,0,.56,0,1-.76.89a2.9,2.9,0,0,0-1.17.11c-.61.19-.89-.14-1.21-.55-3.93-4.93-7.89-9.84-11.8-14.78C71,16.74,67.62,12.69,64.46,8.49c-.11.18-.32.26-.31.56.15,5.34,0,10.68.07,16l0,7.61c0,.87.13,1,1,1.27l2.52.69c.36.1.64,1.1.41,1.37-.08.08-.16,0-.24,0-3.35-.21-6.7,0-10.06,0-.25,0-.63.24-.75-.33-.16-.83-.2-.84.62-1.06l2.5-.67a1,1,0,0,0,.87-1.1q.09-14.57,0-29.15a1,1,0,0,0-.85-1.13c-.92-.26-1.83-.57-2.76-.78-.73-.17-.45-.7-.46-1.1s.39-.22.59-.22l8.87,0a.81.81,0,0,1,.72.33L85.49,23.69A1,1,0,0,0,86.2,24.16Z"/><path class="cls-3" d="M24.87.48h3.26l7.43,0c.23,0,.58-.16.53.31s.48,1-.35,1.14c-.65.14-1.29.36-2,.53a3.1,3.1,0,0,0-2.18,1.8c-1,2.15-1.84,4.36-2.74,6.56Q23.79,23.21,18.75,35.66a.69.69,0,0,1-.75.53,7.44,7.44,0,0,0-1.24.12c-.47.08-.65-.1-.81-.55-1.73-4.92-3.49-9.83-5.24-14.75C8.78,15.64,6.84,10.27,4.93,4.89A3.84,3.84,0,0,0,1.86,2.15c-.41-.08-.8-.22-1.2-.33A.93.93,0,0,1,.05.61C.15.3.39.46.55.46c4.53,0,9.07,0,13.61,0a4.3,4.3,0,0,0,.72,0c.66-.12.85.12.86.79,0,.47-.14.59-.53.68-.66.16-1.3.35-2,.55-.83.26-1,.61-.88,1.47A39.93,39.93,0,0,0,14,9.14c1.85,5.47,3.74,10.93,5.6,16.4.08.21.13.41.39.45s.2-.23.24-.32c2.2-6.25,4.66-12.41,6.94-18.63a22,22,0,0,0,1-3.16,1.07,1.07,0,0,0-.8-1.45c-.64-.2-1.29-.39-1.95-.54-.44-.1-.68-.28-.59-.78A3.44,3.44,0,0,0,24.87.48Z"/><path class="cls-3" d="M45,.44H52.2c.28,0,.63-.1.58.37s.34.92-.4,1.09c-1,.22-1.93.53-2.9.78a.8.8,0,0,0-.68.83c0,.68-.07,1.36-.07,2V30.7c0,.67.07,1.35.05,2a1.12,1.12,0,0,0,1,1.23c.84.21,1.66.51,2.51.69s.51.78.51,1.19-.44.15-.65.14c-4.17-.07-8.33,0-12.5,0A12.79,12.79,0,0,0,38,36c-.55.06-.65-.24-.74-.65s.16-.63.58-.73c.88-.2,1.74-.48,2.61-.71a1,1,0,0,0,.9-1.15q0-14.53,0-29.09a1,1,0,0,0-.83-1.14c-.94-.26-1.88-.56-2.83-.8-.69-.17-.37-.69-.41-1.06s.38-.24.58-.24c2.39,0,4.78,0,7.17,0Z"/><path class="cls-3" d="M176.41.44h7.23c.27,0,.58-.06.54.35s.35.89-.32,1.08c-1,.27-1.93.56-2.9.78a.91.91,0,0,0-.78,1c0,.44,0,.88,0,1.31,0,8.82,0,17.64,0,26.46,0,2.53-.17,2.22,2.15,2.87.52.15,1,.33,1.56.45.28.07.34.19.36.45.06.89.07.85-.84.83-4.1-.08-8.2-.05-12.3,0-.59,0-1.18,0-1.77,0s-.6-.19-.61-.56-.16-.66.42-.76c.93-.17,1.82-.52,2.74-.75a1,1,0,0,0,.91-1.14q0-14.54,0-29.08a1.09,1.09,0,0,0-.89-1.18C171,2.3,170,2,169.07,1.77c-.7-.19-.32-.72-.36-1.09s.34-.21.53-.22h7.17Z"/><path class="cls-2" d="M91.13,66c-2.34-1.78-4.47-1.78-6-.06a4,4,0,0,0,.22,5.41A3.9,3.9,0,0,0,91,71.13c.36,1,.2,1.41-.76,1.87a5,5,0,0,1-7.13-3.54,4.71,4.71,0,0,1,2.14-5,5.23,5.23,0,0,1,5.58,0,.54.54,0,0,1,.29.53C91.12,65.28,91.13,65.61,91.13,66Z"/><path class="cls-1" d="M40.62,68.53c0-1.38,0-2.76,0-4.14,0-.4.07-.58.54-.57,1.31,0,2.63,0,4,0,.44,0,.53.15.54.56s-.16.55-.57.54c-1,0-1.89,0-2.83,0-.37,0-.5.09-.48.47a17.42,17.42,0,0,1,0,1.77c0,.37.13.43.45.43,1,0,1.93,0,2.9,0,.45,0,.52.14.53.55s-.16.53-.56.52c-.9,0-1.8,0-2.7,0-.55,0-.65.17-.62.66a20.74,20.74,0,0,1,0,2.23c0,.52.08.73.66.69.92,0,1.84,0,2.76,0,.49,0,.44.25.45.57s0,.53-.43.52q-2,0-4.08,0c-.41,0-.51-.13-.51-.53C40.63,71.33,40.62,69.93,40.62,68.53Z"/><path class="cls-1" d="M154.75,68.52c0-1.38,0-2.76,0-4.13,0-.41.07-.58.53-.57,1.33,0,2.67,0,4,0,.45,0,.49.18.47.54s0,.59-.46.56c-.94,0-1.88,0-2.82,0-.4,0-.6.06-.56.52a10,10,0,0,1,0,1.64c0,.39.07.53.5.51.9,0,1.79,0,2.69,0,.39,0,.68-.06.68.54s-.36.51-.71.51h-2.7c-.3,0-.47,0-.46.41,0,.92,0,1.84,0,2.75,0,.32.1.41.41.41,1,0,2,0,3,0,.46,0,.49.18.47.54s0,.56-.45.55c-1.34,0-2.68,0-4,0-.42,0-.56-.1-.55-.54C154.77,71.32,154.75,69.92,154.75,68.52Z"/><path class="cls-2" d="M223.75,73.48a2.8,2.8,0,0,1-2.8-1.76c-.24-.62.31-.58.59-.77s.39.11.48.32a1.79,1.79,0,0,0,1.87,1.25,1.75,1.75,0,0,0,1.63-1.2,1.81,1.81,0,0,0-.78-2.06,13.26,13.26,0,0,0-2-.91,2.53,2.53,0,0,1-1.62-2.78,1.87,1.87,0,0,1,.25-.73,2.88,2.88,0,0,1,4.56-.22c.14.2.41.44,0,.61s-.51.68-.89.1a1.65,1.65,0,0,0-1-.72A1.36,1.36,0,0,0,222.83,67a6.05,6.05,0,0,0,1,.54c.39.19.8.34,1.19.53a2.72,2.72,0,0,1,1.69,3.3A2.81,2.81,0,0,1,223.75,73.48Z"/><path class="cls-2" d="M53.62,73.48a2.78,2.78,0,0,1-2.71-1.68c-.3-.64.22-.65.54-.85.48-.31.43.17.52.37a1.83,1.83,0,0,0,2.41,1.09,1.7,1.7,0,0,0,1-2.12A1.94,1.94,0,0,0,54.27,69c-.54-.27-1.12-.47-1.67-.74a2.47,2.47,0,0,1-1.51-2.7,2.28,2.28,0,0,1,1.78-1.87,2.81,2.81,0,0,1,3,.84c.14.18.52.43,0,.66-.28.14-.55.68-.93.08a1.5,1.5,0,0,0-1.33-.72,1.26,1.26,0,0,0-1.32.87A1.28,1.28,0,0,0,52.79,67a8.44,8.44,0,0,0,1.15.61c.3.14.6.26.9.39a2.78,2.78,0,0,1,1.75,3.4A2.82,2.82,0,0,1,53.62,73.48Z"/><path class="cls-4" d="M63.64,69.08c0-1.22,0-2.44,0-3.67,0-.36-.08-.5-.46-.48-.59,0-1.19,0-1.78,0-.42,0-.46-.19-.43-.52s-.1-.61.42-.6c1.88,0,3.76,0,5.65,0,.51,0,.4.31.42.6s0,.55-.43.52-1.14,0-1.71,0-.53.15-.53.56c0,2.38,0,4.76,0,7.15,0,.45-.06.64-.59.63s-.61-.18-.6-.64C63.66,71.45,63.64,70.26,63.64,69.08Z"/><path class="cls-5" d="M96.89,68.56c0-1.4,0-2.8,0-4.19,0-.53.23-.54.63-.55s.57,0,.57.52c0,2.79,0,5.59,0,8.38,0,.52-.21.53-.61.54s-.6-.11-.58-.57C96.91,71.31,96.89,69.93,96.89,68.56Z"/><path class="cls-4" d="M185.92,68.62c0,1.38,0,2.75,0,4.13,0,.48-.19.51-.57.51s-.63,0-.63-.53q0-4.17,0-8.32c0-.55.23-.57.66-.59s.54.21.53.61C185.91,65.83,185.92,67.23,185.92,68.62Z"/><path class="cls-6" d="M107.84,62.94c.43-.74.78-1.41,1.2-2s.88-.14,1.4-.15c-.58.7-1.14,1.4-1.73,2.09C108.52,63.07,108.22,62.94,107.84,62.94Z"/><path class="cls-3" d="M131.91.46c3.17,0,6.32,0,9.47,0,2.55,0,5.09-.19,7.63-.12a18.18,18.18,0,0,1,7.69,1.58A7.57,7.57,0,0,1,161,9.69c-.33,4.63-3.11,7.13-7.17,8.6-.62.22-.63.38-.28.88,2.6,3.7,4.7,7.7,7.22,11.45A14.58,14.58,0,0,0,162.56,33a6.21,6.21,0,0,0,3.51,1.76c.81.12.51.74.59,1.16s-.4.37-.65.4a33.9,33.9,0,0,1-7.4,0,6.16,6.16,0,0,1-4.22-2.62A66.33,66.33,0,0,1,149.64,26c-1.07-1.88-2.14-3.75-3.34-5.55a2.51,2.51,0,0,0-2.73-.89c-.25.1-.25.26-.25.46,0,4.33-.07,8.67.09,13a1,1,0,0,0,.75,1c.71.21,1.41.46,2.11.7a1.34,1.34,0,0,1,.41,1.28c-.08.11-.19.07-.3.06-4-.2-7.93-.07-11.89,0-.64,0-1.27,0-1.91,0-.25,0-.66.14-.58-.35.06-.33-.33-.82.4-1,.91-.17,1.77-.55,2.68-.73a1.15,1.15,0,0,0,1-1.23c0-.17,0-.35,0-.52V4.31c0-1.37-.1-1.5-1.38-1.88-.71-.2-1.42-.43-2.14-.59-.43-.1-.64-.27-.57-.75A2.38,2.38,0,0,0,131.91.46Zm15.85,16.82a5.33,5.33,0,0,0,4.75-3.69,12.06,12.06,0,0,0,.39-5.72c-.41-2.93-1.93-4.68-5.08-5.08a22.81,22.81,0,0,0-3.79.12c-.65,0-.72.27-.72.81,0,1.77,0,3.54,0,5.32,0,2.56,0,5.12,0,7.68,0,.46.13.6.58.59s1.05.06,1.47.09C146.23,17.36,147,17.35,147.76,17.28Z"/><path class="cls-3" d="M122.05,36c-2.43,0-4.86,0-7.3,0-.71,0-.51-.49-.62-.81s.15-.44.46-.51c.56-.14,1.11-.34,1.66-.5,1.27-.34,1.63-.84,1.23-2.07-.78-2.42-1.64-4.81-2.46-7.21a.43.43,0,0,0-.5-.31c-3.1.14-6.22.05-9.32.05a1.17,1.17,0,0,0-1.34.87c-.72,2.09-1.55,4.15-2.29,6.24-.6,1.69-.44,2,1.28,2.44l1.38.4a.53.53,0,0,1,.46.53c.09.91.12.88-.81.85-2.85-.11-5.69-.06-8.54,0l-1,0c-.84,0-1-.19-.9-1,0-.24.2-.23.37-.28l2.16-.65a2.84,2.84,0,0,0,1.89-1.51c1.22-2.39,2.12-4.91,3.14-7.38Q106,13,111,.77c.34-.84,1-.59,1.59-.68,1.14-.2,1.15-.14,1.54,1q5.31,15,10.64,30c.14.39.3.77.45,1.15a3.11,3.11,0,0,0,2.28,2c.66.16,1.29.4,1.94.58s.39.77.41,1.14-.4.15-.6.15c-2.39,0-4.78,0-7.17,0ZM106,22c2.54.05,5.08-.12,7.61.09.3,0,.38-.06.27-.38-1.27-3.74-2.53-7.5-3.79-11.24a1.81,1.81,0,0,0-.19-.29c-.1.1-.28.06-.34.25-.12.39-.28.78-.42,1.16-1.3,3.43-2.59,6.86-3.94,10.41Z"/><path class="cls-3" d="M191.19,36h-5c-.38,0-.73,0-.79-.51a.7.7,0,0,1,.62-.91c.58-.13,1.15-.37,1.73-.49A3,3,0,0,0,190,32.25c1.06-2.25,1.94-4.57,2.88-6.86Q198,13.13,202.94.85c.37-.89,1.08-.67,1.67-.76,1.08-.18,1.09-.12,1.47,1Q211.38,16,216.69,30.87c.07.2.15.4.22.61a3.7,3.7,0,0,0,3,2.79c.49.08,1,.3,1.44.42a.47.47,0,0,1,.44.52c0,.84.06.8-.78.78-4.23-.1-8.46,0-12.69,0H207c-.84,0-.82,0-.81-.87,0-.25.05-.36.34-.43.75-.18,1.49-.41,2.22-.65a1.16,1.16,0,0,0,.85-1.52c-.7-2.58-1.71-5.06-2.56-7.59a.42.42,0,0,0-.47-.34c-3.15.14-6.3.05-9.46.05a1.06,1.06,0,0,0-1.2.85c-.8,2.3-1.81,4.52-2.49,6.86-.31,1.06-.09,1.4,1,1.71l1.89.54a1.23,1.23,0,0,1,.4,1.37c-.09.12-.19,0-.29,0h-5.19Zm13.52-14a2.84,2.84,0,0,1,.65,0c.6.15.64,0,.45-.58-1.23-3.59-2.42-7.2-3.65-10.8,0-.16,0-.54-.28-.46a.83.83,0,0,0-.42.51c-.36,1.07-.76,2.12-1.16,3.18L197.24,22Z"/><path class="cls-7" d="M210.69,73.49a4.93,4.93,0,1,1,5.09-4.88A5,5,0,0,1,210.69,73.49Zm3.88-4.91a3.84,3.84,0,1,0-3.9,3.85A3.9,3.9,0,0,0,214.57,68.58Z"/><path class="cls-8" d="M108.74,73.49a4.93,4.93,0,1,1,5.09-4.88A5,5,0,0,1,108.74,73.49Zm3.89-4.89a3.84,3.84,0,1,0-3.85,3.83A3.89,3.89,0,0,0,112.63,68.6Z"/><path class="cls-9" d="M141.33,68.55c0-1.38,0-2.76,0-4.13,0-.44.07-.62.56-.6,1.09.06,2.19,0,3.28.09a4,4,0,0,1,3.81,3.5c.41,2.41-.35,4.37-2.05,5.29a4,4,0,0,1-1.81.5c-1.12,0-2.23,0-3.35.06-.35,0-.44-.11-.43-.45C141.34,71.39,141.33,70,141.33,68.55Zm2.5-3.62c-.31,0-.62,0-.92,0s-.41.08-.41.4c0,2.16,0,4.33,0,6.49,0,.16-.06.37.23.36A9.58,9.58,0,0,0,146,71.9,3,3,0,0,0,147.85,69c.15-1.64-.35-3.75-2.78-4-.41,0-.83,0-1.24,0Z"/><path class="cls-8" d="M74.59,63.44l4.27,9.74c-1.17.17-1.17.17-1.59-.8-.28-.65-.41-1.56-.92-1.88s-1.41,0-2.11-.14a1.56,1.56,0,0,0-2,1.37,3,3,0,0,1-.21.54c-.43,1-.43,1-1.65.94Zm-1.46,5.93h2.92L74.59,66Z"/></svg>