<svg id="Capa_1" data-name="Capa 1" xmlns="http://www.w3.org/2000/svg" viewBox="0 0 576.01 592.11"><defs><style>.cls-1{fill:#1d1d1b;}.cls-2{fill:#e6ae9e;}.cls-3{fill:#edeae3;}.cls-4{fill:#a27780;}.cls-5{fill:#f2f0e3;}.cls-6{fill:#19180d;}.cls-7{fill:#13130d;}.cls-8{fill:#18170d;}.cls-9{fill:#252211;}.cls-10{fill:#211f0f;}</style></defs><path id="Trazado_1082" data-name="Trazado 1082" class="cls-1" d="M402.86,183.28c17.33.78,31.4,7.89,41.37,22.15,11.84,16.92,18,36.57,26.18,55.27,8.9,20.24,15.58,41.3,24.32,61.59,7.44,17.29,13.8,35.15,16,54.07,1.36,11.48-2.86,21.37-9.73,30.31-1.48,1.92-2.94,3.85-5,6.49a121.6,121.6,0,0,1,50.6,21.24c11.06,7.87,20.06,17.81,25.51,30.36,7.88,18.13,3.17,34.74-10.38,50.8-12.79,15.16-30,24.73-48.13,32.08-37.55,15.2-76.78,20.94-117.23,20-23.75-.55-47.42-1.68-71-4.58-8.79-1.09-18.13-1.54-26.07-5-18.63-8-32.6.45-46.27,10.83-6.87,5.21-13.22,11.16-17.82,18.72-1.5,2.48-3.6,5.29-7.11,4.23-3.08-.94-4.28-3.52-4.63-6.86a52,52,0,0,1,1.78-21.23c2.56-8.17,2.54-8.58-6.23-8.45a453.94,453.94,0,0,1-52.66-2.2c-32.33-3.28-63.67-10.31-93.88-23-18-7.53-34.89-16.45-49.89-28.74-9.45-7.74-17.7-17-20.9-29.1-5.2-19.74.93-31.13,18.11-44.66,18.25-14.36,40.19-20.2,63-22.9,13.49-1.59,27-3.25,40.58-2.54,2.92.15,6.26.58,4.34-4.64-3.87-10.52-2.36-21.46,1.1-31.41,15.64-45,28.78-91,50-134,2.73-5.53,6.09-10.77,9.34-16,8.21-13.27,21.29-16.6,35.64-17.23,3.5,3.05,3.7,6.84,2.45,10.95-1.9,3.31-5.24,4.66-8.6,5.3-9.16,1.77-14.42,8-19,15.35-10.24,16.53-17.4,34.51-24.18,52.57-11.14,29.65-22.17,59.38-30.3,90-5.27,19.84-2,28.52,14.72,40.08,14.3,9.87,27.3,21.36,41.06,31.88,5.08,3.88,8.52,3.68,13.6-.24,8.77-6.75,14.81-16,22.85-23.29,3.15-2.88,2.74-5.16-.54-7.83-14.43-11.74-27.45-25-40.48-38.22-9.83-10-10-11.14-4.69-24,3.62-8.68,7.43-17.29,11.35-25.84,1.75-3.83,4-8.27,9.1-7.18,5.26,1.13,9.3,4.22,10,10.44,1.73,14.5,1.73,29.12,2.89,43.66.43,5.4,2.2,9.18,6.32,12.65,10,8.44,20.36,16.6,28.74,26.8,3.35,4.09,8.21,5.34,12.7,7.35,4.75,2.39,9.6,4.67,12.84,9.19,2.6,6.92-1.87,8.45-7.14,9.38-6.95-1.27-14.23-1-20.73-3.71,5.81,5.87,13.57,8.73,21.67,10.84,7.42,1.94,14.44,4.3,20.7,9.23,6.88,5.43,23.45,1.87,28.43-5.47,2.07-3.05,5-4.64,8.3-5.78,11.14-3.67,23.44-3.42,33.75-10.33-6-.69-11.85,1.51-17.82.77-7.52-.93-9.71-4.36-7.05-11.37,5.66-4.8,12.4-7.21,19.48-8.92,1.83-.46,3.62-1.3,5.51-1.31,4.21,0,6,1.5,3.2,5.57-2.92,2.3-6.45,3.1-10.27,4.06,13.72-1.91,19.11,2.27,18.66,14.14.91,4,3.92,2.34,5.8,1.68,4.1-1.45,6.81-4.87,9.21-8.33,1.62-2.32,0-4.22-1.63-5.87A119.58,119.58,0,0,0,384,413.1c-7-5.72-7-11.86,0-18,5.41-4.75,11.64-8.45,17.78-12.16a16.2,16.2,0,0,0,8.3-12.25c1-6,3.37-18.13,3.37-18.13s3.41-15,5.82-22.44c1.12-3.46,1.88-7.62,6.5-8.16,4.9-.58,6.94,3.33,8.85,6.74,6,10.83,10.87,22.27,16,33.54,3,6.59,1.27,11.06-5.12,15.2a388.58,388.58,0,0,1-36.29,20.35c-2.22,1.12-4.32,2.45-6.48,3.66-3.15,1.77-3.55,4-1,6.54,8.07,8.06,15.32,16.87,22.81,25.45,1.83,2.09,4.07,3.07,6.61,1.76,20.42-10.58,41.56-20.23,56.57-38.62,7.15-8.77,8.94-18.84,6.22-30.08-5.2-21.52-14.36-41.56-22.21-62.1Q458.29,269.33,443,235c-4.29-9.68-7.78-19.87-15.48-27.76a28.67,28.67,0,0,0-16-8.8c-4.09-.72-8.48-1.32-10.51-5.92C400.42,189.22,399.63,185.86,402.86,183.28Z"/><path id="Trazado_1083" data-name="Trazado 1083" class="cls-2" d="M402.86,183.28l.15,10.64a16.4,16.4,0,0,1,1.36,8c-2.29,20.94-5.09,41.76-14.5,61-9,18.5-20.83,34.77-38.59,45.87-8.15,5.1-17.08,8.72-26.07,12.1-2.19,1.85-2.18,4.35-1.93,6.84,2.53,24.58,5.35,49.13,5.51,73.88a4.76,4.76,0,0,0,1,2.72c2.89,1.92,6.18,1.45,9.34,1.48a71,71,0,0,1,21.68,4.08c2.25.75,5,1.21,5.15,4.44-6.89,2.89-14.4,4.35-20.52,9-4.32,2.27-9,1.3-13.56,1.67a17,17,0,0,0-2,.36c-2.62,2.34-.74,5.93-2.36,8.55A4.86,4.86,0,0,1,325,436a9,9,0,0,1-10.32-4c-4.26-6.45-10-6-16.34-4.83-4.75.86-9.18,4-14.33,2.2-3.74-3.83-8.39-6.23-13.17-8.44-1.48-7.11,2.93-10,8.66-11.38a139.46,139.46,0,0,1,22.61-3.66c5.5-.37,6.6-2.72,6.55-8.07-.19-19.21-2.66-38.33-2-57.55-.16-2.45,0-4.91,0-7.36.37-11.31.34-11.21-9.87-14.33-24.42-7.47-40.41-24.92-53.06-45.87-10.48-17.35-16.11-36.52-19.16-56.48-.3-2-.53-3.93.68-5.71.81-4-1.27-7.63-1.25-11.5.58-15.28,3.21-30.4,3.26-45.75,0-9,6.82-13.93,13-18.8,7.47-5.87,16.61-8.56,25.21-12.26,2-2.23,4.86-2.76,7.55-3.59,4-1.43,8.23-1.69,12.36-2.42,6.09-1.08,10.24.82,11,7.55.65,2.35,1.27,4.73,3.09,6.56,3.43,3.47,6.9,3.73,9.94-.3s5.42-8.16,11.53-7.36c1.7.22,2.54-2.07,3.43-3.54a7.22,7.22,0,0,1,7-4.6c19.35-.41,38,2.33,54.69,13a14.52,14.52,0,0,1,4.16,3.88c2.58,3.35,3.83,7.4,5.64,11.15a7.65,7.65,0,0,1,.67,4C400.73,158.37,401.28,170.91,402.86,183.28Z"/><path id="Trazado_1084" data-name="Trazado 1084" class="cls-1" d="M396.53,146.45l-2.14-4.21c-.25-3,2.19-4.25,3.85-6,9.45-9.9,10.52-18.89,3.79-31-4.45-8-6.89-16.1-2.68-25.3,2.87-6.27-.73-11.34-5.9-14.46-6.45-3.89-9.65-8.08-7.74-16.27,1.46-6.25-3-9.34-9.37-8.1-7.76,1.49-11-.66-12.27-8.4-1-6.15-4.58-10.32-9.86-13.14-4.76-2.54-8.33-1.35-12.54,2.41-8.42,7.52-5.14,17.82-7.71,26.66-.47,1.61.74,3.38,1.93,4.68a45.83,45.83,0,0,0,15.47,11.33c2.93,1.29,4.86.83,4.71-2.93a10.55,10.55,0,0,1,.27-3c1-3.75,2.34-7.62,7-7.33,4.93.3,6.4,4,6.12,8.52a19.78,19.78,0,0,0,2.38,10c1.73,3.58,4.07,5.42,8.3,3.85,3.14-1.17,6.52-1.4,8.83,1.65s.39,5.74-1.15,8.25c-3.92,6.42-2.77,13.42-2.47,20.3.16,3.67,3.5,4.35,6.1,5.72,8,4.22,10.77,13.19,6,20-1.82,2.61-3.9,5.51-7.85,3l-4.48-4c3.13-5.57,3.67-10-4.27-11.76-2.22-.49-2.86-3.27-3.46-5.43-.86-3.11-2-6.32-1.91-9.45.33-11.4-6.39-18.54-14.19-25.27a12,12,0,0,0-6.56-3.14c-9.25-1.11-17-5.44-23.51-11.79-3.43-3.33-6.64-4.68-11.23-2.57a24,24,0,0,1-16,1.54A12.25,12.25,0,0,0,295.37,62c-11.16,5.62-21.15,2.56-30.43-4.48-2.44-1.85-4.65-4.48-2.63-7.62s5.23-2.33,8.09-1.2c3.22,1.27,6.12,3.39,9.63,3.86,4.11.55,5.87-1,3.75-5-1.38-2.63-3.24-5-4.13-7.89-1.75-5.57,1-11.6,6-13.58s10.17.09,13.06,5.44c2,3.78,2.6,7.93,3.18,12.14.81,5.9,7.3,8.58,12.41,5.47,2.73-1.67,2.68-3.85,1.51-6.39-1.36-2.92-3.09-5.68-3.88-8.84-2-7.86,1.5-13.14,9.37-14.49,1.74-.3,4.5.93,4.76-2,.18-2.08-1.69-3.49-3.34-4.63C317.62,9.16,313,10.47,310,16.31c-5.85,11.13-5.85,11.13-18,6.7-6.31-2.3-11.93.34-14.28,6.71-1,2.63-.83,5.32-.67,8.07.41,7.06-1.84,9.18-8.53,8.31-10.59-1.38-15,4.19-11.5,14.4a36.88,36.88,0,0,0,4.12,7.9c4,6.19,5.76,6.65,11.9,2.75a24.73,24.73,0,0,1,16.26-4c2,.21,4,1,4.55,3.24S292.52,74,290.85,75a49.3,49.3,0,0,1-7.25,3.76c-7.47,3.16-10,9.14-10,16.65,0,5.69-.37,11.4.83,17,.58,2.72.66,5.43-1.26,7.79l-7.68,1.85c-2-9.72-3.43-19.54-2.1-29.45.59-4.39-.48-7.25-3.73-10.37-6.37-6.1-13.3-11.83-16-21-4.05-13.85,1.79-24.22,15.8-26.67,2.74-.48,3.51-1.47,4.09-4,3.71-16.23,11.2-21.46,27.65-18.94,4,.61,6-.2,8.25-3.63a18.29,18.29,0,0,1,23.68-6c3.87,2,8.37,3.24,11.27,6.92,1.6,2,3.57,2,6,1.64,12.34-1.89,20.93,2.23,27.1,13.27,2,3.57,3.63,5.5,8.4,5,10.75-1.07,25,11,21.83,23.3-.81,3.12.43,4.59,2.93,6.54,11.36,8.85,13.14,15.08,8.75,28.36-.56,1.7-1.52,3.44-.19,4.86,4.71,5,4.78,11.81,7.08,17.7C422.36,125.36,412.85,142.45,396.53,146.45Z"/><path id="Trazado_1085" data-name="Trazado 1085" class="cls-3" d="M112.17,478c11.3,0,22.6-.1,33.9,0,49.32.51,98.63,2,148,.36,4.19-.14,8.74-1.07,9.07,5.5.13,2.45,2.62,1.75,4.2,1.8,5.7.18,11.44.66,17.09.21,6.75-.53,8.83,2.78,9.54,8.75,1,8.65,1.84,8.93,10.26,7.15q50.49-10.69,101-21.28c3.16-.67,6.28-1.28,9.93-.57-.69,6.51-5.95,7.19-10.47,8.17-18.85,4.07-37.76,7.84-56.63,11.82-28.61,6-57.22,12.07-85.78,18.33-4.73,1-7.32.94-7.49-4.91-.15-5.16-1.58-10.28-1.93-15.45-.41-6.11-3-8.35-9.38-8.54-51-1.6-102.05-3.24-152.95-7.44C124.3,481.39,117.93,481.36,112.17,478Z"/><path id="Trazado_1086" data-name="Trazado 1086" class="cls-3" d="M236.37,566.46c2.86-14,12.42-22.71,23.29-30.15a16,16,0,0,0,5.28-5.77c3.23-5.79.55-7.5-4.83-8-2.65-.28-7.23,1.49-7.44-2s4.56-2.79,7.32-3.23c21.45-3.43,22.18-2.83,24.64,19.08.19,1.68.9,3.54-1.72,4C264.54,543.91,249.72,553.69,236.37,566.46Z"/><path id="Trazado_1087" data-name="Trazado 1087" class="cls-2" d="M337.45,444.24c-3.93,2.23-10.5,2.21-8.16,9.75.37,1.22-.67,1.55-1.76,1.6-8.51.41-16.69,4.09-25.4,2.55-1-.17-2.44,0-2.81-.51-6-8.85-16.08-8.57-24.74-11.5-7.42-2.51-14.77-5.26-20.79-12.69a127.2,127.2,0,0,1,23.72,3c13.77,2.54,27.41,6.22,41.63,5.1,3.37-.09,6.74-.13,10.11,0C332.22,441.73,335.42,441.2,337.45,444.24Z"/><path id="Trazado_1088" data-name="Trazado 1088" class="cls-4" d="M318.91,443.5c-14.3.55-28.3-.63-41.41-7.08,3.73-.95,8.06-1.36,6.49-7.12,7.67-2.86,15.47-5.05,23.74-5.22,2.65-.06,4.39.22,5.66,3.27A13.14,13.14,0,0,0,324,435.52,35.5,35.5,0,0,1,318.91,443.5Z"/><path id="Trazado_1089" data-name="Trazado 1089" class="cls-4" d="M337.45,444.24l-7.93-1c-3.56-6.82-1.8-13.58.18-20.35l15.77.4c-2.81,6,.87,7.9,5.66,7.92,6.65,0,13.3-.76,19.95-1.3,1.33-.11,2.94-1.65,3.71.49.58,1.66-1,2.69-2.1,3.54-6.1,4.61-13.44,6.15-20.63,7.89C347.27,443,342.33,443.46,337.45,444.24Z"/><path id="Trazado_1090" data-name="Trazado 1090" class="cls-5" d="M372.8,416.42c3.74,1,6.55,3.5,9,6.28,4.46,5,3.78,9.12-2,13.85,1-12.36-2.6-14.5-22.27-12.82,1.81-2.9,4.63-3.28,7.05-4.24C367.27,418.41,370.05,417.44,372.8,416.42Z"/><path id="Trazado_1091" data-name="Trazado 1091" class="cls-3" d="M426.41,369a38.54,38.54,0,0,1,0-4.3c.83-6.53,1.73-13,2.68-20C438.39,359.91,437.93,364.51,426.41,369Z"/><path id="Trazado_1092" data-name="Trazado 1092" class="cls-3" d="M210.05,351.63c.43.61,1.09,1.15,1.19,1.77.9,6,1.71,12.08,2.57,18.33C200.54,367.31,202,363.43,210.05,351.63Z"/><path id="Trazado_1093" data-name="Trazado 1093" class="cls-3" d="M255.46,447.31c-6.17-2.92-10.72-9.55-15.45-1.17a1.73,1.73,0,0,1-2.39.5,1.24,1.24,0,0,1-.22-.18c-1.27-.92-1-2.1-.09-3.17,3.47-4.15,7-8.29,11-13.11,1,3.39-.93,6.38.77,8.78S252.63,443.62,255.46,447.31Z"/><path id="Trazado_1094" data-name="Trazado 1094" class="cls-3" d="M273.25,428.38c-7.35.3-14.37-5-21.72-.18,3.08-9.26,4.06-9.68,12.44-5.74C267.23,424,271,424.8,273.25,428.38Z"/><path id="Trazado_1095" data-name="Trazado 1095" d="M359.46,448.93c2.17-.22,3.78-3.06,6.64-1.83A7.47,7.47,0,0,1,359.46,448.93Z"/><path id="Trazado_1096" data-name="Trazado 1096" class="cls-4" d="M328.17,300.87c-19.64,3.13-36.39-3.37-50.69-16.28C259.93,268.75,250,248.17,243,226c-.56-1.78-1.86-4,.48-5.3a5.13,5.13,0,0,1,6.16,1.06,22.89,22.89,0,0,1,6.07,10c4.09,12.88,6.61,15,18.18,15.51,8.47.41,17.46-5.63,21.33-14.28,1-2.24,2.17-4.42,3.26-6.63,4-1,7.77,1.21,11.72.73,3.69,5.76,6,12.48,11.52,17,2.3,14.91.76,29.85,0,44.75-.28,5.22.15,9.25,5.7,11.11Z"/><path id="Trazado_1097" data-name="Trazado 1097" class="cls-4" d="M327,247.58c17.3,2.83,20.85.89,27.94-15.14,1.3-2.93,2.72-5.82,4.2-8.66,3-5.77,8.07-6.24,13.35-4.35s7.69,5.86,6.4,11.71c-5.31,24-14.84,45.64-33.92,62.13-4.88,4.22-11.44,4.48-16.76,7.6l-.4-.36c-1.64-1.73-1.91-3.94-1.94-6.15-.21-14.2-.17-28.4,0-42.59A7.22,7.22,0,0,1,327,247.58Z"/><path id="Trazado_1098" data-name="Trazado 1098" class="cls-4" d="M365.16,155.44c-15.63,7.44-32.43,9.22-49.39,10.05-8.1.4-16.23.77-24.32-.36-6.67-4.61-12.26-9.87-11.33-19,8.62-3.09,17.63-3.69,26.65-4.23,1.52,2.22,1.79,5,3.73,7.14,5.3,5.77,12.94,6.23,19,1.1,2.85-2.4,4.34-6,7.53-8.06A101.76,101.76,0,0,1,366.23,147C366.87,149.94,365.37,152.61,365.16,155.44Z"/><path id="Trazado_1099" data-name="Trazado 1099" class="cls-6" d="M358.6,211.29c-7.05,2.07-10.69,8.26-15.63,12.88-3.25,3.34-5.23.15-7.17-1.63-3.8-3.5-6.08-8.23-9.48-13.44,2.39,4.67,3.52,8.08-1.22,10.51-2.07-7.92-10.09-9.06-15.3-13.42,0-6.43,4.68-13.14,10.07-14.5,6.22-1.56,9.5.13,13.57,7.34,2.31,4.08,4.67,8.13,7.13,12.12a1.61,1.61,0,0,0,1.44.75c8-9.65,14.18-21.1,24.62-28.86l.63-.37c12.52-6.74,13.05-6.41,12.79,8-4.74,5.29-9.79,10.3-14.13,15.94C364.05,209.07,361.34,210.21,358.6,211.29Z"/><path id="Trazado_1100" data-name="Trazado 1100" class="cls-4" d="M366.63,183l-25.1,32.72c-3.29-5.27-6.55-10.13-9.45-15.2-6.21-10.84-12.72-11-19.41-.3a60,60,0,0,0-2.86,5.94c-2.6-.24-5.19-.46-7.78-.68-3.74-4.23-8.27-8-7.69-14.54C318.8,191.67,342.84,188.46,366.63,183Z"/><path id="Trazado_1101" data-name="Trazado 1101" class="cls-7" d="M294.67,124.49c.16-12,6.52-22.69,7.73-34.53.7-6.85,2.53-13.6.8-20.55-.4-1.64-.82-3.65,1.7-4a3.56,3.56,0,0,1,4.15,2.37,32.54,32.54,0,0,1,2.33,10.79c.05,12.46-1.57,24.61-6.17,36.26-1.27,3.21-2.73,6.38-1.77,10.66,5.72-1.76,5.89-18.69,16.07-6,.6-1,.81-1.42,1.06-1.8,1.21-1.9-3.95-4.91.62-5.83,3-.6,3.74,2.58,4.24,5,.24,1.21.3,2.45.44,3.67-1.06,1.33-2.37,3.93-3.17,3.78-7.44-1.4-9.39,4.7-13.21,8.68C304.33,138.43,297.57,134.38,294.67,124.49Z"/><path id="Trazado_1102" data-name="Trazado 1102" class="cls-4" d="M290.09,207.35c-8.43,5.85-9,16.61-14.92,24.48-4.14-3.27-4.63-8.33-6.34-12.31-4.26-9.91-12.56-11.5-21.51-12.67-2.64-.34-5.41.85-7.95-.7,1.62-3.48,5.12-3.61,8.15-4.35,8.17-2,16.46-3.53,24.48-6.14,9.66-3.14,12.5-1.82,16.85,7.45A11.28,11.28,0,0,1,290.09,207.35Z"/><path id="Trazado_1103" data-name="Trazado 1103" class="cls-8" d="M290.09,207.35c-.38-.3-1-.53-1.11-.92-4.14-12.66-12.63-10.79-22.41-7.42-8.84,3.05-18.12,4.81-27.2,7.14-2.17-2.53-2.06-5.6-2-8.65,10.75-7.34,22.43-11.4,35.62-10.17,6.78,3.13,14.17,2.7,21.33,3.65,2.23,5,6.74,8.84,7.68,14.54l-5.35.5c-1.38.51-2.86.1-4.27.42Z"/><path id="Trazado_1104" data-name="Trazado 1104" class="cls-1" d="M325.93,318.16c2,.49,2.56,1.87,2.63,3.84.87,27.2,1.32,54.41.94,81.62a12.28,12.28,0,0,1-1.09,3.45c-3.67-5.28-1.72-11.37-2-17-1.24-21.44-3-42.81-5.69-64.1C320.1,321.37,320.14,318.07,325.93,318.16Z"/><path id="Trazado_1105" data-name="Trazado 1105" d="M327,247.58c1.29,17.63,1.18,35.28.81,52.93-6.42,1.29-8.73-.94-8.32-7.79.78-13.29.65-26.63,1-40,.07-2.93-.29-6,1.3-8.68C322.86,246.14,325.12,246.55,327,247.58Z"/><path id="Trazado_1106" data-name="Trazado 1106" class="cls-4" d="M273,187.32c-12.83,0-23.71,6.9-35.62,10.18-2.48-6.68-1.37-13.68-1.81-20.53-.27-4.38,1.84-4.18,5.07-2.51,4.82,2.47,9.08,5.81,14.06,8.13C260.63,185.35,266.91,185.76,273,187.32Z"/><path id="Trazado_1107" data-name="Trazado 1107" class="cls-4" d="M358.6,211.29c7.47-6.53,12.38-15.73,21.45-20.59,2.29,6.49,1.38,13.16,1,19.77-.14,2.23-1,4.7-4.3,2.88C371,210.14,364.7,211.47,358.6,211.29Z"/><path id="Trazado_1108" data-name="Trazado 1108" class="cls-4" d="M283.78,164.9c-9.22,0-18-2.39-26.74-5-1.85-.56-4.29-.66-4.4-3.18s2.41-2.75,4-3.77c4.47-2.81,9.45-4.14,14.54-5.18,5,5.24,8,12,13.58,16.78,0,0-.16.32-.28.35A3,3,0,0,1,283.78,164.9Z"/><path id="Trazado_1109" data-name="Trazado 1109" class="cls-4" d="M325.1,219.61c2.19-3.2-.23-7.16,1.72-10.64,6.73,3.78,6.94,14.35,16.15,15.2-1.14,4.82-2.39,11-7.43,11.6-5.52.64-6.15-6-7.85-10.15C326.87,223.59,324.93,222.05,325.1,219.61Z"/><path id="Trazado_1110" data-name="Trazado 1110" class="cls-9" d="M337.07,142.06c-5.7,16.53-20.66,16.77-29.3,7.54-2.3-2.47-3.48-4.78-1-7.71l5.07-.13c6.49,5.05,13,6,19.44,0Z"/><path id="Trazado_1111" data-name="Trazado 1111" class="cls-10" d="M283.77,164.9c-6.95-3.68-9.87-10.32-12.56-17.12l8.91-1.66c1.51,7.69,7.55,12.67,11.32,19Z"/><path id="Trazado_1112" data-name="Trazado 1112" class="cls-4" d="M329.7,422.9l-.18,20.34c-3.5,1.5-7.06.55-10.61.26-.77-4.25-.6-7.9,5.11-8a5.09,5.09,0,0,0,3.12-3.86c.42-2.54,0-5.11.3-7.65Z"/><path id="Trazado_1113" data-name="Trazado 1113" class="cls-1" d="M308.59,339.74c-3,3.08-6.5,2.66-8.57-.37-1.77-2.6-1-6.5,1.34-8.72,2.56-2.41,5.33-1.14,7.26,1.65Z"/><path id="Trazado_1114" data-name="Trazado 1114" class="cls-4" d="M331.28,141.75c-9,9.71-10.43,9.71-19.44,0A104.34,104.34,0,0,1,331.28,141.75Z"/><path id="Trazado_1115" data-name="Trazado 1115" d="M310.19,227.11c-4.14,3.51-7.87.47-11.72-.73.87-2.83.5-7.25,4.42-7.18C307.18,219.27,308.87,223.4,310.19,227.11Z"/><path id="Trazado_1116" data-name="Trazado 1116" d="M365.16,155.44c-1.09-3-1.8-5.95,1.07-8.44,2.52.48,6.35.48,6.32,3.35C372.51,154.28,368.54,155,365.16,155.44Z"/><path id="Trazado_1117" data-name="Trazado 1117" class="cls-4" d="M327.45,424c.59,2.59,1.25,5.19-.31,7.67C326.91,429.1,326.37,426.52,327.45,424Z"/><path id="Trazado_1118" data-name="Trazado 1118" class="cls-4" d="M292.4,206.44c1.3-1.57,2.8-1.09,4.29-.42C295.36,207.32,293.88,206.89,292.4,206.44Z"/><path id="Trazado_1119" data-name="Trazado 1119" class="cls-1" d="M307.09,389.66c-.13,2.91-1.25,4.84-4.4,4.71s-4.32-1.89-4.3-4.8c0-2.72.7-4.93,4-5C305.88,384.49,307,386.67,307.09,389.66Z"/><path id="Trazado_1120" data-name="Trazado 1120" class="cls-1" d="M307.72,364.58c0,2.62-.2,5-3.81,4.92-2.79-.09-5.05-.82-4.63-4.16.35-2.79.11-6.53,4.23-6.58C307.06,358.71,307.47,361.79,307.72,364.58Z"/><path id="Trazado_1121" data-name="Trazado 1121" class="cls-1" d="M314.54,492.49c12.69,0,13.25.42,13.57,8.65.11,2.86-.39,4.7-3.69,5.13s-6.25,1.33-9.37,2c-11.53,2.54-11.45,2.44-11.9-9.4C302.72,488,311.12,494.5,314.54,492.49Z"/><path id="Trazado_1122" data-name="Trazado 1122" class="cls-1" d="M332.76,99.16c2.67-.51,2.88-2.77,3.75-4.42,1.18-2.22,2.3-5.11,5.24-4,2.7,1,1.14,3.82.87,5.87-.63,4.74-2.73,8.85-7.69,9.73s-9-1.76-11.65-6.17c-2.24-3.74-2.57-7.9-2.73-12.11-.12-3.06,2.26-3.47,4.35-4.11,3-.92,4.11,1.11,4.64,3.38C330.48,91.29,330.53,95.54,332.76,99.16Z"/><path id="Trazado_1123" data-name="Trazado 1123" class="cls-1" d="M287.33,99.09c2.31-3.64,2.72-7.82,3.8-11.77.4-1.47,1.31-2.89,3-2.65,2.06.28,1.61,2.14,1.59,3.54-.09,6.67,0,13.22-6.56,17.74-5.5,3.8-8.8.9-11.79-3.06-3.42-4.55-3.2-12.93.16-15.07,2.73-1.74,4-.18,4.74,2.39C283.27,93.41,283.34,97.16,287.33,99.09Z"/><path id="Trazado_1124" data-name="Trazado 1124" class="cls-1" d="M330.35,69a42.58,42.58,0,0,1,22,15.47c.7,1,1.47,2.3,0,3.14a3,3,0,0,1-2.7-.24,59.58,59.58,0,0,0-22.87-11.62c-1.88-.51-3.85-2.12-2.94-4.39S327.42,69.19,330.35,69Z"/><path id="Trazado_1125" data-name="Trazado 1125" d="M316.2,255.66c.08,2.09-.76,4.1-3.11,3.8-3.37-.43-5.93-2.23-5.62-6.24.17-2.28.77-5.07,3.46-4.49C314.07,249.41,316.58,251.67,316.2,255.66Z"/><path id="Trazado_1126" data-name="Trazado 1126" d="M309.8,273.39c3.74,1.12,5.4,3.58,5.36,7.24,0,2.35-.17,4.75-3.54,4.2-3.56-.58-5-2.81-4.6-6.36C307.26,276.35,306.82,273.86,309.8,273.39Z"/></svg>