<svg id="Capa_1" data-name="Capa 1" xmlns="http://www.w3.org/2000/svg" viewBox="0 0 415.97 584.55"><defs><style>.cls-1{fill:#010101;}.cls-2{fill:#9f9f9f;}.cls-3{fill:#fff;}.cls-4{fill:#edeae3;}.cls-5{fill:#737272;}.cls-6{fill:#090906;}.cls-7{fill:#0b0b07;}</style></defs><g id="Grupo_36" data-name="Grupo 36"><g id="Ilustración_1" data-name="Ilustración 1"><path id="Trazado_1" data-name="Trazado 1" class="cls-1" d="M238.53,232.71c3.08-1.12,3.64,1.14,4.44,3.23q15.77,40.88,30,82.3c22.5,65,41.88,131,60.68,197.15,3.68,13,7.59,25.85,11.42,38.77,1.65,5.56,1.68,5.55-4.34,5.49h-5.42c4.59,6,9.33,10.56,15.7,13,1.82.7,3.94.76,4,3.2s-1.95,3.33-3.85,4.34c-15.59,8.23-38.12,4.3-49.22-7.93a12.09,12.09,0,0,0-1.61-1.24,12.91,12.91,0,0,1-15.56,8.88c-2.35-.62-2.82-2.36-2.58-4.4.54-4.63,1-9.28,1.85-13.85.55-2.9-.41-3.66-3.09-3.68-3.8,0-7.6-.3-11.4-.47-7.92-.37-7.62-.44-9.56-8.81-5.51-23.87-10.87-47.79-17.07-71.49-8.51-32.58-17.8-65-26.62-97.47-3.43-12.68-6.45-25.47-9.72-38.19-.46-1.79-.61-3.77-2.09-5.26-2.32.64-2.3,2.83-2.93,4.45-5.65,14.36-8.9,29.42-13,44.24-10.94,39.46-22.54,78.7-36.72,117.16-5.18,14-13.83,23.09-29.11,25.32-16.26,2.38-29.57-2.77-39.21-15.75-19.71-26.54-36.32-55.07-52.27-84-8.77-15.9-17.81-31.63-27.8-46.79-2.45-3.72-1.71-4.76,2.48-5.38,9-1.33,18-3.09,28.27-4.91-7.7-6-15.09-9.38-23.55-10.48-1-.13-2.08.05-3.1-.08-2.73-.37-7,1-7.53-2.2-.36-2.09,4.07-3,6.63-3.84,11.68-3.68,23.38-7.42,35.9-5.54,2.92.43,3-1.15,2.26-3-2.4-5.7-.27-9.13,5-11.42,1.36-.59,2.35-2,3.58-2.92,5.4-4,9.28-2.8,11.07,3.63,2.13,7.66,4.24,15.32,6.13,23,1,4.3,2.78,6.82,7.78,5.13,2.83-.95,4.34.69,5.43,3.32,4.67,11.35,9.48,22.63,14.32,33.9.86,2,1.21,4.33,3.35,6.2,2.15-3.61,2.42-7.56,3.11-11.3,9.41-51.33,21.15-102.18,31.89-153.24a37.43,37.43,0,0,1,1.71-4.83c2.24-2.8,5.14-1.82,7.94-1.41,2.65,1,5.39.56,8.1.48C182.35,234.6,210.48,234.72,238.53,232.71Z"/><path id="Trazado_2" data-name="Trazado 2" class="cls-1" d="M149.52,123.15c3.12-5,6.06-10,7-16-21.8-2.1-36.11-22-32.57-45.41,1.44-9.54,4.27-19,13.18-24,5.54-3.07,7.43-6.67,8.93-12.48,3.15-12.21,13.56-17.21,24.52-20.49C181,1.71,191.15,5.23,201,8.32a245.28,245.28,0,0,1,23.85,9.38c8.65,3.75,15.84,1.7,22.7-4.25C256.59,5.59,267.71,1.56,279.26.28,292-1.13,303.79,2.93,314.91,9.66c6.73,4.08,12.2,9.5,18.32,14.2s12,5.56,19.31,3.74c9.83-2.45,19.9-4.61,30.12-2.72,7.21,1.32,14.46,2.4,21.13,6.21,6.43,3.67,9.83,8.94,11.25,15.76,1.77,8.55,1.31,17-4,24.27C402.17,83.24,391,92.35,376,95.91c-3.74-4.49-2.77-9.83-2.2-14.83,1.27-11.2-2.81-18-13.92-20.64a70.74,70.74,0,0,0-35.77.75c-5.8,1.6-9.63,4.84-10.45,11.78a57.38,57.38,0,0,1-5.74,18.6c-2.3,1.61-5,1.18-7.5,1.18-10.53,0-19.65,3.45-26.8,11.21-6.29,6.82-14.65,9.41-23,12.11-2.69.87-5.42-.62-8.16-.7a21.75,21.75,0,0,1-5.83-2.2c-3-1.34-6.09-.79-9.18-.46a7.49,7.49,0,0,1-1.42.21c-4.7-.83-8.73-3.22-12.43-6-3.49-2.6-5.36-.58-7.24,1.78-2.49,3.16.7,4.07,2.4,5.48,2,1.62,5.59,1.82,4.76,5.75a3.23,3.23,0,0,1-1.78,1.47c-4.17,1-7-1.26-9.38-4.08a8,8,0,0,0-8.16-3,18.22,18.22,0,0,1-12.5-2.06c-1.06-.63-2.16-1.52-1.87-2.82s1.76-1.46,3-1.6a12.37,12.37,0,0,1,2.58.12c11.15,1.19,17.28-2.55,21.63-13,1.33-3.18,1.49-6.75,3.34-9.74,1.5-1.61,3.63-1.84,5.57-2.5,10.75-3.66,14.21-16,6.93-24.68-6-7.18-11.68-8-22.42-3.22-4.35-.89-7.75,3.22-12.1,2.29-2.66-.77-4.9-2.44-7.54-3.34-7.55-2.58-12.6-1.74-17.58,5.07-3.67,5-7.17,6.27-12.47,3.35a3,3,0,0,0-3.69.06c1.84,2.11,4.48,2.39,6.75,3.28s4.38,1.82,4.31,4.51c-.12,4.85,2,9,3.66,13.33a2.3,2.3,0,0,1-.58,1.92c-3.08,2.56-3.1,4.11,1.19,5.24,3.31.87,4.47,3.73,4.07,7a73.55,73.55,0,0,1-7.08,23.72c-2,4-5,4.9-9,3.22A1.43,1.43,0,0,1,149.52,123.15Z"/><path id="Trazado_3" data-name="Trazado 3" class="cls-2" d="M211.21,121.06,214,118.7a13.82,13.82,0,0,1,12.15-6.62l1.2-.22c2.78-.67,5.62.13,8.4-.38l7.22,3.34c2.23.17,3.81,1.51,5.18,3.08,10.48,12,21.08,23.95,28.72,38.09,3.07,5.67.28,12-6.7,15.53-1.55.78-3.31,1-4.78,1.89-8.11,3.05-14.27,9.84-22.94,11.85-3.3.77-2,2.9-.93,4.76,1.11,3.47,3,6.88.71,10.57-.63,4.47.43,8.94,1.3,13.13,1.54,7.47-1.69,13.11-5,19-1.8,2.22-4.27,2.79-6.94,2.61-6.75-.42-13.39.86-20.34-.16-4.73-.69-10.45.42-15.72.72-13,.72-25.95,1.37-38.92,2.07a7.13,7.13,0,0,1-4-.87c-1.48-.32-3.1.68-4.49-.45,0,0,0-.11,0-.17L148,237a37.67,37.67,0,0,0-9.78.1c-4.25-.43-8.5-1.31-12.72-1.16-4.94.17-5.5-2.74-5-6.17,1.07-7.44,2.55-14.83,3.85-22.24.32-1.84,1-3.66.4-5.57-1.37-4.75,1.73-8.76,2.19-13.2.09-.33.21-.65.28-1,2.12-9.7,1.94-9.94-7.82-11-3.71-.41-7.14-2.32-11-2.09-1.69-.25-3.28-.7-4.3-2.24-1.13-1.35-2.89-.84-4.29-1.41s-2.57-1.56-2-3.09c4.38-12.32,6.86-25.53,16.36-35.51,7-7.32,14.68-12.77,25.53-11.9,3.52.28,6.42,2.34,9.83,2.68l1,.76a25.77,25.77,0,0,1,6.42,1.46c5.94,2.62,10.13.7,14.19-3.71,4.3-4.68,10.15-6.3,16.29-7a8.59,8.59,0,0,1,4.9,1.21c3.74,1.76,7.46,3.55,11.34,5A9.92,9.92,0,0,0,211.21,121.06Z"/><path id="Trazado_4" data-name="Trazado 4" class="cls-2" d="M307.49,91.38c.86-7.82,5.42-14.81,5-23-.13-2.58,2.36-4.1,4.32-5.47,4.52-3.15,9.77-4.12,15.08-4.88a90.85,90.85,0,0,1,29.29.92c8.35,1.53,17.23,11.5,15,17.82-2.33,6.65-.4,12.77-.21,19.12-.69,14.36-2.91,28.37-10.19,41.05-3.71,6.46-8.31,12.22-16.06,14.19-2.35.6-3,1.92-2.66,4.13.38,2.72.62,5.46.92,8.2-.72,2.76-3.39,2.43-5.28,3.27-2.85,1.27-4.63,2.64-2.89,6.27,1.15,2.38.7,5.41,2.67,7.64.73.83.36,1.88,0,2.92-1.57,5-1.53,5,3.83,6.2,1,.22,2.06.33,2.66,1.34,0,1.55.19,3.12.09,4.66-.21,3,.85,4.64,4.1,4.36,7.4-.61,11.79,4,15.65,9.27,2.37,3.24,1.08,8.75-2.77,10.13-18.1,6.46-36.33,9.47-54.56.32-2.08-.74-2.65-2.62-3.38-4.4-2-8.18,1.21-13.92,9.37-16.86a27.46,27.46,0,0,1,6-1.65c8.43-1,8.42-1,8.5-9.9a18,18,0,0,1,.26-3.36,17.74,17.74,0,0,0,.74-6.6c-.7-6.59,1.37-12.9,1.94-19.34-.16-1.45-1.23-2-2.41-2.39-13.11-4.61-19.77-14.9-23.74-27.38-3.4-10.7-2.91-21.78-2.68-32.81A5.3,5.3,0,0,1,307.49,91.38Z"/><path id="Trazado_5" data-name="Trazado 5" class="cls-1" d="M128.28,188.32q-1.75,6.8-3.53,13.59c-9.8,21.31-19.53,42.66-29.44,63.93q-6.56,14.07-13.75,27.86a6.69,6.69,0,0,0-.43,6.22c1.53,4,3.09,8.1,3.51,12.43.22,2.25.27,4.75-2.2,5.89-2.62,1.2-3.62-1.43-4.89-2.8a17.58,17.58,0,0,1-3.71-5.57c-2-5.43-4.35-3.65-7.23-.86-4.46,4.33-8.81,8.77-13.91,12.42-2.67,1.9-5.16,1.91-7.6,0s-1.23-4.47-.22-6.57c1.34-2.78,3.07-5.38,4.94-8.57-4.2,1-7.94,2.06-11.75,2.81-1.82.36-4,.64-5.08-1.48-1.12-2.31,1-3.45,2.39-4.6,2.2-1.88,4.62-3.5,7.76-5.83-3.49-.26-6.14-.29-8.73-.71-1.93-.32-3.81-1.46-3.87-3.59s2-2.54,3.68-3a80.11,80.11,0,0,1,20-2.74c4,0,5.93-1.3,7.43-5.25C74.32,248.35,85.28,214.1,99.9,181.25c1.33-3,2.81-5.91,4.22-8.86l3.67,1.13c2.35,1.76.63,3.75.1,5.45-5.4,17.15-11.54,34-17.68,50.94-6.6,18.19-13.46,36.29-19.82,54.57-2.79,8-4.12,8.88-12,6.55-2.32-.68-4.42.29-6.68,0-.62.06.07,1.14-.12.47-.06-.24,0-.41.33-.4a10.54,10.54,0,0,0,2.57-.19c2.17-.47,3.87.24,4.52,2.38s-.5,3.68-2.55,4.41c-1,.36-1.89.84-2.84,1.23,3.7-1.32,5.82-1.22,6.95.63,1.94,3.15-.51,5.1-2.24,7.4,3.07-3.2,6.65-5.55,9.89-8.32,3-2.57,5.12-2,7,1.51,1.37,2.59,2.55,5.29,3.93,8.06-6.88-9.5-3.72-18.27.79-27.56,12.61-25.95,25.45-51.79,38-77.78,2-4.22,4.6-8.12,6.81-12.23C125.38,189.38,125.77,187,128.28,188.32Z"/><path id="Trazado_6" data-name="Trazado 6" class="cls-1" d="M309.37,215.55l2.16,4.3a154,154,0,0,1-40.32,19.39c-5.28,1.68-9.35.4-13.08-3.32a33.6,33.6,0,0,1-8.43-12.86c-2.55-7.47-5-15-7.48-22.48a34.84,34.84,0,0,0-2.43-11.44c-.25-1.16-.88-2.74.43-3.24,1.82-.7,2.78,1,3.42,2.39,3.27,6.85,5.78,14,8.6,21.06,2.11,5.27,3.85,10.73,7.12,15.46,5.3,7.65,9.35,8.74,18,5.44,8.9-3.4,17.08-8.18,25.37-12.75C304.76,216.37,306.68,214.56,309.37,215.55Z"/><path id="Trazado_7" data-name="Trazado 7" class="cls-1" d="M349,191.11a39.49,39.49,0,0,1-5.64-.47c-3.86-.87-5.18-3.82-2.7-6.74,1.6-1.88,1.27-2.65-.35-4-3-2.46-.14-6.92-3.4-9.89-1.11-1,2.65-3.53,4.84-4.33s4.32-1,6.22-2.22c4.8-1.9,7.3-.07,8.07,4.84.6,3.87,1.68,7.69,2,11.58C358.76,188.38,358.21,188.9,349,191.11Z"/><path id="Trazado_8" data-name="Trazado 8" class="cls-3" d="M346.82,575.73c-9.91,4.45-18.85,3.84-27.72,1.26A33.78,33.78,0,0,1,301,564.73c-2.15-2.88-4.93-2.32-6,1.11a16.72,16.72,0,0,0-.88,5.61c.25,4.34-2.9,4.14-5.52,4.2-3.66.08-2.18-2.8-2.07-4.55.81-13,.85-13,13.91-12.62,8.11.23,16.23.55,24.34.76,2.14.06,4.14.15,5.54,2.1C334.4,567,339.65,571.43,346.82,575.73Z"/><path id="Trazado_9" data-name="Trazado 9" class="cls-3" d="M21.74,356.25c8.17-1.22,16.16-.79,23.56,2.57,4.26,1.94,7-.1,9.83-2.15s.75-4.71.19-7.05a54.76,54.76,0,0,0-2.11-6.38c-.7-1.85-.72-3.49,1.42-4.22,2.65-.9,2.18,1.67,2.52,2.78,2.05,6.74,3.75,13.6,5.86,20.33.79,2.5.22,3.5-2.22,3.89-4.94.8-9.85,1.7-14.79,2.5-1.18.2-2.47.38-3.46-.52A58.64,58.64,0,0,0,21.74,356.25Z"/><path id="Trazado_10" data-name="Trazado 10" class="cls-4" d="M211.21,121.06c-4.69,5.23-9.22.68-12.91-1-11.84-5.54-18.13-5.2-27.57,3.93-4.18,4-8.15,6.1-13.65,2.66-2-1.23-4.36-1.82-6.54-2.69,5,1.82,7-1.2,8.63-5.13a74.59,74.59,0,0,0,5.93-21.89c.3-3-.41-5.08-3.86-5.4-1.87-.17-4.7,1-4.87-2.23-.13-2.47,1.62-4,4.11-4.6.43-.1.74-.67,1.11-1a2,2,0,0,1,2.39.21c7.21,4.65,14.31,4.12,21.35-.4a5.69,5.69,0,0,1,2.42-.87c4.65,1.65,9,1.49,13-1.93,3.53,1.35,7.7,1.22,10.37,4.55-1.12,5.8-2.71,11.45-5.93,16.47-4.38,6.81-11.34,9.62-19.22,8-1.74-.36-3.49-1.45-5.71,0,4.89,3.92,10.31,3.93,15.72,3.08,2.5-.4,3.91-.23,5.6,2C203.9,117.85,206.92,120.59,211.21,121.06Z"/><path id="Trazado_11" data-name="Trazado 11" class="cls-5" d="M211.08,85.2c-3.53-1.07-7.28-1.54-10.41-3.73-4.27-.94-4.89-4.73-6.12-7.34,1,7,.65,7.47-6.72,8.94-10.3,7.43-17,7.57-26.24.56-3.51-2.85-4.61-6.93-4.45-11s-1.58-5.44-5-6.25c-2.13-.49-4.42-.88-6.1-2.56-.86-.85-1.86-1.75-1.14-3.09a2.15,2.15,0,0,1,2.86-1l.27.15c6.71,4.23,10.73,2.31,16-3.74,6.93-7.93,11.84-7.14,24.16.19,3.13,1.9,3.13,1.9,5.66,6.07,2.06-3,2.33-7.27,6.46-8.31,9-6.36,19-4.62,24.9,4.34a17.32,17.32,0,0,1-4.77,24l-.06,0C217.52,84.35,214.25,84.56,211.08,85.2Z"/><path id="Trazado_12" data-name="Trazado 12" class="cls-4" d="M200.29,54a15.11,15.11,0,0,0-4.36,7.88c-.24,1.28-.4,3.12-2,3.29-1.94.2-1.76-1.78-2-3-.45-2.54-2.5-4-3.78-5.94,2-.32,3.94.61,5.4-2.27S198,54.82,200.29,54Z"/><path id="Trazado_13" data-name="Trazado 13" class="cls-4" d="M235.7,167.75c-1.11-3.89-2-7.37-3.14-10.77a5.2,5.2,0,0,0-5-3.9c-2.67,0-2.64,2.68-2.65,4.34-.16,16.24-2.3,32.43-1.41,48.68.58,10.6.74,10.46-9.44,11.94-11.32,1.65-22.76.53-34.1,1.82-12.34,1.42-24.94-.37-37.15,3-3.47,1-3.58-1.52-3.36-4,.79-8.76,1.68-17.51,2.34-26.29.79-10.5,1.59-21,1.57-31.55,0-2.84-1-4.8-3.82-5.26s-3.41,2.08-3.75,4c-.73,4.23-2.5,5.42-7,4.58-4.67-.88-9.64-.29-14.48-.25-3.17,0-4.72-.45-2.5-4,6.1-9.86,11.73-20,23.32-24.75,3.66-1.48,6.65-1.1,10.28.67,6.28,3.06,12.06,7.16,19.26,8.55,6.77,1.31,11.86-1,16.44-5.2,7.46-6.83,7.15-6.3,16.71-3.18,6.66,2.18,13.28,7.26,21.15,2.86a38.78,38.78,0,0,0,7-5.2c6.65-6,10.47-5,17,.87,5.41,4.89,6.62,11.81,10.87,17.14,2.36,3,.8,6.24-3.11,7.71C245.56,161.48,240.94,164.48,235.7,167.75Z"/><path id="Trazado_14" data-name="Trazado 14" class="cls-4" d="M359.11,115c-1.29,9.7-4.64,18.6-11.5,25.85-2.94,3.1-10.6,1.91-13.76-2.33a79,79,0,0,1-12-23.22c-.78-2.46-.17-4,1.67-5.33a4.94,4.94,0,0,1,5.8-.47,23.63,23.63,0,0,1,3.32,2.47c7.95,7,13,7.2,21.64.72,1.16-.88,2.22-1.73,3.7-1S359,113.72,359.11,115Z"/><path id="Trazado_15" data-name="Trazado 15" class="cls-6" d="M318,94.76c-.08-3.78-.17-7.55-.23-11.32,0-2.34.67-3,3.09-1.9,9.77,4.33,20.07,5.63,30.69,5,7.18-.43,7.18-.31,8.32,6.94a28.6,28.6,0,0,0,0,4.14c.15,2.51-.51,3.28-3.41,3.59-9.31,1-18.53,1.87-27.65-.92C324.91,99.1,320.62,98.52,318,94.76Z"/><path id="Trazado_16" data-name="Trazado 16" class="cls-1" d="M333.22,186.79c-14.81,6.53-29.6,13.1-44.45,19.54-2.68,1.16-4.48,2.16-3.16,5.62a4.29,4.29,0,0,1-2.36,5.59,4.35,4.35,0,0,1-.61.2c-3.19.88-3.09-2.21-3.8-4.26-4.12-11.7-8.32-23.36-12.5-35-.69-1.93-1.81-3.76-1.23-5.95,2.69-.88,3.68.92,4.63,2.87,3.7,7.57,7.57,15.06,11.05,22.73,1.33,2.92,2.38,3.8,5.71,2.47,13.74-5.47,27.61-10.58,41.46-15.78a53.85,53.85,0,0,1,5.45-1.42C333.35,184.51,333.28,185.65,333.22,186.79Z"/><path id="Trazado_17" data-name="Trazado 17" class="cls-4" d="M332.37,204a49.76,49.76,0,0,0,1,5.55c.74,2.47,2.59,3.9,5.11,2.94,3.34-1.27,7.07-1.12,10.21-3.26,2.28-1.55,7.6,1.25,8.22,4a1.7,1.7,0,0,1-1.08,2.14,2.14,2.14,0,0,1-.44.08c-10.8,1.8-21.58,4.39-32.55,1.13a4,4,0,0,1-2.91-2.64A25.29,25.29,0,0,1,332.37,204Z"/><path id="Trazado_18" data-name="Trazado 18" class="cls-3" d="M318,94.76c12.53,6.4,25.9,7.11,39.51,5.44,4.25-.52,1.22-4.59,2.36-6.73,1,1.78.34,3.69.45,5.53s-.58,3.13-2.66,2.9c-5.14-.57-8.95,1.94-12.28,5.37-1.88,2-3.59,2.4-5.76.52-5.37-4.6-11.35-6.49-18.18-3.63-2.05.86-2.47-.15-2.62-1.74C318.58,99.87,317.52,97.39,318,94.76Z"/><path id="Trazado_19" data-name="Trazado 19" class="cls-1" d="M361.19,72.15c-1.1,1.84-3,2.2-4.86,2.45a82.32,82.32,0,0,1-29.68-1.31c-.94-.22-2.2-.23-2.36-1.54s.95-1.31,1.74-1.48c11.57-2.49,23.09-2.92,34.46,1.09C360.77,71.45,360.94,71.85,361.19,72.15Z"/><path id="Trazado_20" data-name="Trazado 20" class="cls-1" d="M334.21,178.12l-1.46,3.44a36,36,0,0,1-2.43-23.1c.78-3.57,3.61-3,6.2-1.66C336.2,164,333.26,170.83,334.21,178.12Z"/><path id="Trazado_21" data-name="Trazado 21" class="cls-1" d="M332.37,204c-4.27,3.13-7.72,7.28-12.4,9.89-2.33-1.87-2.43-4.15-.52-6.15a16.14,16.14,0,0,1,11.12-5.44C331.83,202.27,332.49,202.69,332.37,204Z"/><path id="Trazado_22" data-name="Trazado 22" class="cls-1" d="M188.83,99.52a8.22,8.22,0,0,1-5.3-1.8c-1.57-1.13-4.3-2.5-3-4.72s3.44-.08,4.9.85c2.71,1.73,4.85.85,7.06-.87,1.21-.94,2.77-2.1,4.11-.6,1.62,1.82-.08,3.13-1.3,4.32A11.84,11.84,0,0,1,188.83,99.52Z"/><path id="Trazado_23" data-name="Trazado 23" class="cls-1" d="M187.83,83.07c.07-.15.12-.42.22-.45,6.84-1.78,6.09-7,5.58-12.47,2.45,3.9,3.73,8.26,7,11.32C197.19,85.5,192.85,86,187.83,83.07Z"/><path id="Trazado_24" data-name="Trazado 24" class="cls-4" d="M167.81,60c7.18-5.62,13.15-6.24,17.4-1.8,3.82,4,4.42,12.45,1.27,17.92-3.7,6.43-10.11,9.56-16.37,8a5.45,5.45,0,0,1-3.93-3C166.79,74.06,166.53,67,167.81,60Z"/><path id="Trazado_25" data-name="Trazado 25" class="cls-7" d="M215,55.33c5.6,2.05,7,6.62,6.81,11.89-.25,5.8-3,10-8.67,12-.72,0-1.51-.3-1.66-1a60.64,60.64,0,0,1-1-19.7C210.78,56.1,212.88,55.61,215,55.33Z"/><path id="Trazado_26" data-name="Trazado 26" class="cls-4" d="M215,55.33c-1,.76-3.22-.23-3.26,1.76-.12,7.43-.92,14.91,1.41,22.18-5.9.69-9.51-1.79-11.14-7.65-1.71-6.15,1.06-12.84,6.58-15.2C210.53,55.59,212.64,54.47,215,55.33Z"/><path id="Trazado_27" data-name="Trazado 27" class="cls-1" d="M167.81,60a33.38,33.38,0,0,1-1.63,21.15C160.41,75.09,161,68.15,167.81,60Z"/><path id="Trazado_28" data-name="Trazado 28" class="cls-1" d="M177.5,68.74c0-2.43.45-4.34,3.31-4.32,2.28,0,2.89,1.63,3,3.45.15,2.26-.57,4.25-3.16,4.47S177.65,70.6,177.5,68.74Z"/><path id="Trazado_29" data-name="Trazado 29" class="cls-1" d="M206.79,70.14c-2.1-.41-3.46-1.51-3.61-3.71-.14-1.91.57-3.62,2.57-3.74s3,1.46,3.1,3.37C209,67.8,208.92,69.52,206.79,70.14Z"/></g></g></svg>