<svg id="Capa_1" data-name="Capa 1" xmlns="http://www.w3.org/2000/svg" viewBox="0 0 398.09 530.92"><defs><style>.cls-1{fill:#212960;}</style></defs><path id="Trazado_998" data-name="Trazado 998" class="cls-1" d="M122.41,443.17c9.83,10.17,22.21,17.47,32,27.5,7.7,7.9,16.06,9.12,26,8.13a82.94,82.94,0,0,1,13.74.19c6,.39,8,2.62,7,8.6-.54,3.37.66,4,3.41,4.41a88.79,88.79,0,0,1,15.39,3.29c3.26,1.1,5.42,3.09,4.93,6.7-.45,3.36-3.61,3.16-6,3.62s-4.53.35-7,1.37c2.91,1.13,5.84,2.2,8.72,3.41,1.86.78,3.66,1.76,5.45,2.7a4.54,4.54,0,0,1,2.46,5.59c-.67,2.28-2.95,1.86-4.78,1.84-5.83-.07-11.37-1.81-17-2.91l-4.88-1c2.68,2.37,4.69,4.05,6.56,5.86s3.39,4.26,2.06,6.79c-1.23,2.37-3.88,1.56-6,1.14-11.34-2.25-21.29-7.74-31-13.61-7.55-4.56-15-9.34-22.45-14-.84-.53-2.1-1.53-2.62-1.26-8.24,4.36-15.67-.36-22.94-2.57C97.19,490.46,73.09,474.57,51,455.44c-3.19-7.48-7.9-14.14-11.32-21.54C21.74,395.19,10.41,354.6,4,312.53c-2.86-18.8-4.93-37.66-3.6-56.7.43-6.07,1.6-12.09,2.31-18.14.3-2.53,2.2-3.34,4-4.09,7.52-3.1,15.09-6.07,22.64-9.08.71.61,62.32-22,63.11-21s.23.22,0,2.22c-3.49,4.38-68.35,31-73.14,32.79-6.13,2.26-8.41,5.82-9,12.36-2.44,26,1.4,51.5,6,76.92a432.08,432.08,0,0,0,29.25,96.35c3.68,8.41,8.49,16.25,13,24.22a22,22,0,0,0,3.75,4.13C79.18,465.79,96.61,478,116.7,486.08c8.19,3.28,16.43,6.4,24.63,9.62,2.8,1.1,4.79.74,6.58-1.78a86.91,86.91,0,0,0,6.66-10.22c1.37-2.64,1-4.24-1.71-5.77-17.05-9.73-31.87-22.41-46.38-35.49-7.3-5.39-13.23-12.21-19.46-18.7-2-2.08-2.32-4.8-2.55-7.57-.83-10.5-.57-21.05-1-31.57-1.25-28.33-2.88-56.66-2.35-85.05a73.85,73.85,0,0,1,1.36-12.14c.28-1.53.88-3.1,2.8-3.1,1.57,0,2.3,1.32,2.83,2.58,1.36,3.18,1.63,6.63,1.86,10,.84,12.19,2,24.36,2.58,36.58.88,17.28,1.33,34.6,2.67,51.87.7,9.14-.44,18.35,1.07,27.48a12.68,12.68,0,0,0,3.69,7.59c5.27,5.07,10.11,10.56,15.87,15.11A22.43,22.43,0,0,1,122.41,443.17Z"/><path id="Trazado_1000" data-name="Trazado 1000" class="cls-1" d="M154.68,60.88l4,1c2.4.59,5.82.57,5.69,3.83s-3.26,4.37-6.2,4.92a89.42,89.42,0,0,0-23,7.6,8.52,8.52,0,0,1-3.86.94c-2.5-.06-3.56-1.4-1.83-3.59C135.89,67.35,144.44,62.73,154.68,60.88Z"/><path id="Trazado_1002" data-name="Trazado 1002" class="cls-1" d="M152.06,85.76c.26,2.57-1.08,4-3.43,4.07-2.93,0-2.71-2.46-2.75-4.44s-.23-4,2.57-4C151.53,81.28,151.91,83.45,152.06,85.76Z"/><path id="Trazado_1003" data-name="Trazado 1003" class="cls-1" d="M202.33,78.68c-.18,2.9-.72,5.29-3.76,5.58-2.52.24-2.48-1.77-2.44-3.5.05-2.71,1.25-4.67,4.09-5C202.68,75.55,201.91,77.75,202.33,78.68Z"/><path class="cls-1" d="M337.14,93.92a245.88,245.88,0,0,0-25,4.6,99.06,99.06,0,0,0-17.35,5.73c-1.16.5-2.38,1.19-2.3,2.4.12,1.67,1.79,1.17,2.86,1.25a78.07,78.07,0,0,0,8.08.41,274.39,274.39,0,0,0,48.88-6,164.41,164.41,0,0,0,25.85-7.22c1-.4,2.65-.54,2.19-2.2-.32-1.16-1.66-.86-2.64-1a78.89,78.89,0,0,0-14-.25C354,92,345.56,92.93,337.14,93.92Z"/><path class="cls-1" d="M381,324.09c-3.37,2.54-7.77,3.2-10.95,6.08-4.47,2.56-9.38,3.55-14.44,4.14a16,16,0,0,1-7.52-.78c-9.08-3.27-11.12-11.25-4.68-18.44a30.25,30.25,0,0,1,7.82-6.47c2.74-1.51,3.79-3.76,3-6.84-1.77-6.75-2.57-13.7-4.1-20.5-.36-1.57-.34-3.85-2.56-3.87a13,13,0,0,0-8.4,3.23c-1.92,1.62-.34,3.68.83,4.92,7,7.42,5.52,14.26.1,22.12-14.36,20.85-26.59,43.1-40.87,64A63.78,63.78,0,0,1,290,382.5a18.68,18.68,0,0,1-22.6,2.68c-9.1-5.22-16.59-12.35-23.39-20.25-1.43-1.67-2.66-3.5-4.85-5.68,0,4.24-.13,7.84.1,11.45,1.18,18.81,2,37.64,2,56.49,0,3.13,0,6.2-3.13,8.08-2.46,2.62-4.47,2-6.18-.86-2.18-1.83-1.59-4.37-1.58-6.67.06-18.18-.6-36.38-1.34-54.51-1.1-27-.2-54.05-.72-81.07a21,21,0,0,1,.36-5.59c.43-1.66,1-3.53,3-3.6,2.39-.07,3,1.94,3.31,3.82a34.73,34.73,0,0,1,.94,5.53c.41,13.24,2.56,26.38,2.24,39.66a26.16,26.16,0,0,0,6.25,18.27c7.33,8.83,15.14,17,24.57,23.56,8.65,6,14.54,5.25,20.69-3.63,8.44-12.15,16.59-24.52,23.9-37.37,5.3-9.33,11.17-18.27,17.15-27.13,3.26-4.82,3.63-8.8.44-14-4.62-7.51-9.1-15.16-13.06-23.07-.58-1.16-1.09-2.85-2.6-2.86s-1.85,1.77-2.5,2.91c-11.44,20.09-22.24,40.53-33.9,60.5-1.45,2.5-2.83,5.08-5.63,6.4a4,4,0,0,1-4.35-.14c-1.42-1.06-1.51-2.56-1.15-4.15a6.77,6.77,0,0,1,.79-2.41c3.94-5.66,2.41-11-.21-16.74-10.45-22.89-19.86-46.24-29.95-69.29-2.06-4.72-5.85-7.37-9.61-10.23-1.93-1.47-3.45-.5-4.83,1.08-7,8-16.11,10.9-26.39,11.17-8.12.2-15-2.48-20.52-8.49a18.14,18.14,0,0,1-3.82-5.87c-.79-2.89-2.63-3.59-5.4-2.77-3.28,1-6.66.8-10,.55-1.93-.44-3.59-1.2-4-3.42a22.56,22.56,0,0,1-10.38-16.7c-.42-3.28-1.29-3.72-4.49-2.68-9.4,3.05-18.65,3.9-26.37-4.27-5.13-5.43-7.34-11.82-6.14-19.13.46-2.83.36-4.45-2.74-5.29-5.28-1.43-8-5.59-9.63-10.37C88.93,150.54,90,132.08,96.85,116a41.08,41.08,0,0,0,17.29,10.21c10.26,2.91,19.75-.12,29.1-3.89q6.84-2.75,13.5-5.9a43.15,43.15,0,0,1,22.17-4.11c-2.48-2.89-4.55-5-6.26-7.44-.65-.92-1.6-2.54,0-3.6,1.31-.85,2.12.24,3,1.09,2.49,2.42,4.9,6.2,8.93,3.64,3.83-2.43,2.57-6.78,1.81-10.32-1.77-8.35-5.19-16.13-9-23.76-1.32-2.68-3.4-5.13,2.16-6.45,6.06-1.45,6.37-3.34,4.61-9.56a137.82,137.82,0,0,0-6.06-17.81c-7.56-17.26-21.83-24.54-39.5-28.1C116.79,5.57,100.5,20.06,90.93,36.1A69.34,69.34,0,0,0,81.31,68a34.36,34.36,0,0,1-.91,5.52c-.75,3.38-1.35,6.46-6.41,4.6-3.68-1.37-6.47,1.23-8.3,4.37a15.37,15.37,0,0,0,5.47,20.91c3,1.87,5.4.89,7.08-1.52a5.11,5.11,0,0,1,6.62-2c2.54,1,1,3.56,1,5.45-.11,15.16,1.7,30.16,3.41,45.18,1.74,15.33,3.29,30.67,4.92,46,0,.51,0,1,0,1.53.1,2.95.15,6.92-3.07,7.21-4,.36-3.24-4-3.56-6.64C85,176.84,82.35,155.12,80,133.37c-.78-7.25-.84-14.59-1.07-21.89-.07-2.29-.33-3.31-3.11-2.76-8.93,1.76-15-5.74-17.12-12-2.51-7.3.64-16.51,6.7-20.39a7.93,7.93,0,0,1,5.81-1.46c4.92,1,5.45-1.5,5.33-5.62-.72-24.91,9-44.88,29.31-59.34,6.77-4.81,14.8-6.4,23-6.52a71.3,71.3,0,0,1,42.5,12.69c8.93,6.2,13.76,15.72,17.37,25.73,1.9,5.25,3.35,10.68,4.79,16.08.5,1.91,1,3.12,3.28,2.74,5.29-.88,10.47,0,15.64,1.14,1.56.32,4.06-.09,3.76,2.28-.22,1.78-.51,4.33-2.77,5-2.69.85-5.3,1.76-8.41,1A83.1,83.1,0,0,0,182.87,68c3.08,7.25,6.6,13.84,8.38,21.07A63.7,63.7,0,0,1,193,97.48c.83,8-3.89,12.14-10.62,14.45-.25,1,.41,1,.79,1,8,.61,13.5,4.89,18.14,11.34,14.22,19.8,21.88,42,25,65.94,1.29,9.91,2.74,19.81,1.22,29.83-.33,2.16,1,3.22,2.62,3.84,12,4.7,17.79,14.31,22.25,25.9,7.49,19.49,16.15,38.52,24.33,57.74.52,1.22.66,2.69,2.62,3.61,4.8-8.8,9.63-17.6,14.4-26.42q8-14.76,15.84-29.58c.95-1.79,2.05-3.11,4.27-2.86,3.72.41,4.81-1.5,5.26-4.95,1.1-8.48,4.23-16.4,7.7-24.16.86-1.94,1.8-4.56,4.57-3.95,2.35.51,3.32,2.86,3.67,5.08.54,3.45.78,6.95,1.23,11.22,3.46-3.66,5.86-6.56,4.61-11.5-1.45-5.75-2.16-11.69-3.1-17.56-.28-1.8-.6-3.31-2.81-3.58-16.65-2-26.27-13.4-33.61-26.71-12.09-21.92-17.77-45.67-17.64-70.78a5.18,5.18,0,0,1,3-4.88c7.84-4.52,16.47-6.93,25.2-8.75,17.76-3.7,35.63-6.83,53.89-6.55,4.2.06,8.4.61,12.59.94,4.42.73,8.73,1.69,11.77,5.42a10,10,0,0,1,2.23,6c.22,23-2.41,45.54-10.69,67.18a44.41,44.41,0,0,1-2.6,5.49c-4.9,9.68-9.86,19.34-19.14,25.79-2.29,1.77-4.61,3.64-7.33,4.54-4.52,1.5-5.51,4.36-4.27,8.58.61,2.09.48,4.37,1.67,6.66,4-2.2,6.46-6,9.66-8.85a30.75,30.75,0,0,1,6.88-5.18c2.18-1.2,4.48-1.9,6.65-.11s2.66,4.24,1.85,6.92c-2,6.72-5.64,12.66-9.24,18.6-.51.84-1.1,1.62-1.9,3,4.72-2.78,8.34-6.11,12.73-8.25,3.05-1.85,6-3.85,9.58-4.63,3.81-.84,5.93,1,5.75,4.86a13.78,13.78,0,0,1-2.76,7c-3,4.55-7.34,8-11,12.24,3.29-.45,5.95.28,7.19,3.3a8,8,0,0,1-1.5,9c-2.56,2.76-5.77,4.72-8.76,7-3.78,2.61-7.79,4.84-11.7,7.25a6.08,6.08,0,0,0-3.12,6.85c1.12,6.88,2.75,13.66,3.88,20.54.64,3.92,2.42,5.66,6.52,5a16.43,16.43,0,0,1,6.09.36c1,.21,2,.44,3,.56,6.11.69,9.36,3,10.28,7.25a12.86,12.86,0,0,1-6.26,14.21C382.85,323.25,381.77,323.33,381,324.09ZM370.65,122.23c-5.67,2.74-13.51,11.13-15.21,16.41-3.9,12.06-20.7,16.57-28.79,7.16-3-3.48-6-6.92-9.27-10.12-4.28-4.2-9.41-4.43-14.87-1-4.64,2.88-8.64,9.83-7.39,13.47,4.5,13.05,10.34,25.43,19.53,35.94,4.27,4.88,9.14,9.19,15.21,11.58,12.06,4.73,32.31-8.63,40.79-21.28C371.11,170.57,400.41,112.23,370.65,122.23Zm8.4-21.69c-1.27-.18-64.75,15.16-91.93,9.78-.21,6.5,3,22,5.54,26.35.6-.67,1.18-1.26,1.69-1.91,8.08-10.34,25-11,33.47.21a41.93,41.93,0,0,0,7.46,7.6c3.44,2.76,6.42,2.31,9.35-.84a13.36,13.36,0,0,0,2.73-5.4c3.54-11.42,21.68-23.18,35.73-24.14,5.64-.12,3.88-5.32,3.1-7.94s-5-4.32-7.15-3.71Z"/><path id="Trazado_1011" data-name="Trazado 1011" class="cls-1" d="M368.3,323.32c-4-.53-4.51-3.64-3.19-6.13a12.38,12.38,0,0,0,1.08-8.09,29.67,29.67,0,0,1,10-.93c4.57.4,5.55,2.64,3,6.38C376.4,318.53,372.56,321.19,368.3,323.32Z"/><path id="Trazado_1013" data-name="Trazado 1013" class="cls-1" d="M195.17,485.61c-3.29,2.33-5.75,1.63-8,1.9-1.18.13-2.51-.08-3.5.41a3.87,3.87,0,0,0-1.67,4.85c1.48,3.1-4.51,7.57,2.32,9.69,7.9,2.44,15.52,5.83,23.19,9-8.56-1.36-16.73-4.17-24.94-6.83-1.78-.57-3.51-1.31-5.32-1.76-1.28-.32-3-1.91-3.84.43a3.48,3.48,0,0,0,1.81,4.58l.12.05c6.62,3.43,13.16,7,19.67,10.63a64.8,64.8,0,0,1,9.32,6.25c-3,.59-5.63-.52-8.28-1.53-15.31-5.82-28.75-15.22-43.2-22.7-2.17-1.12-2.08-2.36-.33-3.81a36.12,36.12,0,0,0,7.1-8.53c.72-1.13,1.32-2.37,3-2.33C173.09,486.16,183.55,484.69,195.17,485.61Z"/></svg>