<svg id="Capa_1" data-name="Capa 1" xmlns="http://www.w3.org/2000/svg" viewBox="0 0 336.26 219.59"><defs><style>.cls-1{fill:#278828;}.cls-2{fill:#212960;}.cls-3{fill:#a27780;}.cls-4{fill:#edeae3;}.cls-5{fill:#fcc700;}.cls-6,.cls-8{fill:#fff;}.cls-7,.cls-8{isolation:isolate;}.cls-8{font-size:17px;font-family:Menlo-Bold, Menlo;font-weight:700;letter-spacing:0.15em;}</style></defs><g id="Grupo_116" data-name="Grupo 116"><path id="Trazado_1312-2" data-name="Trazado 1312-2" class="cls-1" d="M336.26,11.78v196a11.52,11.52,0,0,1-.36,2.87,11.81,11.81,0,0,1-11.43,8.92H11.78A11.79,11.79,0,0,1,0,207.8H0v-196A11.78,11.78,0,0,1,11.77,0h312.7a11.79,11.79,0,0,1,11.79,11.77Z"/><path id="Trazado_1313-2" data-name="Trazado 1313-2" class="cls-2" d="M336.26,11.78V177C316,174.48,296,167.61,280.55,154.1c-17.13-14.94-27.73-39-23.15-61.6-11.59,31.84-49.19,48.46-81.5,41.56s-58.46-33-73.24-63.46C94.84,54.51,83.12,25.49,81.46,0H324.82A11.62,11.62,0,0,1,336.26,11.78Z"/><path id="Trazado_1314-2" data-name="Trazado 1314-2" class="cls-3" d="M335.9,212.62c-1.28,4-5.92,7-11.43,7H11.78C5.27,219.59,0,215.46,0,210.37V191.2a38.51,38.51,0,0,0,7.29,6.49c12.34,8.47,29.42,11.64,45.84,11.58s32.55-3.05,48.66-5.48A743.69,743.69,0,0,1,258.72,197C285.2,198.66,313.31,202.54,335.9,212.62Z"/><g id="Grupo_108" data-name="Grupo 108"><g id="Grupo_96" data-name="Grupo 96"><rect id="Rectángulo_2321" data-name="Rectángulo 2321" class="cls-4" x="27.72" y="28.63" width="50.22" height="50.22" rx="5.55"/></g><g id="Grupo_107" data-name="Grupo 107"><g id="Grupo_97" data-name="Grupo 97"><rect id="Rectángulo_2322" data-name="Rectángulo 2322" class="cls-5" x="29.86" y="30.76" width="45.95" height="45.95" rx="4.47"/></g><g id="Grupo_98" data-name="Grupo 98"><path id="Trazado_1315" data-name="Trazado 1315" class="cls-4" d="M61.06,69.77H44.61a4.87,4.87,0,0,1-4.87-4.86V42.57a4.87,4.87,0,0,1,4.87-4.86H61.06a4.86,4.86,0,0,1,4.86,4.86V64.9A4.86,4.86,0,0,1,61.06,69.77ZM44.6,42a.58.58,0,0,0-.58.58V64.91a.58.58,0,0,0,.58.58H61.06a.59.59,0,0,0,.59-.58V42.57a.59.59,0,0,0-.59-.59Z"/></g><g id="Grupo_102" data-name="Grupo 102"><g id="Grupo_99" data-name="Grupo 99"><rect id="Rectángulo_2323" data-name="Rectángulo 2323" class="cls-4" x="29.86" y="43.59" width="12.02" height="4.27"/></g><g id="Grupo_100" data-name="Grupo 100"><rect id="Rectángulo_2324" data-name="Rectángulo 2324" class="cls-4" x="29.86" y="51.6" width="12.02" height="4.27"/></g><g id="Grupo_101" data-name="Grupo 101"><rect id="Rectángulo_2325" data-name="Rectángulo 2325" class="cls-4" x="29.86" y="59.61" width="12.02" height="4.27"/></g></g><g id="Grupo_106" data-name="Grupo 106"><g id="Grupo_103" data-name="Grupo 103"><rect id="Rectángulo_2326" data-name="Rectángulo 2326" class="cls-4" x="63.79" y="43.59" width="12.02" height="4.27"/></g><g id="Grupo_104" data-name="Grupo 104"><rect id="Rectángulo_2327" data-name="Rectángulo 2327" class="cls-4" x="63.79" y="51.6" width="12.02" height="4.27"/></g><g id="Grupo_105" data-name="Grupo 105"><rect id="Rectángulo_2328" data-name="Rectángulo 2328" class="cls-4" x="63.79" y="59.61" width="12.02" height="4.27"/></g></g></g></g><g id="Grupo_109" data-name="Grupo 109"><path id="Trazado_1316" data-name="Trazado 1316" class="cls-6" d="M34.06,102.28v14H30.41v-11H27.72v-3Z"/><path id="Trazado_1317" data-name="Trazado 1317" class="cls-6" d="M49.56,111.84c0,2.69-2.21,4.57-5.68,4.57a9.48,9.48,0,0,1-5.5-1.72l1.47-2.81a5.24,5.24,0,0,0,3.75,1.74c1.53,0,2.39-.64,2.39-1.74s-.85-1.69-2.41-1.69H41.23v-2l3.27-3.13H39.12l0-2.81h9.76v2.11l-3.77,3.51.7.1C48,108.36,49.56,109.71,49.56,111.84Z"/><path id="Trazado_1318" data-name="Trazado 1318" class="cls-6" d="M62.09,109.25c0,4.57-2,7.1-5.46,7.1s-5.48-2.53-5.48-7.1,1.93-7.07,5.48-7.07S62.09,104.69,62.09,109.25Zm-7.46,0c0,3.19.58,4.53,2,4.53s2-1.34,2-4.53-.58-4.52-2-4.52S54.63,106.05,54.63,109.25Z"/><path id="Trazado_1319" data-name="Trazado 1319" class="cls-6" d="M74.64,102.26v2.53l-5.26,11.46H65.53l5.1-11H66.72v2H63.5v-4.9Z"/><path id="Trazado_1320" data-name="Trazado 1320" class="cls-6" d="M103,113.64c2.17,0,3.23-1.4,3.19-3.69a3.71,3.71,0,0,1-3.25,1.51,4.18,4.18,0,0,1-4.43-3.95,3.88,3.88,0,0,1,0-.59c0-3,2-4.8,5.12-4.8,3.68,0,5.92,2.63,5.92,6.92,0,4.46-2.48,7.37-6.34,7.37a9.3,9.3,0,0,1-4.44-1.16l1.35-2.51A4.91,4.91,0,0,0,103,113.64Zm-1.22-6.7a1.76,1.76,0,0,0,1.59,1.91,2,2,0,0,0,.35,0,1.86,1.86,0,0,0,2.06-1.65,1.71,1.71,0,0,0,0-.32,2,2,0,0,0-4,.06Z"/><path id="Trazado_1321" data-name="Trazado 1321" class="cls-6" d="M118.42,102.28v14h-3.65v-11h-2.69v-3Z"/><path id="Trazado_1322" data-name="Trazado 1322" class="cls-6" d="M130.71,102.28v14h-3.65v-11h-2.69v-3Z"/><path id="Trazado_1323" data-name="Trazado 1323" class="cls-6" d="M146.21,111.84c0,2.69-2.21,4.57-5.68,4.57a9.48,9.48,0,0,1-5.5-1.72l1.47-2.81a5.24,5.24,0,0,0,3.75,1.74c1.53,0,2.39-.64,2.39-1.74s-.86-1.69-2.41-1.69h-2.35v-2l3.27-3.13h-5.38l0-2.81h9.76v2.11l-3.77,3.51.7.1C144.65,108.36,146.21,109.71,146.21,111.84Z"/><path id="Trazado_1324" data-name="Trazado 1324" class="cls-6" d="M181.64,109.25c0,4.57-1.95,7.1-5.46,7.1s-5.48-2.53-5.48-7.1,1.94-7.07,5.48-7.07S181.64,104.69,181.64,109.25Zm-7.45,0c0,3.19.58,4.53,2,4.53s2-1.34,2-4.53-.58-4.52-2-4.52S174.19,106.05,174.19,109.25Z"/><path id="Trazado_1325" data-name="Trazado 1325" class="cls-6" d="M188.47,107.32c3.29,0,5.42,1.73,5.42,4.22,0,3-2.25,4.87-5.7,4.87a10.24,10.24,0,0,1-5.53-1.76l1.45-2.83a5.09,5.09,0,0,0,3.65,1.76c1.41,0,2.21-.64,2.21-1.78s-.8-1.65-2.19-1.65c-.74,0-3,0-3.9.08v-8h9.38v2.95h-6v2.13C187.52,107.32,188.2,107.32,188.47,107.32Z"/><path id="Trazado_1326" data-name="Trazado 1326" class="cls-6" d="M199.61,113.64c2.17,0,3.23-1.4,3.19-3.69a3.71,3.71,0,0,1-3.25,1.51,4.18,4.18,0,0,1-4.43-3.95,3.88,3.88,0,0,1,0-.59c0-3,2-4.8,5.12-4.8,3.68,0,5.92,2.63,5.92,6.92,0,4.46-2.48,7.37-6.34,7.37a9.3,9.3,0,0,1-4.44-1.16l1.35-2.51A4.91,4.91,0,0,0,199.61,113.64Zm-1.22-6.7a1.76,1.76,0,0,0,1.59,1.91,2,2,0,0,0,.35,0,1.86,1.86,0,0,0,2.06-1.65,1.71,1.71,0,0,0,0-.32,2,2,0,0,0-4,.06Z"/><path id="Trazado_1327" data-name="Trazado 1327" class="cls-6" d="M214.23,106.32c0-.75-.58-1.2-1.59-1.2a6.64,6.64,0,0,0-3.87,1.78l-1.37-2.69a9.8,9.8,0,0,1,5.78-2.12c2.82,0,4.88,1.48,4.88,3.69,0,1.52-1.16,3.09-2.71,4.66l-2.87,2.87h6v2.93H207.82l0-2.41,5.08-5.22A4.15,4.15,0,0,0,214.23,106.32Z"/><path id="Trazado_1328" data-name="Trazado 1328" class="cls-6" d="M249.43,106.32c0-.75-.58-1.2-1.59-1.2A6.64,6.64,0,0,0,244,106.9l-1.37-2.69a9.8,9.8,0,0,1,5.77-2.12c2.83,0,4.89,1.48,4.89,3.69,0,1.52-1.16,3.09-2.71,4.66l-2.87,2.87h6v2.93H243l0-2.41,5.08-5.22A4.16,4.16,0,0,0,249.43,106.32Z"/><path id="Trazado_1329" data-name="Trazado 1329" class="cls-6" d="M266.26,102.26v2.53L261,116.25h-3.84l5.1-11h-3.91v2h-3.22v-4.9Z"/><path id="Trazado_1330" data-name="Trazado 1330" class="cls-6" d="M274.85,102.28v14H271.2v-11h-2.69v-3Z"/><path id="Trazado_1331" data-name="Trazado 1331" class="cls-6" d="M287.14,102.28v14h-3.65v-11H280.8v-3Z"/></g><g id="Grupo_112" data-name="Grupo 112"><g id="Grupo_110" data-name="Grupo 110"><path id="Trazado_1332" data-name="Trazado 1332" class="cls-6" d="M31.8,141.65v9H29.45v-7.06H27.72v-1.92Z"/><path id="Trazado_1333" data-name="Trazado 1333" class="cls-6" d="M39.71,141.65v9H37.36v-7.06H35.63v-1.92Z"/><path id="Trazado_1334" data-name="Trazado 1334" class="cls-6" d="M48,140.25,43.81,152H41.88L46,140.25Z"/><path id="Trazado_1335" data-name="Trazado 1335" class="cls-6" d="M51.64,144.25c0-.48-.38-.77-1-.77a4.31,4.31,0,0,0-2.49,1.14l-.88-1.73A6.35,6.35,0,0,1,51,141.53c1.82,0,3.14.95,3.14,2.38a4.81,4.81,0,0,1-1.75,3l-1.84,1.84h3.84v1.89H47.51v-1.55l3.27-3.36A2.77,2.77,0,0,0,51.64,144.25Z"/><path id="Trazado_1336" data-name="Trazado 1336" class="cls-6" d="M62.15,147.8c0,1.73-1.42,2.94-3.65,2.94a6.13,6.13,0,0,1-3.54-1.1l.95-1.81a3.3,3.3,0,0,0,2.41,1.11c1,0,1.53-.41,1.53-1.11s-.55-1.09-1.55-1.09H56.79v-1.26l2.1-2H55.43v-1.8H61.7V143l-2.42,2.26.45.06A2.52,2.52,0,0,1,62.15,147.8Z"/></g><g id="Grupo_111" data-name="Grupo 111"><path id="Trazado_1337" data-name="Trazado 1337" class="cls-6" d="M28.78,133.27l.93,2.71.94-2.71h1L30.19,137h-1l-1.46-3.75Z"/><path id="Trazado_1338" data-name="Trazado 1338" class="cls-6" d="M34.21,136.35H32.59l-.26.67h-1l1.61-3.75h1L35.51,137h-1Zm-.29-.74-.51-1.34-.52,1.34Z"/><path id="Trazado_1339" data-name="Trazado 1339" class="cls-6" d="M36.82,133.27v2.91h1.59V137H35.84v-3.75Z"/><path id="Trazado_1340" data-name="Trazado 1340" class="cls-6" d="M39.83,133.27V137h-1v-3.75Z"/><path id="Trazado_1341" data-name="Trazado 1341" class="cls-6" d="M44.17,135.14A1.87,1.87,0,0,1,42.34,137H40.56v-3.75h1.61a1.83,1.83,0,0,1,2,1.68A1.21,1.21,0,0,1,44.17,135.14Zm-1,0a1,1,0,0,0-.93-1.08h-.7v2.17h.66a1,1,0,0,0,1-1Z"/><path id="Trazado_1342" data-name="Trazado 1342" class="cls-6" d="M48.68,133.27v.78H46.86v.83h1.68v.79H46.86V137h-1v-3.75Z"/><path id="Trazado_1343" data-name="Trazado 1343" class="cls-6" d="M51.37,137l-.54-1H50.1v1h-1v-3.75h1.69c1,0,1.56.48,1.56,1.32a1.27,1.27,0,0,1-.67,1.2l.78,1.23ZM50.1,135.2h.71a.54.54,0,0,0,.62-.46.49.49,0,0,0,0-.12c0-.37-.23-.57-.63-.57H50.1Z"/><path id="Trazado_1344" data-name="Trazado 1344" class="cls-6" d="M56.8,135.14a2,2,0,1,1-4,.26,2,2,0,0,1,1.9-2.16h.13a1.92,1.92,0,0,1,2,1.83Zm-3,0a1.07,1.07,0,0,0,1,1.08,1.09,1.09,0,0,0,1.12-1,1.07,1.07,0,0,0-1-1.11,1.06,1.06,0,0,0-1.11,1Z"/><path id="Trazado_1345" data-name="Trazado 1345" class="cls-6" d="M58.36,133.27l1,2.19,1-2.19h1.07V137h-.86v-2.38l-.87,2H59l-.87-2V137H57.3v-3.75Z"/></g></g><g id="Grupo_115" data-name="Grupo 115"><g id="Grupo_113" data-name="Grupo 113"><path id="Trazado_1346" data-name="Trazado 1346" class="cls-6" d="M278.4,208.82a17.31,17.31,0,1,1,17.31-17.31A17.31,17.31,0,0,1,278.4,208.82Zm0-31.81a14.5,14.5,0,1,0,14.5,14.5A14.5,14.5,0,0,0,278.4,177Z"/></g><g id="Grupo_114" data-name="Grupo 114"><path id="Trazado_1347" data-name="Trazado 1347" class="cls-6" d="M300.38,208.82a17.31,17.31,0,1,1,17.3-17.31A17.31,17.31,0,0,1,300.38,208.82Zm0-31.81a14.5,14.5,0,1,0,14.5,14.5A14.5,14.5,0,0,0,300.38,177Z"/></g></g><g id="My_classes" data-name="My classes" class="cls-7"><text class="cls-8" transform="translate(28.19 180.19)">IVAN CARNAVALE</text></g></g></svg>