<svg id="Capa_1" data-name="Capa 1" xmlns="http://www.w3.org/2000/svg" viewBox="0 0 336.26 219.59"><defs><style>.cls-1{fill:#278828;}.cls-2{fill:#212960;}.cls-3{fill:#a27780;}.cls-4{fill:#edeae3;}.cls-5{fill:#fcc700;}.cls-6,.cls-8,.cls-9{fill:#fff;}.cls-7,.cls-8{isolation:isolate;}.cls-8{font-size:17px;font-family:Menlo-Bold, Menlo;letter-spacing:0.15em;}.cls-8,.cls-9{font-weight:700;}.cls-9{font-size:20px;font-family:Montserrat-Bold, Montserrat;letter-spacing:0.07em;}.cls-10{letter-spacing:0.08em;}.cls-11{letter-spacing:0.07em;}.cls-12{letter-spacing:0.08em;}.cls-13{letter-spacing:0.08em;}.cls-14{letter-spacing:0.09em;}</style></defs><path id="Trazado_1312-2" data-name="Trazado 1312-2" class="cls-1" d="M336.26,11.78v196a11.52,11.52,0,0,1-.36,2.87,11.81,11.81,0,0,1-11.43,8.92H11.78A11.79,11.79,0,0,1,0,207.8H0v-196A11.78,11.78,0,0,1,11.77,0h312.7a11.79,11.79,0,0,1,11.79,11.77Z"/><path id="Trazado_1313-2" data-name="Trazado 1313-2" class="cls-2" d="M336.26,11.78V177C316,174.48,296,167.61,280.55,154.1c-17.13-14.94-27.73-39-23.15-61.6-11.59,31.84-49.19,48.46-81.5,41.56s-58.46-33-73.24-63.46C94.84,54.51,83.12,25.49,81.46,0H324.82A11.62,11.62,0,0,1,336.26,11.78Z"/><path id="Trazado_1314-2" data-name="Trazado 1314-2" class="cls-3" d="M335.9,212.62c-1.28,4-5.92,7-11.43,7H11.78C5.27,219.59,0,215.46,0,210.37V191.2a38.51,38.51,0,0,0,7.29,6.49c12.34,8.47,29.42,11.64,45.84,11.58s32.55-3.05,48.66-5.48A743.69,743.69,0,0,1,258.72,197C285.2,198.66,313.31,202.54,335.9,212.62Z"/><g id="Grupo_108" data-name="Grupo 108"><g id="Grupo_96" data-name="Grupo 96"><rect id="Rectángulo_2321" data-name="Rectángulo 2321" class="cls-4" x="27.72" y="28.63" width="50.22" height="50.22" rx="5.55"/></g><g id="Grupo_107" data-name="Grupo 107"><g id="Grupo_97" data-name="Grupo 97"><rect id="Rectángulo_2322" data-name="Rectángulo 2322" class="cls-5" x="29.86" y="30.76" width="45.95" height="45.95" rx="4.47"/></g><g id="Grupo_98" data-name="Grupo 98"><path id="Trazado_1315" data-name="Trazado 1315" class="cls-4" d="M61.06,69.77H44.61a4.87,4.87,0,0,1-4.87-4.86V42.57a4.87,4.87,0,0,1,4.87-4.86H61.06a4.86,4.86,0,0,1,4.86,4.86V64.9A4.86,4.86,0,0,1,61.06,69.77ZM44.6,42a.58.58,0,0,0-.58.58V64.91a.58.58,0,0,0,.58.58H61.06a.59.59,0,0,0,.59-.58V42.57a.59.59,0,0,0-.59-.59Z"/></g><g id="Grupo_102" data-name="Grupo 102"><g id="Grupo_99" data-name="Grupo 99"><rect id="Rectángulo_2323" data-name="Rectángulo 2323" class="cls-4" x="29.86" y="43.59" width="12.02" height="4.27"/></g><g id="Grupo_100" data-name="Grupo 100"><rect id="Rectángulo_2324" data-name="Rectángulo 2324" class="cls-4" x="29.86" y="51.6" width="12.02" height="4.27"/></g><g id="Grupo_101" data-name="Grupo 101"><rect id="Rectángulo_2325" data-name="Rectángulo 2325" class="cls-4" x="29.86" y="59.61" width="12.02" height="4.27"/></g></g><g id="Grupo_106" data-name="Grupo 106"><g id="Grupo_103" data-name="Grupo 103"><rect id="Rectángulo_2326" data-name="Rectángulo 2326" class="cls-4" x="63.79" y="43.59" width="12.02" height="4.27"/></g><g id="Grupo_104" data-name="Grupo 104"><rect id="Rectángulo_2327" data-name="Rectángulo 2327" class="cls-4" x="63.79" y="51.6" width="12.02" height="4.27"/></g><g id="Grupo_105" data-name="Grupo 105"><rect id="Rectángulo_2328" data-name="Rectángulo 2328" class="cls-4" x="63.79" y="59.61" width="12.02" height="4.27"/></g></g></g></g><g id="Grupo_112" data-name="Grupo 112"><g id="Grupo_110" data-name="Grupo 110"><path id="Trazado_1332" data-name="Trazado 1332" class="cls-6" d="M31.8,141.65v9H29.45v-7.06H27.72v-1.92Z"/><path id="Trazado_1333" data-name="Trazado 1333" class="cls-6" d="M39.71,141.65v9H37.36v-7.06H35.63v-1.92Z"/><path id="Trazado_1334" data-name="Trazado 1334" class="cls-6" d="M48,140.25,43.81,152H41.88L46,140.25Z"/><path id="Trazado_1335" data-name="Trazado 1335" class="cls-6" d="M51.64,144.25c0-.48-.38-.77-1-.77a4.31,4.31,0,0,0-2.49,1.14l-.88-1.73A6.35,6.35,0,0,1,51,141.53c1.82,0,3.14.95,3.14,2.38a4.81,4.81,0,0,1-1.75,3l-1.84,1.84h3.84v1.89H47.51v-1.55l3.27-3.36A2.77,2.77,0,0,0,51.64,144.25Z"/><path id="Trazado_1336" data-name="Trazado 1336" class="cls-6" d="M62.15,147.8c0,1.73-1.42,2.94-3.65,2.94a6.13,6.13,0,0,1-3.54-1.1l.95-1.81a3.3,3.3,0,0,0,2.41,1.11c1,0,1.53-.41,1.53-1.11s-.55-1.09-1.55-1.09H56.79v-1.26l2.1-2H55.43v-1.8H61.7V143l-2.42,2.26.45.06A2.52,2.52,0,0,1,62.15,147.8Z"/></g><g id="Grupo_111" data-name="Grupo 111"><path id="Trazado_1337" data-name="Trazado 1337" class="cls-6" d="M28.78,133.27l.93,2.71.94-2.71h1L30.19,137h-1l-1.46-3.75Z"/><path id="Trazado_1338" data-name="Trazado 1338" class="cls-6" d="M34.21,136.35H32.59l-.26.67h-1l1.61-3.75h1L35.51,137h-1Zm-.29-.74-.51-1.34-.52,1.34Z"/><path id="Trazado_1339" data-name="Trazado 1339" class="cls-6" d="M36.82,133.27v2.91h1.59V137H35.84v-3.75Z"/><path id="Trazado_1340" data-name="Trazado 1340" class="cls-6" d="M39.83,133.27V137h-1v-3.75Z"/><path id="Trazado_1341" data-name="Trazado 1341" class="cls-6" d="M44.17,135.14A1.87,1.87,0,0,1,42.34,137H40.56v-3.75h1.61a1.83,1.83,0,0,1,2,1.68A1.21,1.21,0,0,1,44.17,135.14Zm-1,0a1,1,0,0,0-.93-1.08h-.7v2.17h.66a1,1,0,0,0,1-1Z"/><path id="Trazado_1342" data-name="Trazado 1342" class="cls-6" d="M48.68,133.27v.78H46.86v.83h1.68v.79H46.86V137h-1v-3.75Z"/><path id="Trazado_1343" data-name="Trazado 1343" class="cls-6" d="M51.37,137l-.54-1H50.1v1h-1v-3.75h1.69c1,0,1.56.48,1.56,1.32a1.27,1.27,0,0,1-.67,1.2l.78,1.23ZM50.1,135.2h.71a.54.54,0,0,0,.62-.46.49.49,0,0,0,0-.12c0-.37-.23-.57-.63-.57H50.1Z"/><path id="Trazado_1344" data-name="Trazado 1344" class="cls-6" d="M56.8,135.14a2,2,0,1,1-4,.26,2,2,0,0,1,1.9-2.16h.13a1.92,1.92,0,0,1,2,1.83Zm-3,0a1.07,1.07,0,0,0,1,1.08,1.09,1.09,0,0,0,1.12-1,1.07,1.07,0,0,0-1-1.11,1.06,1.06,0,0,0-1.11,1Z"/><path id="Trazado_1345" data-name="Trazado 1345" class="cls-6" d="M58.36,133.27l1,2.19,1-2.19h1.07V137h-.86v-2.38l-.87,2H59l-.87-2V137H57.3v-3.75Z"/></g></g><g id="Grupo_115" data-name="Grupo 115"><g id="Grupo_113" data-name="Grupo 113"><path id="Trazado_1346" data-name="Trazado 1346" class="cls-6" d="M278.4,208.82a17.31,17.31,0,1,1,17.31-17.31A17.31,17.31,0,0,1,278.4,208.82Zm0-31.81a14.5,14.5,0,1,0,14.5,14.5A14.5,14.5,0,0,0,278.4,177Z"/></g><g id="Grupo_114" data-name="Grupo 114"><path id="Trazado_1347" data-name="Trazado 1347" class="cls-6" d="M300.38,208.82a17.31,17.31,0,1,1,17.3-17.31A17.31,17.31,0,0,1,300.38,208.82Zm0-31.81a14.5,14.5,0,1,0,14.5,14.5A14.5,14.5,0,0,0,300.38,177Z"/></g></g><g id="My_classes" data-name="My classes" class="cls-7"><text class="cls-8" transform="translate(28.19 180.19)">IVAN CARNAVALE</text></g><text class="cls-9" transform="translate(28.19 114.9)">XXX<tspan class="cls-10" x="47.04" y="0">X </tspan><tspan class="cls-11" x="70.18" y="0">XXX</tspan><tspan class="cls-10" x="117.22" y="0">X </tspan><tspan class="cls-11" x="140.36" y="0">XXX</tspan><tspan class="cls-12" x="187.4" y="0">X </tspan><tspan class="cls-13" x="210.54" y="0">2</tspan><tspan class="cls-14" x="223.9" y="0">7</tspan><tspan class="cls-10" x="238.1" y="0">11</tspan></text></svg>