<svg id="Capa_1" data-name="Capa 1" xmlns="http://www.w3.org/2000/svg" viewBox="0 0 336.26 219.59"><defs><style>.cls-1{fill:#278828;}.cls-2{fill:#212960;}.cls-3{fill:#a27780;}.cls-4{fill:#edeae3;}.cls-5{fill:#fcc700;}.cls-6{fill:#fff;}.cls-7{isolation:isolate;}</style></defs><path id="Trazado_1312-2" data-name="Trazado 1312-2" class="cls-1" d="M336.26,11.77v196a11.58,11.58,0,0,1-.36,2.87,11.79,11.79,0,0,1-11.43,8.91H11.78A11.77,11.77,0,0,1,0,207.8H0v-196A11.77,11.77,0,0,1,11.77,0h312.7a11.78,11.78,0,0,1,11.79,11.77Z"/><path id="Trazado_1313-2" data-name="Trazado 1313-2" class="cls-2" d="M336.26,11.77V177C316,174.48,296,167.61,280.55,154.1c-17.13-14.94-27.73-39-23.15-61.61-11.59,31.85-49.19,48.47-81.5,41.56s-58.46-33-73.24-63.45C94.84,54.51,83.12,25.48,81.46,0H324.82A11.61,11.61,0,0,1,336.26,11.77Z"/><path id="Trazado_1314-2" data-name="Trazado 1314-2" class="cls-3" d="M335.9,212.62c-1.28,4-5.92,7-11.43,7H11.78C5.27,219.59,0,215.46,0,210.37V191.2a38.11,38.11,0,0,0,7.29,6.48c12.34,8.48,29.42,11.65,45.84,11.58s32.55-3,48.66-5.47A743.69,743.69,0,0,1,258.72,197C285.2,198.65,313.31,202.54,335.9,212.62Z"/><g id="Grupo_108" data-name="Grupo 108"><g id="Grupo_96" data-name="Grupo 96"><rect id="Rectángulo_2321" data-name="Rectángulo 2321" class="cls-4" x="27.72" y="28.62" width="50.22" height="50.22" rx="5.55"/></g><g id="Grupo_107" data-name="Grupo 107"><g id="Grupo_97" data-name="Grupo 97"><rect id="Rectángulo_2322" data-name="Rectángulo 2322" class="cls-5" x="29.86" y="30.76" width="45.95" height="45.95" rx="4.47"/></g><g id="Grupo_98" data-name="Grupo 98"><path id="Trazado_1315" data-name="Trazado 1315" class="cls-4" d="M61.06,69.77H44.61a4.88,4.88,0,0,1-4.87-4.87V42.57a4.88,4.88,0,0,1,4.87-4.87H61.06a4.87,4.87,0,0,1,4.86,4.87V64.9A4.87,4.87,0,0,1,61.06,69.77ZM44.6,42a.59.59,0,0,0-.58.59V64.9a.58.58,0,0,0,.58.59H61.06a.59.59,0,0,0,.59-.59V42.57a.59.59,0,0,0-.59-.59Z"/></g><g id="Grupo_102" data-name="Grupo 102"><g id="Grupo_99" data-name="Grupo 99"><rect id="Rectángulo_2323" data-name="Rectángulo 2323" class="cls-4" x="29.86" y="43.58" width="12.02" height="4.27"/></g><g id="Grupo_100" data-name="Grupo 100"><rect id="Rectángulo_2324" data-name="Rectángulo 2324" class="cls-4" x="29.86" y="51.6" width="12.02" height="4.27"/></g><g id="Grupo_101" data-name="Grupo 101"><rect id="Rectángulo_2325" data-name="Rectángulo 2325" class="cls-4" x="29.86" y="59.61" width="12.02" height="4.27"/></g></g><g id="Grupo_106" data-name="Grupo 106"><g id="Grupo_103" data-name="Grupo 103"><rect id="Rectángulo_2326" data-name="Rectángulo 2326" class="cls-4" x="63.79" y="43.58" width="12.02" height="4.27"/></g><g id="Grupo_104" data-name="Grupo 104"><rect id="Rectángulo_2327" data-name="Rectángulo 2327" class="cls-4" x="63.79" y="51.6" width="12.02" height="4.27"/></g><g id="Grupo_105" data-name="Grupo 105"><rect id="Rectángulo_2328" data-name="Rectángulo 2328" class="cls-4" x="63.79" y="59.61" width="12.02" height="4.27"/></g></g></g></g><path id="Trazado_1328" data-name="Trazado 1328" class="cls-6" d="M249.43,106.4c0-.76-.58-1.2-1.59-1.2A6.57,6.57,0,0,0,244,107l-1.37-2.69a9.72,9.72,0,0,1,5.77-2.11c2.83,0,4.89,1.47,4.89,3.68,0,1.52-1.16,3.09-2.71,4.67l-2.87,2.86h6v2.93H243l0-2.41,5.08-5.22A4.17,4.17,0,0,0,249.43,106.4Z"/><path id="Trazado_1329" data-name="Trazado 1329" class="cls-6" d="M266.26,102.25v2.53L261,116.23h-3.84l5.1-11h-3.91v2h-3.22v-4.9Z"/><path id="Trazado_1330" data-name="Trazado 1330" class="cls-6" d="M274.85,102.26v14H271.2v-11h-2.69v-3Z"/><path id="Trazado_1331" data-name="Trazado 1331" class="cls-6" d="M287.14,102.26v14h-3.65v-11H280.8v-3Z"/><g id="Grupo_112" data-name="Grupo 112"><g id="Grupo_110" data-name="Grupo 110"><path id="Trazado_1332" data-name="Trazado 1332" class="cls-6" d="M31.8,141.65v9H29.45v-7.06H27.72v-1.93Z"/><path id="Trazado_1333" data-name="Trazado 1333" class="cls-6" d="M39.43,141.65v9H37.08v-7.06H35.35v-1.93Z"/><path id="Trazado_1334" data-name="Trazado 1334" class="cls-6" d="M48,140.25,43.81,152H41.88L46,140.25Z"/><path id="Trazado_1335" data-name="Trazado 1335" class="cls-6" d="M53.34,144.25c0-.49-.38-.77-1-.77a4.34,4.34,0,0,0-2.49,1.14l-.88-1.73a6.37,6.37,0,0,1,3.72-1.36c1.82,0,3.14.95,3.14,2.37a4.81,4.81,0,0,1-1.75,3l-1.84,1.85h3.84v1.88H49.21v-1.55l3.27-3.36A2.68,2.68,0,0,0,53.34,144.25Z"/><path id="Trazado_1336" data-name="Trazado 1336" class="cls-6" d="M65,147.8c0,1.73-1.42,2.93-3.65,2.93a6.08,6.08,0,0,1-3.54-1.1l1-1.8a3.37,3.37,0,0,0,2.41,1.11c1,0,1.54-.41,1.54-1.11s-.55-1.09-1.55-1.09H59.63v-1.26l2.1-2H58.27l0-1.81h6.28V143l-2.42,2.26.45.06A2.52,2.52,0,0,1,65,147.8Z"/></g><g id="Grupo_111" data-name="Grupo 111"><path id="Trazado_1337" data-name="Trazado 1337" class="cls-6" d="M28.78,133.27l.93,2.71.94-2.71h1L30.19,137h-1l-1.46-3.75Z"/><path id="Trazado_1338" data-name="Trazado 1338" class="cls-6" d="M34.21,136.35H32.59l-.26.67h-1l1.61-3.75h1L35.51,137h-1Zm-.29-.75-.51-1.33-.52,1.33Z"/><path id="Trazado_1339" data-name="Trazado 1339" class="cls-6" d="M36.82,133.27v2.91h1.59V137H35.84v-3.75Z"/><path id="Trazado_1340" data-name="Trazado 1340" class="cls-6" d="M39.83,133.27V137h-1v-3.75Z"/><path id="Trazado_1341" data-name="Trazado 1341" class="cls-6" d="M44.17,135.14A1.86,1.86,0,0,1,42.34,137H40.56v-3.75h1.61a1.83,1.83,0,0,1,2,1.68A1.15,1.15,0,0,1,44.17,135.14Zm-1,0a1,1,0,0,0-.93-1.08h-.7v2.16h.66a1,1,0,0,0,1-1Z"/><path id="Trazado_1342" data-name="Trazado 1342" class="cls-6" d="M48.68,133.27v.78H46.86v.83h1.68v.78H46.86V137h-1v-3.75Z"/><path id="Trazado_1343" data-name="Trazado 1343" class="cls-6" d="M51.37,137l-.54-1H50.1v1h-1v-3.75h1.69c1,0,1.56.48,1.56,1.31a1.28,1.28,0,0,1-.67,1.21l.78,1.23ZM50.1,135.2h.71a.55.55,0,0,0,.62-.47.49.49,0,0,0,0-.12c0-.37-.23-.56-.63-.56H50.1Z"/><path id="Trazado_1344" data-name="Trazado 1344" class="cls-6" d="M56.8,135.14a2,2,0,0,1-4,.26,2,2,0,0,1,1.9-2.16h.13a1.92,1.92,0,0,1,2,1.82Zm-3,0a1.05,1.05,0,0,0,1,1.08,1.07,1.07,0,0,0,1.12-1,1.09,1.09,0,0,0-1-1.12,1.07,1.07,0,0,0-1.11,1Z"/><path id="Trazado_1345" data-name="Trazado 1345" class="cls-6" d="M58.36,133.27l1,2.18,1-2.18h1.07V137h-.86v-2.38l-.87,2H59l-.87-2V137H57.3v-3.75Z"/></g></g><g id="Grupo_115" data-name="Grupo 115"><g id="Grupo_113" data-name="Grupo 113"><path id="Trazado_1346" data-name="Trazado 1346" class="cls-6" d="M278.4,208.81a17.31,17.31,0,1,1,17.31-17.3A17.3,17.3,0,0,1,278.4,208.81Zm0-31.8a14.5,14.5,0,1,0,14.5,14.5A14.5,14.5,0,0,0,278.4,177Z"/></g><g id="Grupo_114" data-name="Grupo 114"><path id="Trazado_1347" data-name="Trazado 1347" class="cls-6" d="M300.38,208.81a17.31,17.31,0,1,1,17.3-17.3A17.3,17.3,0,0,1,300.38,208.81Zm0-31.8a14.5,14.5,0,1,0,14.5,14.5A14.5,14.5,0,0,0,300.38,177Z"/></g></g><g class="cls-7"><path class="cls-6" d="M29.62,170V167.8H37V170H34.53V178H37v2.16H29.62V178h2.46V170Z"/><path class="cls-6" d="M46.09,178.15l2.18-10.35h2.47l-3,12.39H44.4L41.45,167.8h2.47Z"/><path class="cls-6" d="M57.38,167.8h3l3.34,12.39H61.27l-.76-3.06H57.23l-.75,3.06H54ZM58.87,170l-1.15,5.07H60Z"/><path class="cls-6" d="M67.53,167.8h2.64l3.45,9v-9h2.16v12.39H73.16l-3.47-9v9H67.53Z"/><path class="cls-6" d="M101.09,179.83a5.43,5.43,0,0,1-1.22.45,5.94,5.94,0,0,1-1.35.15,4.6,4.6,0,0,1-3.82-1.65,9.31,9.31,0,0,1,0-9.56,4.6,4.6,0,0,1,3.82-1.65,6,6,0,0,1,1.36.15,5,5,0,0,1,1.21.45v2.72a4.75,4.75,0,0,0-1.22-.85,3,3,0,0,0-1.23-.27,2.26,2.26,0,0,0-2,1.07,7.68,7.68,0,0,0,0,6.32,2.26,2.26,0,0,0,2,1.07,3,3,0,0,0,1.23-.27,4.75,4.75,0,0,0,1.22-.85Z"/><path class="cls-6" d="M108.52,167.8h3l3.34,12.39h-2.45l-.76-3.06h-3.28l-.75,3.06h-2.45ZM110,170l-1.15,5.07h2.32Z"/><path class="cls-6" d="M124.38,174.34a1.21,1.21,0,0,1,.64.34,4.37,4.37,0,0,1,.66,1l2.24,4.46h-2.69l-1.49-3.13c0-.09-.11-.21-.18-.37-.43-.93-1-1.4-1.54-1.4h-.78v4.9h-2.45V167.8h3.54a5.52,5.52,0,0,1,3.43.84,3.37,3.37,0,0,1,1,2.76,3.11,3.11,0,0,1-.62,2A2.64,2.64,0,0,1,124.38,174.34Zm-3.14-4.49v3.38h1.15a2.14,2.14,0,0,0,1.44-.39,1.7,1.7,0,0,0,.44-1.3,1.72,1.72,0,0,0-.43-1.3,2.15,2.15,0,0,0-1.45-.39Z"/><path class="cls-6" d="M131.46,167.8h2.63l3.45,9v-9h2.16v12.39h-2.61l-3.47-9v9h-2.16Z"/><path class="cls-6" d="M146.87,167.8h3l3.35,12.39h-2.45l-.77-3.06h-3.27l-.75,3.06h-2.45Zm1.5,2.24-1.16,5.07h2.32Z"/><path class="cls-6" d="M161.15,178.15l2.19-10.35h2.46l-2.94,12.39h-3.4l-3-12.39H159Z"/><path class="cls-6" d="M172.44,167.8h3l3.35,12.39h-2.45l-.77-3.06h-3.28l-.74,3.06H169.1Zm1.5,2.24-1.15,5.07h2.31Z"/><path class="cls-6" d="M183.48,180.19V167.8h2.45V178h5.23v2.16Z"/><path class="cls-6" d="M203.51,180.19h-7.72V167.8h7.72V170h-5.27v2.68H203v2.15h-4.77V178h5.27Z"/></g><path class="cls-6" d="M41.05,115.88H37.68l-3.15-4.39-3.14,4.39H28l4.84-6.74-4.71-6.54h3.37l3,4.22,3-4.22h3.37l-4.69,6.54Z"/><path class="cls-6" d="M55.12,115.88H51.75l-3.14-4.39-3.14,4.39H42.1l4.84-6.74-4.71-6.54H45.6l3,4.22,3-4.22H55l-4.68,6.54Z"/><path class="cls-6" d="M69.2,115.88H65.83l-3.15-4.39-3.14,4.39H56.17L61,109.14l-4.7-6.54h3.37l3,4.22,3-4.22h3.37l-4.69,6.54Z"/><path class="cls-6" d="M83.28,115.88H79.91l-3.15-4.39-3.14,4.39H70.25l4.84-6.74-4.71-6.54h3.37l3,4.22,3-4.22h3.37l-4.69,6.54Z"/><path class="cls-6" d="M111.43,115.88h-3.37l-3.15-4.39-3.14,4.39H98.4l4.84-6.74-4.7-6.54h3.37l3,4.22,3-4.22h3.37l-4.69,6.54Z"/><path class="cls-6" d="M125.51,115.88h-3.37L119,111.49l-3.14,4.39h-3.37l4.84-6.74-4.71-6.54H116l3,4.22,3-4.22h3.37l-4.69,6.54Z"/><path class="cls-6" d="M139.58,115.88h-3.37l-3.14-4.39-3.14,4.39h-3.37l4.84-6.74-4.71-6.54h3.37l3,4.22,3-4.22h3.37l-4.68,6.54Z"/><path class="cls-6" d="M153.66,115.88h-3.37l-3.15-4.39L144,115.88h-3.37l4.84-6.74-4.7-6.54h3.37l3,4.22,3-4.22h3.37l-4.69,6.54Z"/><path class="cls-6" d="M181.81,115.88h-3.37l-3.15-4.39-3.13,4.39h-3.37l4.84-6.74-4.71-6.54h3.37l3,4.22,3-4.22h3.37L177,109.14Z"/><path class="cls-6" d="M195.89,115.88h-3.37l-3.15-4.39-3.14,4.39h-3.37l4.84-6.74L183,102.6h3.37l3,4.22,3-4.22h3.37l-4.69,6.54Z"/><path class="cls-6" d="M210,115.88H206.6l-3.15-4.39-3.14,4.39h-3.37l4.84-6.74-4.71-6.54h3.37l3,4.22,3-4.22h3.37l-4.68,6.54Z"/><path class="cls-6" d="M224,115.88h-3.37l-3.14-4.39-3.14,4.39H211l4.84-6.74-4.71-6.54h3.37l3,4.22,3-4.22h3.37l-4.68,6.54Z"/></svg>