<svg id="Capa_1" data-name="Capa 1" xmlns="http://www.w3.org/2000/svg" viewBox="0 0 726.1 913.08"><defs><style>.cls-1{fill:#020202;}.cls-2{fill:#010101;}.cls-3{fill:#dc6544;}.cls-4,.cls-8{fill:#edeae3;}.cls-5{fill:#fffffd;}.cls-6{fill:#dbd9d8;}.cls-7{fill:#171414;}.cls-8{stroke:#dc6544;stroke-miterlimit:10;stroke-width:5px;}</style></defs><path class="cls-1" d="M529.38,339.13c1.88-5.08,3.63-6.26,10.14-4.58,8,2.07,15.94,4.43,23.45,8.1,8.3,4.05,13.54,11.23,19.29,17.94.63.74,1.19,1.55,1.78,2.33,4.87,6.38,4.19,13.36,1.76,20.27-2.74,7.8-2.86,7.08,5.61,8.28,16.11,2.29,29.73,9.12,37.6,24.33,1.44,2.78,3.34,5.39,4.08,8.52.43,3.78,2.12,7.46.93,11.37a2.49,2.49,0,0,1-1.09,1.24c-3.33,10.92-9.4,19.95-19,26.25-16,10.48-33.21,16-52.69,14.57A154.12,154.12,0,0,1,543.32,475l-.69,0c-4.21-1.78-8.76-2.62-12.84-4.75-.39-.21-.77-.44-1.14-.68a17,17,0,0,0-4.18-1.8,5.83,5.83,0,0,1-3.49-3.07c-2-4.15-5.36-7.1-8.57-10.18a11.17,11.17,0,0,0-1-.64c-2.15-.5-2,1.58-2.84,2.54-5.9,8.38-14.25,13.15-23.64,16.65-22.48,8.38-45.33,7.42-68.37,3.2a14.23,14.23,0,0,1-5.52-2.21c-1.24-.84-2.48-1.91-3.93-2.13-7.28-1.1-12.42-6.08-18.21-9.85-2.25-1.47-4.32-2.38-5.62.82-4.34,10.72-14,14.82-23.79,17-21.18,4.72-38.9-2.41-53.4-18.31-5.51-6-9.15-13-12-20.56-2.31-6.55-2.68-13.32-2.16-20.16.21-2.75-.44-3.74-3.28-2.71-12.76,4.63-25.22,2.15-37.5-2a69,69,0,0,1-17.11-8c-2.17-5.12-4.1-9.54-11.59-9-3.44.24-6.95-4.37-7.41-9-.43-4.43-1.75-7.81-6.89-8.17-.64,0-.05.3-.45-.14-5.52-6-7.16-.1-9.68,3.12-3.89,5-5.23,5.17-8.66,1.28-.39-.54-.64-1.17-1-1.71-4.32-6-4.34-6,.2-12,3.58-4.76,3.74-9.33,1.93-15.27-2.35-7.75-4.8-15.1-10-21.43-11.21-13.75-35.14-17.54-48.9-5.65-7.61,6.57-12,16-7.29,28.55,5,13.26,14,21.48,27.45,25.1,2.86.77,4.33,2.31,3.88,5.36-1.11,5,2.54,9.14,2.57,13.94.14,2.19-1.2,2.35-2.9,2.19-20.39-1.86-35.52-11.58-45.39-29.68-6.06-11.11-4.75-22.71-4-34.57.56-9.12,4.29-16.61,9.74-23.16a43.24,43.24,0,0,1,29.7-16c10.2-1,9.44-.43,6.64-9.84-2.91-9.74-5.18-20-.09-30a21.42,21.42,0,0,0,1.57-6.75c.69-5.14,2.61-9.69,7.85-12,.6-.26,1.49-.61,1.6-1.07,1.45-6,7.69-5.61,11.37-8.7-1.51-2.36-4.14-3.28-6.32-4.73q-16.8-11.16-33.74-22.09c-14.15-9.11-29.2-7.49-44.25-3.05-10.23,3-18.72,8.82-23.51,18.68-2.3,4.73-3.43,9.78-1.86,15.4.93,3.33,2.09,3.07,4.4,2.23a36.21,36.21,0,0,1,12.78-1.76c5.46,0,10.84,1.51,13,6.69,2.42,5.83,2,12.36-2.65,17.22-4,4.17-9.56,3.56-14.62,2.25a21.37,21.37,0,0,1-13-9.43c-1.83-3-3.21-2.21-4.88-.22-5.45,6.49-7,13.52-4,21.77,4.24,11.43,6.21,23,.52,34.77-4,8.3-9.91,14.52-18.17,18.33-3.09,1.43-3.9,3.26-4.73,6.54-3.28,13-7.08,25.95-17.83,35.18-4.44,3.82-8.2,2.8-9.55-2.12-.48-1.77-.09-3.1,1.42-3.78,5.59-2.52,8.09-7.61,10.39-12.67s5.66-9.58,6.84-15.29c.83-4-.41-4.41-3.78-4.63A21.67,21.67,0,0,1,0,312.48c-.3-5.7,2.32-9.43,7.84-11.14,8.44-2.63,17.48.86,22.41,8.71,1.05,1.68,2.67,3.42,2.77,5.21.4,7,3.21,4.41,6.59,2.11,8.22-5.62,13.38-13.08,12.7-23.19-.38-5.47-2.75-10.78-3.9-16.23-1.73-8.16-1.41-16.17,2.85-23.66.49-.87.74-2,1.47-2.58,6.36-4.65,5.07-11.1,5.15-17.77.18-14.77,7.57-25.51,20.47-32.82,10.85-6.14,22.56-7.38,35.05-7.37-1.06-2.38-3.18-3.18-4.74-4.44-26.88-21.72-54.29-42.75-82.46-62.76-1.22-.87-2.57-1.54-3.86-2.3-2.51-1.47-3.34-3.54-2.39-6.34,2.38-7,7.1-12.33,12.1-17.44,2.38-2.44,5.33-1.22,8-.28,8.12,2.88,15.12,7.78,21.77,13,22.43,17.72,44.38,36.05,67.79,52.49,3.48,2.44,7.16,4.6,12,7.7a175.07,175.07,0,0,1-11.17-25.76c-7.84-23.72-7.52-47.83-4.51-72.12,2.25-18.16,7.6-35.68,11.59-53.49,1.24-5.51,2.13-11.1,3-16.68.39-2.45-.05-5.35,3.33-5.84s6.49-.9,9,2.5C160.57,12.57,168.2,23.17,175,34.36c7,11.54,13.93,23.15,19.6,35.42,12.5,27.08,20.42,55.11,16.72,85.37-2.07,17-8.25,32.51-17.15,47-2.09,3.39-1.52,4.86,1.69,6.3a31.4,31.4,0,0,1,2.94,1.85c2.76,1.63,4.36,1.3,4.25-2.38-.39-13,7.67-21.12,16.3-29.13,8.15-7.58,18.28-10.54,28.69-11.51,9.59-.89,19.45-.15,28.7,4.51-2.78-7-6.45-13.41-7.79-20.69-1.9-10.38-3-21.3,1.69-30.64,4.91-9.74,12.66-18.16,23.41-22.35a52.29,52.29,0,0,1,30.5-2.22c2.73.59,4.92,2.77,8,2.34,1.6-.23,2.18-.23,1.88-2.27a59,59,0,0,1,2.38-28.5c2.07-5.92,5.82-10.11,10.58-14.39,7.14-6.42,15.66-8.13,24-10.49s16.83-1.18,25.14,1.58C411.12,49,422.12,58.41,431.48,70a72.33,72.33,0,0,1,15.59,34.09c1.95,12.44.73,25.32-5,36.83-2.49,5-5.17,9.77-6.59,15.54A64.72,64.72,0,0,1,464,165.15c15.19,9,25.67,22.09,27.59,39.87.92,8.48-1.51,17.49-5.84,25.38-1.57,2.87-3.71,5.43-5.07,8.47-.7,1.56-1.37,3.09-3.72,3.49-2.89.49-4.55,3.64-4.7,5.85-.13,1.91,3.32,1.6,5.31,2,22.13,4.88,37.9,17.55,46.12,38.79,4.28,11,2.75,22.19-1.57,33-.75,1.88-1.93.29-2.9.3-3.6-1.55-6.14-4.51-9.16-6.84-4.25-2.73-3.85-7.46-3.88-11.31-.14-14.57-20.3-32.69-35.87-33-7.1-.15-14,.09-20.65,2.31-9.14,3-17.85,11.72-16.92,21.62.86,9.23,3.67,18.08,10.31,25,11.72,12.16,25.86,17.12,42.65,13.39A35.41,35.41,0,0,0,496.2,329c2.27-1.37,4.51-2.9,7.38-2.63,5.05,3.82,8.82,8.91,13.18,13.42,1.83,1.88.66,3.68-1.11,5-3.94,3.06-7.75,6.27-11.54,9.52-5.6,4.8-9.81,10.82-14.26,16.62-5,8.77-3.54,15.06,4.4,21.1a31.15,31.15,0,0,0,16.91,6.36c11.37.9,22.37-.27,32.81-5.16A41.65,41.65,0,0,0,560.75,382c4.9-5.27,4.81-16.25-2-21.21-7.94-5.8-16.92-6.5-26-7.34-4.93-.47-10-.53-14.84,1.06-1.25.41-2.85.68-3.65-.63s.39-2.5,1.23-3.49C519.47,345.81,524.34,342.37,529.38,339.13Z"/><path class="cls-2" d="M540.29,590.82c3.51-.26,4.81-2.5,3.74-5.44s.13-3,2.32-3.13a125,125,0,0,1,28.72,1.83,302,302,0,0,1,32.44,7.1c9,2.64,18,5.29,26.48,9.47,4.58,2.25,9.46,3.67,13.9,6.45,10.76,6.75,18.08,15.91,23.27,27.49,10.68,23.85,12.9,49,12.41,74.55-.65,34-1.25,67.89-1.61,101.84,0,4-.59,7.91-.17,11.95s-2.68,6.76-5.67,8.84-5.92,4.35-9.5,5.31c-2.38.63-2.39,1.91-1.53,3.71,9.49,19.93,21.5,37.67,41.77,48.29,4.37,2.29,8.94,2.21,13.54,1.24,2.42-.5,4.5-.38,5.39,2.11s-.23,4.62-2.66,5.74c-18.21,8.32-37,12.2-56.93,7.3a136,136,0,0,1-27.55-10.27c-.73-.37-1.39-1-2.56-.43-.08,1.82-.16,3.79-.25,5.76-.26,5.32-3.61,8.23-9.11,7.89l-12.93-.83c-6.69-.42-8.07-1.81-7.62-8.69C607.34,881,608.36,863,607.86,845c-.19-6.72-2-9.24-8.69-10.26-4.66-.7-7.92-4.44-12.76-4.89-2.17-.2-3.12-3.42-2.87-5.83,1.36-13.3,0-26.59-.15-39.87-.4-35.31-1.09-70.61-1.65-105.91,0-1.63,0-3.26,0-6-2.78,2.29-4.78,3.83-6.66,5.5-12.38,11-26.87,18.11-42.36,23.53-30.2,10.57-61.42,12.59-92.93,10.22a286,286,0,0,1-57.62-9.92c-11.59-3.33-23.1-6.9-34.4-10.94-11-4-21.57-9.38-32.07-14.66-3.11-1.56-3.62-1.27-3.73,1.84-.78,20.3-2.17,40.56-4,60.78q-3.3,36.3-6.56,72.58c-.79,8.6-1.7,17.19-2.53,25.79a12.19,12.19,0,0,1-9.37,10.71c-9.81,2.39-9.69,2.4-10.58,12.76-1.15,13.25-1.47,26.57-3.73,39.7-1,5.92-3.49,7.27-9.47,6.13-4.38-.84-8.85-1.22-13.27-1.85-3.68-.52-7.12-1.46-9.35-4.87-1.72-2.61-2.71,0-3.7.78-13.7,10.18-29.07,14.16-45.94,12.35a57.68,57.68,0,0,1-16.73-4.71c-1.49-.64-4.06-.43-3.87-3.1.17-2.38,2-3.18,4.05-3.74,8.4-2.28,16-6.45,23.75-10.23a34.33,34.33,0,0,0,15-14.13c4.4-7.65,8.65-15.36,12.4-23.35,1.12-2.38,1.9-3.76-1.76-4.92a83.6,83.6,0,0,0-19.81-4.08c-3.94-.26-5.42-1.69-5-5.53,4.58-42,5.59-84.33,13.77-125.89,4.89-24.86,11.46-49.24,22.52-72.22a58.75,58.75,0,0,1,28.47-28.2,71.21,71.21,0,0,1,20.82-6.32c13.55-1.81,27-4.78,40.57-5.89,9.57-.79,19.06-2.45,28.68-2.7,5-.13,9.6-2.78,14.69-2.52,1.56.76,1.91,2.13,1.89,3.69-.85,3.26.81,4,3.67,3.85,1.9-.12,3.35-1.17,4.93-2,18.15-5.15,35.38-2.65,52.24,5.48A73.19,73.19,0,0,0,462,613.59c11.55.56,22-2.76,31.73-8.73,7.79-4.8,15.5-9.79,24.53-12A86.64,86.64,0,0,1,540.29,590.82Z"/><path class="cls-3" d="M372,599l-1-3.85c.07-8.56-2.91-16.59-4.28-24.89-2.72-16.49-5.79-32.92-8.52-49.4-1.06-6.39-1.36-6.32-7.29-3.41-10.79,5.29-21.33,10.83-33.6,13.15-9.13,1.72-18.11,5-27.42,6.7-13.1,2.39-26.35,4.73-39.55,4.29-11.82-.39-24.31-.27-34.69-8.23a44.76,44.76,0,0,1-12.13-15C194,500.45,187,481.46,181.43,462c-1.87-6.49-1.47-6.61,5.41-8.75,8.66-2.7,8.59-2.64,2.79-9.35-8.45-9.79-17.33-19.22-24.95-29.73-2.53-3.49-4.14-7.43-6.52-11-2.81-4.37-4.54-9-4-14.35,3.61-5.93,6.09-6.54,12.19-3,2.3,1.56,4.17,3.65,6.87,5.5,1.23-2.62.43-5.21.65-7.67a8.41,8.41,0,0,1,3-6.59c3.44-3.09,5.84-2.59,7.92,1.61,1.34,2.7,3.42,4.88,5.26,7.22,1.64,2.61,3.27,3.39,5.22.21,1.52-2.48,4-4.2,4.8-7.32.65-2.48,2.61-4.39,4.54-.66,1.3,2.5,3,3.44,5.84,3.27,4.61-.27,5.46,3.54,5.52,6.79.09,4.82,2.65,7.62,6.23,10.06a3.66,3.66,0,0,0,3.12.86c6.61-1.31,7.46-.53,7.94,6.48,0,.56.58,1.09.89,1.63a31,31,0,0,1-1,15.1c-1.36,4.39-2.18,8.91-3.88,13.28,2.73.77,4.31-.82,6.11-1.43,3.1-1,5.33-.22,6.39,2.83,2.95,8.47,5.62,17,8.2,25.62.9,3-.68,5.46-2.35,7.83-2.55,3.63-5.61,6.94-7.82,11.27,2.31-.32,3.23-1.83,4.22-3,12.73-15.32,29.09-26.1,45.68-36.58,1.62-1,3.28-2.5,5.47-1.18a73.08,73.08,0,0,0,12.83,20.93c13.7,15.45,39.86,24.58,61.55,12.91,5.61-3,10.94-6.54,12.73-13.23,1-3.69,3.3-3.71,5.52-1.82,2.9,2.47,6.59,3.56,9.39,6.27,2,1.92,4.28,4.19,7.73,3.6a4.26,4.26,0,0,1,2.31.81c16,8.66,33.25,7.88,50.67,7.13a83.58,83.58,0,0,0,35-9.5c6-3.06,11.69-6.86,15.18-13,1.13-1.07,1.69-3.29,4-1.95h0c2.86,4.08,6.41,7.56,9.8,11.16.21,2,2.43,1.77,3.39,3a10.07,10.07,0,0,0,3.78,1.68l.26.2c3.8,3.77,9.28,3.55,13.7,5.81l.29.14c4.9.94,10.48,1.37,16.18,2.61-4.56,2.14-9.56,5.86-13.87,6.52-5.84.91-11.55,2.61-17.3,4-1.92.47-1.84,1.75-1.51,3.49,2.54,13.62,5,27.27,7.39,40.93,3.13,17.69,7.89,34.91,9.82,52.81.94,3.18.37,5-3.74,5.44-2.08.54-4.17,1.6-6.23,1.53-14.47-.49-26.65,5.41-38.39,13a58.94,58.94,0,0,1-28.36,9.75c-9.2.59-17.88-1.94-26.41-4.82-11.67-3.95-22.61-10.11-35.29-11-8.37-.57-16.39,1.06-24.42,2.9-1.61.18-3,1.26-4.63,1.26C373.59,603.46,371.47,602.55,372,599Z"/><path class="cls-3" d="M632.93,436.93l.3-1.08c1.15-4,0-7.83-1-11.66-3.33-4.2-4.62-9.52-8.08-13.77-3.26-4-6.54-7.39-11.21-9.86-5.75-3-11.47-5.83-17.83-7.22a58.3,58.3,0,0,0-14.66-1.63c6.2-9.34,6-19.85,2.93-29.73-3.46-4.21-6.61-6.93-9.15-10.72,6.23.27,14.49,3.87,19.55,5.91,19.52,7.84,37,18.79,49.81,35.88,7.69,10.25,8.5,21.76,3.69,33.38-2.27,5.49-8.33,7.9-12.42,12C629.77,442.87,632.77,438,632.93,436.93Z"/><path class="cls-4" d="M168.89,190.82c-8-3.55-11.9-8.82-15.22-15.27-4.2-8.2-8.49-16.3-11.6-25-7.39-20.65-8-41.94-6.26-63.49,1.7-20.51,7.58-40.16,12.2-60.08.77-3.31,1.48-6.63,2.46-11.08,4.44,6.32,8.36,11.58,11.95,17.06,4.06,6.22,8.05,12.51,11.68,19,9.17,16.33,17.24,33.17,22.6,51.22,9.1,30.66,7.3,60.43-6.85,89.28-.87,1.8-1.6,3.67-2.57,5.41-.67,1.22-.76,3.34-2.66,3.16s-3.08-1.57-3.52-3.66c-1.69-7.94-3.42-15.88-5.34-23.77-5.23-21.61-2.84-43.37-1.55-65.12.69-11.62,2-23.28-3.05-34.44a46.21,46.21,0,0,0-7.56-11.64c-1.56-1.77-3.53-2.2-5.38-1.14-2.22,1.28-1.06,3.33-.14,4.82,7.84,12.75,7,26.59,5.76,40.7-1.66,18.74-3.44,37.53-.84,56.34A217.21,217.21,0,0,0,168.89,190.82Z"/><path class="cls-4" d="M350,196.23c-12.47-.33-23.44-5-33.46-12.12-15.71-11.19-26.72-25.62-30.68-44.9-2.21-10.77,1.14-19.88,10-23.28a31.12,31.12,0,0,1,17.5-1.9c16.74,3.31,30.7,10.76,41.64,24.14,5.47,6.68,11.39,12.77,14.58,21.1,3.48,9.09,5.11,18.21,1.9,27.46-1.72,5-7,6.61-11.58,8.28A21.86,21.86,0,0,1,350,196.23Z"/><path class="cls-4" d="M353.55,85.56c.17-8.93,2.09-18,9.06-24.17,5.14-4.57,12.63-4.22,19.16-2.21A66.87,66.87,0,0,1,420.82,90.3c5.37,9.2,9.28,19,9.41,29.9,0,2.75,1.39,5.24.41,8.27-5.68,17.62-23.56,18.73-35.86,14.2-9.67-3.55-16.88-10-23.31-18-5.21-6.47-11.24-12-14-20.31C355.38,98.3,354.54,92.14,353.55,85.56Z"/><path class="cls-4" d="M249.69,186.11c22.62,1.62,43.45,16.41,49,39.27,1.75,7.12,2.32,14.47-2,21a22.35,22.35,0,0,1-10.09,8.22,41,41,0,0,1-30,.74c-16.21-5.57-27.76-16-33.67-32.1-3.23-8.8-3.93-17.72,1.49-26.29C228.52,190.55,240.31,185.5,249.69,186.11Z"/><path class="cls-4" d="M510.86,315c-2.53,1-3.95-3.16-6.84-1.29-3.57,2.33-4.63,5.86-2.54,9.81.68,1.31,2.33,2,2.46,3.62-3.09-.42-5.29,1.61-7.47,3.13-6.29,4.38-13.37,5.67-20.75,5.75-18.66.2-37.53-12.93-42.39-30.39-2.17-7.82-3.2-15.66,1.05-22.59a25,25,0,0,1,13.31-10.49c12.12-3.87,24.44-5.2,36.31,1.12,14.25,7.58,23.71,18.56,23.86,35.56A7,7,0,0,0,510.86,315Z"/><path class="cls-4" d="M428.07,374.88c.24,8.59-6.05,16.12-13.7,19-23.26,8.67-50.14-5.74-59.42-25.52a31.49,31.49,0,0,1-2.35-20.79c1.15-4.94,4.9-8.26,8.51-10,25.62-12.56,56.23,1,65.58,26.23C428.09,367.53,427.77,371.58,428.07,374.88Z"/><path class="cls-4" d="M333.84,258.21c-1-10.52,7.17-18.92,17.14-21.19,17.42-4,31.69.81,44.21,12.58,7.54,7.09,11.93,15.69,12.23,26.31.12,4.28,1.2,8.18-1.86,12.27-5.9,7.9-14.14,10.9-23.16,11.52-19,1.29-37.79-10.51-45.61-27.95a33.83,33.83,0,0,1-2-6.66C334.33,262.83,334.15,260.5,333.84,258.21Z"/><path class="cls-4" d="M238.92,304.76c-.76,2.44,1.67,5.68-.85,7.84-4.77,4.09-10,7.68-16.56,8-16.28.9-29-6.57-40.2-17.46a49.76,49.76,0,0,1-14.62-27.9c-2.18-13.19,2.11-19.9,15.22-22.33s24.16,3,34.64,10.35,16.42,17.59,21,29C239.18,296.22,239.29,300.36,238.92,304.76Z"/><path class="cls-4" d="M166.37,386.9c-4.68-3.27-8.69-2.29-12.17,2,.67-2,.34-3.25-2.11-3.72-15.33-3-24.88-13.06-29.73-27s.57-26,15-33.09c23.28-11.44,51.22,7.22,53.42,30.51.33,3.43,4.29,5.55,2.71,9.7-1.2,3.13-2,6.56-4.57,8.68-4,3.3-3.25,6.15-.18,9.37a9.78,9.78,0,0,1,1.31,2.58c-2.66-1.1-3.78-3.64-5.21-5.82-1.12-1.71-1.21-4.58-4.25-3.88-2.57.6-4.18,2.62-5.26,4.92a9.42,9.42,0,0,0-.31,2.95C172.49,386,169.37,386.25,166.37,386.9Z"/><path class="cls-5" d="M614.67,426.05c-.45,14.44-10.26,20.58-20.52,26.09a62.81,62.81,0,0,1-32.64,7.52c-9.22-.45-19.52.9-27.54-6.67-5.71-5.4-7.44-12.24-3.43-19.48,4.49-8.11,12-13.05,20.14-16.39,11.68-4.75,23.8-8.45,36.73-6.71,8.15,1.1,16.52,1.54,23.19,7.53C613.38,420.43,615.73,422.76,614.67,426.05Z"/><path class="cls-4" d="M429,176.8c21.24-1.67,42.93,14.74,44.47,35.29.86,11.33-4.2,18.41-16.11,21.39-20.21,5.05-37.72-3.86-49-19.3-6-8.24-6.41-21.28-.52-28.85,3.79-4.88,9.75-6.84,15.69-8.16A35.28,35.28,0,0,1,429,176.8Z"/><path class="cls-4" d="M268.66,314.23c-.05-7.44,1.83-14.46,9.14-17.31,8.38-3.27,17.19-3.86,26,0,16.13,7.07,26.69,23.64,25.45,40.88-.45,6.35-5.73,15.6-10,16.07-5.38.6-10.76,1.76-16.34.72-17.75-3.29-32.74-20.19-34-36.39C268.82,316.89,268.75,315.56,268.66,314.23Z"/><path class="cls-4" d="M475.09,456.17c-.08,1.33-1.06,2.67-2,2.53-5.06-.79-9.24,2.43-14.15,2.73s-9.55,1.93-14.63,1.62c-6-.37-11.63-2.4-17.49-2.86-6.09-.48-10.82-3.91-16.22-5.88-10.52-3.83-17.62-19.66-11.73-28.17,3.49-5.07,8-9.34,14.76-10.93,7.92-1.86,15.2-6.16,23.51-6.81,9.73-.76,19.22-.32,28.75,2.82,6.69,2.21,13.38,4.14,19.45,7.76,1.78,1.07,3.77,2.26,3.86,4.82-1,.79-1.95.24-2.7-.34-6.87-5.3-14.95-7.66-23.17-9.72-4.62-1.15-5.24-.71-4.44,4.19.68,4.11.41,8.3,1.31,12.38a6.12,6.12,0,0,1-.51,4.37,18.18,18.18,0,0,0-5.63,5.29c-6,8.4-11,9.9-21.06,6.87-1.23-.37-2.42-1.11-3.81-.63,4.11,5.71,14.83,8.09,22.29,5.05,1.88-.77,3.56-2.72,5.94-1.29.92,1.38.48,2.83.28,4.29-.61,4.28.2,5.08,4.39,3.77A48.14,48.14,0,0,1,475.09,456.17Z"/><path class="cls-4" d="M231.38,346.75c15.73.41,29.22,6.6,41.41,16.12a80.53,80.53,0,0,1,17.92,19.8c5.1,7.85,2.31,14.84-6.72,16.7-11.9,2.44-22.56-1.42-33.16-6-9.93-4.3-17.93-11.21-25.53-18.64-4-4-6.34-9.23-8.67-14.22-3-6.35,1.48-12.27,9.28-13.34C227.72,346.92,229.55,346.88,231.38,346.75Z"/><path class="cls-4" d="M205.77,234.24c-12.46.24-20.7-7.7-29.8-13.51-24.5-15.64-49.26-30.93-72.1-49C81.33,153.9,58.49,136.5,33.93,121.49c-1.73-1.06-3.07-2-1-4.13,1.36-1.39,2.18-3.29,3.32-4.9,3.82-5.39,4-5.6,9.35-1.18,12.42,10.28,24.59,20.85,36.95,31.2,18.09,15.14,36,30.93,56.7,42.1,21.14,11.39,39.23,27.19,60.24,38.52C204.31,225.68,204.43,230.08,205.77,234.24Z"/><path class="cls-5" d="M364.28,410.92c5.93,6.35,9,14.06,10.38,22.49,2.15,13.53-9,25.52-23.33,26.64-16.23,1.28-34.71-12-38.39-27.93-1-2.88.74-4.09,3-5a19.19,19.19,0,0,1,5.47-1.74c2.28-.05,3.11,2.1,4.7,3.11,2.46,1.55,3.62.72,3.51-2.11-1.82-4.36.62-5.56,4.3-5.85a6.66,6.66,0,0,1,2.31.9c5.4,3.11,6,2.79,6.22-3.37C348.8,412.81,356,410.24,364.28,410.92Z"/><path class="cls-4" d="M475.09,456.17c-5,2.58-10.68,2.27-16,3.72-3.42.94-4.39-.82-3.16-4.15a33.27,33.27,0,0,0,1.08-5.79c-.42-2.18,1.34-3.18,2.46-4.5,3.7-4.34,3.69-5-.25-9.2a1.16,1.16,0,0,1-.2-1.34c-.52-5.43-1-10.86-1.57-16.29-.24-2.44-1.41-5.32.56-7.09,1.81-1.63,3.94.8,5.91,1.1,7.08,1.1,13.45,4,19.68,7.19a46.51,46.51,0,0,1,5.58,4c2,3.42,5.2,6.12,5.33,10.58.22,7.56-3.53,12.89-9.45,16.75C482,453.15,479.2,456.07,475.09,456.17Z"/><path class="cls-4" d="M364.28,410.92a88,88,0,0,0-19.09,5.92c-1.16.49-2,1-2.23,2.28a2,2,0,0,1-2.65-.16c-3.34-3-5.16-1.73-6.21,2-1.84,1.24-6.24.89-3.17,5.14-1.89,1.06-3-.38-4.16-1.4-2.28-2.05-3.63-1.28-4.62,1.22-3,2.19-8.13,1.14-9.21,6.17-2.94-8.7-4-17.26.91-25.74,1.37-2.37,3.44-4.15,5.64-4.37,3.06-.3,5.56-1.73,8.34-2.53C342.5,395.25,354.31,400.14,364.28,410.92Z"/><path class="cls-4" d="M441.06,346.49c10.06,5.62,19.85,8.91,30.45,9.8,3.41.29,1,2.26.24,3.27-6.23,8.4-8.19,17.64-5.65,27.81.17.64.18,1.33.41,1.95,2.28,6.07,2.29,6.08-4.53,5.22-6.07-.76-12.13-1.62-18.2-2.31-2.16-.25-3-.74-1.94-3.09,6.22-13.4,7.13-26.82-.13-40.2A15.66,15.66,0,0,1,441.06,346.49Z"/><path class="cls-4" d="M311,254c6.73-14.46,10.52-27.5,2.09-47.64l7.26,3.67c-1.61,6.85,1,13.32,2.07,19.88.45,2.66,2.3.62,3.17-.3,4.44-4.68,8.94-9.29,13.62-13.73l9.32.8c-2.29,1.81-3.5,3.24-5,3.9C330.77,226,322,235.75,317.06,248.08a32.1,32.1,0,0,0-1.23,20.38c1.26,4.33.88,9.17,4,13.21-5.12-1.65-9.62-4.35-14.63-5.65-4.31-.64-8.57-1.54-13.3-2.2C301.36,270,304.89,260.74,311,254Z"/><path class="cls-4" d="M307.92,391.7a2.83,2.83,0,0,1-.55-3.11,8.94,8.94,0,0,0-.19-9.82c-1.36-2.32,1.12-4,3.36-4.32,7.8-1.17,15-3.56,20.66-9.39,1.16-1.19,2.4-1.17,2.67.94a7.88,7.88,0,0,1,.34,1.44c-.21,3.58,5.05,6.22,2.77,9.39-1.76,2.44-6.28,1.78-9.33,2-8.47.51-11.81,7.83-17.63,11.77C309.37,391,309,391.89,307.92,391.7Z"/><path class="cls-4" d="M339.23,215.83c-.29,3.2-3.15,4.49-4.93,6.56-2.69,3.13-6.17,5.51-8.38,9.08a3.06,3.06,0,0,1-3.88,1.35c-1.93-.65-.85-2.38-1.21-3.58-1.31-4.33-1-8.85-2.09-13.18-.56-2.15-2.16-4.94,1.63-6.08A100.69,100.69,0,0,0,339.23,215.83Z"/><path class="cls-4" d="M364.55,215.53c.1-2,1.31-3.13,2.39-3.22,7.38-.58,10.24-6.3,13.79-11.43.81-1.17,1-3.77,3.23-3.08,1.76.56.8,2.62,1,4,.69,5.18,1.15,10.4,3.65,15.16,1.46,2.78.27,3.89-2.49,2.91C379.14,217.41,372.06,215.54,364.55,215.53Z"/><path class="cls-4" d="M273.13,277.94c-4.8,5.41-10.43,8.45-14.17,13.47-.76,1-2.76,1.53-2.88-.55-.31-5.27-3-9.91-4.09-15.56C259,276.94,265.5,278.35,273.13,277.94Z"/><path class="cls-4" d="M440.76,255.35c-6.82,3.29-10.34,8.06-14.75,13.15-1.29-6.67-2.73-12.43-5.9-18.49C427,252.05,433,254.12,440.76,255.35Z"/><path class="cls-4" d="M69.82,248.42c4.88-1.26,9.16-1.91,13.44-1.14,2.73.5,5.93,1.49,5.49,5.17-.4,3.35-3.39,3.73-6.16,3.67C77.18,256,73.29,253.26,69.82,248.42Z"/><path class="cls-4" d="M401.51,315.64c3.34-3.69,7.52-5.22,9.52-9.25,1-2.08,2-.17,2.46,1.1,1.76,5.26,3.2,10.64,6.14,16.49C413.3,320.77,408.26,317,401.51,315.64Z"/><path class="cls-4" d="M22.4,322.37c-5-.11-8.95-2.4-12.23-5.9-2.39-2.55-1.83-4.27,1.55-5.05,4.47-1,11.77,3.11,13.34,7.53C26,321.62,25.76,323.28,22.4,322.37Z"/><path class="cls-4" d="M404.61,165.5l-13.79,13.34c0-4.86,0-9.46,0-14.05,0-1.21.54-1.84,1.84-1.59Z"/><path class="cls-4" d="M359.92,317.32c-2.6,3-6,3.79-8.05,6.46-1.37,1.77-3.07,1.24-3.78-.77-1.46-4.13-2.69-8.34-4.25-13.28Z"/><path class="cls-6" d="M502.61,415c5.91-2,9.46,1.12,13.44,1.41,1,.07.74.95.51,1.49a24.77,24.77,0,0,1-1.45,2.56c-3.24,5.46-3.27,5.48-6.88.57-.76-1-1.14-2.37-2-3.35S504.47,416.36,502.61,415Z"/><path class="cls-4" d="M248.58,320.43c2.19,2.1,1,4.93,2.13,7.08a1.11,1.11,0,0,1-1.18,1.62,21.46,21.46,0,0,1-5.06-1.67c-.78-.38-.57-1.52,0-2.19C245.75,323.64,247.15,322.09,248.58,320.43Z"/><path class="cls-4" d="M615.62,876.29c-.16-11-.18-22-1.93-32.83-.62-3.9.81-4.86,4.26-4.1a89.6,89.6,0,0,0,32.68,1.17c2.47-.36,2.79,1.18,3.4,2.66,5.85,14.28,14.45,26.77,24.72,38.2a60.41,60.41,0,0,0,17.62,13.5c1.19.61,3.54.58,3,2.56-.41,1.46-2.49,1.37-4,1.52a74.19,74.19,0,0,1-32.79-4c-4.89-1.74-9.93-3-14.58-5.8-4.26-2.57-8.06-5.24-10.35-9.53-1.87-3.5-4.63-2.62-7.33-2.29s-3,2.6-3.14,4.87c-.26,5-.61,10-.89,14.94-.12,2.08.41,4.87-3.14,3.86-2.79-.8-7.69,1.92-7.57-4.31C615.73,889.92,615.62,883.11,615.62,876.29Z"/><path class="cls-4" d="M187,904.43c3.78-1.91,6.46-3.57,9.36-4.67,13.72-5.19,23-14.75,28.41-28.25,2.48-6.15,5.29-12.16,7.78-18.31.85-2.09,1.77-3.19,4.29-3.15,9.91.19,19.76,1.72,29.69,1.06,2.3-.15,2.87.94,2.67,3q-2.07,20.31-4.05,40.61c-.22,2.22-1.4,2.7-3.35,2.62-7.9-.32-8.2-.89-8.51-8.87-.14-3.65,1-8.06-4.07-10.25-3.49-1.5-5.33-1.13-7.14,2.33C232.12,899.42,208.94,909.73,187,904.43Z"/><path class="cls-4" d="M171.38,402.09c3.65,6.44,8.75,11.81,13.18,17.67a3.52,3.52,0,0,0,5.24.9c2.18-1.53,3-3.38,1.72-5.94-2.72-5.29-5.34-10.62-8.13-15.87-.63-1.18-1.54-2.15-1.16-3.61,1.62-.62,3.29.36,4.91-.16,3.39,6.42,6.85,12.79,10.15,19.25,3.88,7.59,1.9-12.75,8.18-18,1.33.39,3.47,22,3.59,23.07.22,2,.87,3.87,2.89,4.13s3.06-1.78,4-3.26c2-3,3.77-6.22,5.76-9.26.48-.74,1.21-1.81,2.39-1.21a2.12,2.12,0,0,1,.93,2.62c-1.89,5.92-1.07,12.54-4.79,18a11.43,11.43,0,0,0-2,7.06c.3,4.3-2,5.68-5.53,6.84-11,3.58-10.73,3.5-18.53-5.53-9.73-11.26-19.33-22.62-27.92-34.79C167.72,402.59,169.63,402.56,171.38,402.09Z"/><path class="cls-1" d="M166.37,386.9c2.38-2.55,5.51-2.77,8.7-2.84v10.21C171.41,392.74,169.53,389,166.37,386.9Z"/><path class="cls-4" d="M171.38,402.09c-.74,3.1-3,2.15-5,1.93a43.1,43.1,0,0,1-5.68-11.62C166,394.81,168.1,399.1,171.38,402.09Z"/><path class="cls-4" d="M187.14,395.08c-1.57,2.26-3.18,3-4.91.16l-.14-.34c-.87-3-3.07-6,0-9C183.87,388.88,186.07,391.67,187.14,395.08Z"/><path class="cls-1" d="M344.61,157.06c-1-2.9.32-5.2,2.77-5.37,2.64-.17,3.63,2.3,3.6,5-.1,8.77-8.78,20.73-16.21,20.8-7,.06-12-3-16.78-7.39-.77-.72-1.34-1.67-.65-2.64.94-1.34,2.08-.45,3.08.05,3.25,1.65,6.33,3.63,10,4.47,6.14,1.41,8.43.57,11.26-5.17C343.16,163.73,345,160.64,344.61,157.06Z"/><path class="cls-1" d="M322.73,135.06c1.28.13,6.06,6.55,5.75,7.7-.38,1.38-1.44,2.53-2.86,2.15-3.39-.9-5-3.47-5.27-6.85A2.62,2.62,0,0,1,322.73,135.06Z"/><path class="cls-1" d="M313.7,151.74a6.91,6.91,0,0,1-4.26-6c-.1-2,1.4-4,3.12-3.83,2.55.22,3.55,2.88,4,5.13S314.87,150.28,313.7,151.74Z"/><path class="cls-1" d="M390,121.82c-4.66,0-12-5.41-13.44-9.74-.6-1.81-.21-2.9,1.8-3.14a5.83,5.83,0,0,1,4.92,1.51c8.34,7.24,11.78,6.54,17-3,1.29-2.34,3.6-4.42,6-3,2.74,1.61,2.18,4.95,1.05,7.67C405.15,117.43,397.08,121.89,390,121.82Z"/><path class="cls-1" d="M378.79,87.19c3.7-.35,5.24,1.47,5.26,4.61,0,4.17-3.42,3.93-6.06,4.15-3.26.27-4.32-2.3-4.39-4.86C373.5,87.47,376.14,86.93,378.79,87.19Z"/><path class="cls-1" d="M398.25,88.41c.54,4.15-1.35,5.59-3.6,5.49-3-.12-2.38-3-2.62-5-.31-2.71,1.22-4.49,3.63-4.28C398.36,84.84,398.09,87.65,398.25,88.41Z"/><path class="cls-1" d="M252.43,241.26a18.78,18.78,0,0,1-10.76-3.61c-1-.67-2.61-1.59-1.85-3.09s2.43-1.53,4-1.34a1.4,1.4,0,0,1,.46.19c10.37,5.23,18.28-.69,20.06-13.18.19-1.31.36-2.63.6-3.92.48-2.59,2.33-4.4,4.63-4.37,2.1,0,3,2.41,3.23,4.47a19.76,19.76,0,0,1-6,17.13C262.82,237.48,258.56,241.27,252.43,241.26Z"/><path class="cls-1" d="M256.74,209.69c-.38,1.9-1.83,2-3.07,1.86-3.22-.47-4.06-3-4.34-5.72-.18-1.88,1-2.87,2.75-2.47C255.45,204.11,255.24,207.58,256.74,209.69Z"/><path class="cls-1" d="M240.77,214.44c0-2.26.52-4.1,2.59-3.93a3.79,3.79,0,0,1,3.53,4.12,3.41,3.41,0,0,1-3.5,3.5C241,218.05,241,215.82,240.77,214.44Z"/><path class="cls-1" d="M464.16,324.85c-4.83-.33-8.86-1.94-11.71-5.87-1.05-1.46-1.53-3.24-.32-4.61,1.38-1.55,3.32-1.42,4.92-.08,6,5,9.76,5,15.95-3.22,2.24-3,5.31-3.44,7.56-1.93,2.7,1.81,1.78,4.86-.23,7.43C476.15,321.9,470.65,324.39,464.16,324.85Z"/><path class="cls-1" d="M451.56,297.41c.22-1.85.22-4.4,3.51-4.53s3.61,2.35,3.81,4.73c.24,2.93-1.18,4.23-4.15,4.23S451.46,300.14,451.56,297.41Z"/><path class="cls-1" d="M471.71,293.56c.19,2.72-.15,4.57-3,4.6-3.07,0-3-2.17-2.76-4.16.27-2.33-.34-5.9,3-5.86C472.61,288.18,471.13,291.91,471.71,293.56Z"/><path class="cls-1" d="M387.36,379.88h-.5c-3.08-.24-7.64.25-7.63-3.54,0-2.82,4.49-2,7.15-2,6.29,0,9.25-2.36,10.68-8.8.74-3.3,1.46-6.44,4.86-8.21s4.87-.93,5.22,2.87C408.07,370.52,398.65,379.9,387.36,379.88Z"/><path class="cls-1" d="M372.81,357.28c1.66,1.63,5.16,1.48,5.26,5.26.07,2.9-1.74,4-4,3.9-3.84-.16-4.48-3.46-4.92-6.36C368.8,357.91,370.71,357.51,372.81,357.28Z"/><path class="cls-1" d="M388.06,348.6c3.32.4,3.44,3.43,4,5.89.38,1.73-1.19,2.34-2.59,2.1-3.05-.53-4.42-2.69-4.62-5.62C384.66,348.83,386.24,348.68,388.06,348.6Z"/><path class="cls-1" d="M362.05,286.16c-4.14.67-7.91-2.18-11.36-5.72-.92-1-2.16-2-1.1-3.39s2.65-1,4.08-.35a6.18,6.18,0,0,1,.82.55c6.79,4.8,13.49,4.54,20.07-.42,1.72-1.29,3.3-2.79,5.1-3.94,1.23-.78,2.6-2.66,4.24-.67a3.64,3.64,0,0,1-.24,5.34A27.36,27.36,0,0,1,362.05,286.16Z"/><path class="cls-1" d="M354.66,263.11c-.48-3.67,1.08-5.67,3.27-5.51,3.44.25,2.83,4,3.47,6.24.58,2-1.6,3.29-3.45,3.27C354.76,267.08,355,264.2,354.66,263.11Z"/><path class="cls-1" d="M371.41,262.09c.19,1.9-.25,3.71-2,3.61-3-.16-3-2.93-3.26-5.17-.18-1.94.51-4.28,2.58-3.91C371.57,257.12,370.63,260.36,371.41,262.09Z"/><path class="cls-1" d="M201.65,298.25c-2.78-.69-6.1-1.18-8.56-3.73-.79-.82-1.85-1.61-1.11-3a2.82,2.82,0,0,1,3-1.37,8,8,0,0,1,1.46.26c10.5,2.9,10.66,2.75,15.61-6.82,1.4-2.7,2.26-7.78,6.39-5.88,3.32,1.52.59,5.68-.23,8.45C216.33,292.44,208.29,298.22,201.65,298.25Z"/><path class="cls-1" d="M198.76,266c2.76,1.7,3.21,5.22,4.83,7.86.75,1.21-1.3,3-2.62,2.8-3.67-.55-3.94-3.82-4.41-6.72C196.29,268.27,196.11,266.55,198.76,266Z"/><path class="cls-1" d="M189.55,277.05c0,2.6-1.31,4.27-3.06,4.32-3.4.1-3.86-3-4.46-5.5-.41-1.72.62-3.41,2.13-3.18C186.74,273.08,188.37,275.2,189.55,277.05Z"/><path class="cls-1" d="M167.88,353.92a27.46,27.46,0,0,1-3.5,12.22,9.56,9.56,0,0,1-6.19,4.66c-1.12.23-2.37.51-3.18-.68-.65-1-.19-1.9.24-2.82,3-6.57,5.23-13.3,4.1-20.7-.22-1.39-.12-2.74,1.67-3.05s3.68-.28,4.84,1.62C167.38,347.67,167.81,350.44,167.88,353.92Z"/><path class="cls-1" d="M149.23,349.9a7.8,7.8,0,0,1-2.28-.53c-1.88-.92-4.52-1.95-3.67-4.46.95-2.81,3.4-2.59,5.7-1.06a14.83,14.83,0,0,0,2.29.93c1.41.6,3.65.58,3,3C153.7,350,151.74,350.07,149.23,349.9Z"/><path class="cls-1" d="M147,356c-1,2.3-2.06,4.16-4.31,4s-4.83-.95-5.15-3.69a2.54,2.54,0,0,1,3.16-2.81C142.8,354.21,145.68,353.6,147,356Z"/><path class="cls-1" d="M550.17,440.77c3.94-.55,6,1.35,8.31,2.45,8.34,4.07,16.33,2.61,22-4.53,1.42-1.78,3.13-2.42,4.62-1.33,1.92,1.42,1.11,3.66-.09,5.34-4,5.6-10.25,6.26-16.35,6.89C561.27,450.35,555.83,446.51,550.17,440.77Z"/><path class="cls-1" d="M560.67,429.85c-.33-2,.54-3.63,2.45-3.52,3.22.19,3.09,3.45,3.66,5.55.46,1.7-1.43,3.28-3,3.23C560.36,435,561.17,431.93,560.67,429.85Z"/><path class="cls-1" d="M573.23,430.25c-.09-2.59,0-5.19,2.51-5.11s1.94,3.06,2.38,4.85c.5,2.1-.48,3.92-2.65,3.95C572.7,434,573.77,431.27,573.23,430.25Z"/><path class="cls-1" d="M441.76,224.91c-3.65.27-7.41-2.13-11-5-1-.82-2.5-1.8-1.71-3.21.92-1.63,2.75-.9,4-.31a52.25,52.25,0,0,0,7,2.55c3.91,1.19,6.36-.28,8.27-3.55a21.84,21.84,0,0,0,2.76-10c.1-1.82-.88-4.5,2.28-4.55,2.92,0,6.07-.16,7.12,3.85,1.14,4.32-.59,7.93-2.6,11.34C454.62,221.63,450,225.36,441.76,224.91Z"/><path class="cls-1" d="M422,199c1.65.31,3.83.85,4.39,3.21.35,1.48-.91,2.49-2.41,2.34-2.14-.21-4.35-.78-4.84-3.29C418.85,199.67,420,198.9,422,199Z"/><path class="cls-1" d="M436.15,188.53a7.2,7.2,0,0,1,4,4.56c.3,1.13-.73,1.81-1.83,1.82-2.84,0-3.48-2.14-4-4.27C434.09,189.5,434.86,188.82,436.15,188.53Z"/><path class="cls-1" d="M291.67,332.09c6.47.29,9.38-1.64,11.49-7.83.68-2,.91-4.19,1.55-6.22,1-3.18,3.71-5.43,6.56-5,3,.41,3.15,3.88,2.7,6.6-1.38,8.46-9.51,17.25-19.61,18.49-1.05.12-2.2-.52-3.3-.83-2.16-.63-5.55-.8-5.21-3.48C286.23,330.71,289.46,331.94,291.67,332.09Z"/><path class="cls-1" d="M290.91,310.27a7.94,7.94,0,0,1,5.95,4.83c.67,1.76-1.49,2.47-2.94,2.44a5.65,5.65,0,0,1-5.62-4.76C287.88,311,289.82,311,290.91,310.27Z"/><path class="cls-1" d="M289.37,320.61c-.9,1.92-1.93,3.51-3.71,3.18-2.73-.5-3.88-2.78-4.19-5.37-.19-1.6,1.25-2,2.29-1.85C286.3,317,287.84,318.87,289.37,320.61Z"/><path class="cls-7" d="M459.06,434.91c6.07,3.56,6.39,6.15,1.38,11.41-1.14,1.2-2.26,2.42-3.39,3.63-10.45,7-21.08,3.8-28.21-1.17-1.33-.93-3.69-2.12-2.32-4.24,1.06-1.64,2.88-.47,4.47.16,11.9,4.81,17.11,3.07,23.27-7.85C455.46,434.71,456.83,434,459.06,434.91Z"/><path class="cls-1" d="M430.85,436.75c-3.78-.52-6.76-4.13-6.39-7.67.25-2.45,1.79-2.94,3.88-2.39,3.84,1,5.66,3.9,6.08,7.45C434.66,436.21,433,437.39,430.85,436.75Z"/><path class="cls-1" d="M444.26,431.73c.05,1.94-1,2.19-2.29,2.09-3.13-.25-6.59-4.22-6.41-7.26.08-1.43.67-2.14,2.14-2.06C439.86,424.61,444.3,429.7,444.26,431.73Z"/><path class="cls-1" d="M255.91,387c-1.54-.4-3.63-.88-5.68-1.48-1.09-.32-2.44-.7-2.09-2.24.29-1.26,1.49-1.74,2.68-1.87,3.46-.37,7.55,1.2,9.82-2.89,1.76-3.17,1.66-6.55.84-10.08-.42-1.81,1.42-2.92,2.92-3.56,1.88-.8,3.16.45,4.1,1.91,2,3.17,1,6.38,0,9.56C266.69,381.7,260.88,386.84,255.91,387Z"/><path class="cls-1" d="M240.3,367.69c1.21,1.79,4.5,1.86,4.5,5,0,1.84-1.35,3.56-3,3.36-3-.37-4-3.11-4.4-5.77C237.23,368.73,238.53,368,240.3,367.69Z"/><path class="cls-1" d="M251,366c-.76,1.77-2,2.7-3.84,2.52-2.22-.21-4.47-.76-4.55-3.45,0-1.51,1.44-3.12,2.88-2.55C247.46,363.32,250.08,363.52,251,366Z"/><path class="cls-1" d="M358.73,431.79c0,7.49-8.29,13.81-17.41,13a46.37,46.37,0,0,1-8.71-1.94c-1.54-.44-3.66-1.26-3.12-3.17.43-1.56,2.42-1.92,4.23-1.63a54.3,54.3,0,0,0,7.39.85c8.63.17,11.09-2.85,8.12-11-1.33-3.66-.43-5.49,2.6-6.58s4.44,1.44,5.52,3.7A13.21,13.21,0,0,1,358.73,431.79Z"/><path class="cls-1" d="M334.1,421c.07-1.61-1.83-3.32.35-4.83s3.61-.19,5.22,1c1,.75,2.19,1.32,3.3,2,1.45,1.79,1.63,3.37-.31,5.08s-3.6,1-5.26-.31C336.26,423,335.2,422,334.1,421Z"/><path class="cls-1" d="M322.15,426c-.37-1.34-1.44-2.71.18-4s2.78,0,4,.63c1.71.92,2.58,3,4.59,3.52,1.28,2,.49,3.43-1.21,4.55s-3.07,0-4.24-1.18S323.26,427.14,322.15,426Z"/><path class="cls-8" d="M510.86,315a29.73,29.73,0,0,1,8.33,7.35c.67,2.43,3.19,3.06,4.65,4.77,3,3.53,5.95,7,5.54,12-2,4.71-7.43,5.83-10.4,9.62-1.3,1.66-3.17,2.89-4.43,5.37,11-3.27,21.58-2.06,32.24-.32,6.85,1.12,12.31,4.82,17,9.43,3.62,3.57,2.58,14.7-1.43,19.19-4.9,5.47-10.58,10-18,11.68-6,3.1-11.69,1.47-17.2-1.15a10.56,10.56,0,0,0-6.12-1.25c-7.57.83-11-2.81-10-10.28a17.91,17.91,0,0,1,2.45-7.65,19.89,19.89,0,0,0-6.38,3.27,20.93,20.93,0,0,1-12.34,3.31c-6.27-.14-8-2.55-6.27-8.48a5.34,5.34,0,0,1,.61-1.87,101.76,101.76,0,0,1,25.75-25.9c2.4-1.64,2.82-2.45.38-4.56a56.76,56.76,0,0,1-11.29-12.41c-5.43-4.07-6.17-8.65-2.49-12.75S507.81,313.54,510.86,315Z"/></svg>