<svg id="Capa_1" data-name="Capa 1" xmlns="http://www.w3.org/2000/svg" viewBox="0 0 300 300"><defs><style>.cls-1{fill:#020202;}.cls-2{fill:#131414;}.cls-3{fill:#0c0d0d;}.cls-4{fill:#171718;}.cls-5{fill:#232323;}.cls-6{fill:#2b2b2b;}.cls-7{fill:#dc6544;}.cls-8{fill:#fff;}.cls-9{fill:#f4f5f5;}</style></defs><path class="cls-1" d="M123,212c5.83,2.25,11.56,2.17,17.15,1.13a8.92,8.92,0,0,1,6.18.8c1.32.7,3,1.18,3.26,3.05s-1.55,2-2.49,2.91c-8.23,8-19.83,7.54-29.69,11.41a269.15,269.15,0,0,0-25.32,11c-1.13.59-3.79.3-2.7,3.43,2.69,1.17,5.3.74,7.92.62l40.77-9.94c2.83-.69,5.71-1.25,8.51-2,3.18-.9,6,.52,7.12,3.89,1.27,3.76-1.5,4.79-4.13,5.59-17,5.23-34,10.45-50.95,15.91-2.35.76-6.92.85-5.76,4.53,1,3.28,5,1.46,7.58,1.09,5.17-.75,9.74-3.19,14.58-4.85,12.44-4.28,24.94-8.4,37.44-12.51a16.87,16.87,0,0,1,4.11-.43,5.41,5.41,0,0,1,5.32,3.7c1.07,2.76-1.27,3.68-2.85,4.44-8,3.87-16.08,7.55-24.13,11.3-9.62,3-18.38,7.83-27.85,11.8,2.39,3.06,3.71,0,5.35,1,17.64-3.93,34.3-10.52,51.06-16.88,8.24-3.13,16.65-6.44,26.35-3,3.15,1.1,6.23,2.18,8.46,5.4,2.93,2.46,4.46,6.14,6.67,9.23.69,1,1.26,2.19.33,3.18s-1.95.57-2.92-.12a39.15,39.15,0,0,1-6-5.71c-3.65-4-7.37-4.16-11.32-2.92-14.45,4.51-29,8.89-43.3,13.69-7.24,2.42-14.51,4.78-21.89,6.85a36.54,36.54,0,0,1-15.49.63c-7.68-2.57-9.31-4.64-8.6-12.58.28-3-1-3-2.72-3.86-4.46-2.22-8.79-4.79-7.8-11.43,1.11-3.76,2.56-7.09-2.42-10.49-2.87-2-2.24-8.38.65-11.6,3.87-4.31,8.31-8.36,13.51-10.09,7.78-2.59,14.14-8.5,22.66-9.18a5.51,5.51,0,0,0,1.88-.79c.89-.45,2.08-.64,2.05-2.1s-1.16-2-2.16-2.54c-4-2-7-5.48-9.84-9.21-1.53-2-2.86-4.68-.63-6.19s3.25,1,4.29,3.18C117,207,119.41,210.25,123,212Z"/><path class="cls-1" d="M135,203l-2.86-1c-1.06-1.46-2.81-3.22-1.84-4.78,1.21-2,3.19-.29,4.8.36a9.9,9.9,0,0,0,6.52.43c8.82-2.52,18-3.63,26.42-7.58.09-.59.18-1.16.22-1.74-.69-7.26-4.47-13.39-7.23-19.89-3.73-.88-7.1.67-10.59,1.51-1.56.37-3.45.73-3.86-1.58-.31-1.82.63-3,2.54-3.47,2.93-.68,5.74-1.68,8.91-1.11,2.92.53,4.5-.25,3.47-4-2.34-8.5-4.15-17.15-7-25.51-1.16-3.45-1.35-8.35-3.73-9.92s-6.87.51-10.46.78c-24.73,1.83-43-10-58-28A76.13,76.13,0,0,1,67.44,68.83c-.43-1.55-.78-3.46-1.86-4.44-5.95-5.47-3.85-11-.34-16.47,5-7.72,12.2-13.11,19.9-17.79,19.26-11.71,39.92-19.36,62.62-20.76,13.88-.86,23.82,5,30.06,17.49,10.7,21.35,14.3,43.25,5,66A52.79,52.79,0,0,1,160,119.15c-3.27,1.89-4.19,3.28-2.83,7,3.59,9.95,6.62,20.11,9.87,30.18a3.09,3.09,0,0,0,2,3.9c2.94,1.09,3.63,3.6,4.37,6.15a4.31,4.31,0,0,1,.39,2.57c-1.39,2.92.42,5.39,1.14,8a13.47,13.47,0,0,1,.39,1.64c.12.58.18,1.18.27,1.77.71,4.83,2.51,8.45,8.4,7.51a2.82,2.82,0,0,1-.68,3.51c-12.81,4.93-26.16,7.86-39.51,10.8C140.9,202.33,138,203.19,135,203Z"/><path class="cls-2" d="M154.51,134.58c4.48,8.38,5.71,17.65,8.52,26.49,1.12,3.51-.66,4.54-3.19,3.56-2.87-1.11-5.15.24-7.71.34-1.25,0-1.91,1-1.47,2.35s1.4.8,2.27.7c3.2-.36,6.21-2.12,9.71-.3q-.1,1.2-1.14.66c-14.9,2.47-27.72,9.86-39.89,18.13-9.73,6.6-8.78,14.55,1.38,25.53-4.35-.71-6.2-4.77-8.41-8.29-.83-1.32-1.49-3.72-3-2.86-1.75,1-.41,3.3.57,4.67,2.81,3.95,5.93,7.52,10.18,9.55,2.91,1.39,4.07,3.11.78,5.13-2.27,1.4-3.94,4-7.34,2.49a2.79,2.79,0,0,0-2.45.5c-8.29,6-18.75,7.81-26.59,14.69a13.69,13.69,0,0,0-4.68,9.48c-.16,1.69.12,3.62,1.46,4.3,6.42,3.28,3.73,6.92,1.77,10.61.62-4.19.18-7.58-3.6-11.05-3.26-3-2.06-8.11,1.79-12.11,8.93-9.27,20.34-13.84,31.93-18.08,2.4-.87,4.84-1.65,7.76-2.64-3.85-3.8-8.12-6.13-11.21-10.31-5.34-7.24-6.07-13.65-2-20.65A27.32,27.32,0,0,1,121.3,177c9.2-4.87,18.41-9.78,28.19-13.41,2.88-1.06,5.85-1.94,9.18-.95,3.72,1.1,3.43-.93,2.54-4.11C159,150.53,155.91,142.73,154.51,134.58Z"/><path class="cls-3" d="M218,147.06c5.44.49,7.63,5.12,10.46,8.63,9.74,12.12,13.52,29.23,4.76,44.17a83.54,83.54,0,0,0-4.34,8.07c-2.15,4.77-6.2,4.8-9.71,3-4.36-2.21-1.12-5.71.1-8.33,1.88-4.05,4.48-7.75,6.54-11.73,7.85-15.21,1.53-36.12-15.14-41.49-5.61-2.07-10.71.28-15.77,2-4.2,1.47-8.19,3.56-12.27,5.37-2,.91-4.06,1.67-6.25.14C186.07,146,205.63,141.48,218,147.06Z"/><path class="cls-4" d="M160.2,169l1.36-.76c4.59,6.51,8.41,13.3,7.93,21.67a5.64,5.64,0,0,1-3.18-4.23c-1.06-5.64-3.73-4.89-7.57-2.49-4.29,2.68-9.23,4.15-13.73,6.49-2.31,1.21-4.63,2.52-6.28,6.29a75.24,75.24,0,0,0,19-3.84c3.83-1.24,7.54-3,11.76-2.28,1.33,2.51-.3,3.25-2.26,3.73-8,2-16,3.89-24,5.84-4.19,1-8.32,1.69-11.56-2.48-1.28,2.35.43,3.57.49,5.07-4.35-2.32-4.06-5.68-1.75-9.13,3.93-5.88,9.43-10,15.82-12.88,3.87-1.77,7.83-3.38,11.53-5.44C159.65,173.46,162.5,172.17,160.2,169Z"/><path class="cls-4" d="M172.5,168.71c.2-.53.41-1.06.61-1.6q.18-1,1.08-.48c2.84.85,5.68,1.7,8.7,1.38,4.41.37,8.79-.29,13.19-.39,6.11.8,12.81.4,15.69,7.75-.32,4.11-3.05,6.22-6.43,7.88-7,3.42-13.73,7.3-21.82,7.33l.15-2.57c1.87-4.13,6-4.52,9.59-5.6,4.68-1.4,9.57-2.33,12.32-7a4.24,4.24,0,0,0-.36-1.32c-.74-1.11-1.94-1.22-3.09-1.43a15.65,15.65,0,0,1-1.55-.25c-8-1.15-16,.63-23.93-.15a5.65,5.65,0,0,1-2.46-.72A3.24,3.24,0,0,1,172.5,168.71Z"/><path class="cls-5" d="M174.19,166.63l-1.08.48a12.37,12.37,0,0,0-4.2-5.67c-1.63-1.25-3-2.74-1.83-5.07,1,1.81,1.5,3.13,4.32,1.28C180,152,189,146.88,199.13,144.3c6.55-1.68,13.19-2.19,18.9,2.76-16.9-3.37-27.21-1-40.28,9.42,2.63,1.19,4.73-.34,6.9-1.27,6.13-2.62,12-5.8,18.72-7,2.61-.45,5.19-1.23,7.33,1.14-13.21-.17-24.1,6-34.85,12.62C174.06,163.12,173.41,164.61,174.19,166.63Z"/><path class="cls-5" d="M183.52,190.58c9.07-1.63,17.11-5.83,25-10.28,1.53-.86,2.2-3.25,3.27-4.93,1.74,3.57-.92,5.14-3.17,6.81-8.71,6.47-19.2,8.7-29.25,11.67-12.76,3.77-25.44,8.18-38.85,9.39a2,2,0,0,1,2.51-1.43C156.61,198.41,170.38,195.62,183.52,190.58Z"/><path class="cls-5" d="M196.08,167.62c-4.36,1.32-8.74,1.95-13.19.39C187.26,167.06,191.64,166.46,196.08,167.62Z"/><path class="cls-6" d="M97.3,246.38c-2.56,1.26-5.16,1.8-7.92-.62C92,245.81,94.61,245.29,97.3,246.38Z"/><path class="cls-4" d="M143,201.81l-2.51,1.43A5.88,5.88,0,0,1,135,203C137.61,202.21,140.21,201.35,143,201.81Z"/><path class="cls-7" d="M176.84,46.42c4.6,14.58,5.28,29.32-.17,43.69-9.06,23.86-31.26,33.77-56.21,25.62C104.59,110.55,92.4,100.46,82.78,87c1.87-7.6,9.14-12.67,18.5-12.56,7.52.08,15,.61,22.55,1,7.92.4,14.18-1.64,17.94-9.58A47.91,47.91,0,0,1,151.52,52C157.92,45.74,169.25,43.22,176.84,46.42Z"/><path class="cls-8" d="M104.49,28c18.3-7.44,35.56-12.59,54.17-11,7.23.64,9.55,5,5.71,11.31a23.85,23.85,0,0,1-4.7,5.56c-22.39,19.36-48.44,29.52-78,30.2-4.35.1-10.32,1.2-12.4-4.2-2.26-5.86,2.32-10,6.11-13.61C84.15,37.85,94.92,32.47,104.49,28Z"/><path class="cls-8" d="M75.74,75.12a30,30,0,0,1-1.94-3,13.71,13.71,0,0,1-.61-3c10.25,2.9,20,1,29.8.12,15.08-1.88,28.36-8.73,41.79-15.15,2.2-1,2.14-1.18,6.27-1.41C147,59,143.15,65,139.49,71.07c-2,3.37-6.05,4.56-10.08,4.89-8.35.7-16.65-.2-25-.72-7.24-.45-13.79,1.24-18.82,6.57-3.27,3.46-4.83,2.52-6.58-1.18C78.14,78.72,78.13,76.17,75.74,75.12Z"/><path class="cls-8" d="M75.74,75.12a5.24,5.24,0,0,1,1.62.74c2.08,2.12,1.63,7,5,6.89,2.44-.12,4.56-3.67,7.11-5.18a25.83,25.83,0,0,1,15.14-3.19c8.72.54,17.42,1.83,26.17.33a12.69,12.69,0,0,0,9.8-7.12c2.53-4.8,5.76-9.24,9.29-14.77-9.77,4.34-18.61,8.61-27.72,12.2-6.1,2.4-12.36,4.82-19.18,4.27,14.47-4,29-8.06,42-16,1.34-1.45,3.56-1.35,4.92-2.79a53,53,0,0,0,18.43-15.1c2.66-3.56,3.81-2.49,5,.74,1.24,3.39,2.37,6.82,3.55,10.24a25.3,25.3,0,0,1-3,.16c-12.11-.84-22.14,3.5-27.13,14.54-6.39,14.14-16.72,18.15-31,15.76-3.39-.57-6.89-.44-10.32-.81C95.55,75,88,78.58,82.77,87A39,39,0,0,1,75.74,75.12Z"/><path class="cls-9" d="M174.65,171l1.21.42c8.68,1.2,17.42-1.33,26.09.46l-.08,0a7.17,7.17,0,0,1,4.92,1.79l0,0c-.2,6.65-6,7.72-10.32,8.89a87.8,87.8,0,0,0-13.59,5.08c-3.41,1.58-5.79,1.79-6.58-2.71-.38-2.16-2.32-3.86-2-6.27l.11-.47-.35-.32c0-1.91-1.37-3.38-1.64-5.16C172.17,171.09,172.59,169.78,174.65,171Z"/><path class="cls-5" d="M174.29,178.63c4.11,9.35,4.09,9.3,14.33,5.64,4.92-1.76,10.23-2.56,14.52-5.78,1.6-1.21,4.41-1.77,3.61-4.85,3.2,1.39,1,2.79-.09,4a20.51,20.51,0,0,1-11.09,5.94,55,55,0,0,0-11.9,4.42C175.87,191.15,174.72,190,174.29,178.63Z"/><path class="cls-5" d="M174.65,171c-4.36,1.9.68,4.64-.6,6.82-1.37-2.9-4.2-5.55-1.55-9.13Z"/><path class="cls-9" d="M169.5,189.81c-10.09,4.33-20.71,6.71-31.47,8.53-2.71.46-3.32-.93-1.88-3.18a19.22,19.22,0,0,1,6.51-6.3A81.17,81.17,0,0,1,154,183.14c3.89-1.49,8-5.95,11.3-4.2,2.59,1.37,2.86,7.12,4.16,10.93Z"/><path class="cls-5" d="M202,171.9c-8.69-.28-17.43,1.64-26.09-.46C184.56,171.26,193.31,168.76,202,171.9Z"/><path class="cls-5" d="M206.79,173.67l-4.92-1.79C204.12,170.8,205.75,171.42,206.79,173.67Z"/></svg>